<?xml version="1.0" encoding="UTF-8" standalone="no"?>
<!DOCTYPE svg PUBLIC "-//W3C//DTD SVG 1.1//EN" "http://www.w3.org/Graphics/SVG/1.1/DTD/svg11.dtd">
<svg width="100%" height="100%" viewBox="0 0 1749 1241" version="1.1" xmlns="http://www.w3.org/2000/svg" xmlns:xlink="http://www.w3.org/1999/xlink" xml:space="preserve" xmlns:serif="http://www.serif.com/" style="fill-rule:evenodd;clip-rule:evenodd;stroke-linecap:round;stroke-linejoin:round;stroke-miterlimit:1.5;">
    <g transform="matrix(1,0,0,1,-123.521,-0.221171)">
        <g id="Number-of-schools-and-Residences" serif:id="Number of schools and Residences">
            <g>
                <g transform="matrix(4.16667,0,0,4.16667,0,-1236.93)">
                    <g transform="matrix(8.6968,0,0,8.6968,79.862,369.095)">
                        <path d="M0.093,-0L0.093,-0.723L0.194,-0.723L0.558,-0.165L0.558,-0.723L0.646,-0.723L0.646,-0L0.545,-0L0.181,-0.558L0.181,-0L0.093,-0Z" style="fill:rgb(1,1,1);fill-rule:nonzero;"/>
                    </g>
                    <g transform="matrix(8.6968,0,0,8.6968,85.3978,369.095)">
                        <path d="M0.428,-0L0.428,-0.1C0.377,-0.025 0.315,0.012 0.242,0.012C0.195,0.012 0.159,-0.002 0.131,-0.031C0.104,-0.061 0.09,-0.1 0.09,-0.149L0.09,-0.53L0.187,-0.53L0.187,-0.181C0.187,-0.141 0.192,-0.113 0.204,-0.096C0.215,-0.079 0.235,-0.071 0.262,-0.071C0.32,-0.071 0.376,-0.109 0.428,-0.187L0.428,-0.53L0.524,-0.53L0.524,-0L0.428,-0Z" style="fill:rgb(1,1,1);fill-rule:nonzero;"/>
                    </g>
                    <g transform="matrix(8.6968,0,0,8.6968,89.906,369.095)">
                        <path d="M0.096,-0L0.096,-0.53L0.192,-0.53L0.192,-0.431C0.239,-0.505 0.299,-0.542 0.373,-0.542C0.444,-0.542 0.492,-0.505 0.518,-0.431C0.564,-0.505 0.623,-0.542 0.696,-0.542C0.743,-0.542 0.779,-0.529 0.805,-0.501C0.83,-0.474 0.843,-0.435 0.843,-0.386L0.843,-0L0.747,-0L0.747,-0.371C0.747,-0.431 0.723,-0.461 0.675,-0.461C0.625,-0.461 0.573,-0.426 0.518,-0.355L0.518,-0L0.421,-0L0.421,-0.371C0.421,-0.431 0.397,-0.462 0.348,-0.462C0.3,-0.462 0.248,-0.426 0.192,-0.355L0.192,-0L0.096,-0Z" style="fill:rgb(1,1,1);fill-rule:nonzero;"/>
                    </g>
                    <g transform="matrix(8.6968,0,0,8.6968,97.1361,369.095)">
                        <path d="M0.096,0.006L0.096,-0.771L0.192,-0.771L0.192,-0.431C0.232,-0.505 0.291,-0.542 0.37,-0.542C0.433,-0.542 0.484,-0.519 0.52,-0.472C0.557,-0.426 0.575,-0.362 0.575,-0.281C0.575,-0.193 0.554,-0.122 0.513,-0.069C0.471,-0.015 0.417,0.012 0.349,0.012C0.286,0.012 0.234,-0.012 0.192,-0.06L0.181,0.006L0.096,0.006ZM0.192,-0.126C0.242,-0.082 0.289,-0.06 0.334,-0.06C0.426,-0.06 0.473,-0.131 0.473,-0.271C0.473,-0.396 0.432,-0.458 0.35,-0.458C0.296,-0.458 0.243,-0.429 0.192,-0.371L0.192,-0.126Z" style="fill:rgb(1,1,1);fill-rule:nonzero;"/>
                    </g>
                    <g transform="matrix(8.6968,0,0,8.6968,101.721,369.095)">
                        <path d="M0.485,-0.017C0.42,0.002 0.365,0.012 0.319,0.012C0.241,0.012 0.177,-0.014 0.128,-0.066C0.079,-0.118 0.054,-0.185 0.054,-0.268C0.054,-0.348 0.076,-0.414 0.119,-0.465C0.163,-0.517 0.218,-0.542 0.286,-0.542C0.35,-0.542 0.4,-0.52 0.435,-0.474C0.47,-0.429 0.487,-0.364 0.487,-0.28L0.487,-0.25L0.152,-0.25C0.166,-0.124 0.228,-0.061 0.337,-0.061C0.377,-0.061 0.427,-0.072 0.485,-0.093L0.485,-0.017ZM0.157,-0.322L0.391,-0.322C0.391,-0.421 0.354,-0.47 0.28,-0.47C0.206,-0.47 0.165,-0.421 0.157,-0.322Z" style="fill:rgb(1,1,1);fill-rule:nonzero;"/>
                    </g>
                    <g transform="matrix(8.6968,0,0,8.6968,105.677,369.095)">
                        <path d="M0.096,-0L0.096,-0.53L0.192,-0.53L0.192,-0.431C0.23,-0.505 0.286,-0.542 0.358,-0.542C0.368,-0.542 0.378,-0.541 0.389,-0.54L0.389,-0.45C0.373,-0.455 0.358,-0.458 0.345,-0.458C0.284,-0.458 0.233,-0.422 0.192,-0.35L0.192,-0L0.096,-0Z" style="fill:rgb(1,1,1);fill-rule:nonzero;"/>
                    </g>
                    <g transform="matrix(8.6968,0,0,8.6968,110.227,369.095)">
                        <path d="M0.304,0.012C0.228,0.012 0.167,-0.013 0.122,-0.063C0.077,-0.114 0.054,-0.181 0.054,-0.265C0.054,-0.35 0.077,-0.418 0.122,-0.468C0.168,-0.517 0.229,-0.542 0.307,-0.542C0.385,-0.542 0.447,-0.517 0.492,-0.468C0.537,-0.418 0.56,-0.351 0.56,-0.266C0.56,-0.18 0.537,-0.111 0.492,-0.062C0.446,-0.013 0.383,0.012 0.304,0.012ZM0.305,-0.06C0.407,-0.06 0.458,-0.129 0.458,-0.266C0.458,-0.402 0.408,-0.47 0.307,-0.47C0.207,-0.47 0.157,-0.402 0.157,-0.265C0.157,-0.128 0.206,-0.06 0.305,-0.06Z" style="fill:rgb(1,1,1);fill-rule:nonzero;"/>
                    </g>
                    <g transform="matrix(8.6968,0,0,8.6968,114.68,369.095)">
                        <path d="M0.211,-0.458L0.211,-0L0.114,-0L0.114,-0.458L0.039,-0.458L0.039,-0.53L0.114,-0.53L0.114,-0.594C0.114,-0.72 0.172,-0.783 0.287,-0.783C0.319,-0.783 0.356,-0.778 0.397,-0.767L0.397,-0.691C0.354,-0.704 0.319,-0.711 0.293,-0.711C0.261,-0.711 0.24,-0.703 0.228,-0.688C0.217,-0.673 0.211,-0.645 0.211,-0.604L0.211,-0.53L0.343,-0.53L0.343,-0.458L0.211,-0.458Z" style="fill:rgb(1,1,1);fill-rule:nonzero;"/>
                    </g>
                    <g transform="matrix(8.6968,0,0,8.6968,118.87,369.095)">
                        <path d="M0.237,0.012C0.193,0.012 0.139,0.002 0.077,-0.019L0.077,-0.107C0.139,-0.076 0.194,-0.06 0.241,-0.06C0.268,-0.06 0.291,-0.068 0.31,-0.083C0.328,-0.097 0.337,-0.116 0.337,-0.139C0.337,-0.172 0.311,-0.199 0.26,-0.22L0.204,-0.244C0.121,-0.279 0.08,-0.328 0.08,-0.393C0.08,-0.439 0.096,-0.476 0.129,-0.502C0.161,-0.529 0.206,-0.542 0.263,-0.542C0.293,-0.542 0.329,-0.538 0.373,-0.53L0.393,-0.526L0.393,-0.446C0.339,-0.462 0.297,-0.47 0.265,-0.47C0.203,-0.47 0.172,-0.447 0.172,-0.402C0.172,-0.373 0.196,-0.349 0.243,-0.329L0.289,-0.31C0.341,-0.287 0.379,-0.264 0.4,-0.24C0.422,-0.215 0.433,-0.184 0.433,-0.147C0.433,-0.101 0.415,-0.063 0.378,-0.033C0.341,-0.003 0.294,0.012 0.237,0.012Z" style="fill:rgb(1,1,1);fill-rule:nonzero;"/>
                    </g>
                    <g transform="matrix(8.6968,0,0,8.6968,122.414,369.095)">
                        <path d="M0.303,0.012C0.232,0.012 0.172,-0.014 0.125,-0.067C0.078,-0.12 0.054,-0.187 0.054,-0.268C0.054,-0.354 0.078,-0.422 0.124,-0.47C0.171,-0.518 0.236,-0.542 0.32,-0.542C0.361,-0.542 0.407,-0.536 0.458,-0.525L0.458,-0.444C0.404,-0.46 0.36,-0.468 0.326,-0.468C0.277,-0.468 0.237,-0.45 0.207,-0.413C0.177,-0.376 0.163,-0.327 0.163,-0.265C0.163,-0.206 0.178,-0.157 0.208,-0.121C0.239,-0.084 0.279,-0.065 0.329,-0.065C0.373,-0.065 0.418,-0.077 0.464,-0.099L0.464,-0.016C0.402,0.003 0.348,0.012 0.303,0.012Z" style="fill:rgb(1,1,1);fill-rule:nonzero;"/>
                    </g>
                    <g transform="matrix(8.6968,0,0,8.6968,125.979,369.095)">
                        <path d="M0.096,-0L0.096,-0.771L0.192,-0.771L0.192,-0.431C0.243,-0.505 0.305,-0.542 0.379,-0.542C0.425,-0.542 0.461,-0.527 0.489,-0.498C0.516,-0.469 0.53,-0.43 0.53,-0.381L0.53,-0L0.434,-0L0.434,-0.35C0.434,-0.389 0.428,-0.417 0.416,-0.434C0.405,-0.451 0.386,-0.459 0.359,-0.459C0.3,-0.459 0.244,-0.42 0.192,-0.343L0.192,-0L0.096,-0Z" style="fill:rgb(1,1,1);fill-rule:nonzero;"/>
                    </g>
                    <g transform="matrix(8.6968,0,0,8.6968,130.488,369.095)">
                        <path d="M0.304,0.012C0.228,0.012 0.167,-0.013 0.122,-0.063C0.077,-0.114 0.054,-0.181 0.054,-0.265C0.054,-0.35 0.077,-0.418 0.122,-0.468C0.168,-0.517 0.229,-0.542 0.307,-0.542C0.385,-0.542 0.447,-0.517 0.492,-0.468C0.537,-0.418 0.56,-0.351 0.56,-0.266C0.56,-0.18 0.537,-0.111 0.492,-0.062C0.446,-0.013 0.383,0.012 0.304,0.012ZM0.305,-0.06C0.407,-0.06 0.458,-0.129 0.458,-0.266C0.458,-0.402 0.408,-0.47 0.307,-0.47C0.207,-0.47 0.157,-0.402 0.157,-0.265C0.157,-0.128 0.206,-0.06 0.305,-0.06Z" style="fill:rgb(1,1,1);fill-rule:nonzero;"/>
                    </g>
                    <g transform="matrix(8.6968,0,0,8.6968,134.941,369.095)">
                        <path d="M0.304,0.012C0.228,0.012 0.167,-0.013 0.122,-0.063C0.077,-0.114 0.054,-0.181 0.054,-0.265C0.054,-0.35 0.077,-0.418 0.122,-0.468C0.168,-0.517 0.229,-0.542 0.307,-0.542C0.385,-0.542 0.447,-0.517 0.492,-0.468C0.537,-0.418 0.56,-0.351 0.56,-0.266C0.56,-0.18 0.537,-0.111 0.492,-0.062C0.446,-0.013 0.383,0.012 0.304,0.012ZM0.305,-0.06C0.407,-0.06 0.458,-0.129 0.458,-0.266C0.458,-0.402 0.408,-0.47 0.307,-0.47C0.207,-0.47 0.157,-0.402 0.157,-0.265C0.157,-0.128 0.206,-0.06 0.305,-0.06Z" style="fill:rgb(1,1,1);fill-rule:nonzero;"/>
                    </g>
                    <g transform="matrix(8.6968,0,0,8.6968,139.394,369.095)">
                        <rect x="0.096" y="-0.771" width="0.096" height="0.771" style="fill:rgb(1,1,1);fill-rule:nonzero;"/>
                    </g>
                    <g transform="matrix(8.6968,0,0,8.6968,141.018,369.095)">
                        <path d="M0.237,0.012C0.193,0.012 0.139,0.002 0.077,-0.019L0.077,-0.107C0.139,-0.076 0.194,-0.06 0.241,-0.06C0.268,-0.06 0.291,-0.068 0.31,-0.083C0.328,-0.097 0.337,-0.116 0.337,-0.139C0.337,-0.172 0.311,-0.199 0.26,-0.22L0.204,-0.244C0.121,-0.279 0.08,-0.328 0.08,-0.393C0.08,-0.439 0.096,-0.476 0.129,-0.502C0.161,-0.529 0.206,-0.542 0.263,-0.542C0.293,-0.542 0.329,-0.538 0.373,-0.53L0.393,-0.526L0.393,-0.446C0.339,-0.462 0.297,-0.47 0.265,-0.47C0.203,-0.47 0.172,-0.447 0.172,-0.402C0.172,-0.373 0.196,-0.349 0.243,-0.329L0.289,-0.31C0.341,-0.287 0.379,-0.264 0.4,-0.24C0.422,-0.215 0.433,-0.184 0.433,-0.147C0.433,-0.101 0.415,-0.063 0.378,-0.033C0.341,-0.003 0.294,0.012 0.237,0.012Z" style="fill:rgb(1,1,1);fill-rule:nonzero;"/>
                    </g>
                    <g transform="matrix(8.6968,0,0,8.6968,147.645,369.095)">
                        <path d="M0.37,-0.067C0.312,-0.014 0.257,0.012 0.203,0.012C0.159,0.012 0.123,-0.002 0.094,-0.029C0.065,-0.057 0.05,-0.091 0.05,-0.133C0.05,-0.191 0.075,-0.236 0.123,-0.267C0.172,-0.298 0.242,-0.313 0.333,-0.313L0.355,-0.313L0.355,-0.377C0.355,-0.439 0.324,-0.47 0.261,-0.47C0.21,-0.47 0.155,-0.454 0.096,-0.423L0.096,-0.502C0.161,-0.529 0.222,-0.542 0.278,-0.542C0.338,-0.542 0.381,-0.529 0.409,-0.502C0.438,-0.475 0.452,-0.434 0.452,-0.377L0.452,-0.137C0.452,-0.082 0.469,-0.055 0.502,-0.055C0.507,-0.055 0.513,-0.055 0.521,-0.057L0.528,-0.003C0.506,0.007 0.482,0.012 0.456,0.012C0.411,0.012 0.382,-0.014 0.37,-0.067ZM0.355,-0.12L0.355,-0.257L0.323,-0.258C0.271,-0.258 0.228,-0.248 0.195,-0.228C0.163,-0.208 0.146,-0.181 0.146,-0.149C0.146,-0.126 0.155,-0.106 0.171,-0.09C0.187,-0.074 0.207,-0.066 0.23,-0.066C0.271,-0.066 0.312,-0.084 0.355,-0.12Z" style="fill:rgb(1,1,1);fill-rule:nonzero;"/>
                    </g>
                    <g transform="matrix(8.6968,0,0,8.6968,151.559,369.095)">
                        <path d="M0.096,-0L0.096,-0.53L0.192,-0.53L0.192,-0.431C0.243,-0.505 0.305,-0.542 0.379,-0.542C0.425,-0.542 0.461,-0.527 0.489,-0.498C0.516,-0.469 0.53,-0.43 0.53,-0.381L0.53,-0L0.434,-0L0.434,-0.35C0.434,-0.389 0.428,-0.417 0.416,-0.434C0.405,-0.451 0.386,-0.459 0.359,-0.459C0.3,-0.459 0.244,-0.42 0.192,-0.343L0.192,-0L0.096,-0Z" style="fill:rgb(1,1,1);fill-rule:nonzero;"/>
                    </g>
                    <g transform="matrix(8.6968,0,0,8.6968,156.067,369.095)">
                        <path d="M0.437,-0L0.437,-0.1C0.397,-0.025 0.339,0.012 0.26,0.012C0.196,0.012 0.146,-0.011 0.109,-0.058C0.073,-0.104 0.054,-0.168 0.054,-0.249C0.054,-0.337 0.075,-0.408 0.116,-0.461C0.158,-0.515 0.213,-0.542 0.28,-0.542C0.343,-0.542 0.395,-0.518 0.437,-0.47L0.437,-0.771L0.533,-0.771L0.533,-0L0.437,-0ZM0.437,-0.404C0.387,-0.448 0.34,-0.47 0.295,-0.47C0.203,-0.47 0.157,-0.399 0.157,-0.258C0.157,-0.134 0.198,-0.072 0.28,-0.072C0.333,-0.072 0.385,-0.101 0.437,-0.16L0.437,-0.404Z" style="fill:rgb(1,1,1);fill-rule:nonzero;"/>
                    </g>
                    <g transform="matrix(8.6968,0,0,8.6968,163.273,369.095)">
                        <path d="M0.096,-0L0.096,-0.53L0.192,-0.53L0.192,-0.431C0.23,-0.505 0.286,-0.542 0.358,-0.542C0.368,-0.542 0.378,-0.541 0.389,-0.54L0.389,-0.45C0.373,-0.455 0.358,-0.458 0.345,-0.458C0.284,-0.458 0.233,-0.422 0.192,-0.35L0.192,-0L0.096,-0Z" style="fill:rgb(1,1,1);fill-rule:nonzero;"/>
                    </g>
                    <g transform="matrix(8.6968,0,0,8.6968,165.942,369.095)">
                        <path d="M0.485,-0.017C0.42,0.002 0.365,0.012 0.319,0.012C0.241,0.012 0.177,-0.014 0.128,-0.066C0.079,-0.118 0.054,-0.185 0.054,-0.268C0.054,-0.348 0.076,-0.414 0.119,-0.465C0.163,-0.517 0.218,-0.542 0.286,-0.542C0.35,-0.542 0.4,-0.52 0.435,-0.474C0.47,-0.429 0.487,-0.364 0.487,-0.28L0.487,-0.25L0.152,-0.25C0.166,-0.124 0.228,-0.061 0.337,-0.061C0.377,-0.061 0.427,-0.072 0.485,-0.093L0.485,-0.017ZM0.157,-0.322L0.391,-0.322C0.391,-0.421 0.354,-0.47 0.28,-0.47C0.206,-0.47 0.165,-0.421 0.157,-0.322Z" style="fill:rgb(1,1,1);fill-rule:nonzero;"/>
                    </g>
                    <g transform="matrix(8.6968,0,0,8.6968,169.899,369.095)">
                        <path d="M0.237,0.012C0.193,0.012 0.139,0.002 0.077,-0.019L0.077,-0.107C0.139,-0.076 0.194,-0.06 0.241,-0.06C0.268,-0.06 0.291,-0.068 0.31,-0.083C0.328,-0.097 0.337,-0.116 0.337,-0.139C0.337,-0.172 0.311,-0.199 0.26,-0.22L0.204,-0.244C0.121,-0.279 0.08,-0.328 0.08,-0.393C0.08,-0.439 0.096,-0.476 0.129,-0.502C0.161,-0.529 0.206,-0.542 0.263,-0.542C0.293,-0.542 0.329,-0.538 0.373,-0.53L0.393,-0.526L0.393,-0.446C0.339,-0.462 0.297,-0.47 0.265,-0.47C0.203,-0.47 0.172,-0.447 0.172,-0.402C0.172,-0.373 0.196,-0.349 0.243,-0.329L0.289,-0.31C0.341,-0.287 0.379,-0.264 0.4,-0.24C0.422,-0.215 0.433,-0.184 0.433,-0.147C0.433,-0.101 0.415,-0.063 0.378,-0.033C0.341,-0.003 0.294,0.012 0.237,0.012Z" style="fill:rgb(1,1,1);fill-rule:nonzero;"/>
                    </g>
                    <g transform="matrix(8.6968,0,0,8.6968,173.443,369.095)">
                        <path d="M0.096,-0L0.096,-0.53L0.192,-0.53L0.192,-0L0.096,-0ZM0.096,-0.626L0.096,-0.723L0.192,-0.723L0.192,-0.626L0.096,-0.626Z" style="fill:rgb(1,1,1);fill-rule:nonzero;"/>
                    </g>
                    <g transform="matrix(8.6968,0,0,8.6968,175.068,369.095)">
                        <path d="M0.437,-0L0.437,-0.1C0.397,-0.025 0.339,0.012 0.26,0.012C0.196,0.012 0.146,-0.011 0.109,-0.058C0.073,-0.104 0.054,-0.168 0.054,-0.249C0.054,-0.337 0.075,-0.408 0.116,-0.461C0.158,-0.515 0.213,-0.542 0.28,-0.542C0.343,-0.542 0.395,-0.518 0.437,-0.47L0.437,-0.771L0.533,-0.771L0.533,-0L0.437,-0ZM0.437,-0.404C0.387,-0.448 0.34,-0.47 0.295,-0.47C0.203,-0.47 0.157,-0.399 0.157,-0.258C0.157,-0.134 0.198,-0.072 0.28,-0.072C0.333,-0.072 0.385,-0.101 0.437,-0.16L0.437,-0.404Z" style="fill:rgb(1,1,1);fill-rule:nonzero;"/>
                    </g>
                    <g transform="matrix(8.6968,0,0,8.6968,179.652,369.095)">
                        <path d="M0.485,-0.017C0.42,0.002 0.365,0.012 0.319,0.012C0.241,0.012 0.177,-0.014 0.128,-0.066C0.079,-0.118 0.054,-0.185 0.054,-0.268C0.054,-0.348 0.076,-0.414 0.119,-0.465C0.163,-0.517 0.218,-0.542 0.286,-0.542C0.35,-0.542 0.4,-0.52 0.435,-0.474C0.47,-0.429 0.487,-0.364 0.487,-0.28L0.487,-0.25L0.152,-0.25C0.166,-0.124 0.228,-0.061 0.337,-0.061C0.377,-0.061 0.427,-0.072 0.485,-0.093L0.485,-0.017ZM0.157,-0.322L0.391,-0.322C0.391,-0.421 0.354,-0.47 0.28,-0.47C0.206,-0.47 0.165,-0.421 0.157,-0.322Z" style="fill:rgb(1,1,1);fill-rule:nonzero;"/>
                    </g>
                    <g transform="matrix(8.6968,0,0,8.6968,183.608,369.095)">
                        <path d="M0.096,-0L0.096,-0.53L0.192,-0.53L0.192,-0.431C0.243,-0.505 0.305,-0.542 0.379,-0.542C0.425,-0.542 0.461,-0.527 0.489,-0.498C0.516,-0.469 0.53,-0.43 0.53,-0.381L0.53,-0L0.434,-0L0.434,-0.35C0.434,-0.389 0.428,-0.417 0.416,-0.434C0.405,-0.451 0.386,-0.459 0.359,-0.459C0.3,-0.459 0.244,-0.42 0.192,-0.343L0.192,-0L0.096,-0Z" style="fill:rgb(1,1,1);fill-rule:nonzero;"/>
                    </g>
                    <g transform="matrix(8.6968,0,0,8.6968,188.116,369.095)">
                        <path d="M0.303,0.012C0.232,0.012 0.172,-0.014 0.125,-0.067C0.078,-0.12 0.054,-0.187 0.054,-0.268C0.054,-0.354 0.078,-0.422 0.124,-0.47C0.171,-0.518 0.236,-0.542 0.32,-0.542C0.361,-0.542 0.407,-0.536 0.458,-0.525L0.458,-0.444C0.404,-0.46 0.36,-0.468 0.326,-0.468C0.277,-0.468 0.237,-0.45 0.207,-0.413C0.177,-0.376 0.163,-0.327 0.163,-0.265C0.163,-0.206 0.178,-0.157 0.208,-0.121C0.239,-0.084 0.279,-0.065 0.329,-0.065C0.373,-0.065 0.418,-0.077 0.464,-0.099L0.464,-0.016C0.402,0.003 0.348,0.012 0.303,0.012Z" style="fill:rgb(1,1,1);fill-rule:nonzero;"/>
                    </g>
                    <g transform="matrix(8.6968,0,0,8.6968,191.682,369.095)">
                        <path d="M0.485,-0.017C0.42,0.002 0.365,0.012 0.319,0.012C0.241,0.012 0.177,-0.014 0.128,-0.066C0.079,-0.118 0.054,-0.185 0.054,-0.268C0.054,-0.348 0.076,-0.414 0.119,-0.465C0.163,-0.517 0.218,-0.542 0.286,-0.542C0.35,-0.542 0.4,-0.52 0.435,-0.474C0.47,-0.429 0.487,-0.364 0.487,-0.28L0.487,-0.25L0.152,-0.25C0.166,-0.124 0.228,-0.061 0.337,-0.061C0.377,-0.061 0.427,-0.072 0.485,-0.093L0.485,-0.017ZM0.157,-0.322L0.391,-0.322C0.391,-0.421 0.354,-0.47 0.28,-0.47C0.206,-0.47 0.165,-0.421 0.157,-0.322Z" style="fill:rgb(1,1,1);fill-rule:nonzero;"/>
                    </g>
                    <g transform="matrix(8.6968,0,0,8.6968,195.638,369.095)">
                        <path d="M0.237,0.012C0.193,0.012 0.139,0.002 0.077,-0.019L0.077,-0.107C0.139,-0.076 0.194,-0.06 0.241,-0.06C0.268,-0.06 0.291,-0.068 0.31,-0.083C0.328,-0.097 0.337,-0.116 0.337,-0.139C0.337,-0.172 0.311,-0.199 0.26,-0.22L0.204,-0.244C0.121,-0.279 0.08,-0.328 0.08,-0.393C0.08,-0.439 0.096,-0.476 0.129,-0.502C0.161,-0.529 0.206,-0.542 0.263,-0.542C0.293,-0.542 0.329,-0.538 0.373,-0.53L0.393,-0.526L0.393,-0.446C0.339,-0.462 0.297,-0.47 0.265,-0.47C0.203,-0.47 0.172,-0.447 0.172,-0.402C0.172,-0.373 0.196,-0.349 0.243,-0.329L0.289,-0.31C0.341,-0.287 0.379,-0.264 0.4,-0.24C0.422,-0.215 0.433,-0.184 0.433,-0.147C0.433,-0.101 0.415,-0.063 0.378,-0.033C0.341,-0.003 0.294,0.012 0.237,0.012Z" style="fill:rgb(1,1,1);fill-rule:nonzero;"/>
                    </g>
                </g>
                <g transform="matrix(4.16667,0,0,4.16667,0,-1236.93)">
                    <g transform="matrix(8.6968,0,0,8.6968,67.2343,514.558)">
                        <path d="M0.313,0.018C0.239,0.018 0.179,-0.017 0.133,-0.087C0.087,-0.157 0.063,-0.249 0.063,-0.362C0.063,-0.476 0.087,-0.567 0.133,-0.637C0.179,-0.706 0.241,-0.741 0.316,-0.741C0.392,-0.741 0.453,-0.706 0.5,-0.637C0.546,-0.567 0.569,-0.476 0.569,-0.363C0.569,-0.247 0.546,-0.155 0.5,-0.086C0.453,-0.017 0.391,0.018 0.313,0.018ZM0.314,-0.054C0.416,-0.054 0.467,-0.158 0.467,-0.365C0.467,-0.567 0.417,-0.668 0.316,-0.668C0.216,-0.668 0.166,-0.566 0.166,-0.362C0.166,-0.157 0.215,-0.054 0.314,-0.054Z" style="fill:rgb(1,1,1);fill-rule:nonzero;"/>
                    </g>
                </g>
                <g transform="matrix(4.16667,0,0,4.16667,0,-1236.93)">
                    <g transform="matrix(8.6968,0,0,8.6968,73.1587,527.248)">
                        <path d="M0.15,-0L0.15,-0.072L0.295,-0.072L0.295,-0.643L0.15,-0.606L0.15,-0.681L0.392,-0.741L0.392,-0.072L0.536,-0.072L0.536,-0L0.15,-0Z" style="fill:rgb(1,1,1);fill-rule:nonzero;"/>
                    </g>
                    <g transform="matrix(8.6968,0,0,8.6968,77.7882,527.248)">
                        <path d="M0.23,-0.394C0.159,-0.443 0.124,-0.497 0.124,-0.557C0.124,-0.611 0.144,-0.656 0.184,-0.69C0.224,-0.724 0.276,-0.741 0.341,-0.741C0.4,-0.741 0.449,-0.727 0.486,-0.698C0.523,-0.669 0.541,-0.631 0.541,-0.585C0.541,-0.515 0.496,-0.451 0.406,-0.394C0.515,-0.34 0.57,-0.271 0.57,-0.187C0.57,-0.126 0.547,-0.077 0.501,-0.039C0.455,-0.001 0.396,0.018 0.324,0.018C0.253,0.018 0.196,0 0.152,-0.036C0.108,-0.072 0.086,-0.119 0.086,-0.178C0.086,-0.264 0.134,-0.336 0.23,-0.394ZM0.353,-0.424C0.42,-0.468 0.454,-0.517 0.454,-0.572C0.454,-0.601 0.442,-0.624 0.42,-0.642C0.397,-0.66 0.368,-0.668 0.331,-0.668C0.296,-0.668 0.267,-0.66 0.245,-0.642C0.222,-0.625 0.211,-0.602 0.211,-0.575C0.211,-0.548 0.221,-0.524 0.241,-0.502C0.261,-0.481 0.299,-0.455 0.353,-0.424ZM0.282,-0.354C0.243,-0.325 0.217,-0.298 0.203,-0.276C0.19,-0.254 0.183,-0.226 0.183,-0.193C0.183,-0.152 0.196,-0.118 0.223,-0.093C0.249,-0.067 0.285,-0.054 0.328,-0.054C0.37,-0.054 0.404,-0.065 0.431,-0.087C0.457,-0.109 0.471,-0.137 0.471,-0.172C0.471,-0.2 0.462,-0.224 0.446,-0.243C0.43,-0.262 0.398,-0.286 0.351,-0.314L0.282,-0.354Z" style="fill:rgb(1,1,1);fill-rule:nonzero;"/>
                    </g>
                    <g transform="matrix(8.6968,0,0,8.6968,82.4177,527.248)">
                        <path d="M0.172,-0.375C0.218,-0.434 0.276,-0.464 0.345,-0.464C0.408,-0.464 0.46,-0.443 0.5,-0.401C0.54,-0.359 0.561,-0.306 0.561,-0.24C0.561,-0.165 0.538,-0.103 0.493,-0.055C0.448,-0.006 0.391,0.018 0.321,0.018C0.242,0.018 0.179,-0.014 0.134,-0.078C0.089,-0.142 0.067,-0.231 0.067,-0.345C0.067,-0.471 0.093,-0.568 0.144,-0.637C0.196,-0.707 0.269,-0.741 0.362,-0.741C0.405,-0.741 0.459,-0.732 0.523,-0.714L0.523,-0.63C0.455,-0.656 0.4,-0.669 0.356,-0.669C0.233,-0.669 0.172,-0.571 0.172,-0.375ZM0.464,-0.219C0.464,-0.273 0.452,-0.316 0.427,-0.348C0.402,-0.379 0.368,-0.395 0.325,-0.395C0.284,-0.395 0.249,-0.381 0.22,-0.354C0.19,-0.326 0.176,-0.293 0.176,-0.255C0.176,-0.194 0.19,-0.146 0.218,-0.109C0.245,-0.073 0.282,-0.054 0.328,-0.054C0.369,-0.054 0.402,-0.069 0.427,-0.099C0.452,-0.129 0.464,-0.169 0.464,-0.219Z" style="fill:rgb(1,1,1);fill-rule:nonzero;"/>
                    </g>
                    <g transform="matrix(8.6968,0,0,8.6968,87.0473,527.248)">
                        <path d="M0.15,-0C0.16,-0.056 0.173,-0.105 0.191,-0.146C0.208,-0.187 0.239,-0.243 0.283,-0.315L0.48,-0.632L0.108,-0.632L0.108,-0.723L0.572,-0.723L0.572,-0.632C0.387,-0.359 0.283,-0.148 0.261,-0L0.15,-0Z" style="fill:rgb(1,1,1);fill-rule:nonzero;"/>
                    </g>
                    <g transform="matrix(8.6968,0,0,8.6968,124.531,527.248)">
                        <path d="M0.15,-0L0.15,-0.072L0.295,-0.072L0.295,-0.643L0.15,-0.606L0.15,-0.681L0.392,-0.741L0.392,-0.072L0.536,-0.072L0.536,-0L0.15,-0Z" style="fill:rgb(1,1,1);fill-rule:nonzero;"/>
                    </g>
                    <g transform="matrix(8.6968,0,0,8.6968,129.161,527.248)">
                        <path d="M0.23,-0.394C0.159,-0.443 0.124,-0.497 0.124,-0.557C0.124,-0.611 0.144,-0.656 0.184,-0.69C0.224,-0.724 0.276,-0.741 0.341,-0.741C0.4,-0.741 0.449,-0.727 0.486,-0.698C0.523,-0.669 0.541,-0.631 0.541,-0.585C0.541,-0.515 0.496,-0.451 0.406,-0.394C0.515,-0.34 0.57,-0.271 0.57,-0.187C0.57,-0.126 0.547,-0.077 0.501,-0.039C0.455,-0.001 0.396,0.018 0.324,0.018C0.253,0.018 0.196,0 0.152,-0.036C0.108,-0.072 0.086,-0.119 0.086,-0.178C0.086,-0.264 0.134,-0.336 0.23,-0.394ZM0.353,-0.424C0.42,-0.468 0.454,-0.517 0.454,-0.572C0.454,-0.601 0.442,-0.624 0.42,-0.642C0.397,-0.66 0.368,-0.668 0.331,-0.668C0.296,-0.668 0.267,-0.66 0.245,-0.642C0.222,-0.625 0.211,-0.602 0.211,-0.575C0.211,-0.548 0.221,-0.524 0.241,-0.502C0.261,-0.481 0.299,-0.455 0.353,-0.424ZM0.282,-0.354C0.243,-0.325 0.217,-0.298 0.203,-0.276C0.19,-0.254 0.183,-0.226 0.183,-0.193C0.183,-0.152 0.196,-0.118 0.223,-0.093C0.249,-0.067 0.285,-0.054 0.328,-0.054C0.37,-0.054 0.404,-0.065 0.431,-0.087C0.457,-0.109 0.471,-0.137 0.471,-0.172C0.471,-0.2 0.462,-0.224 0.446,-0.243C0.43,-0.262 0.398,-0.286 0.351,-0.314L0.282,-0.354Z" style="fill:rgb(1,1,1);fill-rule:nonzero;"/>
                    </g>
                    <g transform="matrix(8.6968,0,0,8.6968,133.79,527.248)">
                        <path d="M0.23,-0.394C0.159,-0.443 0.124,-0.497 0.124,-0.557C0.124,-0.611 0.144,-0.656 0.184,-0.69C0.224,-0.724 0.276,-0.741 0.341,-0.741C0.4,-0.741 0.449,-0.727 0.486,-0.698C0.523,-0.669 0.541,-0.631 0.541,-0.585C0.541,-0.515 0.496,-0.451 0.406,-0.394C0.515,-0.34 0.57,-0.271 0.57,-0.187C0.57,-0.126 0.547,-0.077 0.501,-0.039C0.455,-0.001 0.396,0.018 0.324,0.018C0.253,0.018 0.196,0 0.152,-0.036C0.108,-0.072 0.086,-0.119 0.086,-0.178C0.086,-0.264 0.134,-0.336 0.23,-0.394ZM0.353,-0.424C0.42,-0.468 0.454,-0.517 0.454,-0.572C0.454,-0.601 0.442,-0.624 0.42,-0.642C0.397,-0.66 0.368,-0.668 0.331,-0.668C0.296,-0.668 0.267,-0.66 0.245,-0.642C0.222,-0.625 0.211,-0.602 0.211,-0.575C0.211,-0.548 0.221,-0.524 0.241,-0.502C0.261,-0.481 0.299,-0.455 0.353,-0.424ZM0.282,-0.354C0.243,-0.325 0.217,-0.298 0.203,-0.276C0.19,-0.254 0.183,-0.226 0.183,-0.193C0.183,-0.152 0.196,-0.118 0.223,-0.093C0.249,-0.067 0.285,-0.054 0.328,-0.054C0.37,-0.054 0.404,-0.065 0.431,-0.087C0.457,-0.109 0.471,-0.137 0.471,-0.172C0.471,-0.2 0.462,-0.224 0.446,-0.243C0.43,-0.262 0.398,-0.286 0.351,-0.314L0.282,-0.354Z" style="fill:rgb(1,1,1);fill-rule:nonzero;"/>
                    </g>
                    <g transform="matrix(8.6968,0,0,8.6968,138.42,527.248)">
                        <path d="M0.15,-0C0.16,-0.056 0.173,-0.105 0.191,-0.146C0.208,-0.187 0.239,-0.243 0.283,-0.315L0.48,-0.632L0.108,-0.632L0.108,-0.723L0.572,-0.723L0.572,-0.632C0.387,-0.359 0.283,-0.148 0.261,-0L0.15,-0Z" style="fill:rgb(1,1,1);fill-rule:nonzero;"/>
                    </g>
                    <g transform="matrix(8.6968,0,0,8.6968,175.904,527.248)">
                        <path d="M0.15,-0L0.15,-0.072L0.295,-0.072L0.295,-0.643L0.15,-0.606L0.15,-0.681L0.392,-0.741L0.392,-0.072L0.536,-0.072L0.536,-0L0.15,-0Z" style="fill:rgb(1,1,1);fill-rule:nonzero;"/>
                    </g>
                    <g transform="matrix(8.6968,0,0,8.6968,180.533,527.248)">
                        <path d="M0.114,-0.004L0.114,-0.086C0.175,-0.065 0.227,-0.054 0.27,-0.054C0.33,-0.054 0.377,-0.08 0.41,-0.131C0.444,-0.182 0.461,-0.252 0.461,-0.343C0.412,-0.283 0.357,-0.253 0.294,-0.253C0.234,-0.253 0.182,-0.275 0.14,-0.32C0.097,-0.365 0.076,-0.419 0.076,-0.484C0.076,-0.558 0.099,-0.619 0.144,-0.668C0.189,-0.716 0.246,-0.741 0.314,-0.741C0.392,-0.741 0.454,-0.709 0.5,-0.646C0.545,-0.583 0.567,-0.497 0.567,-0.388C0.567,-0.263 0.54,-0.165 0.485,-0.092C0.429,-0.018 0.355,0.018 0.261,0.018C0.223,0.018 0.174,0.011 0.114,-0.004ZM0.172,-0.503C0.172,-0.447 0.185,-0.403 0.21,-0.371C0.235,-0.338 0.269,-0.322 0.312,-0.322C0.353,-0.322 0.387,-0.336 0.416,-0.364C0.445,-0.391 0.459,-0.425 0.459,-0.464C0.459,-0.525 0.446,-0.575 0.418,-0.613C0.39,-0.65 0.353,-0.669 0.308,-0.669C0.266,-0.669 0.233,-0.654 0.209,-0.624C0.184,-0.594 0.172,-0.554 0.172,-0.503Z" style="fill:rgb(1,1,1);fill-rule:nonzero;"/>
                    </g>
                    <g transform="matrix(8.6968,0,0,8.6968,185.163,527.248)">
                        <path d="M0.313,0.018C0.239,0.018 0.179,-0.017 0.133,-0.087C0.087,-0.157 0.063,-0.249 0.063,-0.362C0.063,-0.476 0.087,-0.567 0.133,-0.637C0.179,-0.706 0.241,-0.741 0.316,-0.741C0.392,-0.741 0.453,-0.706 0.5,-0.637C0.546,-0.567 0.569,-0.476 0.569,-0.363C0.569,-0.247 0.546,-0.155 0.5,-0.086C0.453,-0.017 0.391,0.018 0.313,0.018ZM0.314,-0.054C0.416,-0.054 0.467,-0.158 0.467,-0.365C0.467,-0.567 0.417,-0.668 0.316,-0.668C0.216,-0.668 0.166,-0.566 0.166,-0.362C0.166,-0.157 0.215,-0.054 0.314,-0.054Z" style="fill:rgb(1,1,1);fill-rule:nonzero;"/>
                    </g>
                    <g transform="matrix(8.6968,0,0,8.6968,189.792,527.248)">
                        <path d="M0.15,-0C0.16,-0.056 0.173,-0.105 0.191,-0.146C0.208,-0.187 0.239,-0.243 0.283,-0.315L0.48,-0.632L0.108,-0.632L0.108,-0.723L0.572,-0.723L0.572,-0.632C0.387,-0.359 0.283,-0.148 0.261,-0L0.15,-0Z" style="fill:rgb(1,1,1);fill-rule:nonzero;"/>
                    </g>
                    <g transform="matrix(8.6968,0,0,8.6968,227.274,527.248)">
                        <path d="M0.15,-0L0.15,-0.072L0.295,-0.072L0.295,-0.643L0.15,-0.606L0.15,-0.681L0.392,-0.741L0.392,-0.072L0.536,-0.072L0.536,-0L0.15,-0Z" style="fill:rgb(1,1,1);fill-rule:nonzero;"/>
                    </g>
                    <g transform="matrix(8.6968,0,0,8.6968,231.903,527.248)">
                        <path d="M0.114,-0.004L0.114,-0.086C0.175,-0.065 0.227,-0.054 0.27,-0.054C0.33,-0.054 0.377,-0.08 0.41,-0.131C0.444,-0.182 0.461,-0.252 0.461,-0.343C0.412,-0.283 0.357,-0.253 0.294,-0.253C0.234,-0.253 0.182,-0.275 0.14,-0.32C0.097,-0.365 0.076,-0.419 0.076,-0.484C0.076,-0.558 0.099,-0.619 0.144,-0.668C0.189,-0.716 0.246,-0.741 0.314,-0.741C0.392,-0.741 0.454,-0.709 0.5,-0.646C0.545,-0.583 0.567,-0.497 0.567,-0.388C0.567,-0.263 0.54,-0.165 0.485,-0.092C0.429,-0.018 0.355,0.018 0.261,0.018C0.223,0.018 0.174,0.011 0.114,-0.004ZM0.172,-0.503C0.172,-0.447 0.185,-0.403 0.21,-0.371C0.235,-0.338 0.269,-0.322 0.312,-0.322C0.353,-0.322 0.387,-0.336 0.416,-0.364C0.445,-0.391 0.459,-0.425 0.459,-0.464C0.459,-0.525 0.446,-0.575 0.418,-0.613C0.39,-0.65 0.353,-0.669 0.308,-0.669C0.266,-0.669 0.233,-0.654 0.209,-0.624C0.184,-0.594 0.172,-0.554 0.172,-0.503Z" style="fill:rgb(1,1,1);fill-rule:nonzero;"/>
                    </g>
                    <g transform="matrix(8.6968,0,0,8.6968,236.533,527.248)">
                        <path d="M0.083,-0L0.083,-0.084C0.111,-0.15 0.168,-0.221 0.253,-0.298L0.308,-0.348C0.379,-0.412 0.415,-0.475 0.415,-0.539C0.415,-0.579 0.402,-0.611 0.378,-0.634C0.354,-0.657 0.321,-0.668 0.278,-0.668C0.228,-0.668 0.169,-0.649 0.101,-0.61L0.101,-0.695C0.165,-0.726 0.229,-0.741 0.292,-0.741C0.36,-0.741 0.414,-0.722 0.455,-0.686C0.496,-0.65 0.517,-0.601 0.517,-0.541C0.517,-0.498 0.506,-0.459 0.486,-0.426C0.465,-0.392 0.426,-0.352 0.37,-0.304L0.333,-0.272C0.256,-0.207 0.211,-0.144 0.199,-0.084L0.513,-0.084L0.513,-0L0.083,-0Z" style="fill:rgb(1,1,1);fill-rule:nonzero;"/>
                    </g>
                    <g transform="matrix(8.6968,0,0,8.6968,241.162,527.248)">
                        <path d="M0.15,-0C0.16,-0.056 0.173,-0.105 0.191,-0.146C0.208,-0.187 0.239,-0.243 0.283,-0.315L0.48,-0.632L0.108,-0.632L0.108,-0.723L0.572,-0.723L0.572,-0.632C0.387,-0.359 0.283,-0.148 0.261,-0L0.15,-0Z" style="fill:rgb(1,1,1);fill-rule:nonzero;"/>
                    </g>
                    <g transform="matrix(8.6968,0,0,8.6968,278.646,527.248)">
                        <path d="M0.15,-0L0.15,-0.072L0.295,-0.072L0.295,-0.643L0.15,-0.606L0.15,-0.681L0.392,-0.741L0.392,-0.072L0.536,-0.072L0.536,-0L0.15,-0Z" style="fill:rgb(1,1,1);fill-rule:nonzero;"/>
                    </g>
                    <g transform="matrix(8.6968,0,0,8.6968,283.276,527.248)">
                        <path d="M0.114,-0.004L0.114,-0.086C0.175,-0.065 0.227,-0.054 0.27,-0.054C0.33,-0.054 0.377,-0.08 0.41,-0.131C0.444,-0.182 0.461,-0.252 0.461,-0.343C0.412,-0.283 0.357,-0.253 0.294,-0.253C0.234,-0.253 0.182,-0.275 0.14,-0.32C0.097,-0.365 0.076,-0.419 0.076,-0.484C0.076,-0.558 0.099,-0.619 0.144,-0.668C0.189,-0.716 0.246,-0.741 0.314,-0.741C0.392,-0.741 0.454,-0.709 0.5,-0.646C0.545,-0.583 0.567,-0.497 0.567,-0.388C0.567,-0.263 0.54,-0.165 0.485,-0.092C0.429,-0.018 0.355,0.018 0.261,0.018C0.223,0.018 0.174,0.011 0.114,-0.004ZM0.172,-0.503C0.172,-0.447 0.185,-0.403 0.21,-0.371C0.235,-0.338 0.269,-0.322 0.312,-0.322C0.353,-0.322 0.387,-0.336 0.416,-0.364C0.445,-0.391 0.459,-0.425 0.459,-0.464C0.459,-0.525 0.446,-0.575 0.418,-0.613C0.39,-0.65 0.353,-0.669 0.308,-0.669C0.266,-0.669 0.233,-0.654 0.209,-0.624C0.184,-0.594 0.172,-0.554 0.172,-0.503Z" style="fill:rgb(1,1,1);fill-rule:nonzero;"/>
                    </g>
                    <g transform="matrix(8.6968,0,0,8.6968,287.905,527.248)">
                        <path d="M0.376,-0L0.376,-0.205L0.051,-0.205L0.051,-0.277L0.376,-0.723L0.467,-0.723L0.467,-0.283L0.563,-0.283L0.563,-0.205L0.467,-0.205L0.467,-0L0.376,-0ZM0.146,-0.283L0.383,-0.283L0.383,-0.604L0.146,-0.283Z" style="fill:rgb(1,1,1);fill-rule:nonzero;"/>
                    </g>
                    <g transform="matrix(8.6968,0,0,8.6968,292.535,527.248)">
                        <path d="M0.15,-0C0.16,-0.056 0.173,-0.105 0.191,-0.146C0.208,-0.187 0.239,-0.243 0.283,-0.315L0.48,-0.632L0.108,-0.632L0.108,-0.723L0.572,-0.723L0.572,-0.632C0.387,-0.359 0.283,-0.148 0.261,-0L0.15,-0Z" style="fill:rgb(1,1,1);fill-rule:nonzero;"/>
                    </g>
                    <g transform="matrix(8.6968,0,0,8.6968,330.019,527.248)">
                        <path d="M0.15,-0L0.15,-0.072L0.295,-0.072L0.295,-0.643L0.15,-0.606L0.15,-0.681L0.392,-0.741L0.392,-0.072L0.536,-0.072L0.536,-0L0.15,-0Z" style="fill:rgb(1,1,1);fill-rule:nonzero;"/>
                    </g>
                    <g transform="matrix(8.6968,0,0,8.6968,334.648,527.248)">
                        <path d="M0.114,-0.004L0.114,-0.086C0.175,-0.065 0.227,-0.054 0.27,-0.054C0.33,-0.054 0.377,-0.08 0.41,-0.131C0.444,-0.182 0.461,-0.252 0.461,-0.343C0.412,-0.283 0.357,-0.253 0.294,-0.253C0.234,-0.253 0.182,-0.275 0.14,-0.32C0.097,-0.365 0.076,-0.419 0.076,-0.484C0.076,-0.558 0.099,-0.619 0.144,-0.668C0.189,-0.716 0.246,-0.741 0.314,-0.741C0.392,-0.741 0.454,-0.709 0.5,-0.646C0.545,-0.583 0.567,-0.497 0.567,-0.388C0.567,-0.263 0.54,-0.165 0.485,-0.092C0.429,-0.018 0.355,0.018 0.261,0.018C0.223,0.018 0.174,0.011 0.114,-0.004ZM0.172,-0.503C0.172,-0.447 0.185,-0.403 0.21,-0.371C0.235,-0.338 0.269,-0.322 0.312,-0.322C0.353,-0.322 0.387,-0.336 0.416,-0.364C0.445,-0.391 0.459,-0.425 0.459,-0.464C0.459,-0.525 0.446,-0.575 0.418,-0.613C0.39,-0.65 0.353,-0.669 0.308,-0.669C0.266,-0.669 0.233,-0.654 0.209,-0.624C0.184,-0.594 0.172,-0.554 0.172,-0.503Z" style="fill:rgb(1,1,1);fill-rule:nonzero;"/>
                    </g>
                    <g transform="matrix(8.6968,0,0,8.6968,339.278,527.248)">
                        <path d="M0.172,-0.375C0.218,-0.434 0.276,-0.464 0.345,-0.464C0.408,-0.464 0.46,-0.443 0.5,-0.401C0.54,-0.359 0.561,-0.306 0.561,-0.24C0.561,-0.165 0.538,-0.103 0.493,-0.055C0.448,-0.006 0.391,0.018 0.321,0.018C0.242,0.018 0.179,-0.014 0.134,-0.078C0.089,-0.142 0.067,-0.231 0.067,-0.345C0.067,-0.471 0.093,-0.568 0.144,-0.637C0.196,-0.707 0.269,-0.741 0.362,-0.741C0.405,-0.741 0.459,-0.732 0.523,-0.714L0.523,-0.63C0.455,-0.656 0.4,-0.669 0.356,-0.669C0.233,-0.669 0.172,-0.571 0.172,-0.375ZM0.464,-0.219C0.464,-0.273 0.452,-0.316 0.427,-0.348C0.402,-0.379 0.368,-0.395 0.325,-0.395C0.284,-0.395 0.249,-0.381 0.22,-0.354C0.19,-0.326 0.176,-0.293 0.176,-0.255C0.176,-0.194 0.19,-0.146 0.218,-0.109C0.245,-0.073 0.282,-0.054 0.328,-0.054C0.369,-0.054 0.402,-0.069 0.427,-0.099C0.452,-0.129 0.464,-0.169 0.464,-0.219Z" style="fill:rgb(1,1,1);fill-rule:nonzero;"/>
                    </g>
                    <g transform="matrix(8.6968,0,0,8.6968,343.907,527.248)">
                        <path d="M0.15,-0C0.16,-0.056 0.173,-0.105 0.191,-0.146C0.208,-0.187 0.239,-0.243 0.283,-0.315L0.48,-0.632L0.108,-0.632L0.108,-0.723L0.572,-0.723L0.572,-0.632C0.387,-0.359 0.283,-0.148 0.261,-0L0.15,-0Z" style="fill:rgb(1,1,1);fill-rule:nonzero;"/>
                    </g>
                    <g transform="matrix(8.6968,0,0,8.6968,381.391,527.248)">
                        <path d="M0.15,-0L0.15,-0.072L0.295,-0.072L0.295,-0.643L0.15,-0.606L0.15,-0.681L0.392,-0.741L0.392,-0.072L0.536,-0.072L0.536,-0L0.15,-0Z" style="fill:rgb(1,1,1);fill-rule:nonzero;"/>
                    </g>
                    <g transform="matrix(8.6968,0,0,8.6968,386.021,527.248)">
                        <path d="M0.114,-0.004L0.114,-0.086C0.175,-0.065 0.227,-0.054 0.27,-0.054C0.33,-0.054 0.377,-0.08 0.41,-0.131C0.444,-0.182 0.461,-0.252 0.461,-0.343C0.412,-0.283 0.357,-0.253 0.294,-0.253C0.234,-0.253 0.182,-0.275 0.14,-0.32C0.097,-0.365 0.076,-0.419 0.076,-0.484C0.076,-0.558 0.099,-0.619 0.144,-0.668C0.189,-0.716 0.246,-0.741 0.314,-0.741C0.392,-0.741 0.454,-0.709 0.5,-0.646C0.545,-0.583 0.567,-0.497 0.567,-0.388C0.567,-0.263 0.54,-0.165 0.485,-0.092C0.429,-0.018 0.355,0.018 0.261,0.018C0.223,0.018 0.174,0.011 0.114,-0.004ZM0.172,-0.503C0.172,-0.447 0.185,-0.403 0.21,-0.371C0.235,-0.338 0.269,-0.322 0.312,-0.322C0.353,-0.322 0.387,-0.336 0.416,-0.364C0.445,-0.391 0.459,-0.425 0.459,-0.464C0.459,-0.525 0.446,-0.575 0.418,-0.613C0.39,-0.65 0.353,-0.669 0.308,-0.669C0.266,-0.669 0.233,-0.654 0.209,-0.624C0.184,-0.594 0.172,-0.554 0.172,-0.503Z" style="fill:rgb(1,1,1);fill-rule:nonzero;"/>
                    </g>
                    <g transform="matrix(8.6968,0,0,8.6968,390.65,527.248)">
                        <path d="M0.23,-0.394C0.159,-0.443 0.124,-0.497 0.124,-0.557C0.124,-0.611 0.144,-0.656 0.184,-0.69C0.224,-0.724 0.276,-0.741 0.341,-0.741C0.4,-0.741 0.449,-0.727 0.486,-0.698C0.523,-0.669 0.541,-0.631 0.541,-0.585C0.541,-0.515 0.496,-0.451 0.406,-0.394C0.515,-0.34 0.57,-0.271 0.57,-0.187C0.57,-0.126 0.547,-0.077 0.501,-0.039C0.455,-0.001 0.396,0.018 0.324,0.018C0.253,0.018 0.196,0 0.152,-0.036C0.108,-0.072 0.086,-0.119 0.086,-0.178C0.086,-0.264 0.134,-0.336 0.23,-0.394ZM0.353,-0.424C0.42,-0.468 0.454,-0.517 0.454,-0.572C0.454,-0.601 0.442,-0.624 0.42,-0.642C0.397,-0.66 0.368,-0.668 0.331,-0.668C0.296,-0.668 0.267,-0.66 0.245,-0.642C0.222,-0.625 0.211,-0.602 0.211,-0.575C0.211,-0.548 0.221,-0.524 0.241,-0.502C0.261,-0.481 0.299,-0.455 0.353,-0.424ZM0.282,-0.354C0.243,-0.325 0.217,-0.298 0.203,-0.276C0.19,-0.254 0.183,-0.226 0.183,-0.193C0.183,-0.152 0.196,-0.118 0.223,-0.093C0.249,-0.067 0.285,-0.054 0.328,-0.054C0.37,-0.054 0.404,-0.065 0.431,-0.087C0.457,-0.109 0.471,-0.137 0.471,-0.172C0.471,-0.2 0.462,-0.224 0.446,-0.243C0.43,-0.262 0.398,-0.286 0.351,-0.314L0.282,-0.354Z" style="fill:rgb(1,1,1);fill-rule:nonzero;"/>
                    </g>
                    <g transform="matrix(8.6968,0,0,8.6968,395.28,527.248)">
                        <path d="M0.15,-0C0.16,-0.056 0.173,-0.105 0.191,-0.146C0.208,-0.187 0.239,-0.243 0.283,-0.315L0.48,-0.632L0.108,-0.632L0.108,-0.723L0.572,-0.723L0.572,-0.632C0.387,-0.359 0.283,-0.148 0.261,-0L0.15,-0Z" style="fill:rgb(1,1,1);fill-rule:nonzero;"/>
                    </g>
                </g>
                <g transform="matrix(4.16667,0,0,4.16667,0,-1236.93)">
                    <g transform="matrix(8.6968,0,0,8.6968,63.2965,500.897)">
                        <path d="M0.15,-0L0.15,-0.072L0.295,-0.072L0.295,-0.643L0.15,-0.606L0.15,-0.681L0.392,-0.741L0.392,-0.072L0.536,-0.072L0.536,-0L0.15,-0Z" style="fill:rgb(1,1,1);fill-rule:nonzero;"/>
                    </g>
                    <g transform="matrix(8.6968,0,0,8.6968,68.3609,500.897)">
                        <path d="M0.313,0.018C0.239,0.018 0.179,-0.017 0.133,-0.087C0.087,-0.157 0.063,-0.249 0.063,-0.362C0.063,-0.476 0.087,-0.567 0.133,-0.637C0.179,-0.706 0.241,-0.741 0.316,-0.741C0.392,-0.741 0.453,-0.706 0.5,-0.637C0.546,-0.567 0.569,-0.476 0.569,-0.363C0.569,-0.247 0.546,-0.155 0.5,-0.086C0.453,-0.017 0.391,0.018 0.313,0.018ZM0.314,-0.054C0.416,-0.054 0.467,-0.158 0.467,-0.365C0.467,-0.567 0.417,-0.668 0.316,-0.668C0.216,-0.668 0.166,-0.566 0.166,-0.362C0.166,-0.157 0.215,-0.054 0.314,-0.054Z" style="fill:rgb(1,1,1);fill-rule:nonzero;"/>
                    </g>
                </g>
                <g transform="matrix(4.16667,0,0,4.16667,0,-1236.93)">
                    <g transform="matrix(8.6968,0,0,8.6968,63.2965,487.234)">
                        <path d="M0.083,-0L0.083,-0.084C0.111,-0.15 0.168,-0.221 0.253,-0.298L0.308,-0.348C0.379,-0.412 0.415,-0.475 0.415,-0.539C0.415,-0.579 0.402,-0.611 0.378,-0.634C0.354,-0.657 0.321,-0.668 0.278,-0.668C0.228,-0.668 0.169,-0.649 0.101,-0.61L0.101,-0.695C0.165,-0.726 0.229,-0.741 0.292,-0.741C0.36,-0.741 0.414,-0.722 0.455,-0.686C0.496,-0.65 0.517,-0.601 0.517,-0.541C0.517,-0.498 0.506,-0.459 0.486,-0.426C0.465,-0.392 0.426,-0.352 0.37,-0.304L0.333,-0.272C0.256,-0.207 0.211,-0.144 0.199,-0.084L0.513,-0.084L0.513,-0L0.083,-0Z" style="fill:rgb(1,1,1);fill-rule:nonzero;"/>
                    </g>
                    <g transform="matrix(8.6968,0,0,8.6968,68.3609,487.234)">
                        <path d="M0.313,0.018C0.239,0.018 0.179,-0.017 0.133,-0.087C0.087,-0.157 0.063,-0.249 0.063,-0.362C0.063,-0.476 0.087,-0.567 0.133,-0.637C0.179,-0.706 0.241,-0.741 0.316,-0.741C0.392,-0.741 0.453,-0.706 0.5,-0.637C0.546,-0.567 0.569,-0.476 0.569,-0.363C0.569,-0.247 0.546,-0.155 0.5,-0.086C0.453,-0.017 0.391,0.018 0.313,0.018ZM0.314,-0.054C0.416,-0.054 0.467,-0.158 0.467,-0.365C0.467,-0.567 0.417,-0.668 0.316,-0.668C0.216,-0.668 0.166,-0.566 0.166,-0.362C0.166,-0.157 0.215,-0.054 0.314,-0.054Z" style="fill:rgb(1,1,1);fill-rule:nonzero;"/>
                    </g>
                </g>
                <g transform="matrix(4.16667,0,0,4.16667,0,-1236.93)">
                    <g transform="matrix(8.6968,0,0,8.6968,63.2965,473.572)">
                        <path d="M0.102,-0.005L0.102,-0.095C0.171,-0.068 0.225,-0.054 0.265,-0.054C0.311,-0.054 0.348,-0.068 0.377,-0.094C0.406,-0.121 0.42,-0.156 0.42,-0.199C0.42,-0.3 0.349,-0.351 0.207,-0.351L0.168,-0.351L0.168,-0.416L0.202,-0.417C0.336,-0.417 0.402,-0.464 0.402,-0.558C0.402,-0.632 0.358,-0.668 0.271,-0.668C0.222,-0.668 0.169,-0.655 0.111,-0.628L0.111,-0.712C0.168,-0.731 0.224,-0.741 0.277,-0.741C0.425,-0.741 0.499,-0.685 0.499,-0.573C0.499,-0.488 0.449,-0.428 0.348,-0.392C0.465,-0.365 0.523,-0.301 0.523,-0.2C0.523,-0.132 0.5,-0.079 0.456,-0.04C0.411,-0.001 0.349,0.018 0.271,0.018C0.226,0.018 0.17,0.01 0.102,-0.005Z" style="fill:rgb(1,1,1);fill-rule:nonzero;"/>
                    </g>
                    <g transform="matrix(8.6968,0,0,8.6968,68.3609,473.572)">
                        <path d="M0.313,0.018C0.239,0.018 0.179,-0.017 0.133,-0.087C0.087,-0.157 0.063,-0.249 0.063,-0.362C0.063,-0.476 0.087,-0.567 0.133,-0.637C0.179,-0.706 0.241,-0.741 0.316,-0.741C0.392,-0.741 0.453,-0.706 0.5,-0.637C0.546,-0.567 0.569,-0.476 0.569,-0.363C0.569,-0.247 0.546,-0.155 0.5,-0.086C0.453,-0.017 0.391,0.018 0.313,0.018ZM0.314,-0.054C0.416,-0.054 0.467,-0.158 0.467,-0.365C0.467,-0.567 0.417,-0.668 0.316,-0.668C0.216,-0.668 0.166,-0.566 0.166,-0.362C0.166,-0.157 0.215,-0.054 0.314,-0.054Z" style="fill:rgb(1,1,1);fill-rule:nonzero;"/>
                    </g>
                </g>
                <g transform="matrix(4.16667,0,0,4.16667,0,-1236.93)">
                    <g transform="matrix(8.6968,0,0,8.6968,63.2965,459.909)">
                        <path d="M0.376,-0L0.376,-0.205L0.051,-0.205L0.051,-0.277L0.376,-0.723L0.467,-0.723L0.467,-0.283L0.563,-0.283L0.563,-0.205L0.467,-0.205L0.467,-0L0.376,-0ZM0.146,-0.283L0.383,-0.283L0.383,-0.604L0.146,-0.283Z" style="fill:rgb(1,1,1);fill-rule:nonzero;"/>
                    </g>
                    <g transform="matrix(8.6968,0,0,8.6968,68.3609,459.909)">
                        <path d="M0.313,0.018C0.239,0.018 0.179,-0.017 0.133,-0.087C0.087,-0.157 0.063,-0.249 0.063,-0.362C0.063,-0.476 0.087,-0.567 0.133,-0.637C0.179,-0.706 0.241,-0.741 0.316,-0.741C0.392,-0.741 0.453,-0.706 0.5,-0.637C0.546,-0.567 0.569,-0.476 0.569,-0.363C0.569,-0.247 0.546,-0.155 0.5,-0.086C0.453,-0.017 0.391,0.018 0.313,0.018ZM0.314,-0.054C0.416,-0.054 0.467,-0.158 0.467,-0.365C0.467,-0.567 0.417,-0.668 0.316,-0.668C0.216,-0.668 0.166,-0.566 0.166,-0.362C0.166,-0.157 0.215,-0.054 0.314,-0.054Z" style="fill:rgb(1,1,1);fill-rule:nonzero;"/>
                    </g>
                </g>
                <g transform="matrix(4.16667,0,0,4.16667,0,-1236.93)">
                    <g transform="matrix(8.6968,0,0,8.6968,63.2965,446.246)">
                        <path d="M0.122,0.003L0.122,-0.083C0.169,-0.064 0.215,-0.054 0.258,-0.054C0.306,-0.054 0.343,-0.068 0.37,-0.096C0.398,-0.124 0.411,-0.163 0.411,-0.212C0.411,-0.32 0.336,-0.375 0.187,-0.375C0.17,-0.375 0.152,-0.373 0.134,-0.371L0.134,-0.723L0.5,-0.723L0.5,-0.639L0.218,-0.639L0.218,-0.448C0.311,-0.448 0.383,-0.427 0.436,-0.384C0.488,-0.342 0.514,-0.283 0.514,-0.207C0.514,-0.137 0.49,-0.082 0.443,-0.042C0.395,-0.002 0.33,0.018 0.246,0.018C0.209,0.018 0.168,0.013 0.122,0.003Z" style="fill:rgb(1,1,1);fill-rule:nonzero;"/>
                    </g>
                    <g transform="matrix(8.6968,0,0,8.6968,68.3609,446.246)">
                        <path d="M0.313,0.018C0.239,0.018 0.179,-0.017 0.133,-0.087C0.087,-0.157 0.063,-0.249 0.063,-0.362C0.063,-0.476 0.087,-0.567 0.133,-0.637C0.179,-0.706 0.241,-0.741 0.316,-0.741C0.392,-0.741 0.453,-0.706 0.5,-0.637C0.546,-0.567 0.569,-0.476 0.569,-0.363C0.569,-0.247 0.546,-0.155 0.5,-0.086C0.453,-0.017 0.391,0.018 0.313,0.018ZM0.314,-0.054C0.416,-0.054 0.467,-0.158 0.467,-0.365C0.467,-0.567 0.417,-0.668 0.316,-0.668C0.216,-0.668 0.166,-0.566 0.166,-0.362C0.166,-0.157 0.215,-0.054 0.314,-0.054Z" style="fill:rgb(1,1,1);fill-rule:nonzero;"/>
                    </g>
                </g>
                <g transform="matrix(4.16667,0,0,4.16667,0,-1236.93)">
                    <g transform="matrix(8.6968,0,0,8.6968,63.2965,432.583)">
                        <path d="M0.172,-0.375C0.218,-0.434 0.276,-0.464 0.345,-0.464C0.408,-0.464 0.46,-0.443 0.5,-0.401C0.54,-0.359 0.561,-0.306 0.561,-0.24C0.561,-0.165 0.538,-0.103 0.493,-0.055C0.448,-0.006 0.391,0.018 0.321,0.018C0.242,0.018 0.179,-0.014 0.134,-0.078C0.089,-0.142 0.067,-0.231 0.067,-0.345C0.067,-0.471 0.093,-0.568 0.144,-0.637C0.196,-0.707 0.269,-0.741 0.362,-0.741C0.405,-0.741 0.459,-0.732 0.523,-0.714L0.523,-0.63C0.455,-0.656 0.4,-0.669 0.356,-0.669C0.233,-0.669 0.172,-0.571 0.172,-0.375ZM0.464,-0.219C0.464,-0.273 0.452,-0.316 0.427,-0.348C0.402,-0.379 0.368,-0.395 0.325,-0.395C0.284,-0.395 0.249,-0.381 0.22,-0.354C0.19,-0.326 0.176,-0.293 0.176,-0.255C0.176,-0.194 0.19,-0.146 0.218,-0.109C0.245,-0.073 0.282,-0.054 0.328,-0.054C0.369,-0.054 0.402,-0.069 0.427,-0.099C0.452,-0.129 0.464,-0.169 0.464,-0.219Z" style="fill:rgb(1,1,1);fill-rule:nonzero;"/>
                    </g>
                    <g transform="matrix(8.6968,0,0,8.6968,68.3609,432.583)">
                        <path d="M0.313,0.018C0.239,0.018 0.179,-0.017 0.133,-0.087C0.087,-0.157 0.063,-0.249 0.063,-0.362C0.063,-0.476 0.087,-0.567 0.133,-0.637C0.179,-0.706 0.241,-0.741 0.316,-0.741C0.392,-0.741 0.453,-0.706 0.5,-0.637C0.546,-0.567 0.569,-0.476 0.569,-0.363C0.569,-0.247 0.546,-0.155 0.5,-0.086C0.453,-0.017 0.391,0.018 0.313,0.018ZM0.314,-0.054C0.416,-0.054 0.467,-0.158 0.467,-0.365C0.467,-0.567 0.417,-0.668 0.316,-0.668C0.216,-0.668 0.166,-0.566 0.166,-0.362C0.166,-0.157 0.215,-0.054 0.314,-0.054Z" style="fill:rgb(1,1,1);fill-rule:nonzero;"/>
                    </g>
                </g>
                <g transform="matrix(4.16667,0,0,4.16667,0,-1236.93)">
                    <g transform="matrix(8.6968,0,0,8.6968,63.2965,418.921)">
                        <path d="M0.15,-0C0.16,-0.056 0.173,-0.105 0.191,-0.146C0.208,-0.187 0.239,-0.243 0.283,-0.315L0.48,-0.632L0.108,-0.632L0.108,-0.723L0.572,-0.723L0.572,-0.632C0.387,-0.359 0.283,-0.148 0.261,-0L0.15,-0Z" style="fill:rgb(1,1,1);fill-rule:nonzero;"/>
                    </g>
                    <g transform="matrix(8.6968,0,0,8.6968,68.3609,418.921)">
                        <path d="M0.313,0.018C0.239,0.018 0.179,-0.017 0.133,-0.087C0.087,-0.157 0.063,-0.249 0.063,-0.362C0.063,-0.476 0.087,-0.567 0.133,-0.637C0.179,-0.706 0.241,-0.741 0.316,-0.741C0.392,-0.741 0.453,-0.706 0.5,-0.637C0.546,-0.567 0.569,-0.476 0.569,-0.363C0.569,-0.247 0.546,-0.155 0.5,-0.086C0.453,-0.017 0.391,0.018 0.313,0.018ZM0.314,-0.054C0.416,-0.054 0.467,-0.158 0.467,-0.365C0.467,-0.567 0.417,-0.668 0.316,-0.668C0.216,-0.668 0.166,-0.566 0.166,-0.362C0.166,-0.157 0.215,-0.054 0.314,-0.054Z" style="fill:rgb(1,1,1);fill-rule:nonzero;"/>
                    </g>
                </g>
                <g transform="matrix(4.16667,0,0,4.16667,0,-1236.93)">
                    <g transform="matrix(8.6968,0,0,8.6968,63.2965,405.258)">
                        <path d="M0.23,-0.394C0.159,-0.443 0.124,-0.497 0.124,-0.557C0.124,-0.611 0.144,-0.656 0.184,-0.69C0.224,-0.724 0.276,-0.741 0.341,-0.741C0.4,-0.741 0.449,-0.727 0.486,-0.698C0.523,-0.669 0.541,-0.631 0.541,-0.585C0.541,-0.515 0.496,-0.451 0.406,-0.394C0.515,-0.34 0.57,-0.271 0.57,-0.187C0.57,-0.126 0.547,-0.077 0.501,-0.039C0.455,-0.001 0.396,0.018 0.324,0.018C0.253,0.018 0.196,0 0.152,-0.036C0.108,-0.072 0.086,-0.119 0.086,-0.178C0.086,-0.264 0.134,-0.336 0.23,-0.394ZM0.353,-0.424C0.42,-0.468 0.454,-0.517 0.454,-0.572C0.454,-0.601 0.442,-0.624 0.42,-0.642C0.397,-0.66 0.368,-0.668 0.331,-0.668C0.296,-0.668 0.267,-0.66 0.245,-0.642C0.222,-0.625 0.211,-0.602 0.211,-0.575C0.211,-0.548 0.221,-0.524 0.241,-0.502C0.261,-0.481 0.299,-0.455 0.353,-0.424ZM0.282,-0.354C0.243,-0.325 0.217,-0.298 0.203,-0.276C0.19,-0.254 0.183,-0.226 0.183,-0.193C0.183,-0.152 0.196,-0.118 0.223,-0.093C0.249,-0.067 0.285,-0.054 0.328,-0.054C0.37,-0.054 0.404,-0.065 0.431,-0.087C0.457,-0.109 0.471,-0.137 0.471,-0.172C0.471,-0.2 0.462,-0.224 0.446,-0.243C0.43,-0.262 0.398,-0.286 0.351,-0.314L0.282,-0.354Z" style="fill:rgb(1,1,1);fill-rule:nonzero;"/>
                    </g>
                    <g transform="matrix(8.6968,0,0,8.6968,68.3609,405.258)">
                        <path d="M0.313,0.018C0.239,0.018 0.179,-0.017 0.133,-0.087C0.087,-0.157 0.063,-0.249 0.063,-0.362C0.063,-0.476 0.087,-0.567 0.133,-0.637C0.179,-0.706 0.241,-0.741 0.316,-0.741C0.392,-0.741 0.453,-0.706 0.5,-0.637C0.546,-0.567 0.569,-0.476 0.569,-0.363C0.569,-0.247 0.546,-0.155 0.5,-0.086C0.453,-0.017 0.391,0.018 0.313,0.018ZM0.314,-0.054C0.416,-0.054 0.467,-0.158 0.467,-0.365C0.467,-0.567 0.417,-0.668 0.316,-0.668C0.216,-0.668 0.166,-0.566 0.166,-0.362C0.166,-0.157 0.215,-0.054 0.314,-0.054Z" style="fill:rgb(1,1,1);fill-rule:nonzero;"/>
                    </g>
                </g>
                <g transform="matrix(4.16667,0,0,4.16667,0,-1236.93)">
                    <g transform="matrix(8.6968,0,0,8.6968,63.2965,391.595)">
                        <path d="M0.114,-0.004L0.114,-0.086C0.175,-0.065 0.227,-0.054 0.27,-0.054C0.33,-0.054 0.377,-0.08 0.41,-0.131C0.444,-0.182 0.461,-0.252 0.461,-0.343C0.412,-0.283 0.357,-0.253 0.294,-0.253C0.234,-0.253 0.182,-0.275 0.14,-0.32C0.097,-0.365 0.076,-0.419 0.076,-0.484C0.076,-0.558 0.099,-0.619 0.144,-0.668C0.189,-0.716 0.246,-0.741 0.314,-0.741C0.392,-0.741 0.454,-0.709 0.5,-0.646C0.545,-0.583 0.567,-0.497 0.567,-0.388C0.567,-0.263 0.54,-0.165 0.485,-0.092C0.429,-0.018 0.355,0.018 0.261,0.018C0.223,0.018 0.174,0.011 0.114,-0.004ZM0.172,-0.503C0.172,-0.447 0.185,-0.403 0.21,-0.371C0.235,-0.338 0.269,-0.322 0.312,-0.322C0.353,-0.322 0.387,-0.336 0.416,-0.364C0.445,-0.391 0.459,-0.425 0.459,-0.464C0.459,-0.525 0.446,-0.575 0.418,-0.613C0.39,-0.65 0.353,-0.669 0.308,-0.669C0.266,-0.669 0.233,-0.654 0.209,-0.624C0.184,-0.594 0.172,-0.554 0.172,-0.503Z" style="fill:rgb(1,1,1);fill-rule:nonzero;"/>
                    </g>
                    <g transform="matrix(8.6968,0,0,8.6968,68.3609,391.595)">
                        <path d="M0.313,0.018C0.239,0.018 0.179,-0.017 0.133,-0.087C0.087,-0.157 0.063,-0.249 0.063,-0.362C0.063,-0.476 0.087,-0.567 0.133,-0.637C0.179,-0.706 0.241,-0.741 0.316,-0.741C0.392,-0.741 0.453,-0.706 0.5,-0.637C0.546,-0.567 0.569,-0.476 0.569,-0.363C0.569,-0.247 0.546,-0.155 0.5,-0.086C0.453,-0.017 0.391,0.018 0.313,0.018ZM0.314,-0.054C0.416,-0.054 0.467,-0.158 0.467,-0.365C0.467,-0.567 0.417,-0.668 0.316,-0.668C0.216,-0.668 0.166,-0.566 0.166,-0.362C0.166,-0.157 0.215,-0.054 0.314,-0.054Z" style="fill:rgb(1,1,1);fill-rule:nonzero;"/>
                    </g>
                </g>
                <g transform="matrix(4.16667,0,0,4.16667,0,-1236.93)">
                    <g transform="matrix(8.6968,0,0,8.6968,59.383,377.933)">
                        <path d="M0.15,-0L0.15,-0.072L0.295,-0.072L0.295,-0.643L0.15,-0.606L0.15,-0.681L0.392,-0.741L0.392,-0.072L0.536,-0.072L0.536,-0L0.15,-0Z" style="fill:rgb(1,1,1);fill-rule:nonzero;"/>
                    </g>
                    <g transform="matrix(8.6968,0,0,8.6968,64.4473,377.933)">
                        <path d="M0.313,0.018C0.239,0.018 0.179,-0.017 0.133,-0.087C0.087,-0.157 0.063,-0.249 0.063,-0.362C0.063,-0.476 0.087,-0.567 0.133,-0.637C0.179,-0.706 0.241,-0.741 0.316,-0.741C0.392,-0.741 0.453,-0.706 0.5,-0.637C0.546,-0.567 0.569,-0.476 0.569,-0.363C0.569,-0.247 0.546,-0.155 0.5,-0.086C0.453,-0.017 0.391,0.018 0.313,0.018ZM0.314,-0.054C0.416,-0.054 0.467,-0.158 0.467,-0.365C0.467,-0.567 0.417,-0.668 0.316,-0.668C0.216,-0.668 0.166,-0.566 0.166,-0.362C0.166,-0.157 0.215,-0.054 0.314,-0.054Z" style="fill:rgb(1,1,1);fill-rule:nonzero;"/>
                    </g>
                    <g transform="matrix(8.6968,0,0,8.6968,69.5117,377.933)">
                        <path d="M0.313,0.018C0.239,0.018 0.179,-0.017 0.133,-0.087C0.087,-0.157 0.063,-0.249 0.063,-0.362C0.063,-0.476 0.087,-0.567 0.133,-0.637C0.179,-0.706 0.241,-0.741 0.316,-0.741C0.392,-0.741 0.453,-0.706 0.5,-0.637C0.546,-0.567 0.569,-0.476 0.569,-0.363C0.569,-0.247 0.546,-0.155 0.5,-0.086C0.453,-0.017 0.391,0.018 0.313,0.018ZM0.314,-0.054C0.416,-0.054 0.467,-0.158 0.467,-0.365C0.467,-0.567 0.417,-0.668 0.316,-0.668C0.216,-0.668 0.166,-0.566 0.166,-0.362C0.166,-0.157 0.215,-0.054 0.314,-0.054Z" style="fill:rgb(1,1,1);fill-rule:nonzero;"/>
                    </g>
                </g>
                <g transform="matrix(0,-4.16667,-4.16667,0,672.434,611.621)">
                    <path d="M-68.759,68.759L68.759,68.759" style="fill:none;fill-rule:nonzero;stroke:rgb(147,149,152);stroke-width:0.48px;"/>
                </g>
                <g transform="matrix(0,-4.16667,-4.16667,0,714.98,611.621)">
                    <path d="M-68.759,68.759L68.759,68.759" style="fill:none;fill-rule:nonzero;stroke:rgb(147,149,152);stroke-width:0.48px;"/>
                </g>
                <g transform="matrix(0,-4.16667,-4.16667,0,757.545,611.621)">
                    <path d="M-68.759,68.759L68.759,68.759" style="fill:none;fill-rule:nonzero;stroke:rgb(147,149,152);stroke-width:0.48px;"/>
                </g>
                <g transform="matrix(0,-4.16667,-4.16667,0,800.092,611.621)">
                    <path d="M-68.759,68.759L68.759,68.759" style="fill:none;fill-rule:nonzero;stroke:rgb(147,149,152);stroke-width:0.48px;"/>
                </g>
                <g transform="matrix(0,-4.16667,-4.16667,0,842.638,611.621)">
                    <path d="M-68.759,68.759L68.759,68.759" style="fill:none;fill-rule:nonzero;stroke:rgb(147,149,152);stroke-width:0.48px;"/>
                </g>
                <g transform="matrix(0,-4.16667,-4.16667,0,885.203,611.621)">
                    <path d="M-68.759,68.759L68.759,68.759" style="fill:none;fill-rule:nonzero;stroke:rgb(147,149,152);stroke-width:0.48px;"/>
                </g>
                <g transform="matrix(0,-4.16667,-4.16667,0,927.75,611.621)">
                    <path d="M-68.759,68.759L68.759,68.759" style="fill:none;fill-rule:nonzero;stroke:rgb(147,149,152);stroke-width:0.48px;"/>
                </g>
                <g transform="matrix(0,-4.16667,-4.16667,0,970.296,611.621)">
                    <path d="M-68.759,68.759L68.759,68.759" style="fill:none;fill-rule:nonzero;stroke:rgb(147,149,152);stroke-width:0.48px;"/>
                </g>
                <g transform="matrix(0,-4.16667,-4.16667,0,1012.86,611.621)">
                    <path d="M-68.759,68.759L68.759,68.759" style="fill:none;fill-rule:nonzero;stroke:rgb(147,149,152);stroke-width:0.48px;"/>
                </g>
                <g transform="matrix(0,-4.16667,-4.16667,0,1055.41,611.621)">
                    <path d="M-68.759,68.759L68.759,68.759" style="fill:none;fill-rule:nonzero;stroke:rgb(147,149,152);stroke-width:0.48px;"/>
                </g>
                <g transform="matrix(0,-4.16667,-4.16667,0,1097.97,611.621)">
                    <path d="M-68.759,68.759L68.759,68.759" style="fill:none;fill-rule:nonzero;stroke:rgb(147,149,152);stroke-width:0.48px;"/>
                </g>
                <g transform="matrix(0,-4.16667,-4.16667,0,1140.52,611.621)">
                    <path d="M-68.759,68.759L68.759,68.759" style="fill:none;fill-rule:nonzero;stroke:rgb(147,149,152);stroke-width:0.48px;"/>
                </g>
                <g transform="matrix(0,-4.16667,-4.16667,0,1183.07,611.621)">
                    <path d="M-68.759,68.759L68.759,68.759" style="fill:none;fill-rule:nonzero;stroke:rgb(147,149,152);stroke-width:0.48px;"/>
                </g>
                <g transform="matrix(0,-4.16667,-4.16667,0,1225.63,611.621)">
                    <path d="M-68.759,68.759L68.759,68.759" style="fill:none;fill-rule:nonzero;stroke:rgb(147,149,152);stroke-width:0.48px;"/>
                </g>
                <g transform="matrix(0,-4.16667,-4.16667,0,1268.18,611.621)">
                    <path d="M-68.759,68.759L68.759,68.759" style="fill:none;fill-rule:nonzero;stroke:rgb(147,149,152);stroke-width:0.48px;"/>
                </g>
                <g transform="matrix(0,-4.16667,-4.16667,0,1310.72,611.621)">
                    <path d="M-68.759,68.759L68.759,68.759" style="fill:none;fill-rule:nonzero;stroke:rgb(147,149,152);stroke-width:0.48px;"/>
                </g>
                <g transform="matrix(0,-4.16667,-4.16667,0,1353.29,611.621)">
                    <path d="M-68.759,68.759L68.759,68.759" style="fill:none;fill-rule:nonzero;stroke:rgb(147,149,152);stroke-width:0.48px;"/>
                </g>
                <g transform="matrix(0,-4.16667,-4.16667,0,1395.83,611.621)">
                    <path d="M-68.759,68.759L68.759,68.759" style="fill:none;fill-rule:nonzero;stroke:rgb(147,149,152);stroke-width:0.48px;"/>
                </g>
                <g transform="matrix(0,-4.16667,-4.16667,0,1438.38,611.621)">
                    <path d="M-68.759,68.759L68.759,68.759" style="fill:none;fill-rule:nonzero;stroke:rgb(147,149,152);stroke-width:0.48px;"/>
                </g>
                <g transform="matrix(0,-4.16667,-4.16667,0,1480.95,611.621)">
                    <path d="M-68.759,68.759L68.759,68.759" style="fill:none;fill-rule:nonzero;stroke:rgb(147,149,152);stroke-width:0.48px;"/>
                </g>
                <g transform="matrix(0,-4.16667,-4.16667,0,1523.49,611.621)">
                    <path d="M-68.759,68.759L68.759,68.759" style="fill:none;fill-rule:nonzero;stroke:rgb(147,149,152);stroke-width:0.48px;"/>
                </g>
                <g transform="matrix(0,-4.16667,-4.16667,0,1566.06,611.621)">
                    <path d="M-68.759,68.759L68.759,68.759" style="fill:none;fill-rule:nonzero;stroke:rgb(147,149,152);stroke-width:0.48px;"/>
                </g>
                <g transform="matrix(0,-4.16667,-4.16667,0,1608.6,611.621)">
                    <path d="M-68.759,68.759L68.759,68.759" style="fill:none;fill-rule:nonzero;stroke:rgb(147,149,152);stroke-width:0.48px;"/>
                </g>
                <g transform="matrix(0,-4.16667,-4.16667,0,1651.15,611.621)">
                    <path d="M-68.759,68.759L68.759,68.759" style="fill:none;fill-rule:nonzero;stroke:rgb(147,149,152);stroke-width:0.48px;"/>
                </g>
                <g transform="matrix(0,-4.16667,-4.16667,0,1693.72,611.621)">
                    <path d="M-68.759,68.759L68.759,68.759" style="fill:none;fill-rule:nonzero;stroke:rgb(147,149,152);stroke-width:0.48px;"/>
                </g>
                <g transform="matrix(0,-4.16667,-4.16667,0,1736.26,611.621)">
                    <path d="M-68.759,68.759L68.759,68.759" style="fill:none;fill-rule:nonzero;stroke:rgb(147,149,152);stroke-width:0.48px;"/>
                </g>
                <g transform="matrix(0,-4.16667,-4.16667,0,1778.81,611.621)">
                    <path d="M-68.759,68.759L68.759,68.759" style="fill:none;fill-rule:nonzero;stroke:rgb(147,149,152);stroke-width:0.48px;"/>
                </g>
                <g transform="matrix(0,-4.16667,-4.16667,0,1821.37,611.621)">
                    <path d="M-68.759,68.759L68.759,68.759" style="fill:none;fill-rule:nonzero;stroke:rgb(147,149,152);stroke-width:0.48px;"/>
                </g>
                <g transform="matrix(0,-4.16667,-4.16667,0,1863.92,611.621)">
                    <path d="M-68.759,68.759L68.759,68.759" style="fill:none;fill-rule:nonzero;stroke:rgb(147,149,152);stroke-width:0.48px;"/>
                </g>
                <g transform="matrix(0,-4.16667,-4.16667,0,1906.47,611.621)">
                    <path d="M-68.759,68.759L68.759,68.759" style="fill:none;fill-rule:nonzero;stroke:rgb(147,149,152);stroke-width:0.48px;"/>
                </g>
                <g transform="matrix(0,-4.16667,-4.16667,0,1949.03,611.621)">
                    <path d="M-68.759,68.759L68.759,68.759" style="fill:none;fill-rule:nonzero;stroke:rgb(147,149,152);stroke-width:0.48px;"/>
                </g>
                <g transform="matrix(0,-4.16667,-4.16667,0,1991.58,611.621)">
                    <path d="M-68.759,68.759L68.759,68.759" style="fill:none;fill-rule:nonzero;stroke:rgb(147,149,152);stroke-width:0.48px;"/>
                </g>
                <g transform="matrix(4.16667,0,0,4.16667,343.39,726.219)">
                    <path d="M0,0L337.021,0" style="fill:none;fill-rule:nonzero;stroke:rgb(147,149,152);stroke-width:0.48px;"/>
                </g>
                <g transform="matrix(4.16667,0,0,4.16667,343.39,668.919)">
                    <path d="M0,0L337.021,0" style="fill:none;fill-rule:nonzero;stroke:rgb(147,149,152);stroke-width:0.48px;"/>
                </g>
                <g transform="matrix(4.16667,0,0,4.16667,343.39,611.619)">
                    <path d="M0,0L337.021,0" style="fill:none;fill-rule:nonzero;stroke:rgb(147,149,152);stroke-width:0.48px;"/>
                </g>
                <g transform="matrix(4.16667,0,0,4.16667,343.39,554.319)">
                    <path d="M0,0L337.021,0" style="fill:none;fill-rule:nonzero;stroke:rgb(147,149,152);stroke-width:0.48px;"/>
                </g>
                <g transform="matrix(4.16667,0,0,4.16667,343.39,497.019)">
                    <path d="M0,0L337.021,0" style="fill:none;fill-rule:nonzero;stroke:rgb(147,149,152);stroke-width:0.48px;"/>
                </g>
                <g transform="matrix(4.16667,0,0,4.16667,343.39,439.72)">
                    <path d="M0,0L337.021,0" style="fill:none;fill-rule:nonzero;stroke:rgb(147,149,152);stroke-width:0.48px;"/>
                </g>
                <g transform="matrix(4.16667,0,0,4.16667,343.39,382.419)">
                    <path d="M0,0L337.021,0" style="fill:none;fill-rule:nonzero;stroke:rgb(147,149,152);stroke-width:0.48px;"/>
                </g>
                <g transform="matrix(4.16667,0,0,4.16667,343.39,840.819)">
                    <path d="M0,0L337.021,0" style="fill:none;fill-rule:nonzero;stroke:rgb(147,149,152);stroke-width:0.48px;"/>
                </g>
                <g transform="matrix(4.16667,0,0,4.16667,343.39,783.519)">
                    <path d="M0,0L337.021,0" style="fill:none;fill-rule:nonzero;stroke:rgb(147,149,152);stroke-width:0.48px;"/>
                </g>
                <g transform="matrix(0,-4.16667,-4.16667,0,397.776,909.957)">
                    <path d="M-2.842,2.842L2.842,2.842" style="fill:none;fill-rule:nonzero;stroke:rgb(147,149,152);stroke-width:0.48px;"/>
                </g>
                <g transform="matrix(0,-4.16667,-4.16667,0,440.322,909.957)">
                    <path d="M-2.842,2.842L2.842,2.842" style="fill:none;fill-rule:nonzero;stroke:rgb(147,149,152);stroke-width:0.48px;"/>
                </g>
                <g transform="matrix(0,-4.16667,-4.16667,0,482.887,909.957)">
                    <path d="M-2.842,2.842L2.842,2.842" style="fill:none;fill-rule:nonzero;stroke:rgb(147,149,152);stroke-width:0.48px;"/>
                </g>
                <g transform="matrix(0,-4.16667,-4.16667,0,525.433,909.957)">
                    <path d="M-2.842,2.842L2.842,2.842" style="fill:none;fill-rule:nonzero;stroke:rgb(147,149,152);stroke-width:0.48px;"/>
                </g>
                <g transform="matrix(0,-4.16667,-4.16667,0,567.98,909.957)">
                    <path d="M-2.842,2.842L2.842,2.842" style="fill:none;fill-rule:nonzero;stroke:rgb(147,149,152);stroke-width:0.48px;"/>
                </g>
                <g transform="matrix(0,-4.16667,-4.16667,0,610.545,909.957)">
                    <path d="M-2.842,2.842L2.842,2.842" style="fill:none;fill-rule:nonzero;stroke:rgb(147,149,152);stroke-width:0.48px;"/>
                </g>
                <g transform="matrix(0,-4.16667,-4.16667,0,653.091,909.957)">
                    <path d="M-2.842,2.842L2.842,2.842" style="fill:none;fill-rule:nonzero;stroke:rgb(147,149,152);stroke-width:0.48px;"/>
                </g>
                <g transform="matrix(0,-4.16667,-4.16667,0,695.637,909.957)">
                    <path d="M-2.842,2.842L2.842,2.842" style="fill:none;fill-rule:nonzero;stroke:rgb(147,149,152);stroke-width:0.48px;"/>
                </g>
                <g transform="matrix(0,-4.16667,-4.16667,0,738.203,909.957)">
                    <path d="M-2.842,2.842L2.842,2.842" style="fill:none;fill-rule:nonzero;stroke:rgb(147,149,152);stroke-width:0.48px;"/>
                </g>
                <g transform="matrix(0,-4.16667,-4.16667,0,780.749,909.957)">
                    <path d="M-2.842,2.842L2.842,2.842" style="fill:none;fill-rule:nonzero;stroke:rgb(147,149,152);stroke-width:0.48px;"/>
                </g>
                <g transform="matrix(0,-4.16667,-4.16667,0,823.314,909.957)">
                    <path d="M-2.842,2.842L2.842,2.842" style="fill:none;fill-rule:nonzero;stroke:rgb(147,149,152);stroke-width:0.48px;"/>
                </g>
                <g transform="matrix(0,-4.16667,-4.16667,0,865.861,909.957)">
                    <path d="M-2.842,2.842L2.842,2.842" style="fill:none;fill-rule:nonzero;stroke:rgb(147,149,152);stroke-width:0.48px;"/>
                </g>
                <g transform="matrix(0,-4.16667,-4.16667,0,908.407,909.957)">
                    <path d="M-2.842,2.842L2.842,2.842" style="fill:none;fill-rule:nonzero;stroke:rgb(147,149,152);stroke-width:0.48px;"/>
                </g>
                <g transform="matrix(0,-4.16667,-4.16667,0,950.972,909.957)">
                    <path d="M-2.842,2.842L2.842,2.842" style="fill:none;fill-rule:nonzero;stroke:rgb(147,149,152);stroke-width:0.48px;"/>
                </g>
                <g transform="matrix(0,-4.16667,-4.16667,0,993.518,909.957)">
                    <path d="M-2.842,2.842L2.842,2.842" style="fill:none;fill-rule:nonzero;stroke:rgb(147,149,152);stroke-width:0.48px;"/>
                </g>
                <g transform="matrix(0,-4.16667,-4.16667,0,1036.07,909.957)">
                    <path d="M-2.842,2.842L2.842,2.842" style="fill:none;fill-rule:nonzero;stroke:rgb(147,149,152);stroke-width:0.48px;"/>
                </g>
                <g transform="matrix(0,-4.16667,-4.16667,0,1078.63,909.957)">
                    <path d="M-2.842,2.842L2.842,2.842" style="fill:none;fill-rule:nonzero;stroke:rgb(147,149,152);stroke-width:0.48px;"/>
                </g>
                <g transform="matrix(0,-4.16667,-4.16667,0,1121.18,909.957)">
                    <path d="M-2.842,2.842L2.842,2.842" style="fill:none;fill-rule:nonzero;stroke:rgb(147,149,152);stroke-width:0.48px;"/>
                </g>
                <g transform="matrix(0,-4.16667,-4.16667,0,1163.72,909.957)">
                    <path d="M-2.842,2.842L2.842,2.842" style="fill:none;fill-rule:nonzero;stroke:rgb(147,149,152);stroke-width:0.48px;"/>
                </g>
                <g transform="matrix(0,-4.16667,-4.16667,0,1206.29,909.957)">
                    <path d="M-2.842,2.842L2.842,2.842" style="fill:none;fill-rule:nonzero;stroke:rgb(147,149,152);stroke-width:0.48px;"/>
                </g>
                <g transform="matrix(0,-4.16667,-4.16667,0,1248.83,909.957)">
                    <path d="M-2.842,2.842L2.842,2.842" style="fill:none;fill-rule:nonzero;stroke:rgb(147,149,152);stroke-width:0.48px;"/>
                </g>
                <g transform="matrix(0,-4.16667,-4.16667,0,1291.4,909.957)">
                    <path d="M-2.842,2.842L2.842,2.842" style="fill:none;fill-rule:nonzero;stroke:rgb(147,149,152);stroke-width:0.48px;"/>
                </g>
                <g transform="matrix(0,-4.16667,-4.16667,0,1333.95,909.957)">
                    <path d="M-2.842,2.842L2.842,2.842" style="fill:none;fill-rule:nonzero;stroke:rgb(147,149,152);stroke-width:0.48px;"/>
                </g>
                <g transform="matrix(0,-4.16667,-4.16667,0,1376.49,909.957)">
                    <path d="M-2.842,2.842L2.842,2.842" style="fill:none;fill-rule:nonzero;stroke:rgb(147,149,152);stroke-width:0.48px;"/>
                </g>
                <g transform="matrix(0,-4.16667,-4.16667,0,1419.06,909.957)">
                    <path d="M-2.842,2.842L2.842,2.842" style="fill:none;fill-rule:nonzero;stroke:rgb(147,149,152);stroke-width:0.48px;"/>
                </g>
                <g transform="matrix(0,-4.16667,-4.16667,0,1461.6,909.957)">
                    <path d="M-2.842,2.842L2.842,2.842" style="fill:none;fill-rule:nonzero;stroke:rgb(147,149,152);stroke-width:0.48px;"/>
                </g>
                <g transform="matrix(0,-4.16667,-4.16667,0,1504.15,909.957)">
                    <path d="M-2.842,2.842L2.842,2.842" style="fill:none;fill-rule:nonzero;stroke:rgb(147,149,152);stroke-width:0.48px;"/>
                </g>
                <g transform="matrix(0,-4.16667,-4.16667,0,1546.72,909.957)">
                    <path d="M-2.842,2.842L2.842,2.842" style="fill:none;fill-rule:nonzero;stroke:rgb(147,149,152);stroke-width:0.48px;"/>
                </g>
                <g transform="matrix(0,-4.16667,-4.16667,0,1589.26,909.957)">
                    <path d="M-2.842,2.842L2.842,2.842" style="fill:none;fill-rule:nonzero;stroke:rgb(147,149,152);stroke-width:0.48px;"/>
                </g>
                <g transform="matrix(0,-4.16667,-4.16667,0,1631.81,909.957)">
                    <path d="M-2.842,2.842L2.842,2.842" style="fill:none;fill-rule:nonzero;stroke:rgb(147,149,152);stroke-width:0.48px;"/>
                </g>
                <g transform="matrix(0,-4.16667,-4.16667,0,1674.37,909.957)">
                    <path d="M-2.842,2.842L2.842,2.842" style="fill:none;fill-rule:nonzero;stroke:rgb(147,149,152);stroke-width:0.48px;"/>
                </g>
                <g transform="matrix(0,-4.16667,-4.16667,0,1716.92,909.957)">
                    <path d="M-2.842,2.842L2.842,2.842" style="fill:none;fill-rule:nonzero;stroke:rgb(147,149,152);stroke-width:0.48px;"/>
                </g>
                <g transform="matrix(0,-4.16667,-4.16667,0,1759.48,909.957)">
                    <path d="M-2.842,2.842L2.842,2.842" style="fill:none;fill-rule:nonzero;stroke:rgb(147,149,152);stroke-width:0.48px;"/>
                </g>
                <g transform="matrix(4.16667,0,0,4.16667,338.576,898.119)">
                    <path d="M0,0L1.155,0" style="fill:none;fill-rule:nonzero;stroke:rgb(147,149,152);stroke-width:0.48px;"/>
                </g>
                <g transform="matrix(4.16667,0,0,4.16667,314.512,898.119)">
                    <path d="M0,0L6.93,0" style="fill:none;fill-rule:nonzero;stroke:rgb(147,149,152);stroke-width:0.48px;"/>
                </g>
                <g transform="matrix(0,-4.16667,-4.16667,0,355.229,909.957)">
                    <path d="M-2.842,2.842L2.842,2.842" style="fill:none;fill-rule:nonzero;stroke:rgb(147,149,152);stroke-width:0.48px;"/>
                </g>
                <g transform="matrix(4.16667,0,0,4.16667,338.576,783.519)">
                    <path d="M0,0L1.155,0" style="fill:none;fill-rule:nonzero;stroke:rgb(147,149,152);stroke-width:0.48px;"/>
                </g>
                <g transform="matrix(4.16667,0,0,4.16667,338.576,726.219)">
                    <path d="M0,0L1.155,0" style="fill:none;fill-rule:nonzero;stroke:rgb(147,149,152);stroke-width:0.48px;"/>
                </g>
                <g transform="matrix(4.16667,0,0,4.16667,338.576,668.919)">
                    <path d="M0,0L1.155,0" style="fill:none;fill-rule:nonzero;stroke:rgb(147,149,152);stroke-width:0.48px;"/>
                </g>
                <g transform="matrix(4.16667,0,0,4.16667,338.576,611.619)">
                    <path d="M0,0L1.155,0" style="fill:none;fill-rule:nonzero;stroke:rgb(147,149,152);stroke-width:0.48px;"/>
                </g>
                <g transform="matrix(4.16667,0,0,4.16667,338.576,554.319)">
                    <path d="M0,0L1.155,0" style="fill:none;fill-rule:nonzero;stroke:rgb(147,149,152);stroke-width:0.48px;"/>
                </g>
                <g transform="matrix(4.16667,0,0,4.16667,338.576,497.019)">
                    <path d="M0,0L1.155,0" style="fill:none;fill-rule:nonzero;stroke:rgb(147,149,152);stroke-width:0.48px;"/>
                </g>
                <g transform="matrix(4.16667,0,0,4.16667,338.576,439.72)">
                    <path d="M0,0L1.155,0" style="fill:none;fill-rule:nonzero;stroke:rgb(147,149,152);stroke-width:0.48px;"/>
                </g>
                <g transform="matrix(4.16667,0,0,4.16667,338.576,382.419)">
                    <path d="M0,0L1.155,0" style="fill:none;fill-rule:nonzero;stroke:rgb(147,149,152);stroke-width:0.48px;"/>
                </g>
                <g transform="matrix(4.16667,0,0,4.16667,338.576,325.12)">
                    <path d="M0,0L1.155,0" style="fill:none;fill-rule:nonzero;stroke:rgb(147,149,152);stroke-width:0.48px;"/>
                </g>
                <g transform="matrix(4.16667,0,0,4.16667,314.512,783.519)">
                    <path d="M0,0L6.93,0" style="fill:none;fill-rule:nonzero;stroke:rgb(147,149,152);stroke-width:0.48px;"/>
                </g>
                <g transform="matrix(4.16667,0,0,4.16667,314.512,726.219)">
                    <path d="M0,0L6.93,0" style="fill:none;fill-rule:nonzero;stroke:rgb(147,149,152);stroke-width:0.48px;"/>
                </g>
                <g transform="matrix(4.16667,0,0,4.16667,314.512,668.919)">
                    <path d="M0,0L6.93,0" style="fill:none;fill-rule:nonzero;stroke:rgb(147,149,152);stroke-width:0.48px;"/>
                </g>
                <g transform="matrix(4.16667,0,0,4.16667,314.512,611.619)">
                    <path d="M0,0L6.93,0" style="fill:none;fill-rule:nonzero;stroke:rgb(147,149,152);stroke-width:0.48px;"/>
                </g>
                <g transform="matrix(4.16667,0,0,4.16667,314.512,554.319)">
                    <path d="M0,0L6.93,0" style="fill:none;fill-rule:nonzero;stroke:rgb(147,149,152);stroke-width:0.48px;"/>
                </g>
                <g transform="matrix(4.16667,0,0,4.16667,314.512,497.019)">
                    <path d="M0,0L6.93,0" style="fill:none;fill-rule:nonzero;stroke:rgb(147,149,152);stroke-width:0.48px;"/>
                </g>
                <g transform="matrix(4.16667,0,0,4.16667,314.512,439.72)">
                    <path d="M0,0L6.93,0" style="fill:none;fill-rule:nonzero;stroke:rgb(147,149,152);stroke-width:0.48px;"/>
                </g>
                <g transform="matrix(4.16667,0,0,4.16667,314.512,382.419)">
                    <path d="M0,0L6.93,0" style="fill:none;fill-rule:nonzero;stroke:rgb(147,149,152);stroke-width:0.48px;"/>
                </g>
                <g transform="matrix(4.16667,0,0,4.16667,314.512,325.12)">
                    <path d="M0,0L6.93,0" style="fill:none;fill-rule:nonzero;stroke:rgb(147,149,152);stroke-width:0.48px;"/>
                </g>
                <g transform="matrix(4.16667,0,0,4.16667,314.512,840.819)">
                    <path d="M0,0L6.93,0" style="fill:none;fill-rule:nonzero;stroke:rgb(147,149,152);stroke-width:0.48px;"/>
                </g>
                <g transform="matrix(4.16667,0,0,4.16667,338.576,840.819)">
                    <path d="M0,0L1.155,0" style="fill:none;fill-rule:nonzero;stroke:rgb(147,149,152);stroke-width:0.48px;"/>
                </g>
                <g transform="matrix(4.16667,0,0,4.16667,343.39,898.119)">
                    <path d="M0,0L337.021,0" style="fill:none;fill-rule:nonzero;stroke:black;stroke-width:0.97px;"/>
                </g>
                <g transform="matrix(0,-4.16667,-4.16667,0,629.888,611.621)">
                    <path d="M-68.759,68.759L68.759,68.759" style="fill:none;fill-rule:nonzero;stroke:black;stroke-width:0.97px;"/>
                </g>
                <g transform="matrix(4.16667,0,0,4.16667,343.39,325.12)">
                    <path d="M0,0L337.021,0" style="fill:none;fill-rule:nonzero;stroke:black;stroke-width:0.97px;"/>
                </g>
                <g transform="matrix(0,-4.16667,-4.16667,0,2034.14,611.621)">
                    <path d="M-68.759,68.759L68.759,68.759" style="fill:none;fill-rule:nonzero;stroke:black;stroke-width:0.97px;"/>
                </g>
                <g transform="matrix(4.16667,0,0,4.16667,1742.32,382.417)">
                    <path d="M0,122.392L-2.554,118.267L-5.108,111.389L-7.662,110.016L-10.216,108.64L-15.319,108.64L-17.873,107.263L-20.427,105.887L-22.981,104.515L-25.535,100.389L-28.089,100.389L-30.643,99.013L-33.192,97.637L-35.746,96.264L-38.3,94.888L-40.854,94.888L-43.408,93.512L-45.962,93.512L-48.511,90.763L-51.065,83.885L-53.619,82.512L-56.173,75.634L-58.727,61.883L-61.281,57.757L-63.83,49.507L-66.384,45.382L-68.938,39.88L-71.492,31.629L-74.045,17.878L-76.599,9.624L-79.149,4.125L-81.703,2.749L-84.256,1.373L-86.81,0L-89.364,5.498L-91.918,5.498L-94.472,8.25L-97.021,5.498L-99.575,13.753L-102.129,16.502L-104.683,17.878L-107.237,20.627L-109.791,20.627L-112.34,24.752L-114.894,27.504L-117.448,27.504L-120.002,28.877L-122.556,30.253L-125.11,27.504L-127.659,22.003L-130.213,22.003L-132.767,19.25L-137.875,19.25L-140.429,17.878L-142.983,17.878L-145.532,16.502L-148.086,12.376L-150.64,13.753L-153.194,13.753L-155.748,11L-158.302,11L-160.851,12.376L-163.405,12.376L-165.959,11L-168.513,11L-171.067,12.376L-173.621,13.753L-176.17,15.125L-181.278,15.125L-183.832,16.502L-186.386,19.25L-188.94,20.627L-194.043,20.627L-196.597,23.375L-199.151,23.375L-201.705,26.128L-204.259,24.752L-206.813,23.375L-209.362,23.375L-211.916,22.003L-214.47,22.003L-217.024,20.627L-219.578,23.375L-222.132,24.752L-224.681,23.375L-232.343,23.375L-234.896,26.128L-237.45,27.504L-240,34.379L-242.554,37.128L-245.108,39.88L-247.661,44.005L-250.215,48.13L-252.769,52.256L-255.323,53.632L-257.872,59.133L-260.426,60.507L-262.98,60.507L-265.534,67.384L-268.088,74.258L-270.642,74.258L-273.191,75.634L-275.745,79.759L-278.299,88.01L-280.853,92.136L-283.407,94.888L-285.961,96.264L-288.51,99.013L-291.064,99.013L-293.618,103.138L-296.172,104.515L-298.726,105.887L-303.829,105.887L-306.383,108.64L-308.937,110.016L-316.599,110.016L-319.153,111.389L-321.702,112.766L-326.81,112.766L-329.364,114.142L-331.918,115.514L-334.472,115.514" style="fill:none;fill-rule:nonzero;stroke:black;stroke-width:0.97px;"/>
                </g>
            </g>
        </g>
    </g>
</svg>
