<?xml version="1.0" encoding="UTF-8" standalone="no"?>
<!DOCTYPE svg PUBLIC "-//W3C//DTD SVG 1.1//EN" "http://www.w3.org/Graphics/SVG/1.1/DTD/svg11.dtd">
<svg width="100%" height="100%" viewBox="0 0 1749 1241" version="1.1" xmlns="http://www.w3.org/2000/svg" xmlns:xlink="http://www.w3.org/1999/xlink" xml:space="preserve" xmlns:serif="http://www.serif.com/" style="fill-rule:evenodd;clip-rule:evenodd;stroke-linecap:round;stroke-linejoin:round;stroke-miterlimit:1.5;">
    <g transform="matrix(1,0,0,1,-148.707,-166.16)">
        <g transform="matrix(4.16667,0,0,4.16667,0,0)">
            <g transform="matrix(8.6107,0,0,8.6107,75.5014,269.401)">
                <path d="M0.15,-0L0.15,-0.072L0.295,-0.072L0.295,-0.643L0.15,-0.606L0.15,-0.681L0.392,-0.741L0.392,-0.072L0.536,-0.072L0.536,-0L0.15,-0Z" style="fill:rgb(1,1,1);fill-rule:nonzero;"/>
            </g>
            <g transform="matrix(8.6107,0,0,8.6107,80.5156,269.401)">
                <path d="M0.23,-0.394C0.159,-0.443 0.124,-0.497 0.124,-0.557C0.124,-0.611 0.144,-0.656 0.184,-0.69C0.224,-0.724 0.276,-0.741 0.341,-0.741C0.4,-0.741 0.449,-0.727 0.486,-0.698C0.523,-0.669 0.541,-0.631 0.541,-0.585C0.541,-0.515 0.496,-0.451 0.406,-0.394C0.515,-0.34 0.57,-0.271 0.57,-0.187C0.57,-0.126 0.547,-0.077 0.501,-0.039C0.455,-0.001 0.396,0.018 0.324,0.018C0.253,0.018 0.196,0 0.152,-0.036C0.108,-0.072 0.086,-0.119 0.086,-0.178C0.086,-0.264 0.134,-0.336 0.23,-0.394ZM0.353,-0.424C0.42,-0.468 0.454,-0.517 0.454,-0.572C0.454,-0.601 0.442,-0.624 0.42,-0.642C0.397,-0.66 0.368,-0.668 0.331,-0.668C0.296,-0.668 0.267,-0.66 0.245,-0.642C0.222,-0.625 0.211,-0.602 0.211,-0.575C0.211,-0.548 0.221,-0.524 0.241,-0.502C0.261,-0.481 0.299,-0.455 0.353,-0.424ZM0.282,-0.354C0.243,-0.325 0.217,-0.298 0.203,-0.276C0.19,-0.254 0.183,-0.226 0.183,-0.193C0.183,-0.152 0.196,-0.118 0.223,-0.093C0.249,-0.067 0.285,-0.054 0.328,-0.054C0.37,-0.054 0.404,-0.065 0.431,-0.087C0.457,-0.109 0.471,-0.137 0.471,-0.172C0.471,-0.2 0.462,-0.224 0.446,-0.243C0.43,-0.262 0.398,-0.286 0.351,-0.314L0.282,-0.354Z" style="fill:rgb(1,1,1);fill-rule:nonzero;"/>
            </g>
            <g transform="matrix(8.6107,0,0,8.6107,85.5298,269.401)">
                <path d="M0.172,-0.375C0.218,-0.434 0.276,-0.464 0.345,-0.464C0.408,-0.464 0.46,-0.443 0.5,-0.401C0.54,-0.359 0.561,-0.306 0.561,-0.24C0.561,-0.165 0.538,-0.103 0.493,-0.055C0.448,-0.006 0.391,0.018 0.321,0.018C0.242,0.018 0.179,-0.014 0.134,-0.078C0.089,-0.142 0.067,-0.231 0.067,-0.345C0.067,-0.471 0.093,-0.568 0.144,-0.637C0.196,-0.707 0.269,-0.741 0.362,-0.741C0.405,-0.741 0.459,-0.732 0.523,-0.714L0.523,-0.63C0.455,-0.656 0.4,-0.669 0.356,-0.669C0.233,-0.669 0.172,-0.571 0.172,-0.375ZM0.464,-0.219C0.464,-0.273 0.452,-0.316 0.427,-0.348C0.402,-0.379 0.368,-0.395 0.325,-0.395C0.284,-0.395 0.249,-0.381 0.22,-0.354C0.19,-0.326 0.176,-0.293 0.176,-0.255C0.176,-0.194 0.19,-0.146 0.218,-0.109C0.245,-0.073 0.282,-0.054 0.328,-0.054C0.369,-0.054 0.402,-0.069 0.427,-0.099C0.452,-0.129 0.464,-0.169 0.464,-0.219Z" style="fill:rgb(1,1,1);fill-rule:nonzero;"/>
            </g>
            <g transform="matrix(8.6107,0,0,8.6107,90.5441,269.401)">
                <path d="M0.114,-0.004L0.114,-0.086C0.175,-0.065 0.227,-0.054 0.27,-0.054C0.33,-0.054 0.377,-0.08 0.41,-0.131C0.444,-0.182 0.461,-0.252 0.461,-0.343C0.412,-0.283 0.357,-0.253 0.294,-0.253C0.234,-0.253 0.182,-0.275 0.14,-0.32C0.097,-0.365 0.076,-0.419 0.076,-0.484C0.076,-0.558 0.099,-0.619 0.144,-0.668C0.189,-0.716 0.246,-0.741 0.314,-0.741C0.392,-0.741 0.454,-0.709 0.5,-0.646C0.545,-0.583 0.567,-0.497 0.567,-0.388C0.567,-0.263 0.54,-0.165 0.485,-0.092C0.429,-0.018 0.355,0.018 0.261,0.018C0.223,0.018 0.174,0.011 0.114,-0.004ZM0.172,-0.503C0.172,-0.447 0.185,-0.403 0.21,-0.371C0.235,-0.338 0.269,-0.322 0.312,-0.322C0.353,-0.322 0.387,-0.336 0.416,-0.364C0.445,-0.391 0.459,-0.425 0.459,-0.464C0.459,-0.525 0.446,-0.575 0.418,-0.613C0.39,-0.65 0.353,-0.669 0.308,-0.669C0.266,-0.669 0.233,-0.654 0.209,-0.624C0.184,-0.594 0.172,-0.554 0.172,-0.503Z" style="fill:rgb(1,1,1);fill-rule:nonzero;"/>
            </g>
            <g transform="matrix(8.6107,0,0,8.6107,95.5583,269.401)">
                <rect x="0.051" y="-0.332" width="0.397" height="0.066" style="fill:rgb(1,1,1);fill-rule:nonzero;"/>
            </g>
            <g transform="matrix(8.6107,0,0,8.6107,99.4331,269.401)">
                <path d="M0.15,-0C0.16,-0.056 0.173,-0.105 0.191,-0.146C0.208,-0.187 0.239,-0.243 0.283,-0.315L0.48,-0.632L0.108,-0.632L0.108,-0.723L0.572,-0.723L0.572,-0.632C0.387,-0.359 0.283,-0.148 0.261,-0L0.15,-0Z" style="fill:rgb(1,1,1);fill-rule:nonzero;"/>
            </g>
            <g transform="matrix(8.6107,0,0,8.6107,104.447,269.401)">
                <path d="M0.313,0.018C0.239,0.018 0.179,-0.017 0.133,-0.087C0.087,-0.157 0.063,-0.249 0.063,-0.362C0.063,-0.476 0.087,-0.567 0.133,-0.637C0.179,-0.706 0.241,-0.741 0.316,-0.741C0.392,-0.741 0.453,-0.706 0.5,-0.637C0.546,-0.567 0.569,-0.476 0.569,-0.363C0.569,-0.247 0.546,-0.155 0.5,-0.086C0.453,-0.017 0.391,0.018 0.313,0.018ZM0.314,-0.054C0.416,-0.054 0.467,-0.158 0.467,-0.365C0.467,-0.567 0.417,-0.668 0.316,-0.668C0.216,-0.668 0.166,-0.566 0.166,-0.362C0.166,-0.157 0.215,-0.054 0.314,-0.054Z" style="fill:rgb(1,1,1);fill-rule:nonzero;"/>
            </g>
        </g>
        <g transform="matrix(4.16667,0,0,4.16667,0,0)">
            <g transform="matrix(8.6107,0,0,8.6107,87.0483,112.816)">
                <path d="M0.093,-0L0.093,-0.723L0.194,-0.723L0.558,-0.165L0.558,-0.723L0.646,-0.723L0.646,-0L0.545,-0L0.181,-0.558L0.181,-0L0.093,-0Z" style="fill:rgb(1,1,1);fill-rule:nonzero;"/>
            </g>
            <g transform="matrix(8.6107,0,0,8.6107,92.4957,112.816)">
                <path d="M0.428,-0L0.428,-0.1C0.377,-0.025 0.315,0.012 0.242,0.012C0.195,0.012 0.159,-0.002 0.131,-0.031C0.104,-0.061 0.09,-0.1 0.09,-0.149L0.09,-0.53L0.187,-0.53L0.187,-0.181C0.187,-0.141 0.192,-0.113 0.204,-0.096C0.215,-0.079 0.235,-0.071 0.262,-0.071C0.32,-0.071 0.376,-0.109 0.428,-0.187L0.428,-0.53L0.524,-0.53L0.524,-0L0.428,-0Z" style="fill:rgb(1,1,1);fill-rule:nonzero;"/>
            </g>
            <g transform="matrix(8.6107,0,0,8.6107,96.9256,112.816)">
                <path d="M0.096,-0L0.096,-0.53L0.192,-0.53L0.192,-0.431C0.239,-0.505 0.299,-0.542 0.373,-0.542C0.444,-0.542 0.492,-0.505 0.518,-0.431C0.564,-0.505 0.623,-0.542 0.696,-0.542C0.743,-0.542 0.779,-0.529 0.805,-0.501C0.83,-0.474 0.843,-0.435 0.843,-0.386L0.843,-0L0.747,-0L0.747,-0.371C0.747,-0.431 0.723,-0.461 0.675,-0.461C0.625,-0.461 0.573,-0.426 0.518,-0.355L0.518,-0L0.421,-0L0.421,-0.371C0.421,-0.431 0.397,-0.462 0.348,-0.462C0.3,-0.462 0.248,-0.426 0.192,-0.355L0.192,-0L0.096,-0Z" style="fill:rgb(1,1,1);fill-rule:nonzero;"/>
            </g>
            <g transform="matrix(8.6107,0,0,8.6107,104.051,112.816)">
                <path d="M0.096,0.006L0.096,-0.771L0.192,-0.771L0.192,-0.431C0.232,-0.505 0.291,-0.542 0.37,-0.542C0.433,-0.542 0.484,-0.519 0.52,-0.472C0.557,-0.426 0.575,-0.362 0.575,-0.281C0.575,-0.193 0.554,-0.122 0.513,-0.069C0.471,-0.015 0.417,0.012 0.349,0.012C0.286,0.012 0.234,-0.012 0.192,-0.06L0.181,0.006L0.096,0.006ZM0.192,-0.126C0.242,-0.082 0.289,-0.06 0.334,-0.06C0.426,-0.06 0.473,-0.131 0.473,-0.271C0.473,-0.396 0.432,-0.458 0.35,-0.458C0.296,-0.458 0.243,-0.429 0.192,-0.371L0.192,-0.126Z" style="fill:rgb(1,1,1);fill-rule:nonzero;"/>
            </g>
            <g transform="matrix(8.6107,0,0,8.6107,108.556,112.816)">
                <path d="M0.485,-0.017C0.42,0.002 0.365,0.012 0.319,0.012C0.241,0.012 0.177,-0.014 0.128,-0.066C0.079,-0.118 0.054,-0.185 0.054,-0.268C0.054,-0.348 0.076,-0.414 0.119,-0.465C0.163,-0.517 0.218,-0.542 0.286,-0.542C0.35,-0.542 0.4,-0.52 0.435,-0.474C0.47,-0.429 0.487,-0.364 0.487,-0.28L0.487,-0.25L0.152,-0.25C0.166,-0.124 0.228,-0.061 0.337,-0.061C0.377,-0.061 0.427,-0.072 0.485,-0.093L0.485,-0.017ZM0.157,-0.322L0.391,-0.322C0.391,-0.421 0.354,-0.47 0.28,-0.47C0.206,-0.47 0.165,-0.421 0.157,-0.322Z" style="fill:rgb(1,1,1);fill-rule:nonzero;"/>
            </g>
            <g transform="matrix(8.6107,0,0,8.6107,112.439,112.816)">
                <path d="M0.096,-0L0.096,-0.53L0.192,-0.53L0.192,-0.431C0.23,-0.505 0.286,-0.542 0.358,-0.542C0.368,-0.542 0.378,-0.541 0.389,-0.54L0.389,-0.45C0.373,-0.455 0.358,-0.458 0.345,-0.458C0.284,-0.458 0.233,-0.422 0.192,-0.35L0.192,-0L0.096,-0Z" style="fill:rgb(1,1,1);fill-rule:nonzero;"/>
            </g>
            <g transform="matrix(8.6107,0,0,8.6107,116.894,112.816)">
                <path d="M0.304,0.012C0.228,0.012 0.167,-0.013 0.122,-0.063C0.077,-0.114 0.054,-0.181 0.054,-0.265C0.054,-0.35 0.077,-0.418 0.122,-0.468C0.168,-0.517 0.229,-0.542 0.307,-0.542C0.385,-0.542 0.447,-0.517 0.492,-0.468C0.537,-0.418 0.56,-0.351 0.56,-0.266C0.56,-0.18 0.537,-0.111 0.492,-0.062C0.446,-0.013 0.383,0.012 0.304,0.012ZM0.305,-0.06C0.407,-0.06 0.458,-0.129 0.458,-0.266C0.458,-0.402 0.408,-0.47 0.307,-0.47C0.207,-0.47 0.157,-0.402 0.157,-0.265C0.157,-0.128 0.206,-0.06 0.305,-0.06Z" style="fill:rgb(1,1,1);fill-rule:nonzero;"/>
            </g>
            <g transform="matrix(8.6107,0,0,8.6107,121.269,112.816)">
                <path d="M0.211,-0.458L0.211,-0L0.114,-0L0.114,-0.458L0.039,-0.458L0.039,-0.53L0.114,-0.53L0.114,-0.594C0.114,-0.72 0.172,-0.783 0.287,-0.783C0.319,-0.783 0.356,-0.778 0.397,-0.767L0.397,-0.691C0.354,-0.704 0.319,-0.711 0.293,-0.711C0.261,-0.711 0.24,-0.703 0.228,-0.688C0.217,-0.673 0.211,-0.645 0.211,-0.604L0.211,-0.53L0.343,-0.53L0.343,-0.458L0.211,-0.458Z" style="fill:rgb(1,1,1);fill-rule:nonzero;"/>
            </g>
            <g transform="matrix(8.6107,0,0,8.6107,125.891,112.816)">
                <path d="M0.237,0.012C0.193,0.012 0.139,0.002 0.077,-0.019L0.077,-0.107C0.139,-0.076 0.194,-0.06 0.241,-0.06C0.268,-0.06 0.291,-0.068 0.31,-0.083C0.328,-0.097 0.337,-0.116 0.337,-0.139C0.337,-0.172 0.311,-0.199 0.26,-0.22L0.204,-0.244C0.121,-0.279 0.08,-0.328 0.08,-0.393C0.08,-0.439 0.096,-0.476 0.129,-0.502C0.161,-0.529 0.206,-0.542 0.263,-0.542C0.293,-0.542 0.329,-0.538 0.373,-0.53L0.393,-0.526L0.393,-0.446C0.339,-0.462 0.297,-0.47 0.265,-0.47C0.203,-0.47 0.172,-0.447 0.172,-0.402C0.172,-0.373 0.196,-0.349 0.243,-0.329L0.289,-0.31C0.341,-0.287 0.379,-0.264 0.4,-0.24C0.422,-0.215 0.433,-0.184 0.433,-0.147C0.433,-0.101 0.415,-0.063 0.378,-0.033C0.341,-0.003 0.294,0.012 0.237,0.012Z" style="fill:rgb(1,1,1);fill-rule:nonzero;"/>
            </g>
            <g transform="matrix(8.6107,0,0,8.6107,129.367,112.816)">
                <path d="M0.255,0.012C0.207,0.012 0.168,-0.002 0.141,-0.03C0.114,-0.058 0.1,-0.097 0.1,-0.146L0.1,-0.458L0.034,-0.458L0.034,-0.53L0.1,-0.53L0.1,-0.626L0.196,-0.636L0.196,-0.53L0.335,-0.53L0.335,-0.458L0.196,-0.458L0.196,-0.164C0.196,-0.095 0.226,-0.06 0.286,-0.06C0.299,-0.06 0.314,-0.062 0.333,-0.066L0.333,-0C0.303,0.008 0.277,0.012 0.255,0.012Z" style="fill:rgb(1,1,1);fill-rule:nonzero;"/>
            </g>
            <g transform="matrix(8.6107,0,0,8.6107,131.673,112.816)">
                <path d="M0.428,-0L0.428,-0.1C0.377,-0.025 0.315,0.012 0.242,0.012C0.195,0.012 0.159,-0.002 0.131,-0.031C0.104,-0.061 0.09,-0.1 0.09,-0.149L0.09,-0.53L0.187,-0.53L0.187,-0.181C0.187,-0.141 0.192,-0.113 0.204,-0.096C0.215,-0.079 0.235,-0.071 0.262,-0.071C0.32,-0.071 0.376,-0.109 0.428,-0.187L0.428,-0.53L0.524,-0.53L0.524,-0L0.428,-0Z" style="fill:rgb(1,1,1);fill-rule:nonzero;"/>
            </g>
            <g transform="matrix(8.6107,0,0,8.6107,136.103,112.816)">
                <path d="M0.437,-0L0.437,-0.1C0.397,-0.025 0.339,0.012 0.26,0.012C0.196,0.012 0.146,-0.011 0.109,-0.058C0.073,-0.104 0.054,-0.168 0.054,-0.249C0.054,-0.337 0.075,-0.408 0.116,-0.461C0.158,-0.515 0.213,-0.542 0.28,-0.542C0.343,-0.542 0.395,-0.518 0.437,-0.47L0.437,-0.771L0.533,-0.771L0.533,-0L0.437,-0ZM0.437,-0.404C0.387,-0.448 0.34,-0.47 0.295,-0.47C0.203,-0.47 0.157,-0.399 0.157,-0.258C0.157,-0.134 0.198,-0.072 0.28,-0.072C0.333,-0.072 0.385,-0.101 0.437,-0.16L0.437,-0.404Z" style="fill:rgb(1,1,1);fill-rule:nonzero;"/>
            </g>
            <g transform="matrix(8.6107,0,0,8.6107,140.609,112.816)">
                <path d="M0.485,-0.017C0.42,0.002 0.365,0.012 0.319,0.012C0.241,0.012 0.177,-0.014 0.128,-0.066C0.079,-0.118 0.054,-0.185 0.054,-0.268C0.054,-0.348 0.076,-0.414 0.119,-0.465C0.163,-0.517 0.218,-0.542 0.286,-0.542C0.35,-0.542 0.4,-0.52 0.435,-0.474C0.47,-0.429 0.487,-0.364 0.487,-0.28L0.487,-0.25L0.152,-0.25C0.166,-0.124 0.228,-0.061 0.337,-0.061C0.377,-0.061 0.427,-0.072 0.485,-0.093L0.485,-0.017ZM0.157,-0.322L0.391,-0.322C0.391,-0.421 0.354,-0.47 0.28,-0.47C0.206,-0.47 0.165,-0.421 0.157,-0.322Z" style="fill:rgb(1,1,1);fill-rule:nonzero;"/>
            </g>
            <g transform="matrix(8.6107,0,0,8.6107,144.492,112.816)">
                <path d="M0.096,-0L0.096,-0.53L0.192,-0.53L0.192,-0.431C0.243,-0.505 0.305,-0.542 0.379,-0.542C0.425,-0.542 0.461,-0.527 0.489,-0.498C0.516,-0.469 0.53,-0.43 0.53,-0.381L0.53,-0L0.434,-0L0.434,-0.35C0.434,-0.389 0.428,-0.417 0.416,-0.434C0.405,-0.451 0.386,-0.459 0.359,-0.459C0.3,-0.459 0.244,-0.42 0.192,-0.343L0.192,-0L0.096,-0Z" style="fill:rgb(1,1,1);fill-rule:nonzero;"/>
            </g>
            <g transform="matrix(8.6107,0,0,8.6107,148.922,112.816)">
                <path d="M0.255,0.012C0.207,0.012 0.168,-0.002 0.141,-0.03C0.114,-0.058 0.1,-0.097 0.1,-0.146L0.1,-0.458L0.034,-0.458L0.034,-0.53L0.1,-0.53L0.1,-0.626L0.196,-0.636L0.196,-0.53L0.335,-0.53L0.335,-0.458L0.196,-0.458L0.196,-0.164C0.196,-0.095 0.226,-0.06 0.286,-0.06C0.299,-0.06 0.314,-0.062 0.333,-0.066L0.333,-0C0.303,0.008 0.277,0.012 0.255,0.012Z" style="fill:rgb(1,1,1);fill-rule:nonzero;"/>
            </g>
            <g transform="matrix(8.6107,0,0,8.6107,151.229,112.816)">
                <path d="M0.237,0.012C0.193,0.012 0.139,0.002 0.077,-0.019L0.077,-0.107C0.139,-0.076 0.194,-0.06 0.241,-0.06C0.268,-0.06 0.291,-0.068 0.31,-0.083C0.328,-0.097 0.337,-0.116 0.337,-0.139C0.337,-0.172 0.311,-0.199 0.26,-0.22L0.204,-0.244C0.121,-0.279 0.08,-0.328 0.08,-0.393C0.08,-0.439 0.096,-0.476 0.129,-0.502C0.161,-0.529 0.206,-0.542 0.263,-0.542C0.293,-0.542 0.329,-0.538 0.373,-0.53L0.393,-0.526L0.393,-0.446C0.339,-0.462 0.297,-0.47 0.265,-0.47C0.203,-0.47 0.172,-0.447 0.172,-0.402C0.172,-0.373 0.196,-0.349 0.243,-0.329L0.289,-0.31C0.341,-0.287 0.379,-0.264 0.4,-0.24C0.422,-0.215 0.433,-0.184 0.433,-0.147C0.433,-0.101 0.415,-0.063 0.378,-0.033C0.341,-0.003 0.294,0.012 0.237,0.012Z" style="fill:rgb(1,1,1);fill-rule:nonzero;"/>
            </g>
        </g>
        <g transform="matrix(4.16667,0,0,4.16667,0,0)">
            <g transform="matrix(8.6107,0,0,8.6107,128.621,269.401)">
                <path d="M0.15,-0L0.15,-0.072L0.295,-0.072L0.295,-0.643L0.15,-0.606L0.15,-0.681L0.392,-0.741L0.392,-0.072L0.536,-0.072L0.536,-0L0.15,-0Z" style="fill:rgb(1,1,1);fill-rule:nonzero;"/>
            </g>
            <g transform="matrix(8.6107,0,0,8.6107,133.635,269.401)">
                <path d="M0.23,-0.394C0.159,-0.443 0.124,-0.497 0.124,-0.557C0.124,-0.611 0.144,-0.656 0.184,-0.69C0.224,-0.724 0.276,-0.741 0.341,-0.741C0.4,-0.741 0.449,-0.727 0.486,-0.698C0.523,-0.669 0.541,-0.631 0.541,-0.585C0.541,-0.515 0.496,-0.451 0.406,-0.394C0.515,-0.34 0.57,-0.271 0.57,-0.187C0.57,-0.126 0.547,-0.077 0.501,-0.039C0.455,-0.001 0.396,0.018 0.324,0.018C0.253,0.018 0.196,0 0.152,-0.036C0.108,-0.072 0.086,-0.119 0.086,-0.178C0.086,-0.264 0.134,-0.336 0.23,-0.394ZM0.353,-0.424C0.42,-0.468 0.454,-0.517 0.454,-0.572C0.454,-0.601 0.442,-0.624 0.42,-0.642C0.397,-0.66 0.368,-0.668 0.331,-0.668C0.296,-0.668 0.267,-0.66 0.245,-0.642C0.222,-0.625 0.211,-0.602 0.211,-0.575C0.211,-0.548 0.221,-0.524 0.241,-0.502C0.261,-0.481 0.299,-0.455 0.353,-0.424ZM0.282,-0.354C0.243,-0.325 0.217,-0.298 0.203,-0.276C0.19,-0.254 0.183,-0.226 0.183,-0.193C0.183,-0.152 0.196,-0.118 0.223,-0.093C0.249,-0.067 0.285,-0.054 0.328,-0.054C0.37,-0.054 0.404,-0.065 0.431,-0.087C0.457,-0.109 0.471,-0.137 0.471,-0.172C0.471,-0.2 0.462,-0.224 0.446,-0.243C0.43,-0.262 0.398,-0.286 0.351,-0.314L0.282,-0.354Z" style="fill:rgb(1,1,1);fill-rule:nonzero;"/>
            </g>
            <g transform="matrix(8.6107,0,0,8.6107,138.649,269.401)">
                <path d="M0.23,-0.394C0.159,-0.443 0.124,-0.497 0.124,-0.557C0.124,-0.611 0.144,-0.656 0.184,-0.69C0.224,-0.724 0.276,-0.741 0.341,-0.741C0.4,-0.741 0.449,-0.727 0.486,-0.698C0.523,-0.669 0.541,-0.631 0.541,-0.585C0.541,-0.515 0.496,-0.451 0.406,-0.394C0.515,-0.34 0.57,-0.271 0.57,-0.187C0.57,-0.126 0.547,-0.077 0.501,-0.039C0.455,-0.001 0.396,0.018 0.324,0.018C0.253,0.018 0.196,0 0.152,-0.036C0.108,-0.072 0.086,-0.119 0.086,-0.178C0.086,-0.264 0.134,-0.336 0.23,-0.394ZM0.353,-0.424C0.42,-0.468 0.454,-0.517 0.454,-0.572C0.454,-0.601 0.442,-0.624 0.42,-0.642C0.397,-0.66 0.368,-0.668 0.331,-0.668C0.296,-0.668 0.267,-0.66 0.245,-0.642C0.222,-0.625 0.211,-0.602 0.211,-0.575C0.211,-0.548 0.221,-0.524 0.241,-0.502C0.261,-0.481 0.299,-0.455 0.353,-0.424ZM0.282,-0.354C0.243,-0.325 0.217,-0.298 0.203,-0.276C0.19,-0.254 0.183,-0.226 0.183,-0.193C0.183,-0.152 0.196,-0.118 0.223,-0.093C0.249,-0.067 0.285,-0.054 0.328,-0.054C0.37,-0.054 0.404,-0.065 0.431,-0.087C0.457,-0.109 0.471,-0.137 0.471,-0.172C0.471,-0.2 0.462,-0.224 0.446,-0.243C0.43,-0.262 0.398,-0.286 0.351,-0.314L0.282,-0.354Z" style="fill:rgb(1,1,1);fill-rule:nonzero;"/>
            </g>
            <g transform="matrix(8.6107,0,0,8.6107,143.663,269.401)">
                <path d="M0.376,-0L0.376,-0.205L0.051,-0.205L0.051,-0.277L0.376,-0.723L0.467,-0.723L0.467,-0.283L0.563,-0.283L0.563,-0.205L0.467,-0.205L0.467,-0L0.376,-0ZM0.146,-0.283L0.383,-0.283L0.383,-0.604L0.146,-0.283Z" style="fill:rgb(1,1,1);fill-rule:nonzero;"/>
            </g>
            <g transform="matrix(8.6107,0,0,8.6107,148.678,269.401)">
                <rect x="0.051" y="-0.332" width="0.397" height="0.066" style="fill:rgb(1,1,1);fill-rule:nonzero;"/>
            </g>
            <g transform="matrix(8.6107,0,0,8.6107,152.552,269.401)">
                <path d="M0.23,-0.394C0.159,-0.443 0.124,-0.497 0.124,-0.557C0.124,-0.611 0.144,-0.656 0.184,-0.69C0.224,-0.724 0.276,-0.741 0.341,-0.741C0.4,-0.741 0.449,-0.727 0.486,-0.698C0.523,-0.669 0.541,-0.631 0.541,-0.585C0.541,-0.515 0.496,-0.451 0.406,-0.394C0.515,-0.34 0.57,-0.271 0.57,-0.187C0.57,-0.126 0.547,-0.077 0.501,-0.039C0.455,-0.001 0.396,0.018 0.324,0.018C0.253,0.018 0.196,0 0.152,-0.036C0.108,-0.072 0.086,-0.119 0.086,-0.178C0.086,-0.264 0.134,-0.336 0.23,-0.394ZM0.353,-0.424C0.42,-0.468 0.454,-0.517 0.454,-0.572C0.454,-0.601 0.442,-0.624 0.42,-0.642C0.397,-0.66 0.368,-0.668 0.331,-0.668C0.296,-0.668 0.267,-0.66 0.245,-0.642C0.222,-0.625 0.211,-0.602 0.211,-0.575C0.211,-0.548 0.221,-0.524 0.241,-0.502C0.261,-0.481 0.299,-0.455 0.353,-0.424ZM0.282,-0.354C0.243,-0.325 0.217,-0.298 0.203,-0.276C0.19,-0.254 0.183,-0.226 0.183,-0.193C0.183,-0.152 0.196,-0.118 0.223,-0.093C0.249,-0.067 0.285,-0.054 0.328,-0.054C0.37,-0.054 0.404,-0.065 0.431,-0.087C0.457,-0.109 0.471,-0.137 0.471,-0.172C0.471,-0.2 0.462,-0.224 0.446,-0.243C0.43,-0.262 0.398,-0.286 0.351,-0.314L0.282,-0.354Z" style="fill:rgb(1,1,1);fill-rule:nonzero;"/>
            </g>
            <g transform="matrix(8.6107,0,0,8.6107,157.567,269.401)">
                <path d="M0.122,0.003L0.122,-0.083C0.169,-0.064 0.215,-0.054 0.258,-0.054C0.306,-0.054 0.343,-0.068 0.37,-0.096C0.398,-0.124 0.411,-0.163 0.411,-0.212C0.411,-0.32 0.336,-0.375 0.187,-0.375C0.17,-0.375 0.152,-0.373 0.134,-0.371L0.134,-0.723L0.5,-0.723L0.5,-0.639L0.218,-0.639L0.218,-0.448C0.311,-0.448 0.383,-0.427 0.436,-0.384C0.488,-0.342 0.514,-0.283 0.514,-0.207C0.514,-0.137 0.49,-0.082 0.443,-0.042C0.395,-0.002 0.33,0.018 0.246,0.018C0.209,0.018 0.168,0.013 0.122,0.003Z" style="fill:rgb(1,1,1);fill-rule:nonzero;"/>
            </g>
            <g transform="matrix(8.6107,0,0,8.6107,181.741,269.401)">
                <path d="M0.15,-0L0.15,-0.072L0.295,-0.072L0.295,-0.643L0.15,-0.606L0.15,-0.681L0.392,-0.741L0.392,-0.072L0.536,-0.072L0.536,-0L0.15,-0Z" style="fill:rgb(1,1,1);fill-rule:nonzero;"/>
            </g>
            <g transform="matrix(8.6107,0,0,8.6107,186.755,269.401)">
                <path d="M0.23,-0.394C0.159,-0.443 0.124,-0.497 0.124,-0.557C0.124,-0.611 0.144,-0.656 0.184,-0.69C0.224,-0.724 0.276,-0.741 0.341,-0.741C0.4,-0.741 0.449,-0.727 0.486,-0.698C0.523,-0.669 0.541,-0.631 0.541,-0.585C0.541,-0.515 0.496,-0.451 0.406,-0.394C0.515,-0.34 0.57,-0.271 0.57,-0.187C0.57,-0.126 0.547,-0.077 0.501,-0.039C0.455,-0.001 0.396,0.018 0.324,0.018C0.253,0.018 0.196,0 0.152,-0.036C0.108,-0.072 0.086,-0.119 0.086,-0.178C0.086,-0.264 0.134,-0.336 0.23,-0.394ZM0.353,-0.424C0.42,-0.468 0.454,-0.517 0.454,-0.572C0.454,-0.601 0.442,-0.624 0.42,-0.642C0.397,-0.66 0.368,-0.668 0.331,-0.668C0.296,-0.668 0.267,-0.66 0.245,-0.642C0.222,-0.625 0.211,-0.602 0.211,-0.575C0.211,-0.548 0.221,-0.524 0.241,-0.502C0.261,-0.481 0.299,-0.455 0.353,-0.424ZM0.282,-0.354C0.243,-0.325 0.217,-0.298 0.203,-0.276C0.19,-0.254 0.183,-0.226 0.183,-0.193C0.183,-0.152 0.196,-0.118 0.223,-0.093C0.249,-0.067 0.285,-0.054 0.328,-0.054C0.37,-0.054 0.404,-0.065 0.431,-0.087C0.457,-0.109 0.471,-0.137 0.471,-0.172C0.471,-0.2 0.462,-0.224 0.446,-0.243C0.43,-0.262 0.398,-0.286 0.351,-0.314L0.282,-0.354Z" style="fill:rgb(1,1,1);fill-rule:nonzero;"/>
            </g>
            <g transform="matrix(8.6107,0,0,8.6107,191.769,269.401)">
                <path d="M0.114,-0.004L0.114,-0.086C0.175,-0.065 0.227,-0.054 0.27,-0.054C0.33,-0.054 0.377,-0.08 0.41,-0.131C0.444,-0.182 0.461,-0.252 0.461,-0.343C0.412,-0.283 0.357,-0.253 0.294,-0.253C0.234,-0.253 0.182,-0.275 0.14,-0.32C0.097,-0.365 0.076,-0.419 0.076,-0.484C0.076,-0.558 0.099,-0.619 0.144,-0.668C0.189,-0.716 0.246,-0.741 0.314,-0.741C0.392,-0.741 0.454,-0.709 0.5,-0.646C0.545,-0.583 0.567,-0.497 0.567,-0.388C0.567,-0.263 0.54,-0.165 0.485,-0.092C0.429,-0.018 0.355,0.018 0.261,0.018C0.223,0.018 0.174,0.011 0.114,-0.004ZM0.172,-0.503C0.172,-0.447 0.185,-0.403 0.21,-0.371C0.235,-0.338 0.269,-0.322 0.312,-0.322C0.353,-0.322 0.387,-0.336 0.416,-0.364C0.445,-0.391 0.459,-0.425 0.459,-0.464C0.459,-0.525 0.446,-0.575 0.418,-0.613C0.39,-0.65 0.353,-0.669 0.308,-0.669C0.266,-0.669 0.233,-0.654 0.209,-0.624C0.184,-0.594 0.172,-0.554 0.172,-0.503Z" style="fill:rgb(1,1,1);fill-rule:nonzero;"/>
            </g>
            <g transform="matrix(8.6107,0,0,8.6107,196.783,269.401)">
                <path d="M0.114,-0.004L0.114,-0.086C0.175,-0.065 0.227,-0.054 0.27,-0.054C0.33,-0.054 0.377,-0.08 0.41,-0.131C0.444,-0.182 0.461,-0.252 0.461,-0.343C0.412,-0.283 0.357,-0.253 0.294,-0.253C0.234,-0.253 0.182,-0.275 0.14,-0.32C0.097,-0.365 0.076,-0.419 0.076,-0.484C0.076,-0.558 0.099,-0.619 0.144,-0.668C0.189,-0.716 0.246,-0.741 0.314,-0.741C0.392,-0.741 0.454,-0.709 0.5,-0.646C0.545,-0.583 0.567,-0.497 0.567,-0.388C0.567,-0.263 0.54,-0.165 0.485,-0.092C0.429,-0.018 0.355,0.018 0.261,0.018C0.223,0.018 0.174,0.011 0.114,-0.004ZM0.172,-0.503C0.172,-0.447 0.185,-0.403 0.21,-0.371C0.235,-0.338 0.269,-0.322 0.312,-0.322C0.353,-0.322 0.387,-0.336 0.416,-0.364C0.445,-0.391 0.459,-0.425 0.459,-0.464C0.459,-0.525 0.446,-0.575 0.418,-0.613C0.39,-0.65 0.353,-0.669 0.308,-0.669C0.266,-0.669 0.233,-0.654 0.209,-0.624C0.184,-0.594 0.172,-0.554 0.172,-0.503Z" style="fill:rgb(1,1,1);fill-rule:nonzero;"/>
            </g>
            <g transform="matrix(8.6107,0,0,8.6107,201.798,269.401)">
                <rect x="0.051" y="-0.332" width="0.397" height="0.066" style="fill:rgb(1,1,1);fill-rule:nonzero;"/>
            </g>
            <g transform="matrix(8.6107,0,0,8.6107,205.672,269.401)">
                <path d="M0.313,0.018C0.239,0.018 0.179,-0.017 0.133,-0.087C0.087,-0.157 0.063,-0.249 0.063,-0.362C0.063,-0.476 0.087,-0.567 0.133,-0.637C0.179,-0.706 0.241,-0.741 0.316,-0.741C0.392,-0.741 0.453,-0.706 0.5,-0.637C0.546,-0.567 0.569,-0.476 0.569,-0.363C0.569,-0.247 0.546,-0.155 0.5,-0.086C0.453,-0.017 0.391,0.018 0.313,0.018ZM0.314,-0.054C0.416,-0.054 0.467,-0.158 0.467,-0.365C0.467,-0.567 0.417,-0.668 0.316,-0.668C0.216,-0.668 0.166,-0.566 0.166,-0.362C0.166,-0.157 0.215,-0.054 0.314,-0.054Z" style="fill:rgb(1,1,1);fill-rule:nonzero;"/>
            </g>
            <g transform="matrix(8.6107,0,0,8.6107,210.687,269.401)">
                <path d="M0.313,0.018C0.239,0.018 0.179,-0.017 0.133,-0.087C0.087,-0.157 0.063,-0.249 0.063,-0.362C0.063,-0.476 0.087,-0.567 0.133,-0.637C0.179,-0.706 0.241,-0.741 0.316,-0.741C0.392,-0.741 0.453,-0.706 0.5,-0.637C0.546,-0.567 0.569,-0.476 0.569,-0.363C0.569,-0.247 0.546,-0.155 0.5,-0.086C0.453,-0.017 0.391,0.018 0.313,0.018ZM0.314,-0.054C0.416,-0.054 0.467,-0.158 0.467,-0.365C0.467,-0.567 0.417,-0.668 0.316,-0.668C0.216,-0.668 0.166,-0.566 0.166,-0.362C0.166,-0.157 0.215,-0.054 0.314,-0.054Z" style="fill:rgb(1,1,1);fill-rule:nonzero;"/>
            </g>
            <g transform="matrix(8.6107,0,0,8.6107,234.861,269.401)">
                <path d="M0.15,-0L0.15,-0.072L0.295,-0.072L0.295,-0.643L0.15,-0.606L0.15,-0.681L0.392,-0.741L0.392,-0.072L0.536,-0.072L0.536,-0L0.15,-0Z" style="fill:rgb(1,1,1);fill-rule:nonzero;"/>
            </g>
            <g transform="matrix(8.6107,0,0,8.6107,239.875,269.401)">
                <path d="M0.114,-0.004L0.114,-0.086C0.175,-0.065 0.227,-0.054 0.27,-0.054C0.33,-0.054 0.377,-0.08 0.41,-0.131C0.444,-0.182 0.461,-0.252 0.461,-0.343C0.412,-0.283 0.357,-0.253 0.294,-0.253C0.234,-0.253 0.182,-0.275 0.14,-0.32C0.097,-0.365 0.076,-0.419 0.076,-0.484C0.076,-0.558 0.099,-0.619 0.144,-0.668C0.189,-0.716 0.246,-0.741 0.314,-0.741C0.392,-0.741 0.454,-0.709 0.5,-0.646C0.545,-0.583 0.567,-0.497 0.567,-0.388C0.567,-0.263 0.54,-0.165 0.485,-0.092C0.429,-0.018 0.355,0.018 0.261,0.018C0.223,0.018 0.174,0.011 0.114,-0.004ZM0.172,-0.503C0.172,-0.447 0.185,-0.403 0.21,-0.371C0.235,-0.338 0.269,-0.322 0.312,-0.322C0.353,-0.322 0.387,-0.336 0.416,-0.364C0.445,-0.391 0.459,-0.425 0.459,-0.464C0.459,-0.525 0.446,-0.575 0.418,-0.613C0.39,-0.65 0.353,-0.669 0.308,-0.669C0.266,-0.669 0.233,-0.654 0.209,-0.624C0.184,-0.594 0.172,-0.554 0.172,-0.503Z" style="fill:rgb(1,1,1);fill-rule:nonzero;"/>
            </g>
            <g transform="matrix(8.6107,0,0,8.6107,244.889,269.401)">
                <path d="M0.15,-0L0.15,-0.072L0.295,-0.072L0.295,-0.643L0.15,-0.606L0.15,-0.681L0.392,-0.741L0.392,-0.072L0.536,-0.072L0.536,-0L0.15,-0Z" style="fill:rgb(1,1,1);fill-rule:nonzero;"/>
            </g>
            <g transform="matrix(8.6107,0,0,8.6107,249.903,269.401)">
                <path d="M0.376,-0L0.376,-0.205L0.051,-0.205L0.051,-0.277L0.376,-0.723L0.467,-0.723L0.467,-0.283L0.563,-0.283L0.563,-0.205L0.467,-0.205L0.467,-0L0.376,-0ZM0.146,-0.283L0.383,-0.283L0.383,-0.604L0.146,-0.283Z" style="fill:rgb(1,1,1);fill-rule:nonzero;"/>
            </g>
            <g transform="matrix(8.6107,0,0,8.6107,254.918,269.401)">
                <rect x="0.051" y="-0.332" width="0.397" height="0.066" style="fill:rgb(1,1,1);fill-rule:nonzero;"/>
            </g>
            <g transform="matrix(8.6107,0,0,8.6107,258.792,269.401)">
                <path d="M0.15,-0L0.15,-0.072L0.295,-0.072L0.295,-0.643L0.15,-0.606L0.15,-0.681L0.392,-0.741L0.392,-0.072L0.536,-0.072L0.536,-0L0.15,-0Z" style="fill:rgb(1,1,1);fill-rule:nonzero;"/>
            </g>
            <g transform="matrix(8.6107,0,0,8.6107,263.807,269.401)">
                <path d="M0.122,0.003L0.122,-0.083C0.169,-0.064 0.215,-0.054 0.258,-0.054C0.306,-0.054 0.343,-0.068 0.37,-0.096C0.398,-0.124 0.411,-0.163 0.411,-0.212C0.411,-0.32 0.336,-0.375 0.187,-0.375C0.17,-0.375 0.152,-0.373 0.134,-0.371L0.134,-0.723L0.5,-0.723L0.5,-0.639L0.218,-0.639L0.218,-0.448C0.311,-0.448 0.383,-0.427 0.436,-0.384C0.488,-0.342 0.514,-0.283 0.514,-0.207C0.514,-0.137 0.49,-0.082 0.443,-0.042C0.395,-0.002 0.33,0.018 0.246,0.018C0.209,0.018 0.168,0.013 0.122,0.003Z" style="fill:rgb(1,1,1);fill-rule:nonzero;"/>
            </g>
            <g transform="matrix(8.6107,0,0,8.6107,287.978,269.401)">
                <path d="M0.15,-0L0.15,-0.072L0.295,-0.072L0.295,-0.643L0.15,-0.606L0.15,-0.681L0.392,-0.741L0.392,-0.072L0.536,-0.072L0.536,-0L0.15,-0Z" style="fill:rgb(1,1,1);fill-rule:nonzero;"/>
            </g>
            <g transform="matrix(8.6107,0,0,8.6107,292.993,269.401)">
                <path d="M0.114,-0.004L0.114,-0.086C0.175,-0.065 0.227,-0.054 0.27,-0.054C0.33,-0.054 0.377,-0.08 0.41,-0.131C0.444,-0.182 0.461,-0.252 0.461,-0.343C0.412,-0.283 0.357,-0.253 0.294,-0.253C0.234,-0.253 0.182,-0.275 0.14,-0.32C0.097,-0.365 0.076,-0.419 0.076,-0.484C0.076,-0.558 0.099,-0.619 0.144,-0.668C0.189,-0.716 0.246,-0.741 0.314,-0.741C0.392,-0.741 0.454,-0.709 0.5,-0.646C0.545,-0.583 0.567,-0.497 0.567,-0.388C0.567,-0.263 0.54,-0.165 0.485,-0.092C0.429,-0.018 0.355,0.018 0.261,0.018C0.223,0.018 0.174,0.011 0.114,-0.004ZM0.172,-0.503C0.172,-0.447 0.185,-0.403 0.21,-0.371C0.235,-0.338 0.269,-0.322 0.312,-0.322C0.353,-0.322 0.387,-0.336 0.416,-0.364C0.445,-0.391 0.459,-0.425 0.459,-0.464C0.459,-0.525 0.446,-0.575 0.418,-0.613C0.39,-0.65 0.353,-0.669 0.308,-0.669C0.266,-0.669 0.233,-0.654 0.209,-0.624C0.184,-0.594 0.172,-0.554 0.172,-0.503Z" style="fill:rgb(1,1,1);fill-rule:nonzero;"/>
            </g>
            <g transform="matrix(8.6107,0,0,8.6107,298.007,269.401)">
                <path d="M0.083,-0L0.083,-0.084C0.111,-0.15 0.168,-0.221 0.253,-0.298L0.308,-0.348C0.379,-0.412 0.415,-0.475 0.415,-0.539C0.415,-0.579 0.402,-0.611 0.378,-0.634C0.354,-0.657 0.321,-0.668 0.278,-0.668C0.228,-0.668 0.169,-0.649 0.101,-0.61L0.101,-0.695C0.165,-0.726 0.229,-0.741 0.292,-0.741C0.36,-0.741 0.414,-0.722 0.455,-0.686C0.496,-0.65 0.517,-0.601 0.517,-0.541C0.517,-0.498 0.506,-0.459 0.486,-0.426C0.465,-0.392 0.426,-0.352 0.37,-0.304L0.333,-0.272C0.256,-0.207 0.211,-0.144 0.199,-0.084L0.513,-0.084L0.513,-0L0.083,-0Z" style="fill:rgb(1,1,1);fill-rule:nonzero;"/>
            </g>
            <g transform="matrix(8.6107,0,0,8.6107,303.021,269.401)">
                <path d="M0.114,-0.004L0.114,-0.086C0.175,-0.065 0.227,-0.054 0.27,-0.054C0.33,-0.054 0.377,-0.08 0.41,-0.131C0.444,-0.182 0.461,-0.252 0.461,-0.343C0.412,-0.283 0.357,-0.253 0.294,-0.253C0.234,-0.253 0.182,-0.275 0.14,-0.32C0.097,-0.365 0.076,-0.419 0.076,-0.484C0.076,-0.558 0.099,-0.619 0.144,-0.668C0.189,-0.716 0.246,-0.741 0.314,-0.741C0.392,-0.741 0.454,-0.709 0.5,-0.646C0.545,-0.583 0.567,-0.497 0.567,-0.388C0.567,-0.263 0.54,-0.165 0.485,-0.092C0.429,-0.018 0.355,0.018 0.261,0.018C0.223,0.018 0.174,0.011 0.114,-0.004ZM0.172,-0.503C0.172,-0.447 0.185,-0.403 0.21,-0.371C0.235,-0.338 0.269,-0.322 0.312,-0.322C0.353,-0.322 0.387,-0.336 0.416,-0.364C0.445,-0.391 0.459,-0.425 0.459,-0.464C0.459,-0.525 0.446,-0.575 0.418,-0.613C0.39,-0.65 0.353,-0.669 0.308,-0.669C0.266,-0.669 0.233,-0.654 0.209,-0.624C0.184,-0.594 0.172,-0.554 0.172,-0.503Z" style="fill:rgb(1,1,1);fill-rule:nonzero;"/>
            </g>
            <g transform="matrix(8.6107,0,0,8.6107,308.035,269.401)">
                <rect x="0.051" y="-0.332" width="0.397" height="0.066" style="fill:rgb(1,1,1);fill-rule:nonzero;"/>
            </g>
            <g transform="matrix(8.6107,0,0,8.6107,311.91,269.401)">
                <path d="M0.102,-0.005L0.102,-0.095C0.171,-0.068 0.225,-0.054 0.265,-0.054C0.311,-0.054 0.348,-0.068 0.377,-0.094C0.406,-0.121 0.42,-0.156 0.42,-0.199C0.42,-0.3 0.349,-0.351 0.207,-0.351L0.168,-0.351L0.168,-0.416L0.202,-0.417C0.336,-0.417 0.402,-0.464 0.402,-0.558C0.402,-0.632 0.358,-0.668 0.271,-0.668C0.222,-0.668 0.169,-0.655 0.111,-0.628L0.111,-0.712C0.168,-0.731 0.224,-0.741 0.277,-0.741C0.425,-0.741 0.499,-0.685 0.499,-0.573C0.499,-0.488 0.449,-0.428 0.348,-0.392C0.465,-0.365 0.523,-0.301 0.523,-0.2C0.523,-0.132 0.5,-0.079 0.456,-0.04C0.411,-0.001 0.349,0.018 0.271,0.018C0.226,0.018 0.17,0.01 0.102,-0.005Z" style="fill:rgb(1,1,1);fill-rule:nonzero;"/>
            </g>
            <g transform="matrix(8.6107,0,0,8.6107,316.924,269.401)">
                <path d="M0.313,0.018C0.239,0.018 0.179,-0.017 0.133,-0.087C0.087,-0.157 0.063,-0.249 0.063,-0.362C0.063,-0.476 0.087,-0.567 0.133,-0.637C0.179,-0.706 0.241,-0.741 0.316,-0.741C0.392,-0.741 0.453,-0.706 0.5,-0.637C0.546,-0.567 0.569,-0.476 0.569,-0.363C0.569,-0.247 0.546,-0.155 0.5,-0.086C0.453,-0.017 0.391,0.018 0.313,0.018ZM0.314,-0.054C0.416,-0.054 0.467,-0.158 0.467,-0.365C0.467,-0.567 0.417,-0.668 0.316,-0.668C0.216,-0.668 0.166,-0.566 0.166,-0.362C0.166,-0.157 0.215,-0.054 0.314,-0.054Z" style="fill:rgb(1,1,1);fill-rule:nonzero;"/>
            </g>
            <g transform="matrix(8.6107,0,0,8.6107,341.098,269.401)">
                <path d="M0.15,-0L0.15,-0.072L0.295,-0.072L0.295,-0.643L0.15,-0.606L0.15,-0.681L0.392,-0.741L0.392,-0.072L0.536,-0.072L0.536,-0L0.15,-0Z" style="fill:rgb(1,1,1);fill-rule:nonzero;"/>
            </g>
            <g transform="matrix(8.6107,0,0,8.6107,346.113,269.401)">
                <path d="M0.114,-0.004L0.114,-0.086C0.175,-0.065 0.227,-0.054 0.27,-0.054C0.33,-0.054 0.377,-0.08 0.41,-0.131C0.444,-0.182 0.461,-0.252 0.461,-0.343C0.412,-0.283 0.357,-0.253 0.294,-0.253C0.234,-0.253 0.182,-0.275 0.14,-0.32C0.097,-0.365 0.076,-0.419 0.076,-0.484C0.076,-0.558 0.099,-0.619 0.144,-0.668C0.189,-0.716 0.246,-0.741 0.314,-0.741C0.392,-0.741 0.454,-0.709 0.5,-0.646C0.545,-0.583 0.567,-0.497 0.567,-0.388C0.567,-0.263 0.54,-0.165 0.485,-0.092C0.429,-0.018 0.355,0.018 0.261,0.018C0.223,0.018 0.174,0.011 0.114,-0.004ZM0.172,-0.503C0.172,-0.447 0.185,-0.403 0.21,-0.371C0.235,-0.338 0.269,-0.322 0.312,-0.322C0.353,-0.322 0.387,-0.336 0.416,-0.364C0.445,-0.391 0.459,-0.425 0.459,-0.464C0.459,-0.525 0.446,-0.575 0.418,-0.613C0.39,-0.65 0.353,-0.669 0.308,-0.669C0.266,-0.669 0.233,-0.654 0.209,-0.624C0.184,-0.594 0.172,-0.554 0.172,-0.503Z" style="fill:rgb(1,1,1);fill-rule:nonzero;"/>
            </g>
            <g transform="matrix(8.6107,0,0,8.6107,351.127,269.401)">
                <path d="M0.376,-0L0.376,-0.205L0.051,-0.205L0.051,-0.277L0.376,-0.723L0.467,-0.723L0.467,-0.283L0.563,-0.283L0.563,-0.205L0.467,-0.205L0.467,-0L0.376,-0ZM0.146,-0.283L0.383,-0.283L0.383,-0.604L0.146,-0.283Z" style="fill:rgb(1,1,1);fill-rule:nonzero;"/>
            </g>
            <g transform="matrix(8.6107,0,0,8.6107,356.141,269.401)">
                <path d="M0.376,-0L0.376,-0.205L0.051,-0.205L0.051,-0.277L0.376,-0.723L0.467,-0.723L0.467,-0.283L0.563,-0.283L0.563,-0.205L0.467,-0.205L0.467,-0L0.376,-0ZM0.146,-0.283L0.383,-0.283L0.383,-0.604L0.146,-0.283Z" style="fill:rgb(1,1,1);fill-rule:nonzero;"/>
            </g>
            <g transform="matrix(8.6107,0,0,8.6107,361.155,269.401)">
                <rect x="0.051" y="-0.332" width="0.397" height="0.066" style="fill:rgb(1,1,1);fill-rule:nonzero;"/>
            </g>
            <g transform="matrix(8.6107,0,0,8.6107,365.03,269.401)">
                <path d="M0.376,-0L0.376,-0.205L0.051,-0.205L0.051,-0.277L0.376,-0.723L0.467,-0.723L0.467,-0.283L0.563,-0.283L0.563,-0.205L0.467,-0.205L0.467,-0L0.376,-0ZM0.146,-0.283L0.383,-0.283L0.383,-0.604L0.146,-0.283Z" style="fill:rgb(1,1,1);fill-rule:nonzero;"/>
            </g>
            <g transform="matrix(8.6107,0,0,8.6107,370.044,269.401)">
                <path d="M0.122,0.003L0.122,-0.083C0.169,-0.064 0.215,-0.054 0.258,-0.054C0.306,-0.054 0.343,-0.068 0.37,-0.096C0.398,-0.124 0.411,-0.163 0.411,-0.212C0.411,-0.32 0.336,-0.375 0.187,-0.375C0.17,-0.375 0.152,-0.373 0.134,-0.371L0.134,-0.723L0.5,-0.723L0.5,-0.639L0.218,-0.639L0.218,-0.448C0.311,-0.448 0.383,-0.427 0.436,-0.384C0.488,-0.342 0.514,-0.283 0.514,-0.207C0.514,-0.137 0.49,-0.082 0.443,-0.042C0.395,-0.002 0.33,0.018 0.246,0.018C0.209,0.018 0.168,0.013 0.122,0.003Z" style="fill:rgb(1,1,1);fill-rule:nonzero;"/>
            </g>
            <g transform="matrix(8.6107,0,0,8.6107,394.218,269.401)">
                <path d="M0.15,-0L0.15,-0.072L0.295,-0.072L0.295,-0.643L0.15,-0.606L0.15,-0.681L0.392,-0.741L0.392,-0.072L0.536,-0.072L0.536,-0L0.15,-0Z" style="fill:rgb(1,1,1);fill-rule:nonzero;"/>
            </g>
            <g transform="matrix(8.6107,0,0,8.6107,399.233,269.401)">
                <path d="M0.114,-0.004L0.114,-0.086C0.175,-0.065 0.227,-0.054 0.27,-0.054C0.33,-0.054 0.377,-0.08 0.41,-0.131C0.444,-0.182 0.461,-0.252 0.461,-0.343C0.412,-0.283 0.357,-0.253 0.294,-0.253C0.234,-0.253 0.182,-0.275 0.14,-0.32C0.097,-0.365 0.076,-0.419 0.076,-0.484C0.076,-0.558 0.099,-0.619 0.144,-0.668C0.189,-0.716 0.246,-0.741 0.314,-0.741C0.392,-0.741 0.454,-0.709 0.5,-0.646C0.545,-0.583 0.567,-0.497 0.567,-0.388C0.567,-0.263 0.54,-0.165 0.485,-0.092C0.429,-0.018 0.355,0.018 0.261,0.018C0.223,0.018 0.174,0.011 0.114,-0.004ZM0.172,-0.503C0.172,-0.447 0.185,-0.403 0.21,-0.371C0.235,-0.338 0.269,-0.322 0.312,-0.322C0.353,-0.322 0.387,-0.336 0.416,-0.364C0.445,-0.391 0.459,-0.425 0.459,-0.464C0.459,-0.525 0.446,-0.575 0.418,-0.613C0.39,-0.65 0.353,-0.669 0.308,-0.669C0.266,-0.669 0.233,-0.654 0.209,-0.624C0.184,-0.594 0.172,-0.554 0.172,-0.503Z" style="fill:rgb(1,1,1);fill-rule:nonzero;"/>
            </g>
            <g transform="matrix(8.6107,0,0,8.6107,404.247,269.401)">
                <path d="M0.122,0.003L0.122,-0.083C0.169,-0.064 0.215,-0.054 0.258,-0.054C0.306,-0.054 0.343,-0.068 0.37,-0.096C0.398,-0.124 0.411,-0.163 0.411,-0.212C0.411,-0.32 0.336,-0.375 0.187,-0.375C0.17,-0.375 0.152,-0.373 0.134,-0.371L0.134,-0.723L0.5,-0.723L0.5,-0.639L0.218,-0.639L0.218,-0.448C0.311,-0.448 0.383,-0.427 0.436,-0.384C0.488,-0.342 0.514,-0.283 0.514,-0.207C0.514,-0.137 0.49,-0.082 0.443,-0.042C0.395,-0.002 0.33,0.018 0.246,0.018C0.209,0.018 0.168,0.013 0.122,0.003Z" style="fill:rgb(1,1,1);fill-rule:nonzero;"/>
            </g>
            <g transform="matrix(8.6107,0,0,8.6107,409.261,269.401)">
                <path d="M0.114,-0.004L0.114,-0.086C0.175,-0.065 0.227,-0.054 0.27,-0.054C0.33,-0.054 0.377,-0.08 0.41,-0.131C0.444,-0.182 0.461,-0.252 0.461,-0.343C0.412,-0.283 0.357,-0.253 0.294,-0.253C0.234,-0.253 0.182,-0.275 0.14,-0.32C0.097,-0.365 0.076,-0.419 0.076,-0.484C0.076,-0.558 0.099,-0.619 0.144,-0.668C0.189,-0.716 0.246,-0.741 0.314,-0.741C0.392,-0.741 0.454,-0.709 0.5,-0.646C0.545,-0.583 0.567,-0.497 0.567,-0.388C0.567,-0.263 0.54,-0.165 0.485,-0.092C0.429,-0.018 0.355,0.018 0.261,0.018C0.223,0.018 0.174,0.011 0.114,-0.004ZM0.172,-0.503C0.172,-0.447 0.185,-0.403 0.21,-0.371C0.235,-0.338 0.269,-0.322 0.312,-0.322C0.353,-0.322 0.387,-0.336 0.416,-0.364C0.445,-0.391 0.459,-0.425 0.459,-0.464C0.459,-0.525 0.446,-0.575 0.418,-0.613C0.39,-0.65 0.353,-0.669 0.308,-0.669C0.266,-0.669 0.233,-0.654 0.209,-0.624C0.184,-0.594 0.172,-0.554 0.172,-0.503Z" style="fill:rgb(1,1,1);fill-rule:nonzero;"/>
            </g>
            <g transform="matrix(8.6107,0,0,8.6107,414.275,269.401)">
                <rect x="0.051" y="-0.332" width="0.397" height="0.066" style="fill:rgb(1,1,1);fill-rule:nonzero;"/>
            </g>
            <g transform="matrix(8.6107,0,0,8.6107,418.15,269.401)">
                <path d="M0.172,-0.375C0.218,-0.434 0.276,-0.464 0.345,-0.464C0.408,-0.464 0.46,-0.443 0.5,-0.401C0.54,-0.359 0.561,-0.306 0.561,-0.24C0.561,-0.165 0.538,-0.103 0.493,-0.055C0.448,-0.006 0.391,0.018 0.321,0.018C0.242,0.018 0.179,-0.014 0.134,-0.078C0.089,-0.142 0.067,-0.231 0.067,-0.345C0.067,-0.471 0.093,-0.568 0.144,-0.637C0.196,-0.707 0.269,-0.741 0.362,-0.741C0.405,-0.741 0.459,-0.732 0.523,-0.714L0.523,-0.63C0.455,-0.656 0.4,-0.669 0.356,-0.669C0.233,-0.669 0.172,-0.571 0.172,-0.375ZM0.464,-0.219C0.464,-0.273 0.452,-0.316 0.427,-0.348C0.402,-0.379 0.368,-0.395 0.325,-0.395C0.284,-0.395 0.249,-0.381 0.22,-0.354C0.19,-0.326 0.176,-0.293 0.176,-0.255C0.176,-0.194 0.19,-0.146 0.218,-0.109C0.245,-0.073 0.282,-0.054 0.328,-0.054C0.369,-0.054 0.402,-0.069 0.427,-0.099C0.452,-0.129 0.464,-0.169 0.464,-0.219Z" style="fill:rgb(1,1,1);fill-rule:nonzero;"/>
            </g>
            <g transform="matrix(8.6107,0,0,8.6107,423.164,269.401)">
                <path d="M0.313,0.018C0.239,0.018 0.179,-0.017 0.133,-0.087C0.087,-0.157 0.063,-0.249 0.063,-0.362C0.063,-0.476 0.087,-0.567 0.133,-0.637C0.179,-0.706 0.241,-0.741 0.316,-0.741C0.392,-0.741 0.453,-0.706 0.5,-0.637C0.546,-0.567 0.569,-0.476 0.569,-0.363C0.569,-0.247 0.546,-0.155 0.5,-0.086C0.453,-0.017 0.391,0.018 0.313,0.018ZM0.314,-0.054C0.416,-0.054 0.467,-0.158 0.467,-0.365C0.467,-0.567 0.417,-0.668 0.316,-0.668C0.216,-0.668 0.166,-0.566 0.166,-0.362C0.166,-0.157 0.215,-0.054 0.314,-0.054Z" style="fill:rgb(1,1,1);fill-rule:nonzero;"/>
            </g>
        </g>
        <g transform="matrix(4.16667,0,0,4.16667,0,0)">
            <g transform="matrix(8.6107,0,0,8.6107,75.4928,256.838)">
                <path d="M0.313,0.018C0.239,0.018 0.179,-0.017 0.133,-0.087C0.087,-0.157 0.063,-0.249 0.063,-0.362C0.063,-0.476 0.087,-0.567 0.133,-0.637C0.179,-0.706 0.241,-0.741 0.316,-0.741C0.392,-0.741 0.453,-0.706 0.5,-0.637C0.546,-0.567 0.569,-0.476 0.569,-0.363C0.569,-0.247 0.546,-0.155 0.5,-0.086C0.453,-0.017 0.391,0.018 0.313,0.018ZM0.314,-0.054C0.416,-0.054 0.467,-0.158 0.467,-0.365C0.467,-0.567 0.417,-0.668 0.316,-0.668C0.216,-0.668 0.166,-0.566 0.166,-0.362C0.166,-0.157 0.215,-0.054 0.314,-0.054Z" style="fill:rgb(1,1,1);fill-rule:nonzero;"/>
            </g>
        </g>
        <g transform="matrix(4.16667,0,0,4.16667,-12,0)">
            <g transform="matrix(8.6107,0,0,8.6107,63.8683,234.055)">
                <path d="M0.083,-0L0.083,-0.084C0.111,-0.15 0.168,-0.221 0.253,-0.298L0.308,-0.348C0.379,-0.412 0.415,-0.475 0.415,-0.539C0.415,-0.579 0.402,-0.611 0.378,-0.634C0.354,-0.657 0.321,-0.668 0.278,-0.668C0.228,-0.668 0.169,-0.649 0.101,-0.61L0.101,-0.695C0.165,-0.726 0.229,-0.741 0.292,-0.741C0.36,-0.741 0.414,-0.722 0.455,-0.686C0.496,-0.65 0.517,-0.601 0.517,-0.541C0.517,-0.498 0.506,-0.459 0.486,-0.426C0.465,-0.392 0.426,-0.352 0.37,-0.304L0.333,-0.272C0.256,-0.207 0.211,-0.144 0.199,-0.084L0.513,-0.084L0.513,-0L0.083,-0Z" style="fill:rgb(1,1,1);fill-rule:nonzero;"/>
            </g>
            <g transform="matrix(8.6107,0,0,8.6107,68.8826,234.055)">
                <path d="M0.313,0.018C0.239,0.018 0.179,-0.017 0.133,-0.087C0.087,-0.157 0.063,-0.249 0.063,-0.362C0.063,-0.476 0.087,-0.567 0.133,-0.637C0.179,-0.706 0.241,-0.741 0.316,-0.741C0.392,-0.741 0.453,-0.706 0.5,-0.637C0.546,-0.567 0.569,-0.476 0.569,-0.363C0.569,-0.247 0.546,-0.155 0.5,-0.086C0.453,-0.017 0.391,0.018 0.313,0.018ZM0.314,-0.054C0.416,-0.054 0.467,-0.158 0.467,-0.365C0.467,-0.567 0.417,-0.668 0.316,-0.668C0.216,-0.668 0.166,-0.566 0.166,-0.362C0.166,-0.157 0.215,-0.054 0.314,-0.054Z" style="fill:rgb(1,1,1);fill-rule:nonzero;"/>
            </g>
            <g transform="matrix(8.6107,0,0,8.6107,73.8968,234.055)">
                <path d="M0.313,0.018C0.239,0.018 0.179,-0.017 0.133,-0.087C0.087,-0.157 0.063,-0.249 0.063,-0.362C0.063,-0.476 0.087,-0.567 0.133,-0.637C0.179,-0.706 0.241,-0.741 0.316,-0.741C0.392,-0.741 0.453,-0.706 0.5,-0.637C0.546,-0.567 0.569,-0.476 0.569,-0.363C0.569,-0.247 0.546,-0.155 0.5,-0.086C0.453,-0.017 0.391,0.018 0.313,0.018ZM0.314,-0.054C0.416,-0.054 0.467,-0.158 0.467,-0.365C0.467,-0.567 0.417,-0.668 0.316,-0.668C0.216,-0.668 0.166,-0.566 0.166,-0.362C0.166,-0.157 0.215,-0.054 0.314,-0.054Z" style="fill:rgb(1,1,1);fill-rule:nonzero;"/>
            </g>
            <g transform="matrix(8.6107,0,0,8.6107,78.911,234.055)">
                <path d="M0.313,0.018C0.239,0.018 0.179,-0.017 0.133,-0.087C0.087,-0.157 0.063,-0.249 0.063,-0.362C0.063,-0.476 0.087,-0.567 0.133,-0.637C0.179,-0.706 0.241,-0.741 0.316,-0.741C0.392,-0.741 0.453,-0.706 0.5,-0.637C0.546,-0.567 0.569,-0.476 0.569,-0.363C0.569,-0.247 0.546,-0.155 0.5,-0.086C0.453,-0.017 0.391,0.018 0.313,0.018ZM0.314,-0.054C0.416,-0.054 0.467,-0.158 0.467,-0.365C0.467,-0.567 0.417,-0.668 0.316,-0.668C0.216,-0.668 0.166,-0.566 0.166,-0.362C0.166,-0.157 0.215,-0.054 0.314,-0.054Z" style="fill:rgb(1,1,1);fill-rule:nonzero;"/>
            </g>
        </g>
        <g transform="matrix(4.16667,0,0,4.16667,-12,0)">
            <g transform="matrix(8.6107,0,0,8.6107,63.8683,211.271)">
                <path d="M0.376,-0L0.376,-0.205L0.051,-0.205L0.051,-0.277L0.376,-0.723L0.467,-0.723L0.467,-0.283L0.563,-0.283L0.563,-0.205L0.467,-0.205L0.467,-0L0.376,-0ZM0.146,-0.283L0.383,-0.283L0.383,-0.604L0.146,-0.283Z" style="fill:rgb(1,1,1);fill-rule:nonzero;"/>
            </g>
            <g transform="matrix(8.6107,0,0,8.6107,68.8826,211.271)">
                <path d="M0.313,0.018C0.239,0.018 0.179,-0.017 0.133,-0.087C0.087,-0.157 0.063,-0.249 0.063,-0.362C0.063,-0.476 0.087,-0.567 0.133,-0.637C0.179,-0.706 0.241,-0.741 0.316,-0.741C0.392,-0.741 0.453,-0.706 0.5,-0.637C0.546,-0.567 0.569,-0.476 0.569,-0.363C0.569,-0.247 0.546,-0.155 0.5,-0.086C0.453,-0.017 0.391,0.018 0.313,0.018ZM0.314,-0.054C0.416,-0.054 0.467,-0.158 0.467,-0.365C0.467,-0.567 0.417,-0.668 0.316,-0.668C0.216,-0.668 0.166,-0.566 0.166,-0.362C0.166,-0.157 0.215,-0.054 0.314,-0.054Z" style="fill:rgb(1,1,1);fill-rule:nonzero;"/>
            </g>
            <g transform="matrix(8.6107,0,0,8.6107,73.8968,211.271)">
                <path d="M0.313,0.018C0.239,0.018 0.179,-0.017 0.133,-0.087C0.087,-0.157 0.063,-0.249 0.063,-0.362C0.063,-0.476 0.087,-0.567 0.133,-0.637C0.179,-0.706 0.241,-0.741 0.316,-0.741C0.392,-0.741 0.453,-0.706 0.5,-0.637C0.546,-0.567 0.569,-0.476 0.569,-0.363C0.569,-0.247 0.546,-0.155 0.5,-0.086C0.453,-0.017 0.391,0.018 0.313,0.018ZM0.314,-0.054C0.416,-0.054 0.467,-0.158 0.467,-0.365C0.467,-0.567 0.417,-0.668 0.316,-0.668C0.216,-0.668 0.166,-0.566 0.166,-0.362C0.166,-0.157 0.215,-0.054 0.314,-0.054Z" style="fill:rgb(1,1,1);fill-rule:nonzero;"/>
            </g>
            <g transform="matrix(8.6107,0,0,8.6107,78.911,211.271)">
                <path d="M0.313,0.018C0.239,0.018 0.179,-0.017 0.133,-0.087C0.087,-0.157 0.063,-0.249 0.063,-0.362C0.063,-0.476 0.087,-0.567 0.133,-0.637C0.179,-0.706 0.241,-0.741 0.316,-0.741C0.392,-0.741 0.453,-0.706 0.5,-0.637C0.546,-0.567 0.569,-0.476 0.569,-0.363C0.569,-0.247 0.546,-0.155 0.5,-0.086C0.453,-0.017 0.391,0.018 0.313,0.018ZM0.314,-0.054C0.416,-0.054 0.467,-0.158 0.467,-0.365C0.467,-0.567 0.417,-0.668 0.316,-0.668C0.216,-0.668 0.166,-0.566 0.166,-0.362C0.166,-0.157 0.215,-0.054 0.314,-0.054Z" style="fill:rgb(1,1,1);fill-rule:nonzero;"/>
            </g>
        </g>
        <g transform="matrix(4.16667,0,0,4.16667,-12,0)">
            <g transform="matrix(8.6107,0,0,8.6107,63.8683,188.487)">
                <path d="M0.172,-0.375C0.218,-0.434 0.276,-0.464 0.345,-0.464C0.408,-0.464 0.46,-0.443 0.5,-0.401C0.54,-0.359 0.561,-0.306 0.561,-0.24C0.561,-0.165 0.538,-0.103 0.493,-0.055C0.448,-0.006 0.391,0.018 0.321,0.018C0.242,0.018 0.179,-0.014 0.134,-0.078C0.089,-0.142 0.067,-0.231 0.067,-0.345C0.067,-0.471 0.093,-0.568 0.144,-0.637C0.196,-0.707 0.269,-0.741 0.362,-0.741C0.405,-0.741 0.459,-0.732 0.523,-0.714L0.523,-0.63C0.455,-0.656 0.4,-0.669 0.356,-0.669C0.233,-0.669 0.172,-0.571 0.172,-0.375ZM0.464,-0.219C0.464,-0.273 0.452,-0.316 0.427,-0.348C0.402,-0.379 0.368,-0.395 0.325,-0.395C0.284,-0.395 0.249,-0.381 0.22,-0.354C0.19,-0.326 0.176,-0.293 0.176,-0.255C0.176,-0.194 0.19,-0.146 0.218,-0.109C0.245,-0.073 0.282,-0.054 0.328,-0.054C0.369,-0.054 0.402,-0.069 0.427,-0.099C0.452,-0.129 0.464,-0.169 0.464,-0.219Z" style="fill:rgb(1,1,1);fill-rule:nonzero;"/>
            </g>
            <g transform="matrix(8.6107,0,0,8.6107,68.8826,188.487)">
                <path d="M0.313,0.018C0.239,0.018 0.179,-0.017 0.133,-0.087C0.087,-0.157 0.063,-0.249 0.063,-0.362C0.063,-0.476 0.087,-0.567 0.133,-0.637C0.179,-0.706 0.241,-0.741 0.316,-0.741C0.392,-0.741 0.453,-0.706 0.5,-0.637C0.546,-0.567 0.569,-0.476 0.569,-0.363C0.569,-0.247 0.546,-0.155 0.5,-0.086C0.453,-0.017 0.391,0.018 0.313,0.018ZM0.314,-0.054C0.416,-0.054 0.467,-0.158 0.467,-0.365C0.467,-0.567 0.417,-0.668 0.316,-0.668C0.216,-0.668 0.166,-0.566 0.166,-0.362C0.166,-0.157 0.215,-0.054 0.314,-0.054Z" style="fill:rgb(1,1,1);fill-rule:nonzero;"/>
            </g>
            <g transform="matrix(8.6107,0,0,8.6107,73.8968,188.487)">
                <path d="M0.313,0.018C0.239,0.018 0.179,-0.017 0.133,-0.087C0.087,-0.157 0.063,-0.249 0.063,-0.362C0.063,-0.476 0.087,-0.567 0.133,-0.637C0.179,-0.706 0.241,-0.741 0.316,-0.741C0.392,-0.741 0.453,-0.706 0.5,-0.637C0.546,-0.567 0.569,-0.476 0.569,-0.363C0.569,-0.247 0.546,-0.155 0.5,-0.086C0.453,-0.017 0.391,0.018 0.313,0.018ZM0.314,-0.054C0.416,-0.054 0.467,-0.158 0.467,-0.365C0.467,-0.567 0.417,-0.668 0.316,-0.668C0.216,-0.668 0.166,-0.566 0.166,-0.362C0.166,-0.157 0.215,-0.054 0.314,-0.054Z" style="fill:rgb(1,1,1);fill-rule:nonzero;"/>
            </g>
            <g transform="matrix(8.6107,0,0,8.6107,78.911,188.487)">
                <path d="M0.313,0.018C0.239,0.018 0.179,-0.017 0.133,-0.087C0.087,-0.157 0.063,-0.249 0.063,-0.362C0.063,-0.476 0.087,-0.567 0.133,-0.637C0.179,-0.706 0.241,-0.741 0.316,-0.741C0.392,-0.741 0.453,-0.706 0.5,-0.637C0.546,-0.567 0.569,-0.476 0.569,-0.363C0.569,-0.247 0.546,-0.155 0.5,-0.086C0.453,-0.017 0.391,0.018 0.313,0.018ZM0.314,-0.054C0.416,-0.054 0.467,-0.158 0.467,-0.365C0.467,-0.567 0.417,-0.668 0.316,-0.668C0.216,-0.668 0.166,-0.566 0.166,-0.362C0.166,-0.157 0.215,-0.054 0.314,-0.054Z" style="fill:rgb(1,1,1);fill-rule:nonzero;"/>
            </g>
        </g>
        <g transform="matrix(4.16667,0,0,4.16667,-12,0)">
            <g transform="matrix(8.6107,0,0,8.6107,63.8683,165.703)">
                <path d="M0.23,-0.394C0.159,-0.443 0.124,-0.497 0.124,-0.557C0.124,-0.611 0.144,-0.656 0.184,-0.69C0.224,-0.724 0.276,-0.741 0.341,-0.741C0.4,-0.741 0.449,-0.727 0.486,-0.698C0.523,-0.669 0.541,-0.631 0.541,-0.585C0.541,-0.515 0.496,-0.451 0.406,-0.394C0.515,-0.34 0.57,-0.271 0.57,-0.187C0.57,-0.126 0.547,-0.077 0.501,-0.039C0.455,-0.001 0.396,0.018 0.324,0.018C0.253,0.018 0.196,0 0.152,-0.036C0.108,-0.072 0.086,-0.119 0.086,-0.178C0.086,-0.264 0.134,-0.336 0.23,-0.394ZM0.353,-0.424C0.42,-0.468 0.454,-0.517 0.454,-0.572C0.454,-0.601 0.442,-0.624 0.42,-0.642C0.397,-0.66 0.368,-0.668 0.331,-0.668C0.296,-0.668 0.267,-0.66 0.245,-0.642C0.222,-0.625 0.211,-0.602 0.211,-0.575C0.211,-0.548 0.221,-0.524 0.241,-0.502C0.261,-0.481 0.299,-0.455 0.353,-0.424ZM0.282,-0.354C0.243,-0.325 0.217,-0.298 0.203,-0.276C0.19,-0.254 0.183,-0.226 0.183,-0.193C0.183,-0.152 0.196,-0.118 0.223,-0.093C0.249,-0.067 0.285,-0.054 0.328,-0.054C0.37,-0.054 0.404,-0.065 0.431,-0.087C0.457,-0.109 0.471,-0.137 0.471,-0.172C0.471,-0.2 0.462,-0.224 0.446,-0.243C0.43,-0.262 0.398,-0.286 0.351,-0.314L0.282,-0.354Z" style="fill:rgb(1,1,1);fill-rule:nonzero;"/>
            </g>
            <g transform="matrix(8.6107,0,0,8.6107,68.8826,165.703)">
                <path d="M0.313,0.018C0.239,0.018 0.179,-0.017 0.133,-0.087C0.087,-0.157 0.063,-0.249 0.063,-0.362C0.063,-0.476 0.087,-0.567 0.133,-0.637C0.179,-0.706 0.241,-0.741 0.316,-0.741C0.392,-0.741 0.453,-0.706 0.5,-0.637C0.546,-0.567 0.569,-0.476 0.569,-0.363C0.569,-0.247 0.546,-0.155 0.5,-0.086C0.453,-0.017 0.391,0.018 0.313,0.018ZM0.314,-0.054C0.416,-0.054 0.467,-0.158 0.467,-0.365C0.467,-0.567 0.417,-0.668 0.316,-0.668C0.216,-0.668 0.166,-0.566 0.166,-0.362C0.166,-0.157 0.215,-0.054 0.314,-0.054Z" style="fill:rgb(1,1,1);fill-rule:nonzero;"/>
            </g>
            <g transform="matrix(8.6107,0,0,8.6107,73.8968,165.703)">
                <path d="M0.313,0.018C0.239,0.018 0.179,-0.017 0.133,-0.087C0.087,-0.157 0.063,-0.249 0.063,-0.362C0.063,-0.476 0.087,-0.567 0.133,-0.637C0.179,-0.706 0.241,-0.741 0.316,-0.741C0.392,-0.741 0.453,-0.706 0.5,-0.637C0.546,-0.567 0.569,-0.476 0.569,-0.363C0.569,-0.247 0.546,-0.155 0.5,-0.086C0.453,-0.017 0.391,0.018 0.313,0.018ZM0.314,-0.054C0.416,-0.054 0.467,-0.158 0.467,-0.365C0.467,-0.567 0.417,-0.668 0.316,-0.668C0.216,-0.668 0.166,-0.566 0.166,-0.362C0.166,-0.157 0.215,-0.054 0.314,-0.054Z" style="fill:rgb(1,1,1);fill-rule:nonzero;"/>
            </g>
            <g transform="matrix(8.6107,0,0,8.6107,78.911,165.703)">
                <path d="M0.313,0.018C0.239,0.018 0.179,-0.017 0.133,-0.087C0.087,-0.157 0.063,-0.249 0.063,-0.362C0.063,-0.476 0.087,-0.567 0.133,-0.637C0.179,-0.706 0.241,-0.741 0.316,-0.741C0.392,-0.741 0.453,-0.706 0.5,-0.637C0.546,-0.567 0.569,-0.476 0.569,-0.363C0.569,-0.247 0.546,-0.155 0.5,-0.086C0.453,-0.017 0.391,0.018 0.313,0.018ZM0.314,-0.054C0.416,-0.054 0.467,-0.158 0.467,-0.365C0.467,-0.567 0.417,-0.668 0.316,-0.668C0.216,-0.668 0.166,-0.566 0.166,-0.362C0.166,-0.157 0.215,-0.054 0.314,-0.054Z" style="fill:rgb(1,1,1);fill-rule:nonzero;"/>
            </g>
        </g>
        <g transform="matrix(4.16667,0,0,4.16667,-18.3266,0)">
            <g transform="matrix(8.6107,0,0,8.6107,59.9935,142.919)">
                <path d="M0.15,-0L0.15,-0.072L0.295,-0.072L0.295,-0.643L0.15,-0.606L0.15,-0.681L0.392,-0.741L0.392,-0.072L0.536,-0.072L0.536,-0L0.15,-0Z" style="fill:rgb(1,1,1);fill-rule:nonzero;"/>
            </g>
            <g transform="matrix(8.6107,0,0,8.6107,65.0077,142.919)">
                <path d="M0.313,0.018C0.239,0.018 0.179,-0.017 0.133,-0.087C0.087,-0.157 0.063,-0.249 0.063,-0.362C0.063,-0.476 0.087,-0.567 0.133,-0.637C0.179,-0.706 0.241,-0.741 0.316,-0.741C0.392,-0.741 0.453,-0.706 0.5,-0.637C0.546,-0.567 0.569,-0.476 0.569,-0.363C0.569,-0.247 0.546,-0.155 0.5,-0.086C0.453,-0.017 0.391,0.018 0.313,0.018ZM0.314,-0.054C0.416,-0.054 0.467,-0.158 0.467,-0.365C0.467,-0.567 0.417,-0.668 0.316,-0.668C0.216,-0.668 0.166,-0.566 0.166,-0.362C0.166,-0.157 0.215,-0.054 0.314,-0.054Z" style="fill:rgb(1,1,1);fill-rule:nonzero;"/>
            </g>
            <g transform="matrix(8.6107,0,0,8.6107,70.022,142.919)">
                <path d="M0.313,0.018C0.239,0.018 0.179,-0.017 0.133,-0.087C0.087,-0.157 0.063,-0.249 0.063,-0.362C0.063,-0.476 0.087,-0.567 0.133,-0.637C0.179,-0.706 0.241,-0.741 0.316,-0.741C0.392,-0.741 0.453,-0.706 0.5,-0.637C0.546,-0.567 0.569,-0.476 0.569,-0.363C0.569,-0.247 0.546,-0.155 0.5,-0.086C0.453,-0.017 0.391,0.018 0.313,0.018ZM0.314,-0.054C0.416,-0.054 0.467,-0.158 0.467,-0.365C0.467,-0.567 0.417,-0.668 0.316,-0.668C0.216,-0.668 0.166,-0.566 0.166,-0.362C0.166,-0.157 0.215,-0.054 0.314,-0.054Z" style="fill:rgb(1,1,1);fill-rule:nonzero;"/>
            </g>
            <g transform="matrix(8.6107,0,0,8.6107,75.0362,142.919)">
                <path d="M0.313,0.018C0.239,0.018 0.179,-0.017 0.133,-0.087C0.087,-0.157 0.063,-0.249 0.063,-0.362C0.063,-0.476 0.087,-0.567 0.133,-0.637C0.179,-0.706 0.241,-0.741 0.316,-0.741C0.392,-0.741 0.453,-0.706 0.5,-0.637C0.546,-0.567 0.569,-0.476 0.569,-0.363C0.569,-0.247 0.546,-0.155 0.5,-0.086C0.453,-0.017 0.391,0.018 0.313,0.018ZM0.314,-0.054C0.416,-0.054 0.467,-0.158 0.467,-0.365C0.467,-0.567 0.417,-0.668 0.316,-0.668C0.216,-0.668 0.166,-0.566 0.166,-0.362C0.166,-0.157 0.215,-0.054 0.314,-0.054Z" style="fill:rgb(1,1,1);fill-rule:nonzero;"/>
            </g>
            <g transform="matrix(8.6107,0,0,8.6107,80.0504,142.919)">
                <path d="M0.313,0.018C0.239,0.018 0.179,-0.017 0.133,-0.087C0.087,-0.157 0.063,-0.249 0.063,-0.362C0.063,-0.476 0.087,-0.567 0.133,-0.637C0.179,-0.706 0.241,-0.741 0.316,-0.741C0.392,-0.741 0.453,-0.706 0.5,-0.637C0.546,-0.567 0.569,-0.476 0.569,-0.363C0.569,-0.247 0.546,-0.155 0.5,-0.086C0.453,-0.017 0.391,0.018 0.313,0.018ZM0.314,-0.054C0.416,-0.054 0.467,-0.158 0.467,-0.365C0.467,-0.567 0.417,-0.668 0.316,-0.668C0.216,-0.668 0.166,-0.566 0.166,-0.362C0.166,-0.157 0.215,-0.054 0.314,-0.054Z" style="fill:rgb(1,1,1);fill-rule:nonzero;"/>
            </g>
        </g>
        <g transform="matrix(4.16667,0,0,4.16667,-16.6681,0.57429)">
            <g transform="matrix(8.6107,0,0,8.6107,59.9935,120.135)">
                <path d="M0.15,-0L0.15,-0.072L0.295,-0.072L0.295,-0.643L0.15,-0.606L0.15,-0.681L0.392,-0.741L0.392,-0.072L0.536,-0.072L0.536,-0L0.15,-0Z" style="fill:rgb(1,1,1);fill-rule:nonzero;"/>
            </g>
            <g transform="matrix(8.6107,0,0,8.6107,65.0077,120.135)">
                <path d="M0.083,-0L0.083,-0.084C0.111,-0.15 0.168,-0.221 0.253,-0.298L0.308,-0.348C0.379,-0.412 0.415,-0.475 0.415,-0.539C0.415,-0.579 0.402,-0.611 0.378,-0.634C0.354,-0.657 0.321,-0.668 0.278,-0.668C0.228,-0.668 0.169,-0.649 0.101,-0.61L0.101,-0.695C0.165,-0.726 0.229,-0.741 0.292,-0.741C0.36,-0.741 0.414,-0.722 0.455,-0.686C0.496,-0.65 0.517,-0.601 0.517,-0.541C0.517,-0.498 0.506,-0.459 0.486,-0.426C0.465,-0.392 0.426,-0.352 0.37,-0.304L0.333,-0.272C0.256,-0.207 0.211,-0.144 0.199,-0.084L0.513,-0.084L0.513,-0L0.083,-0Z" style="fill:rgb(1,1,1);fill-rule:nonzero;"/>
            </g>
            <g transform="matrix(8.6107,0,0,8.6107,70.022,120.135)">
                <path d="M0.313,0.018C0.239,0.018 0.179,-0.017 0.133,-0.087C0.087,-0.157 0.063,-0.249 0.063,-0.362C0.063,-0.476 0.087,-0.567 0.133,-0.637C0.179,-0.706 0.241,-0.741 0.316,-0.741C0.392,-0.741 0.453,-0.706 0.5,-0.637C0.546,-0.567 0.569,-0.476 0.569,-0.363C0.569,-0.247 0.546,-0.155 0.5,-0.086C0.453,-0.017 0.391,0.018 0.313,0.018ZM0.314,-0.054C0.416,-0.054 0.467,-0.158 0.467,-0.365C0.467,-0.567 0.417,-0.668 0.316,-0.668C0.216,-0.668 0.166,-0.566 0.166,-0.362C0.166,-0.157 0.215,-0.054 0.314,-0.054Z" style="fill:rgb(1,1,1);fill-rule:nonzero;"/>
            </g>
            <g transform="matrix(8.6107,0,0,8.6107,75.0362,120.135)">
                <path d="M0.313,0.018C0.239,0.018 0.179,-0.017 0.133,-0.087C0.087,-0.157 0.063,-0.249 0.063,-0.362C0.063,-0.476 0.087,-0.567 0.133,-0.637C0.179,-0.706 0.241,-0.741 0.316,-0.741C0.392,-0.741 0.453,-0.706 0.5,-0.637C0.546,-0.567 0.569,-0.476 0.569,-0.363C0.569,-0.247 0.546,-0.155 0.5,-0.086C0.453,-0.017 0.391,0.018 0.313,0.018ZM0.314,-0.054C0.416,-0.054 0.467,-0.158 0.467,-0.365C0.467,-0.567 0.417,-0.668 0.316,-0.668C0.216,-0.668 0.166,-0.566 0.166,-0.362C0.166,-0.157 0.215,-0.054 0.314,-0.054Z" style="fill:rgb(1,1,1);fill-rule:nonzero;"/>
            </g>
            <g transform="matrix(8.6107,0,0,8.6107,80.0504,120.135)">
                <path d="M0.313,0.018C0.239,0.018 0.179,-0.017 0.133,-0.087C0.087,-0.157 0.063,-0.249 0.063,-0.362C0.063,-0.476 0.087,-0.567 0.133,-0.637C0.179,-0.706 0.241,-0.741 0.316,-0.741C0.392,-0.741 0.453,-0.706 0.5,-0.637C0.546,-0.567 0.569,-0.476 0.569,-0.363C0.569,-0.247 0.546,-0.155 0.5,-0.086C0.453,-0.017 0.391,0.018 0.313,0.018ZM0.314,-0.054C0.416,-0.054 0.467,-0.158 0.467,-0.365C0.467,-0.567 0.417,-0.668 0.316,-0.668C0.216,-0.668 0.166,-0.566 0.166,-0.362C0.166,-0.157 0.215,-0.054 0.314,-0.054Z" style="fill:rgb(1,1,1);fill-rule:nonzero;"/>
            </g>
        </g>
        <g transform="matrix(4.16667,0,0,4.16667,366.828,779.585)">
            <path d="M0,0L335.22,0" style="fill:none;fill-rule:nonzero;stroke:rgb(147,149,152);stroke-width:0.48px;"/>
        </g>
        <g transform="matrix(4.16667,0,0,4.16667,366.828,969.991)">
            <path d="M0,0L335.22,0" style="fill:none;fill-rule:nonzero;stroke:rgb(147,149,152);stroke-width:0.48px;"/>
        </g>
        <g transform="matrix(0,-4.16667,-4.16667,0,1559.6,779.586)">
            <path d="M-68.547,68.547L68.547,68.547" style="fill:none;fill-rule:nonzero;stroke:rgb(147,149,152);stroke-width:0.48px;"/>
        </g>
        <g transform="matrix(0,-4.16667,-4.16667,0,1602.8,779.586)">
            <path d="M-68.547,68.547L68.547,68.547" style="fill:none;fill-rule:nonzero;stroke:rgb(147,149,152);stroke-width:0.48px;"/>
        </g>
        <g transform="matrix(0,-4.16667,-4.16667,0,1646,779.586)">
            <path d="M-68.547,68.547L68.547,68.547" style="fill:none;fill-rule:nonzero;stroke:rgb(147,149,152);stroke-width:0.48px;"/>
        </g>
        <g transform="matrix(0,-4.16667,-4.16667,0,1689.2,779.586)">
            <path d="M-68.547,68.547L68.547,68.547" style="fill:none;fill-rule:nonzero;stroke:rgb(147,149,152);stroke-width:0.48px;"/>
        </g>
        <g transform="matrix(0,-4.16667,-4.16667,0,1732.39,779.586)">
            <path d="M-68.547,68.547L68.547,68.547" style="fill:none;fill-rule:nonzero;stroke:rgb(147,149,152);stroke-width:0.48px;"/>
        </g>
        <g transform="matrix(0,-4.16667,-4.16667,0,1775.59,779.586)">
            <path d="M-68.547,68.547L68.547,68.547" style="fill:none;fill-rule:nonzero;stroke:rgb(147,149,152);stroke-width:0.48px;"/>
        </g>
        <g transform="matrix(0,-4.16667,-4.16667,0,1818.79,779.586)">
            <path d="M-68.547,68.547L68.547,68.547" style="fill:none;fill-rule:nonzero;stroke:rgb(147,149,152);stroke-width:0.48px;"/>
        </g>
        <g transform="matrix(0,-4.16667,-4.16667,0,1861.99,779.586)">
            <path d="M-68.547,68.547L68.547,68.547" style="fill:none;fill-rule:nonzero;stroke:rgb(147,149,152);stroke-width:0.48px;"/>
        </g>
        <g transform="matrix(0,-4.16667,-4.16667,0,1905.19,779.586)">
            <path d="M-68.547,68.547L68.547,68.547" style="fill:none;fill-rule:nonzero;stroke:rgb(147,149,152);stroke-width:0.48px;"/>
        </g>
        <g transform="matrix(0,-4.16667,-4.16667,0,1948.39,779.586)">
            <path d="M-68.547,68.547L68.547,68.547" style="fill:none;fill-rule:nonzero;stroke:rgb(147,149,152);stroke-width:0.48px;"/>
        </g>
        <g transform="matrix(0,-4.16667,-4.16667,0,1991.58,779.586)">
            <path d="M-68.547,68.547L68.547,68.547" style="fill:none;fill-rule:nonzero;stroke:rgb(147,149,152);stroke-width:0.48px;"/>
        </g>
        <g transform="matrix(0,-4.16667,-4.16667,0,2034.78,779.586)">
            <path d="M-68.547,68.547L68.547,68.547" style="fill:none;fill-rule:nonzero;stroke:rgb(147,149,152);stroke-width:0.48px;"/>
        </g>
        <g transform="matrix(4.16667,0,0,4.16667,366.828,874.792)">
            <path d="M0,0L335.22,0" style="fill:none;fill-rule:nonzero;stroke:rgb(147,149,152);stroke-width:0.48px;"/>
        </g>
        <g transform="matrix(0,-4.16667,-4.16667,0,1280.05,1071.26)">
            <path d="M-1.455,1.455L1.455,1.455" style="fill:none;fill-rule:nonzero;stroke:rgb(147,149,152);stroke-width:0.48px;"/>
        </g>
        <g transform="matrix(0,-4.16667,-4.16667,0,1323.25,1071.26)">
            <path d="M-1.455,1.455L1.455,1.455" style="fill:none;fill-rule:nonzero;stroke:rgb(147,149,152);stroke-width:0.48px;"/>
        </g>
        <g transform="matrix(0,-4.16667,-4.16667,0,1366.45,1071.26)">
            <path d="M-1.455,1.455L1.455,1.455" style="fill:none;fill-rule:nonzero;stroke:rgb(147,149,152);stroke-width:0.48px;"/>
        </g>
        <g transform="matrix(0,-4.16667,-4.16667,0,1409.65,1071.26)">
            <path d="M-1.455,1.455L1.455,1.455" style="fill:none;fill-rule:nonzero;stroke:rgb(147,149,152);stroke-width:0.48px;"/>
        </g>
        <g transform="matrix(0,-4.16667,-4.16667,0,1452.84,1071.26)">
            <path d="M-1.455,1.455L1.455,1.455" style="fill:none;fill-rule:nonzero;stroke:rgb(147,149,152);stroke-width:0.48px;"/>
        </g>
        <g transform="matrix(0,-4.16667,-4.16667,0,1496.04,1071.26)">
            <path d="M-1.455,1.455L1.455,1.455" style="fill:none;fill-rule:nonzero;stroke:rgb(147,149,152);stroke-width:0.48px;"/>
        </g>
        <g transform="matrix(0,-4.16667,-4.16667,0,1539.24,1071.26)">
            <path d="M-1.455,1.455L1.455,1.455" style="fill:none;fill-rule:nonzero;stroke:rgb(147,149,152);stroke-width:0.48px;"/>
        </g>
        <g transform="matrix(0,-4.16667,-4.16667,0,1582.44,1071.26)">
            <path d="M-1.455,1.455L1.455,1.455" style="fill:none;fill-rule:nonzero;stroke:rgb(147,149,152);stroke-width:0.48px;"/>
        </g>
        <g transform="matrix(0,-4.16667,-4.16667,0,1625.64,1071.26)">
            <path d="M-1.455,1.455L1.455,1.455" style="fill:none;fill-rule:nonzero;stroke:rgb(147,149,152);stroke-width:0.48px;"/>
        </g>
        <g transform="matrix(0,-4.16667,-4.16667,0,1668.84,1071.26)">
            <path d="M-1.455,1.455L1.455,1.455" style="fill:none;fill-rule:nonzero;stroke:rgb(147,149,152);stroke-width:0.48px;"/>
        </g>
        <g transform="matrix(0,-4.16667,-4.16667,0,1712.03,1071.26)">
            <path d="M-1.455,1.455L1.455,1.455" style="fill:none;fill-rule:nonzero;stroke:rgb(147,149,152);stroke-width:0.48px;"/>
        </g>
        <g transform="matrix(0,-4.16667,-4.16667,0,1755.23,1071.26)">
            <path d="M-1.455,1.455L1.455,1.455" style="fill:none;fill-rule:nonzero;stroke:rgb(147,149,152);stroke-width:0.48px;"/>
        </g>
        <g transform="matrix(4.16667,0,0,4.16667,366.828,684.385)">
            <path d="M0,0L335.22,0" style="fill:none;fill-rule:nonzero;stroke:rgb(147,149,152);stroke-width:0.48px;"/>
        </g>
        <g transform="matrix(4.16667,0,0,4.16667,366.828,589.178)">
            <path d="M0,0L335.22,0" style="fill:none;fill-rule:nonzero;stroke:rgb(147,149,152);stroke-width:0.48px;"/>
        </g>
        <g transform="matrix(0,-4.16667,-4.16667,0,695.627,779.586)">
            <path d="M-68.547,68.547L68.547,68.547" style="fill:none;fill-rule:nonzero;stroke:rgb(147,149,152);stroke-width:0.48px;"/>
        </g>
        <g transform="matrix(0,-4.16667,-4.16667,0,738.828,779.586)">
            <path d="M-68.547,68.547L68.547,68.547" style="fill:none;fill-rule:nonzero;stroke:rgb(147,149,152);stroke-width:0.48px;"/>
        </g>
        <g transform="matrix(0,-4.16667,-4.16667,0,782.029,779.586)">
            <path d="M-68.547,68.547L68.547,68.547" style="fill:none;fill-rule:nonzero;stroke:rgb(147,149,152);stroke-width:0.48px;"/>
        </g>
        <g transform="matrix(0,-4.16667,-4.16667,0,825.23,779.586)">
            <path d="M-68.547,68.547L68.547,68.547" style="fill:none;fill-rule:nonzero;stroke:rgb(147,149,152);stroke-width:0.48px;"/>
        </g>
        <g transform="matrix(0,-4.16667,-4.16667,0,868.43,779.586)">
            <path d="M-68.547,68.547L68.547,68.547" style="fill:none;fill-rule:nonzero;stroke:rgb(147,149,152);stroke-width:0.48px;"/>
        </g>
        <g transform="matrix(0,-4.16667,-4.16667,0,911.631,779.586)">
            <path d="M-68.547,68.547L68.547,68.547" style="fill:none;fill-rule:nonzero;stroke:rgb(147,149,152);stroke-width:0.48px;"/>
        </g>
        <g transform="matrix(4.16667,0,0,4.16667,343.578,969.991)">
            <path d="M0,0L5.58,0" style="fill:none;fill-rule:nonzero;stroke:rgb(147,149,152);stroke-width:0.48px;"/>
        </g>
        <g transform="matrix(4.16667,0,0,4.16667,343.578,874.792)">
            <path d="M0,0L5.58,0" style="fill:none;fill-rule:nonzero;stroke:rgb(147,149,152);stroke-width:0.48px;"/>
        </g>
        <g transform="matrix(4.16667,0,0,4.16667,343.578,779.585)">
            <path d="M0,0L5.58,0" style="fill:none;fill-rule:nonzero;stroke:rgb(147,149,152);stroke-width:0.48px;"/>
        </g>
        <g transform="matrix(4.16667,0,0,4.16667,343.578,684.385)">
            <path d="M0,0L5.58,0" style="fill:none;fill-rule:nonzero;stroke:rgb(147,149,152);stroke-width:0.48px;"/>
        </g>
        <g transform="matrix(4.16667,0,0,4.16667,343.578,589.178)">
            <path d="M0,0L5.58,0" style="fill:none;fill-rule:nonzero;stroke:rgb(147,149,152);stroke-width:0.48px;"/>
        </g>
        <g transform="matrix(4.16667,0,0,4.16667,343.578,493.978)">
            <path d="M0,0L5.58,0" style="fill:none;fill-rule:nonzero;stroke:rgb(147,149,152);stroke-width:0.48px;"/>
        </g>
        <g transform="matrix(4.16667,0,0,4.16667,355.203,969.991)">
            <path d="M0,0L2.79,0" style="fill:none;fill-rule:nonzero;stroke:rgb(147,149,152);stroke-width:0.48px;"/>
        </g>
        <g transform="matrix(4.16667,0,0,4.16667,355.203,874.792)">
            <path d="M0,0L2.79,0" style="fill:none;fill-rule:nonzero;stroke:rgb(147,149,152);stroke-width:0.48px;"/>
        </g>
        <g transform="matrix(4.16667,0,0,4.16667,355.203,779.585)">
            <path d="M0,0L2.79,0" style="fill:none;fill-rule:nonzero;stroke:rgb(147,149,152);stroke-width:0.48px;"/>
        </g>
        <g transform="matrix(4.16667,0,0,4.16667,355.203,684.385)">
            <path d="M0,0L2.79,0" style="fill:none;fill-rule:nonzero;stroke:rgb(147,149,152);stroke-width:0.48px;"/>
        </g>
        <g transform="matrix(4.16667,0,0,4.16667,355.203,589.178)">
            <path d="M0,0L2.79,0" style="fill:none;fill-rule:nonzero;stroke:rgb(147,149,152);stroke-width:0.48px;"/>
        </g>
        <g transform="matrix(4.16667,0,0,4.16667,355.203,493.978)">
            <path d="M0,0L2.79,0" style="fill:none;fill-rule:nonzero;stroke:rgb(147,149,152);stroke-width:0.48px;"/>
        </g>
        <g transform="matrix(0,-4.16667,-4.16667,0,954.817,779.586)">
            <path d="M-68.547,68.547L68.547,68.547" style="fill:none;fill-rule:nonzero;stroke:rgb(147,149,152);stroke-width:0.48px;"/>
        </g>
        <g transform="matrix(0,-4.16667,-4.16667,0,998.018,779.586)">
            <path d="M-68.547,68.547L68.547,68.547" style="fill:none;fill-rule:nonzero;stroke:rgb(147,149,152);stroke-width:0.48px;"/>
        </g>
        <g transform="matrix(0,-4.16667,-4.16667,0,1041.22,779.586)">
            <path d="M-68.547,68.547L68.547,68.547" style="fill:none;fill-rule:nonzero;stroke:rgb(147,149,152);stroke-width:0.48px;"/>
        </g>
        <g transform="matrix(0,-4.16667,-4.16667,0,1084.42,779.586)">
            <path d="M-68.547,68.547L68.547,68.547" style="fill:none;fill-rule:nonzero;stroke:rgb(147,149,152);stroke-width:0.48px;"/>
        </g>
        <g transform="matrix(0,-4.16667,-4.16667,0,1127.62,779.586)">
            <path d="M-68.547,68.547L68.547,68.547" style="fill:none;fill-rule:nonzero;stroke:rgb(147,149,152);stroke-width:0.48px;"/>
        </g>
        <g transform="matrix(0,-4.16667,-4.16667,0,1170.82,779.586)">
            <path d="M-68.547,68.547L68.547,68.547" style="fill:none;fill-rule:nonzero;stroke:rgb(147,149,152);stroke-width:0.48px;"/>
        </g>
        <g transform="matrix(0,-4.16667,-4.16667,0,1214.01,779.586)">
            <path d="M-68.547,68.547L68.547,68.547" style="fill:none;fill-rule:nonzero;stroke:rgb(147,149,152);stroke-width:0.48px;"/>
        </g>
        <g transform="matrix(0,-4.16667,-4.16667,0,1257.21,779.586)">
            <path d="M-68.547,68.547L68.547,68.547" style="fill:none;fill-rule:nonzero;stroke:rgb(147,149,152);stroke-width:0.48px;"/>
        </g>
        <g transform="matrix(0,-4.16667,-4.16667,0,1300.41,779.586)">
            <path d="M-68.547,68.547L68.547,68.547" style="fill:none;fill-rule:nonzero;stroke:rgb(147,149,152);stroke-width:0.48px;"/>
        </g>
        <g transform="matrix(0,-4.16667,-4.16667,0,1343.61,779.586)">
            <path d="M-68.547,68.547L68.547,68.547" style="fill:none;fill-rule:nonzero;stroke:rgb(147,149,152);stroke-width:0.48px;"/>
        </g>
        <g transform="matrix(0,-4.16667,-4.16667,0,1386.81,779.586)">
            <path d="M-68.547,68.547L68.547,68.547" style="fill:none;fill-rule:nonzero;stroke:rgb(147,149,152);stroke-width:0.48px;"/>
        </g>
        <g transform="matrix(0,-4.16667,-4.16667,0,1430.01,779.586)">
            <path d="M-68.547,68.547L68.547,68.547" style="fill:none;fill-rule:nonzero;stroke:rgb(147,149,152);stroke-width:0.48px;"/>
        </g>
        <g transform="matrix(0,-4.16667,-4.16667,0,1473.2,779.586)">
            <path d="M-68.547,68.547L68.547,68.547" style="fill:none;fill-rule:nonzero;stroke:rgb(147,149,152);stroke-width:0.48px;"/>
        </g>
        <g transform="matrix(0,-4.16667,-4.16667,0,1516.4,779.586)">
            <path d="M-68.547,68.547L68.547,68.547" style="fill:none;fill-rule:nonzero;stroke:rgb(147,149,152);stroke-width:0.48px;"/>
        </g>
        <g transform="matrix(0,-4.16667,-4.16667,0,372.891,1071.26)">
            <path d="M-1.455,1.455L1.455,1.455" style="fill:none;fill-rule:nonzero;stroke:rgb(147,149,152);stroke-width:0.48px;"/>
        </g>
        <g transform="matrix(0,-4.16667,-4.16667,0,416.077,1071.26)">
            <path d="M-1.455,1.455L1.455,1.455" style="fill:none;fill-rule:nonzero;stroke:rgb(147,149,152);stroke-width:0.48px;"/>
        </g>
        <g transform="matrix(0,-4.16667,-4.16667,0,459.278,1071.26)">
            <path d="M-1.455,1.455L1.455,1.455" style="fill:none;fill-rule:nonzero;stroke:rgb(147,149,152);stroke-width:0.48px;"/>
        </g>
        <g transform="matrix(0,-4.16667,-4.16667,0,502.479,1071.26)">
            <path d="M-1.455,1.455L1.455,1.455" style="fill:none;fill-rule:nonzero;stroke:rgb(147,149,152);stroke-width:0.48px;"/>
        </g>
        <g transform="matrix(0,-4.16667,-4.16667,0,545.68,1071.26)">
            <path d="M-1.455,1.455L1.455,1.455" style="fill:none;fill-rule:nonzero;stroke:rgb(147,149,152);stroke-width:0.48px;"/>
        </g>
        <g transform="matrix(0,-4.16667,-4.16667,0,588.88,1071.26)">
            <path d="M-1.455,1.455L1.455,1.455" style="fill:none;fill-rule:nonzero;stroke:rgb(147,149,152);stroke-width:0.48px;"/>
        </g>
        <g transform="matrix(0,-4.16667,-4.16667,0,632.081,1071.26)">
            <path d="M-1.455,1.455L1.455,1.455" style="fill:none;fill-rule:nonzero;stroke:rgb(147,149,152);stroke-width:0.48px;"/>
        </g>
        <g transform="matrix(0,-4.16667,-4.16667,0,675.267,1071.26)">
            <path d="M-1.455,1.455L1.455,1.455" style="fill:none;fill-rule:nonzero;stroke:rgb(147,149,152);stroke-width:0.48px;"/>
        </g>
        <g transform="matrix(0,-4.16667,-4.16667,0,718.468,1071.26)">
            <path d="M-1.455,1.455L1.455,1.455" style="fill:none;fill-rule:nonzero;stroke:rgb(147,149,152);stroke-width:0.48px;"/>
        </g>
        <g transform="matrix(0,-4.16667,-4.16667,0,761.669,1071.26)">
            <path d="M-1.455,1.455L1.455,1.455" style="fill:none;fill-rule:nonzero;stroke:rgb(147,149,152);stroke-width:0.48px;"/>
        </g>
        <g transform="matrix(0,-4.16667,-4.16667,0,804.87,1071.26)">
            <path d="M-1.455,1.455L1.455,1.455" style="fill:none;fill-rule:nonzero;stroke:rgb(147,149,152);stroke-width:0.48px;"/>
        </g>
        <g transform="matrix(0,-4.16667,-4.16667,0,848.071,1071.26)">
            <path d="M-1.455,1.455L1.455,1.455" style="fill:none;fill-rule:nonzero;stroke:rgb(147,149,152);stroke-width:0.48px;"/>
        </g>
        <g transform="matrix(0,-4.16667,-4.16667,0,891.272,1071.26)">
            <path d="M-1.455,1.455L1.455,1.455" style="fill:none;fill-rule:nonzero;stroke:rgb(147,149,152);stroke-width:0.48px;"/>
        </g>
        <g transform="matrix(0,-4.16667,-4.16667,0,934.458,1071.26)">
            <path d="M-1.455,1.455L1.455,1.455" style="fill:none;fill-rule:nonzero;stroke:rgb(147,149,152);stroke-width:0.48px;"/>
        </g>
        <g transform="matrix(0,-4.16667,-4.16667,0,977.659,1071.26)">
            <path d="M-1.455,1.455L1.455,1.455" style="fill:none;fill-rule:nonzero;stroke:rgb(147,149,152);stroke-width:0.48px;"/>
        </g>
        <g transform="matrix(0,-4.16667,-4.16667,0,1020.86,1071.26)">
            <path d="M-1.455,1.455L1.455,1.455" style="fill:none;fill-rule:nonzero;stroke:rgb(147,149,152);stroke-width:0.48px;"/>
        </g>
        <g transform="matrix(0,-4.16667,-4.16667,0,1064.06,1071.26)">
            <path d="M-1.455,1.455L1.455,1.455" style="fill:none;fill-rule:nonzero;stroke:rgb(147,149,152);stroke-width:0.48px;"/>
        </g>
        <g transform="matrix(0,-4.16667,-4.16667,0,1107.26,1071.26)">
            <path d="M-1.455,1.455L1.455,1.455" style="fill:none;fill-rule:nonzero;stroke:rgb(147,149,152);stroke-width:0.48px;"/>
        </g>
        <g transform="matrix(0,-4.16667,-4.16667,0,1150.46,1071.26)">
            <path d="M-1.455,1.455L1.455,1.455" style="fill:none;fill-rule:nonzero;stroke:rgb(147,149,152);stroke-width:0.48px;"/>
        </g>
        <g transform="matrix(0,-4.16667,-4.16667,0,1193.65,1071.26)">
            <path d="M-1.455,1.455L1.455,1.455" style="fill:none;fill-rule:nonzero;stroke:rgb(147,149,152);stroke-width:0.48px;"/>
        </g>
        <g transform="matrix(0,-4.16667,-4.16667,0,1236.85,1071.26)">
            <path d="M-1.455,1.455L1.455,1.455" style="fill:none;fill-rule:nonzero;stroke:rgb(147,149,152);stroke-width:0.48px;"/>
        </g>
        <g transform="matrix(4.16667,0,0,4.16667,343.578,1065.2)">
            <path d="M0,0L5.58,0" style="fill:none;fill-rule:nonzero;stroke:rgb(147,149,152);stroke-width:0.48px;"/>
        </g>
        <g transform="matrix(4.16667,0,0,4.16667,355.203,1065.2)">
            <path d="M0,0L2.79,0" style="fill:none;fill-rule:nonzero;stroke:rgb(147,149,152);stroke-width:0.48px;"/>
        </g>
        <g transform="matrix(4.16667,0,0,4.16667,1763.58,493.976)">
            <rect x="-335.22" y="0" width="335.22" height="137.094" style="fill:none;stroke:rgb(1,1,1);stroke-width:0.96px;"/>
        </g>
        <g transform="matrix(4.16667,0,0,4.16667,1756.37,899.54)">
            <path d="M0,-53.729L-3.455,-62.538L-6.913,-68.329L-10.368,-59.201L-13.823,-56.105L-17.282,-61.999L-20.736,-87.363L-24.191,-78.359L-27.646,-82.735L-31.105,-92.07L-34.559,-78.771L-38.014,-80.211L-41.469,-86.939L-44.928,-75.766L-48.382,-72.704L-51.837,-67.142L-55.296,-66.674L-58.751,-67.267L-62.206,-62.903L-65.66,-66.535L-69.119,-64.765L-72.574,-61.52L-76.029,-59.966L-79.487,-61.12L-82.942,-61.234L-86.397,-60.482L-89.852,-63.371L-93.31,-65.108L-96.765,-65.725L-100.22,-63.518L-103.675,-61.988L-107.133,-59.739L-110.588,-58.447L-114.043,-56.95L-117.501,-54.071L-120.956,-49.707L-124.411,-43.664L-127.866,-41.07L-131.324,-37.872L-134.779,-36.112L-138.235,-32.526L-141.693,-29.144L-145.147,-25.054L-148.603,-21.33L-152.058,-17.73L-155.516,-14.886L-158.971,-14.155L-162.426,-13.253L-165.881,-13.846L-169.34,-11.881L-172.794,-13.491L-176.249,-10.544L-179.708,-6.809L-183.163,-4.626L-186.617,-4.844L-190.072,-4.136L-193.531,-4.125L-196.986,-5.346L-200.441,-5.151L-203.899,-3.13L-207.354,-2.764L-210.809,-1.726L-214.264,-0.525L-217.722,-1.062L-221.177,-0.011L-224.632,0.287L-228.09,2.228L-231.545,4.17L-235,3.77L-238.455,7.266L-241.913,10.865L-245.368,12.407L-248.823,16.199L-252.278,18.428L-255.736,20.725L-259.191,22.391L-262.646,24.838L-266.105,28.116L-269.559,31.086L-273.014,34.822L-276.469,34.857L-279.928,34.811L-283.382,34.582L-286.837,35.177L-290.296,34.548L-293.751,34.503L-297.205,34.273L-300.66,34.525L-304.119,33.04L-307.574,36.422L-311.029,36.388L-314.483,36.969L-317.942,38.18L-321.397,38.239L-324.852,38.272L-328.31,38.214L-331.765,38.341" style="fill:none;fill-rule:nonzero;stroke:rgb(1,1,1);stroke-width:0.96px;"/>
        </g>
    </g>
</svg>
