<?xml version="1.0" encoding="UTF-8" standalone="no"?>
<!DOCTYPE svg PUBLIC "-//W3C//DTD SVG 1.1//EN" "http://www.w3.org/Graphics/SVG/1.1/DTD/svg11.dtd">
<svg width="100%" height="100%" viewBox="0 0 1749 750" version="1.1" xmlns="http://www.w3.org/2000/svg" xmlns:xlink="http://www.w3.org/1999/xlink" xml:space="preserve" xmlns:serif="http://www.serif.com/" style="fill-rule:evenodd;clip-rule:evenodd;stroke-linecap:round;stroke-linejoin:round;stroke-miterlimit:1.5;">
    <g id="Layer4" transform="matrix(1,0,0,1,89.8547,409.989)">
        <g transform="matrix(4.16667,0,0,4.16667,-222.324,-889.975)">
            <g transform="matrix(8.8108,0,0,8.8108,70.2075,287.706)">
                <path d="M0.239,-0L0.239,-0.628L0.109,-0.527L0.076,-0.581L0.243,-0.708L0.306,-0.708L0.306,-0L0.239,-0Z" style="fill:rgb(1,1,1);fill-rule:nonzero;"/>
            </g>
            <g transform="matrix(8.8108,0,0,8.8108,74.3486,287.706)">
                <path d="M0.424,-0.193C0.424,-0.162 0.42,-0.134 0.411,-0.11C0.402,-0.085 0.39,-0.063 0.374,-0.045C0.357,-0.027 0.337,-0.013 0.314,-0.003C0.291,0.007 0.265,0.012 0.236,0.012C0.207,0.012 0.182,0.007 0.159,-0.003C0.135,-0.013 0.116,-0.027 0.1,-0.045C0.084,-0.063 0.072,-0.085 0.063,-0.11C0.054,-0.134 0.05,-0.162 0.05,-0.193C0.05,-0.241 0.06,-0.281 0.08,-0.312C0.1,-0.343 0.128,-0.365 0.164,-0.377L0.164,-0.379C0.132,-0.392 0.108,-0.413 0.092,-0.441C0.075,-0.469 0.067,-0.502 0.067,-0.54C0.067,-0.565 0.071,-0.588 0.078,-0.61C0.085,-0.632 0.095,-0.651 0.11,-0.668C0.124,-0.684 0.141,-0.697 0.163,-0.706C0.184,-0.715 0.208,-0.72 0.236,-0.72C0.264,-0.72 0.289,-0.715 0.31,-0.706C0.331,-0.697 0.348,-0.684 0.363,-0.668C0.377,-0.651 0.388,-0.632 0.395,-0.61C0.402,-0.588 0.406,-0.565 0.406,-0.54C0.406,-0.502 0.398,-0.469 0.382,-0.441C0.366,-0.413 0.342,-0.392 0.31,-0.379L0.31,-0.377C0.346,-0.364 0.374,-0.342 0.394,-0.311C0.414,-0.28 0.424,-0.241 0.424,-0.193ZM0.337,-0.536C0.337,-0.574 0.328,-0.605 0.311,-0.63C0.293,-0.655 0.268,-0.667 0.236,-0.667C0.203,-0.667 0.179,-0.655 0.162,-0.63C0.145,-0.605 0.136,-0.574 0.136,-0.536C0.136,-0.518 0.138,-0.501 0.143,-0.485C0.148,-0.469 0.154,-0.455 0.163,-0.443C0.172,-0.431 0.182,-0.421 0.195,-0.414C0.207,-0.407 0.221,-0.403 0.236,-0.403C0.251,-0.403 0.265,-0.407 0.278,-0.414C0.291,-0.421 0.301,-0.431 0.31,-0.443C0.319,-0.455 0.325,-0.469 0.33,-0.485C0.335,-0.501 0.337,-0.518 0.337,-0.536ZM0.352,-0.196C0.352,-0.241 0.341,-0.278 0.32,-0.307C0.299,-0.335 0.271,-0.349 0.236,-0.349C0.201,-0.349 0.173,-0.335 0.152,-0.307C0.131,-0.278 0.12,-0.241 0.12,-0.196C0.12,-0.175 0.123,-0.155 0.128,-0.136C0.133,-0.117 0.141,-0.101 0.151,-0.088C0.161,-0.074 0.173,-0.063 0.188,-0.056C0.202,-0.048 0.218,-0.044 0.236,-0.044C0.255,-0.044 0.271,-0.048 0.286,-0.056C0.3,-0.063 0.312,-0.074 0.322,-0.088C0.332,-0.101 0.339,-0.117 0.345,-0.136C0.349,-0.155 0.352,-0.175 0.352,-0.196Z" style="fill:rgb(1,1,1);fill-rule:nonzero;"/>
            </g>
            <g transform="matrix(8.8108,0,0,8.8108,78.4897,287.706)">
                <path d="M0.427,-0.219C0.427,-0.184 0.423,-0.152 0.414,-0.124C0.405,-0.095 0.392,-0.071 0.375,-0.051C0.358,-0.031 0.338,-0.016 0.315,-0.005C0.291,0.007 0.265,0.012 0.236,0.012C0.206,0.012 0.179,0.007 0.156,-0.005C0.132,-0.016 0.112,-0.031 0.096,-0.051C0.079,-0.071 0.067,-0.095 0.058,-0.124C0.049,-0.152 0.045,-0.183 0.045,-0.217C0.045,-0.25 0.049,-0.283 0.059,-0.315C0.068,-0.347 0.08,-0.379 0.096,-0.411L0.242,-0.708L0.318,-0.708L0.164,-0.406L0.166,-0.405C0.177,-0.416 0.19,-0.426 0.206,-0.433C0.221,-0.44 0.238,-0.443 0.256,-0.443C0.277,-0.443 0.297,-0.439 0.318,-0.431C0.338,-0.422 0.356,-0.409 0.373,-0.391C0.389,-0.373 0.402,-0.35 0.412,-0.322C0.422,-0.293 0.427,-0.259 0.427,-0.219ZM0.357,-0.219C0.357,-0.244 0.355,-0.267 0.35,-0.288C0.345,-0.309 0.337,-0.327 0.328,-0.342C0.318,-0.357 0.306,-0.368 0.291,-0.377C0.276,-0.385 0.259,-0.389 0.239,-0.389C0.22,-0.389 0.203,-0.385 0.188,-0.376C0.173,-0.367 0.16,-0.355 0.149,-0.34C0.137,-0.324 0.129,-0.306 0.123,-0.285C0.117,-0.264 0.114,-0.241 0.114,-0.217C0.114,-0.165 0.125,-0.124 0.147,-0.093C0.169,-0.062 0.199,-0.047 0.237,-0.047C0.275,-0.047 0.305,-0.063 0.326,-0.095C0.346,-0.127 0.357,-0.168 0.357,-0.219Z" style="fill:rgb(1,1,1);fill-rule:nonzero;"/>
            </g>
            <g transform="matrix(8.8108,0,0,8.8108,82.6307,287.706)">
                <path d="M0.423,-0.495C0.423,-0.463 0.419,-0.431 0.41,-0.399C0.401,-0.366 0.389,-0.333 0.373,-0.299L0.23,-0L0.155,-0L0.31,-0.313L0.308,-0.314C0.286,-0.291 0.255,-0.279 0.216,-0.279C0.196,-0.279 0.176,-0.283 0.156,-0.291C0.136,-0.299 0.118,-0.312 0.102,-0.329C0.086,-0.346 0.073,-0.369 0.063,-0.396C0.053,-0.423 0.048,-0.456 0.048,-0.495C0.048,-0.529 0.053,-0.56 0.062,-0.588C0.07,-0.615 0.083,-0.639 0.1,-0.659C0.116,-0.678 0.135,-0.693 0.159,-0.704C0.182,-0.715 0.207,-0.72 0.236,-0.72C0.295,-0.72 0.341,-0.7 0.374,-0.66C0.407,-0.619 0.423,-0.564 0.423,-0.495ZM0.353,-0.497C0.353,-0.546 0.343,-0.585 0.322,-0.616C0.301,-0.647 0.272,-0.662 0.235,-0.662C0.198,-0.662 0.169,-0.647 0.149,-0.616C0.128,-0.585 0.118,-0.545 0.118,-0.497C0.118,-0.474 0.121,-0.452 0.126,-0.432C0.131,-0.412 0.138,-0.395 0.148,-0.381C0.157,-0.366 0.169,-0.355 0.184,-0.347C0.198,-0.339 0.215,-0.335 0.234,-0.335C0.252,-0.335 0.268,-0.339 0.283,-0.348C0.298,-0.356 0.31,-0.367 0.321,-0.382C0.331,-0.396 0.339,-0.413 0.345,-0.433C0.35,-0.452 0.353,-0.474 0.353,-0.497Z" style="fill:rgb(1,1,1);fill-rule:nonzero;"/>
            </g>
        </g>
        <g transform="matrix(4.16667,0,0,4.16667,-222.324,-889.975)">
            <g transform="matrix(8.8108,0,0,8.8108,140.615,287.706)">
                <path d="M0.239,-0L0.239,-0.628L0.109,-0.527L0.076,-0.581L0.243,-0.708L0.306,-0.708L0.306,-0L0.239,-0Z" style="fill:rgb(1,1,1);fill-rule:nonzero;"/>
            </g>
            <g transform="matrix(8.8108,0,0,8.8108,144.756,287.706)">
                <path d="M0.424,-0.193C0.424,-0.162 0.42,-0.134 0.411,-0.11C0.402,-0.085 0.39,-0.063 0.374,-0.045C0.357,-0.027 0.337,-0.013 0.314,-0.003C0.291,0.007 0.265,0.012 0.236,0.012C0.207,0.012 0.182,0.007 0.159,-0.003C0.135,-0.013 0.116,-0.027 0.1,-0.045C0.084,-0.063 0.072,-0.085 0.063,-0.11C0.054,-0.134 0.05,-0.162 0.05,-0.193C0.05,-0.241 0.06,-0.281 0.08,-0.312C0.1,-0.343 0.128,-0.365 0.164,-0.377L0.164,-0.379C0.132,-0.392 0.108,-0.413 0.092,-0.441C0.075,-0.469 0.067,-0.502 0.067,-0.54C0.067,-0.565 0.071,-0.588 0.078,-0.61C0.085,-0.632 0.095,-0.651 0.11,-0.668C0.124,-0.684 0.141,-0.697 0.163,-0.706C0.184,-0.715 0.208,-0.72 0.236,-0.72C0.264,-0.72 0.289,-0.715 0.31,-0.706C0.331,-0.697 0.348,-0.684 0.363,-0.668C0.377,-0.651 0.388,-0.632 0.395,-0.61C0.402,-0.588 0.406,-0.565 0.406,-0.54C0.406,-0.502 0.398,-0.469 0.382,-0.441C0.366,-0.413 0.342,-0.392 0.31,-0.379L0.31,-0.377C0.346,-0.364 0.374,-0.342 0.394,-0.311C0.414,-0.28 0.424,-0.241 0.424,-0.193ZM0.337,-0.536C0.337,-0.574 0.328,-0.605 0.311,-0.63C0.293,-0.655 0.268,-0.667 0.236,-0.667C0.203,-0.667 0.179,-0.655 0.162,-0.63C0.145,-0.605 0.136,-0.574 0.136,-0.536C0.136,-0.518 0.138,-0.501 0.143,-0.485C0.148,-0.469 0.154,-0.455 0.163,-0.443C0.172,-0.431 0.182,-0.421 0.195,-0.414C0.207,-0.407 0.221,-0.403 0.236,-0.403C0.251,-0.403 0.265,-0.407 0.278,-0.414C0.291,-0.421 0.301,-0.431 0.31,-0.443C0.319,-0.455 0.325,-0.469 0.33,-0.485C0.335,-0.501 0.337,-0.518 0.337,-0.536ZM0.352,-0.196C0.352,-0.241 0.341,-0.278 0.32,-0.307C0.299,-0.335 0.271,-0.349 0.236,-0.349C0.201,-0.349 0.173,-0.335 0.152,-0.307C0.131,-0.278 0.12,-0.241 0.12,-0.196C0.12,-0.175 0.123,-0.155 0.128,-0.136C0.133,-0.117 0.141,-0.101 0.151,-0.088C0.161,-0.074 0.173,-0.063 0.188,-0.056C0.202,-0.048 0.218,-0.044 0.236,-0.044C0.255,-0.044 0.271,-0.048 0.286,-0.056C0.3,-0.063 0.312,-0.074 0.322,-0.088C0.332,-0.101 0.339,-0.117 0.345,-0.136C0.349,-0.155 0.352,-0.175 0.352,-0.196Z" style="fill:rgb(1,1,1);fill-rule:nonzero;"/>
            </g>
            <g transform="matrix(8.8108,0,0,8.8108,148.897,287.706)">
                <path d="M0.424,-0.193C0.424,-0.162 0.42,-0.134 0.411,-0.11C0.402,-0.085 0.39,-0.063 0.374,-0.045C0.357,-0.027 0.337,-0.013 0.314,-0.003C0.291,0.007 0.265,0.012 0.236,0.012C0.207,0.012 0.182,0.007 0.159,-0.003C0.135,-0.013 0.116,-0.027 0.1,-0.045C0.084,-0.063 0.072,-0.085 0.063,-0.11C0.054,-0.134 0.05,-0.162 0.05,-0.193C0.05,-0.241 0.06,-0.281 0.08,-0.312C0.1,-0.343 0.128,-0.365 0.164,-0.377L0.164,-0.379C0.132,-0.392 0.108,-0.413 0.092,-0.441C0.075,-0.469 0.067,-0.502 0.067,-0.54C0.067,-0.565 0.071,-0.588 0.078,-0.61C0.085,-0.632 0.095,-0.651 0.11,-0.668C0.124,-0.684 0.141,-0.697 0.163,-0.706C0.184,-0.715 0.208,-0.72 0.236,-0.72C0.264,-0.72 0.289,-0.715 0.31,-0.706C0.331,-0.697 0.348,-0.684 0.363,-0.668C0.377,-0.651 0.388,-0.632 0.395,-0.61C0.402,-0.588 0.406,-0.565 0.406,-0.54C0.406,-0.502 0.398,-0.469 0.382,-0.441C0.366,-0.413 0.342,-0.392 0.31,-0.379L0.31,-0.377C0.346,-0.364 0.374,-0.342 0.394,-0.311C0.414,-0.28 0.424,-0.241 0.424,-0.193ZM0.337,-0.536C0.337,-0.574 0.328,-0.605 0.311,-0.63C0.293,-0.655 0.268,-0.667 0.236,-0.667C0.203,-0.667 0.179,-0.655 0.162,-0.63C0.145,-0.605 0.136,-0.574 0.136,-0.536C0.136,-0.518 0.138,-0.501 0.143,-0.485C0.148,-0.469 0.154,-0.455 0.163,-0.443C0.172,-0.431 0.182,-0.421 0.195,-0.414C0.207,-0.407 0.221,-0.403 0.236,-0.403C0.251,-0.403 0.265,-0.407 0.278,-0.414C0.291,-0.421 0.301,-0.431 0.31,-0.443C0.319,-0.455 0.325,-0.469 0.33,-0.485C0.335,-0.501 0.337,-0.518 0.337,-0.536ZM0.352,-0.196C0.352,-0.241 0.341,-0.278 0.32,-0.307C0.299,-0.335 0.271,-0.349 0.236,-0.349C0.201,-0.349 0.173,-0.335 0.152,-0.307C0.131,-0.278 0.12,-0.241 0.12,-0.196C0.12,-0.175 0.123,-0.155 0.128,-0.136C0.133,-0.117 0.141,-0.101 0.151,-0.088C0.161,-0.074 0.173,-0.063 0.188,-0.056C0.202,-0.048 0.218,-0.044 0.236,-0.044C0.255,-0.044 0.271,-0.048 0.286,-0.056C0.3,-0.063 0.312,-0.074 0.322,-0.088C0.332,-0.101 0.339,-0.117 0.345,-0.136C0.349,-0.155 0.352,-0.175 0.352,-0.196Z" style="fill:rgb(1,1,1);fill-rule:nonzero;"/>
            </g>
            <g transform="matrix(8.8108,0,0,8.8108,153.038,287.706)">
                <path d="M0.423,-0.495C0.423,-0.463 0.419,-0.431 0.41,-0.399C0.401,-0.366 0.389,-0.333 0.373,-0.299L0.23,-0L0.155,-0L0.31,-0.313L0.308,-0.314C0.286,-0.291 0.255,-0.279 0.216,-0.279C0.196,-0.279 0.176,-0.283 0.156,-0.291C0.136,-0.299 0.118,-0.312 0.102,-0.329C0.086,-0.346 0.073,-0.369 0.063,-0.396C0.053,-0.423 0.048,-0.456 0.048,-0.495C0.048,-0.529 0.053,-0.56 0.062,-0.588C0.07,-0.615 0.083,-0.639 0.1,-0.659C0.116,-0.678 0.135,-0.693 0.159,-0.704C0.182,-0.715 0.207,-0.72 0.236,-0.72C0.295,-0.72 0.341,-0.7 0.374,-0.66C0.407,-0.619 0.423,-0.564 0.423,-0.495ZM0.353,-0.497C0.353,-0.546 0.343,-0.585 0.322,-0.616C0.301,-0.647 0.272,-0.662 0.235,-0.662C0.198,-0.662 0.169,-0.647 0.149,-0.616C0.128,-0.585 0.118,-0.545 0.118,-0.497C0.118,-0.474 0.121,-0.452 0.126,-0.432C0.131,-0.412 0.138,-0.395 0.148,-0.381C0.157,-0.366 0.169,-0.355 0.184,-0.347C0.198,-0.339 0.215,-0.335 0.234,-0.335C0.252,-0.335 0.268,-0.339 0.283,-0.348C0.298,-0.356 0.31,-0.367 0.321,-0.382C0.331,-0.396 0.339,-0.413 0.345,-0.433C0.35,-0.452 0.353,-0.474 0.353,-0.497Z" style="fill:rgb(1,1,1);fill-rule:nonzero;"/>
            </g>
        </g>
        <g transform="matrix(4.16667,0,0,4.16667,-222.324,-889.975)">
            <g transform="matrix(8.8108,0,0,8.8108,212.405,287.706)">
                <path d="M0.239,-0L0.239,-0.628L0.109,-0.527L0.076,-0.581L0.243,-0.708L0.306,-0.708L0.306,-0L0.239,-0Z" style="fill:rgb(1,1,1);fill-rule:nonzero;"/>
            </g>
            <g transform="matrix(8.8108,0,0,8.8108,216.546,287.706)">
                <path d="M0.423,-0.495C0.423,-0.463 0.419,-0.431 0.41,-0.399C0.401,-0.366 0.389,-0.333 0.373,-0.299L0.23,-0L0.155,-0L0.31,-0.313L0.308,-0.314C0.286,-0.291 0.255,-0.279 0.216,-0.279C0.196,-0.279 0.176,-0.283 0.156,-0.291C0.136,-0.299 0.118,-0.312 0.102,-0.329C0.086,-0.346 0.073,-0.369 0.063,-0.396C0.053,-0.423 0.048,-0.456 0.048,-0.495C0.048,-0.529 0.053,-0.56 0.062,-0.588C0.07,-0.615 0.083,-0.639 0.1,-0.659C0.116,-0.678 0.135,-0.693 0.159,-0.704C0.182,-0.715 0.207,-0.72 0.236,-0.72C0.295,-0.72 0.341,-0.7 0.374,-0.66C0.407,-0.619 0.423,-0.564 0.423,-0.495ZM0.353,-0.497C0.353,-0.546 0.343,-0.585 0.322,-0.616C0.301,-0.647 0.272,-0.662 0.235,-0.662C0.198,-0.662 0.169,-0.647 0.149,-0.616C0.128,-0.585 0.118,-0.545 0.118,-0.497C0.118,-0.474 0.121,-0.452 0.126,-0.432C0.131,-0.412 0.138,-0.395 0.148,-0.381C0.157,-0.366 0.169,-0.355 0.184,-0.347C0.198,-0.339 0.215,-0.335 0.234,-0.335C0.252,-0.335 0.268,-0.339 0.283,-0.348C0.298,-0.356 0.31,-0.367 0.321,-0.382C0.331,-0.396 0.339,-0.413 0.345,-0.433C0.35,-0.452 0.353,-0.474 0.353,-0.497Z" style="fill:rgb(1,1,1);fill-rule:nonzero;"/>
            </g>
            <g transform="matrix(8.8108,0,0,8.8108,220.687,287.706)">
                <path d="M0.425,-0.354C0.425,-0.313 0.423,-0.27 0.418,-0.227C0.413,-0.184 0.403,-0.144 0.389,-0.109C0.375,-0.074 0.356,-0.045 0.331,-0.022C0.306,0.001 0.274,0.012 0.235,0.012C0.196,0.012 0.164,0.001 0.139,-0.022C0.114,-0.045 0.095,-0.074 0.081,-0.109C0.067,-0.144 0.057,-0.184 0.052,-0.227C0.047,-0.27 0.044,-0.313 0.044,-0.354C0.044,-0.395 0.047,-0.438 0.052,-0.481C0.057,-0.524 0.067,-0.564 0.081,-0.599C0.095,-0.634 0.114,-0.663 0.139,-0.686C0.164,-0.709 0.196,-0.72 0.235,-0.72C0.274,-0.72 0.306,-0.709 0.331,-0.686C0.356,-0.663 0.375,-0.634 0.389,-0.599C0.403,-0.564 0.413,-0.524 0.418,-0.481C0.423,-0.438 0.425,-0.395 0.425,-0.354ZM0.354,-0.354C0.354,-0.371 0.354,-0.39 0.353,-0.412C0.352,-0.433 0.35,-0.455 0.347,-0.478C0.344,-0.501 0.34,-0.523 0.335,-0.545C0.33,-0.566 0.323,-0.586 0.314,-0.603C0.305,-0.62 0.295,-0.633 0.282,-0.644C0.269,-0.654 0.253,-0.659 0.235,-0.659C0.217,-0.659 0.202,-0.654 0.189,-0.644C0.175,-0.633 0.165,-0.62 0.156,-0.603C0.147,-0.586 0.14,-0.566 0.135,-0.545C0.129,-0.523 0.125,-0.501 0.122,-0.478C0.119,-0.455 0.118,-0.433 0.117,-0.412C0.116,-0.39 0.115,-0.371 0.115,-0.354C0.115,-0.337 0.116,-0.317 0.117,-0.296C0.118,-0.274 0.119,-0.252 0.122,-0.23C0.125,-0.207 0.129,-0.185 0.135,-0.164C0.14,-0.142 0.147,-0.123 0.156,-0.106C0.165,-0.089 0.175,-0.075 0.189,-0.065C0.202,-0.054 0.217,-0.049 0.235,-0.049C0.253,-0.049 0.269,-0.054 0.282,-0.065C0.295,-0.075 0.305,-0.089 0.314,-0.106C0.323,-0.123 0.33,-0.142 0.335,-0.164C0.34,-0.185 0.344,-0.207 0.347,-0.23C0.35,-0.252 0.352,-0.274 0.353,-0.296C0.354,-0.317 0.354,-0.337 0.354,-0.354Z" style="fill:rgb(1,1,1);fill-rule:nonzero;"/>
            </g>
            <g transform="matrix(8.8108,0,0,8.8108,224.828,287.706)">
                <path d="M0.423,-0.495C0.423,-0.463 0.419,-0.431 0.41,-0.399C0.401,-0.366 0.389,-0.333 0.373,-0.299L0.23,-0L0.155,-0L0.31,-0.313L0.308,-0.314C0.286,-0.291 0.255,-0.279 0.216,-0.279C0.196,-0.279 0.176,-0.283 0.156,-0.291C0.136,-0.299 0.118,-0.312 0.102,-0.329C0.086,-0.346 0.073,-0.369 0.063,-0.396C0.053,-0.423 0.048,-0.456 0.048,-0.495C0.048,-0.529 0.053,-0.56 0.062,-0.588C0.07,-0.615 0.083,-0.639 0.1,-0.659C0.116,-0.678 0.135,-0.693 0.159,-0.704C0.182,-0.715 0.207,-0.72 0.236,-0.72C0.295,-0.72 0.341,-0.7 0.374,-0.66C0.407,-0.619 0.423,-0.564 0.423,-0.495ZM0.353,-0.497C0.353,-0.546 0.343,-0.585 0.322,-0.616C0.301,-0.647 0.272,-0.662 0.235,-0.662C0.198,-0.662 0.169,-0.647 0.149,-0.616C0.128,-0.585 0.118,-0.545 0.118,-0.497C0.118,-0.474 0.121,-0.452 0.126,-0.432C0.131,-0.412 0.138,-0.395 0.148,-0.381C0.157,-0.366 0.169,-0.355 0.184,-0.347C0.198,-0.339 0.215,-0.335 0.234,-0.335C0.252,-0.335 0.268,-0.339 0.283,-0.348C0.298,-0.356 0.31,-0.367 0.321,-0.382C0.331,-0.396 0.339,-0.413 0.345,-0.433C0.35,-0.452 0.353,-0.474 0.353,-0.497Z" style="fill:rgb(1,1,1);fill-rule:nonzero;"/>
            </g>
        </g>
        <g transform="matrix(4.16667,0,0,4.16667,-222.324,-889.975)">
            <g transform="matrix(8.8108,0,0,8.8108,282.028,287.706)">
                <path d="M0.239,-0L0.239,-0.628L0.109,-0.527L0.076,-0.581L0.243,-0.708L0.306,-0.708L0.306,-0L0.239,-0Z" style="fill:rgb(1,1,1);fill-rule:nonzero;"/>
            </g>
            <g transform="matrix(8.8108,0,0,8.8108,286.169,287.706)">
                <path d="M0.423,-0.495C0.423,-0.463 0.419,-0.431 0.41,-0.399C0.401,-0.366 0.389,-0.333 0.373,-0.299L0.23,-0L0.155,-0L0.31,-0.313L0.308,-0.314C0.286,-0.291 0.255,-0.279 0.216,-0.279C0.196,-0.279 0.176,-0.283 0.156,-0.291C0.136,-0.299 0.118,-0.312 0.102,-0.329C0.086,-0.346 0.073,-0.369 0.063,-0.396C0.053,-0.423 0.048,-0.456 0.048,-0.495C0.048,-0.529 0.053,-0.56 0.062,-0.588C0.07,-0.615 0.083,-0.639 0.1,-0.659C0.116,-0.678 0.135,-0.693 0.159,-0.704C0.182,-0.715 0.207,-0.72 0.236,-0.72C0.295,-0.72 0.341,-0.7 0.374,-0.66C0.407,-0.619 0.423,-0.564 0.423,-0.495ZM0.353,-0.497C0.353,-0.546 0.343,-0.585 0.322,-0.616C0.301,-0.647 0.272,-0.662 0.235,-0.662C0.198,-0.662 0.169,-0.647 0.149,-0.616C0.128,-0.585 0.118,-0.545 0.118,-0.497C0.118,-0.474 0.121,-0.452 0.126,-0.432C0.131,-0.412 0.138,-0.395 0.148,-0.381C0.157,-0.366 0.169,-0.355 0.184,-0.347C0.198,-0.339 0.215,-0.335 0.234,-0.335C0.252,-0.335 0.268,-0.339 0.283,-0.348C0.298,-0.356 0.31,-0.367 0.321,-0.382C0.331,-0.396 0.339,-0.413 0.345,-0.433C0.35,-0.452 0.353,-0.474 0.353,-0.497Z" style="fill:rgb(1,1,1);fill-rule:nonzero;"/>
            </g>
            <g transform="matrix(8.8108,0,0,8.8108,290.31,287.706)">
                <path d="M0.393,-0.535C0.393,-0.513 0.391,-0.492 0.386,-0.473C0.381,-0.453 0.373,-0.434 0.364,-0.415C0.355,-0.396 0.343,-0.376 0.331,-0.357C0.318,-0.337 0.303,-0.316 0.288,-0.293L0.127,-0.062L0.386,-0.062L0.386,-0L0.051,-0L0.051,-0.066L0.244,-0.341C0.268,-0.376 0.287,-0.408 0.301,-0.439C0.315,-0.469 0.322,-0.499 0.322,-0.53C0.322,-0.547 0.32,-0.564 0.316,-0.58C0.312,-0.595 0.306,-0.609 0.298,-0.621C0.289,-0.633 0.279,-0.643 0.267,-0.65C0.254,-0.657 0.24,-0.66 0.223,-0.66C0.194,-0.66 0.171,-0.651 0.153,-0.632C0.134,-0.612 0.122,-0.585 0.115,-0.549L0.049,-0.557C0.058,-0.61 0.078,-0.651 0.109,-0.679C0.14,-0.706 0.179,-0.72 0.227,-0.72C0.255,-0.72 0.279,-0.715 0.3,-0.706C0.321,-0.696 0.338,-0.683 0.352,-0.666C0.365,-0.649 0.376,-0.629 0.383,-0.607C0.39,-0.584 0.393,-0.56 0.393,-0.535Z" style="fill:rgb(1,1,1);fill-rule:nonzero;"/>
            </g>
            <g transform="matrix(8.8108,0,0,8.8108,294.451,287.706)">
                <path d="M0.423,-0.495C0.423,-0.463 0.419,-0.431 0.41,-0.399C0.401,-0.366 0.389,-0.333 0.373,-0.299L0.23,-0L0.155,-0L0.31,-0.313L0.308,-0.314C0.286,-0.291 0.255,-0.279 0.216,-0.279C0.196,-0.279 0.176,-0.283 0.156,-0.291C0.136,-0.299 0.118,-0.312 0.102,-0.329C0.086,-0.346 0.073,-0.369 0.063,-0.396C0.053,-0.423 0.048,-0.456 0.048,-0.495C0.048,-0.529 0.053,-0.56 0.062,-0.588C0.07,-0.615 0.083,-0.639 0.1,-0.659C0.116,-0.678 0.135,-0.693 0.159,-0.704C0.182,-0.715 0.207,-0.72 0.236,-0.72C0.295,-0.72 0.341,-0.7 0.374,-0.66C0.407,-0.619 0.423,-0.564 0.423,-0.495ZM0.353,-0.497C0.353,-0.546 0.343,-0.585 0.322,-0.616C0.301,-0.647 0.272,-0.662 0.235,-0.662C0.198,-0.662 0.169,-0.647 0.149,-0.616C0.128,-0.585 0.118,-0.545 0.118,-0.497C0.118,-0.474 0.121,-0.452 0.126,-0.432C0.131,-0.412 0.138,-0.395 0.148,-0.381C0.157,-0.366 0.169,-0.355 0.184,-0.347C0.198,-0.339 0.215,-0.335 0.234,-0.335C0.252,-0.335 0.268,-0.339 0.283,-0.348C0.298,-0.356 0.31,-0.367 0.321,-0.382C0.331,-0.396 0.339,-0.413 0.345,-0.433C0.35,-0.452 0.353,-0.474 0.353,-0.497Z" style="fill:rgb(1,1,1);fill-rule:nonzero;"/>
            </g>
        </g>
        <g transform="matrix(4.16667,0,0,4.16667,-222.324,-889.975)">
            <g transform="matrix(8.8108,0,0,8.8108,359.14,287.706)">
                <path d="M0.239,-0L0.239,-0.628L0.109,-0.527L0.076,-0.581L0.243,-0.708L0.306,-0.708L0.306,-0L0.239,-0Z" style="fill:rgb(1,1,1);fill-rule:nonzero;"/>
            </g>
            <g transform="matrix(8.8108,0,0,8.8108,363.281,287.706)">
                <path d="M0.423,-0.495C0.423,-0.463 0.419,-0.431 0.41,-0.399C0.401,-0.366 0.389,-0.333 0.373,-0.299L0.23,-0L0.155,-0L0.31,-0.313L0.308,-0.314C0.286,-0.291 0.255,-0.279 0.216,-0.279C0.196,-0.279 0.176,-0.283 0.156,-0.291C0.136,-0.299 0.118,-0.312 0.102,-0.329C0.086,-0.346 0.073,-0.369 0.063,-0.396C0.053,-0.423 0.048,-0.456 0.048,-0.495C0.048,-0.529 0.053,-0.56 0.062,-0.588C0.07,-0.615 0.083,-0.639 0.1,-0.659C0.116,-0.678 0.135,-0.693 0.159,-0.704C0.182,-0.715 0.207,-0.72 0.236,-0.72C0.295,-0.72 0.341,-0.7 0.374,-0.66C0.407,-0.619 0.423,-0.564 0.423,-0.495ZM0.353,-0.497C0.353,-0.546 0.343,-0.585 0.322,-0.616C0.301,-0.647 0.272,-0.662 0.235,-0.662C0.198,-0.662 0.169,-0.647 0.149,-0.616C0.128,-0.585 0.118,-0.545 0.118,-0.497C0.118,-0.474 0.121,-0.452 0.126,-0.432C0.131,-0.412 0.138,-0.395 0.148,-0.381C0.157,-0.366 0.169,-0.355 0.184,-0.347C0.198,-0.339 0.215,-0.335 0.234,-0.335C0.252,-0.335 0.268,-0.339 0.283,-0.348C0.298,-0.356 0.31,-0.367 0.321,-0.382C0.331,-0.396 0.339,-0.413 0.345,-0.433C0.35,-0.452 0.353,-0.474 0.353,-0.497Z" style="fill:rgb(1,1,1);fill-rule:nonzero;"/>
            </g>
            <g transform="matrix(8.8108,0,0,8.8108,367.422,287.706)">
                <path d="M0.348,-0.169L0.348,-0L0.285,-0L0.285,-0.169L0.031,-0.169L0.031,-0.234L0.256,-0.708L0.348,-0.708L0.348,-0.229L0.436,-0.229L0.436,-0.169L0.348,-0.169ZM0.286,-0.641L0.284,-0.641L0.094,-0.229L0.286,-0.229L0.286,-0.641Z" style="fill:rgb(1,1,1);fill-rule:nonzero;"/>
            </g>
            <g transform="matrix(8.8108,0,0,8.8108,371.563,287.706)">
                <path d="M0.423,-0.495C0.423,-0.463 0.419,-0.431 0.41,-0.399C0.401,-0.366 0.389,-0.333 0.373,-0.299L0.23,-0L0.155,-0L0.31,-0.313L0.308,-0.314C0.286,-0.291 0.255,-0.279 0.216,-0.279C0.196,-0.279 0.176,-0.283 0.156,-0.291C0.136,-0.299 0.118,-0.312 0.102,-0.329C0.086,-0.346 0.073,-0.369 0.063,-0.396C0.053,-0.423 0.048,-0.456 0.048,-0.495C0.048,-0.529 0.053,-0.56 0.062,-0.588C0.07,-0.615 0.083,-0.639 0.1,-0.659C0.116,-0.678 0.135,-0.693 0.159,-0.704C0.182,-0.715 0.207,-0.72 0.236,-0.72C0.295,-0.72 0.341,-0.7 0.374,-0.66C0.407,-0.619 0.423,-0.564 0.423,-0.495ZM0.353,-0.497C0.353,-0.546 0.343,-0.585 0.322,-0.616C0.301,-0.647 0.272,-0.662 0.235,-0.662C0.198,-0.662 0.169,-0.647 0.149,-0.616C0.128,-0.585 0.118,-0.545 0.118,-0.497C0.118,-0.474 0.121,-0.452 0.126,-0.432C0.131,-0.412 0.138,-0.395 0.148,-0.381C0.157,-0.366 0.169,-0.355 0.184,-0.347C0.198,-0.339 0.215,-0.335 0.234,-0.335C0.252,-0.335 0.268,-0.339 0.283,-0.348C0.298,-0.356 0.31,-0.367 0.321,-0.382C0.331,-0.396 0.339,-0.413 0.345,-0.433C0.35,-0.452 0.353,-0.474 0.353,-0.497Z" style="fill:rgb(1,1,1);fill-rule:nonzero;"/>
            </g>
        </g>
        <g transform="matrix(4.16667,0,0,4.16667,-222.324,-884.975)">
            <g transform="matrix(8.8108,0,0,8.8108,66.0312,272.754)">
                <path d="M0.425,-0.354C0.425,-0.313 0.423,-0.27 0.418,-0.227C0.413,-0.184 0.403,-0.144 0.389,-0.109C0.375,-0.074 0.356,-0.045 0.331,-0.022C0.306,0.001 0.274,0.012 0.235,0.012C0.196,0.012 0.164,0.001 0.139,-0.022C0.114,-0.045 0.095,-0.074 0.081,-0.109C0.067,-0.144 0.057,-0.184 0.052,-0.227C0.047,-0.27 0.044,-0.313 0.044,-0.354C0.044,-0.395 0.047,-0.438 0.052,-0.481C0.057,-0.524 0.067,-0.564 0.081,-0.599C0.095,-0.634 0.114,-0.663 0.139,-0.686C0.164,-0.709 0.196,-0.72 0.235,-0.72C0.274,-0.72 0.306,-0.709 0.331,-0.686C0.356,-0.663 0.375,-0.634 0.389,-0.599C0.403,-0.564 0.413,-0.524 0.418,-0.481C0.423,-0.438 0.425,-0.395 0.425,-0.354ZM0.354,-0.354C0.354,-0.371 0.354,-0.39 0.353,-0.412C0.352,-0.433 0.35,-0.455 0.347,-0.478C0.344,-0.501 0.34,-0.523 0.335,-0.545C0.33,-0.566 0.323,-0.586 0.314,-0.603C0.305,-0.62 0.295,-0.633 0.282,-0.644C0.269,-0.654 0.253,-0.659 0.235,-0.659C0.217,-0.659 0.202,-0.654 0.189,-0.644C0.175,-0.633 0.165,-0.62 0.156,-0.603C0.147,-0.586 0.14,-0.566 0.135,-0.545C0.129,-0.523 0.125,-0.501 0.122,-0.478C0.119,-0.455 0.118,-0.433 0.117,-0.412C0.116,-0.39 0.115,-0.371 0.115,-0.354C0.115,-0.337 0.116,-0.317 0.117,-0.296C0.118,-0.274 0.119,-0.252 0.122,-0.23C0.125,-0.207 0.129,-0.185 0.135,-0.164C0.14,-0.142 0.147,-0.123 0.156,-0.106C0.165,-0.089 0.175,-0.075 0.189,-0.065C0.202,-0.054 0.217,-0.049 0.235,-0.049C0.253,-0.049 0.269,-0.054 0.282,-0.065C0.295,-0.075 0.305,-0.089 0.314,-0.106C0.323,-0.123 0.33,-0.142 0.335,-0.164C0.34,-0.185 0.344,-0.207 0.347,-0.23C0.35,-0.252 0.352,-0.274 0.353,-0.296C0.354,-0.317 0.354,-0.337 0.354,-0.354Z" style="fill:rgb(1,1,1);fill-rule:nonzero;"/>
            </g>
        </g>
        <g transform="matrix(4.16667,0,0,4.16667,-222.324,-884.975)">
            <g transform="matrix(8.8108,0,0,8.8108,66.0312,238.374)">
                <path d="M0.406,-0.222C0.406,-0.185 0.402,-0.152 0.393,-0.123C0.384,-0.093 0.371,-0.069 0.355,-0.049C0.338,-0.029 0.319,-0.014 0.296,-0.004C0.273,0.007 0.249,0.012 0.222,0.012C0.178,0.012 0.141,0.001 0.113,-0.021C0.084,-0.043 0.062,-0.074 0.049,-0.114L0.109,-0.136C0.12,-0.109 0.134,-0.087 0.153,-0.072C0.172,-0.057 0.194,-0.049 0.221,-0.049C0.256,-0.049 0.284,-0.064 0.306,-0.095C0.328,-0.125 0.339,-0.167 0.339,-0.22C0.339,-0.271 0.328,-0.312 0.306,-0.343C0.284,-0.374 0.252,-0.39 0.21,-0.39C0.191,-0.39 0.17,-0.387 0.149,-0.381C0.127,-0.374 0.108,-0.366 0.093,-0.356L0.101,-0.708L0.382,-0.708L0.382,-0.647L0.161,-0.647L0.154,-0.426C0.165,-0.431 0.178,-0.436 0.193,-0.44C0.207,-0.443 0.22,-0.445 0.231,-0.445C0.261,-0.445 0.287,-0.44 0.309,-0.429C0.33,-0.418 0.348,-0.402 0.363,-0.383C0.378,-0.363 0.389,-0.339 0.396,-0.312C0.403,-0.285 0.406,-0.255 0.406,-0.222Z" style="fill:rgb(1,1,1);fill-rule:nonzero;"/>
            </g>
        </g>
        <g transform="matrix(4.16667,0,0,4.16667,-222.324,-889.975)">
            <g transform="matrix(8.8108,0,0,8.8108,62.0663,203.994)">
                <path d="M0.239,-0L0.239,-0.628L0.109,-0.527L0.076,-0.581L0.243,-0.708L0.306,-0.708L0.306,-0L0.239,-0Z" style="fill:rgb(1,1,1);fill-rule:nonzero;"/>
            </g>
            <g transform="matrix(8.8108,0,0,8.8108,66.2074,203.994)">
                <path d="M0.425,-0.354C0.425,-0.313 0.423,-0.27 0.418,-0.227C0.413,-0.184 0.403,-0.144 0.389,-0.109C0.375,-0.074 0.356,-0.045 0.331,-0.022C0.306,0.001 0.274,0.012 0.235,0.012C0.196,0.012 0.164,0.001 0.139,-0.022C0.114,-0.045 0.095,-0.074 0.081,-0.109C0.067,-0.144 0.057,-0.184 0.052,-0.227C0.047,-0.27 0.044,-0.313 0.044,-0.354C0.044,-0.395 0.047,-0.438 0.052,-0.481C0.057,-0.524 0.067,-0.564 0.081,-0.599C0.095,-0.634 0.114,-0.663 0.139,-0.686C0.164,-0.709 0.196,-0.72 0.235,-0.72C0.274,-0.72 0.306,-0.709 0.331,-0.686C0.356,-0.663 0.375,-0.634 0.389,-0.599C0.403,-0.564 0.413,-0.524 0.418,-0.481C0.423,-0.438 0.425,-0.395 0.425,-0.354ZM0.354,-0.354C0.354,-0.371 0.354,-0.39 0.353,-0.412C0.352,-0.433 0.35,-0.455 0.347,-0.478C0.344,-0.501 0.34,-0.523 0.335,-0.545C0.33,-0.566 0.323,-0.586 0.314,-0.603C0.305,-0.62 0.295,-0.633 0.282,-0.644C0.269,-0.654 0.253,-0.659 0.235,-0.659C0.217,-0.659 0.202,-0.654 0.189,-0.644C0.175,-0.633 0.165,-0.62 0.156,-0.603C0.147,-0.586 0.14,-0.566 0.135,-0.545C0.129,-0.523 0.125,-0.501 0.122,-0.478C0.119,-0.455 0.118,-0.433 0.117,-0.412C0.116,-0.39 0.115,-0.371 0.115,-0.354C0.115,-0.337 0.116,-0.317 0.117,-0.296C0.118,-0.274 0.119,-0.252 0.122,-0.23C0.125,-0.207 0.129,-0.185 0.135,-0.164C0.14,-0.142 0.147,-0.123 0.156,-0.106C0.165,-0.089 0.175,-0.075 0.189,-0.065C0.202,-0.054 0.217,-0.049 0.235,-0.049C0.253,-0.049 0.269,-0.054 0.282,-0.065C0.295,-0.075 0.305,-0.089 0.314,-0.106C0.323,-0.123 0.33,-0.142 0.335,-0.164C0.34,-0.185 0.344,-0.207 0.347,-0.23C0.35,-0.252 0.352,-0.274 0.353,-0.296C0.354,-0.317 0.354,-0.337 0.354,-0.354Z" style="fill:rgb(1,1,1);fill-rule:nonzero;"/>
            </g>
        </g>
        <g transform="matrix(4.16667,0,0,4.16667,-222.324,-889.975)">
            <g transform="matrix(8.8108,0,0,8.8108,62.0663,169.615)">
                <path d="M0.239,-0L0.239,-0.628L0.109,-0.527L0.076,-0.581L0.243,-0.708L0.306,-0.708L0.306,-0L0.239,-0Z" style="fill:rgb(1,1,1);fill-rule:nonzero;"/>
            </g>
            <g transform="matrix(8.8108,0,0,8.8108,66.2074,169.615)">
                <path d="M0.406,-0.222C0.406,-0.185 0.402,-0.152 0.393,-0.123C0.384,-0.093 0.371,-0.069 0.355,-0.049C0.338,-0.029 0.319,-0.014 0.296,-0.004C0.273,0.007 0.249,0.012 0.222,0.012C0.178,0.012 0.141,0.001 0.113,-0.021C0.084,-0.043 0.062,-0.074 0.049,-0.114L0.109,-0.136C0.12,-0.109 0.134,-0.087 0.153,-0.072C0.172,-0.057 0.194,-0.049 0.221,-0.049C0.256,-0.049 0.284,-0.064 0.306,-0.095C0.328,-0.125 0.339,-0.167 0.339,-0.22C0.339,-0.271 0.328,-0.312 0.306,-0.343C0.284,-0.374 0.252,-0.39 0.21,-0.39C0.191,-0.39 0.17,-0.387 0.149,-0.381C0.127,-0.374 0.108,-0.366 0.093,-0.356L0.101,-0.708L0.382,-0.708L0.382,-0.647L0.161,-0.647L0.154,-0.426C0.165,-0.431 0.178,-0.436 0.193,-0.44C0.207,-0.443 0.22,-0.445 0.231,-0.445C0.261,-0.445 0.287,-0.44 0.309,-0.429C0.33,-0.418 0.348,-0.402 0.363,-0.383C0.378,-0.363 0.389,-0.339 0.396,-0.312C0.403,-0.285 0.406,-0.255 0.406,-0.222Z" style="fill:rgb(1,1,1);fill-rule:nonzero;"/>
            </g>
        </g>
        <g transform="matrix(4.16667,0,0,4.16667,-222.324,-889.975)">
            <g transform="matrix(8.8108,0,0,8.8108,62.0663,135.235)">
                <path d="M0.393,-0.535C0.393,-0.513 0.391,-0.492 0.386,-0.473C0.381,-0.453 0.373,-0.434 0.364,-0.415C0.355,-0.396 0.343,-0.376 0.331,-0.357C0.318,-0.337 0.303,-0.316 0.288,-0.293L0.127,-0.062L0.386,-0.062L0.386,-0L0.051,-0L0.051,-0.066L0.244,-0.341C0.268,-0.376 0.287,-0.408 0.301,-0.439C0.315,-0.469 0.322,-0.499 0.322,-0.53C0.322,-0.547 0.32,-0.564 0.316,-0.58C0.312,-0.595 0.306,-0.609 0.298,-0.621C0.289,-0.633 0.279,-0.643 0.267,-0.65C0.254,-0.657 0.24,-0.66 0.223,-0.66C0.194,-0.66 0.171,-0.651 0.153,-0.632C0.134,-0.612 0.122,-0.585 0.115,-0.549L0.049,-0.557C0.058,-0.61 0.078,-0.651 0.109,-0.679C0.14,-0.706 0.179,-0.72 0.227,-0.72C0.255,-0.72 0.279,-0.715 0.3,-0.706C0.321,-0.696 0.338,-0.683 0.352,-0.666C0.365,-0.649 0.376,-0.629 0.383,-0.607C0.39,-0.584 0.393,-0.56 0.393,-0.535Z" style="fill:rgb(1,1,1);fill-rule:nonzero;"/>
            </g>
            <g transform="matrix(8.8108,0,0,8.8108,66.2074,135.235)">
                <path d="M0.425,-0.354C0.425,-0.313 0.423,-0.27 0.418,-0.227C0.413,-0.184 0.403,-0.144 0.389,-0.109C0.375,-0.074 0.356,-0.045 0.331,-0.022C0.306,0.001 0.274,0.012 0.235,0.012C0.196,0.012 0.164,0.001 0.139,-0.022C0.114,-0.045 0.095,-0.074 0.081,-0.109C0.067,-0.144 0.057,-0.184 0.052,-0.227C0.047,-0.27 0.044,-0.313 0.044,-0.354C0.044,-0.395 0.047,-0.438 0.052,-0.481C0.057,-0.524 0.067,-0.564 0.081,-0.599C0.095,-0.634 0.114,-0.663 0.139,-0.686C0.164,-0.709 0.196,-0.72 0.235,-0.72C0.274,-0.72 0.306,-0.709 0.331,-0.686C0.356,-0.663 0.375,-0.634 0.389,-0.599C0.403,-0.564 0.413,-0.524 0.418,-0.481C0.423,-0.438 0.425,-0.395 0.425,-0.354ZM0.354,-0.354C0.354,-0.371 0.354,-0.39 0.353,-0.412C0.352,-0.433 0.35,-0.455 0.347,-0.478C0.344,-0.501 0.34,-0.523 0.335,-0.545C0.33,-0.566 0.323,-0.586 0.314,-0.603C0.305,-0.62 0.295,-0.633 0.282,-0.644C0.269,-0.654 0.253,-0.659 0.235,-0.659C0.217,-0.659 0.202,-0.654 0.189,-0.644C0.175,-0.633 0.165,-0.62 0.156,-0.603C0.147,-0.586 0.14,-0.566 0.135,-0.545C0.129,-0.523 0.125,-0.501 0.122,-0.478C0.119,-0.455 0.118,-0.433 0.117,-0.412C0.116,-0.39 0.115,-0.371 0.115,-0.354C0.115,-0.337 0.116,-0.317 0.117,-0.296C0.118,-0.274 0.119,-0.252 0.122,-0.23C0.125,-0.207 0.129,-0.185 0.135,-0.164C0.14,-0.142 0.147,-0.123 0.156,-0.106C0.165,-0.089 0.175,-0.075 0.189,-0.065C0.202,-0.054 0.217,-0.049 0.235,-0.049C0.253,-0.049 0.269,-0.054 0.282,-0.065C0.295,-0.075 0.305,-0.089 0.314,-0.106C0.323,-0.123 0.33,-0.142 0.335,-0.164C0.34,-0.185 0.344,-0.207 0.347,-0.23C0.35,-0.252 0.352,-0.274 0.353,-0.296C0.354,-0.317 0.354,-0.337 0.354,-0.354Z" style="fill:rgb(1,1,1);fill-rule:nonzero;"/>
            </g>
        </g>
        <g transform="matrix(4.16667,0,0,4.16667,-222.324,-889.975)">
            <g transform="matrix(8.8108,0,0,8.8108,77.3531,127.358)">
                <path d="M0.533,-0.438C0.533,-0.378 0.526,-0.321 0.511,-0.268C0.496,-0.215 0.475,-0.168 0.446,-0.129C0.417,-0.089 0.382,-0.058 0.341,-0.035C0.3,-0.012 0.252,-0 0.198,-0L0.038,-0L0.161,-0.708L0.321,-0.708C0.358,-0.708 0.389,-0.701 0.416,-0.688C0.443,-0.675 0.465,-0.656 0.482,-0.632C0.499,-0.608 0.512,-0.58 0.521,-0.547C0.529,-0.514 0.533,-0.477 0.533,-0.438ZM0.446,-0.433C0.446,-0.496 0.434,-0.545 0.411,-0.58C0.388,-0.615 0.353,-0.633 0.307,-0.633L0.232,-0.633L0.136,-0.075L0.211,-0.075C0.246,-0.075 0.278,-0.085 0.307,-0.104C0.335,-0.123 0.36,-0.148 0.381,-0.181C0.402,-0.214 0.418,-0.252 0.429,-0.295C0.44,-0.338 0.446,-0.384 0.446,-0.433Z" style="fill:rgb(1,1,1);fill-rule:nonzero;"/>
            </g>
            <g transform="matrix(8.8108,0,0,8.8108,82.1549,127.358)">
                <path d="M0.401,-0.355C0.401,-0.348 0.401,-0.341 0.401,-0.334C0.4,-0.327 0.4,-0.318 0.399,-0.309C0.398,-0.299 0.397,-0.288 0.395,-0.275C0.393,-0.262 0.391,-0.247 0.388,-0.229L0.127,-0.229C0.126,-0.219 0.125,-0.209 0.124,-0.2C0.123,-0.19 0.122,-0.18 0.122,-0.171C0.122,-0.138 0.128,-0.111 0.14,-0.09C0.152,-0.069 0.171,-0.059 0.198,-0.059C0.221,-0.059 0.24,-0.066 0.256,-0.08C0.271,-0.094 0.285,-0.111 0.296,-0.13L0.354,-0.093C0.335,-0.061 0.313,-0.035 0.287,-0.014C0.26,0.007 0.228,0.017 0.189,0.017C0.142,0.017 0.106,0.001 0.079,-0.031C0.052,-0.062 0.039,-0.107 0.039,-0.166C0.039,-0.209 0.044,-0.251 0.055,-0.294C0.066,-0.336 0.081,-0.374 0.101,-0.407C0.12,-0.44 0.144,-0.466 0.172,-0.487C0.2,-0.508 0.231,-0.518 0.265,-0.518C0.289,-0.518 0.31,-0.514 0.327,-0.506C0.344,-0.498 0.359,-0.487 0.37,-0.473C0.381,-0.458 0.389,-0.441 0.394,-0.421C0.399,-0.401 0.401,-0.379 0.401,-0.355ZM0.324,-0.353C0.324,-0.381 0.319,-0.403 0.309,-0.42C0.298,-0.437 0.282,-0.445 0.259,-0.445C0.242,-0.445 0.226,-0.44 0.213,-0.43C0.2,-0.419 0.188,-0.407 0.178,-0.392C0.168,-0.377 0.16,-0.36 0.154,-0.343C0.147,-0.326 0.143,-0.31 0.14,-0.296L0.318,-0.296C0.322,-0.318 0.324,-0.337 0.324,-0.353Z" style="fill:rgb(1,1,1);fill-rule:nonzero;"/>
            </g>
            <g transform="matrix(8.8108,0,0,8.8108,85.8995,127.358)">
                <path d="M0.37,-0.385C0.37,-0.373 0.369,-0.361 0.368,-0.349C0.367,-0.337 0.365,-0.324 0.362,-0.309L0.327,-0.105C0.326,-0.099 0.324,-0.091 0.323,-0.081C0.322,-0.071 0.32,-0.061 0.319,-0.051C0.318,-0.04 0.316,-0.03 0.315,-0.021C0.314,-0.012 0.313,-0.005 0.313,-0L0.244,-0C0.244,-0.005 0.245,-0.011 0.246,-0.018C0.247,-0.025 0.248,-0.033 0.249,-0.041C0.25,-0.049 0.252,-0.057 0.253,-0.065C0.254,-0.073 0.255,-0.08 0.256,-0.085L0.254,-0.085C0.241,-0.054 0.224,-0.029 0.203,-0.013C0.182,0.005 0.155,0.013 0.123,0.013C0.094,0.013 0.07,0.003 0.051,-0.016C0.031,-0.035 0.021,-0.065 0.021,-0.105C0.021,-0.145 0.028,-0.178 0.043,-0.205C0.058,-0.231 0.076,-0.252 0.099,-0.268C0.122,-0.283 0.147,-0.294 0.174,-0.301C0.201,-0.307 0.228,-0.31 0.254,-0.31L0.288,-0.31C0.291,-0.329 0.294,-0.342 0.295,-0.35C0.296,-0.358 0.296,-0.365 0.296,-0.37C0.296,-0.397 0.29,-0.417 0.278,-0.43C0.266,-0.442 0.249,-0.448 0.228,-0.448C0.209,-0.448 0.191,-0.443 0.174,-0.434C0.156,-0.425 0.14,-0.412 0.126,-0.397L0.09,-0.447C0.109,-0.468 0.133,-0.486 0.161,-0.499C0.189,-0.511 0.216,-0.518 0.242,-0.518C0.286,-0.518 0.318,-0.506 0.339,-0.483C0.36,-0.46 0.37,-0.427 0.37,-0.385ZM0.242,-0.248C0.225,-0.248 0.207,-0.246 0.19,-0.242C0.173,-0.237 0.157,-0.23 0.144,-0.22C0.13,-0.21 0.119,-0.197 0.11,-0.18C0.101,-0.163 0.097,-0.142 0.097,-0.117C0.097,-0.095 0.102,-0.079 0.113,-0.069C0.123,-0.058 0.136,-0.053 0.151,-0.053C0.169,-0.053 0.185,-0.058 0.199,-0.069C0.212,-0.08 0.224,-0.093 0.235,-0.109C0.245,-0.125 0.253,-0.143 0.26,-0.162C0.266,-0.181 0.271,-0.2 0.274,-0.218L0.28,-0.248L0.242,-0.248Z" style="fill:rgb(1,1,1);fill-rule:nonzero;"/>
            </g>
            <g transform="matrix(8.8108,0,0,8.8108,89.4503,127.358)">
                <path d="M0.273,-0.435L0.189,-0.435L0.139,-0.141C0.138,-0.134 0.137,-0.128 0.136,-0.121C0.135,-0.114 0.135,-0.108 0.135,-0.103C0.135,-0.086 0.138,-0.075 0.145,-0.069C0.152,-0.063 0.162,-0.06 0.175,-0.06C0.181,-0.06 0.188,-0.061 0.195,-0.063C0.202,-0.064 0.208,-0.066 0.213,-0.068L0.205,-0.003C0.196,0 0.187,0.003 0.177,0.005C0.167,0.007 0.157,0.008 0.148,0.008C0.115,0.008 0.091,-0 0.076,-0.017C0.061,-0.034 0.053,-0.056 0.053,-0.084C0.053,-0.096 0.054,-0.11 0.057,-0.125L0.111,-0.435L0.042,-0.435L0.053,-0.501L0.12,-0.501L0.143,-0.635L0.222,-0.635L0.2,-0.501L0.285,-0.501L0.273,-0.435Z" style="fill:rgb(1,1,1);fill-rule:nonzero;"/>
            </g>
            <g transform="matrix(8.8108,0,0,8.8108,91.7235,127.358)">
                <path d="M0.432,-0.396C0.432,-0.387 0.431,-0.375 0.43,-0.361C0.429,-0.347 0.427,-0.333 0.424,-0.32L0.369,-0L0.287,-0L0.342,-0.32C0.343,-0.329 0.345,-0.339 0.346,-0.348C0.347,-0.357 0.348,-0.367 0.348,-0.376C0.348,-0.395 0.344,-0.412 0.337,-0.425C0.329,-0.438 0.314,-0.445 0.292,-0.445C0.277,-0.445 0.263,-0.441 0.25,-0.433C0.236,-0.425 0.224,-0.414 0.213,-0.4C0.202,-0.386 0.192,-0.37 0.184,-0.351C0.176,-0.332 0.17,-0.311 0.166,-0.288L0.116,-0L0.034,-0L0.165,-0.756L0.247,-0.756L0.187,-0.414L0.189,-0.414C0.202,-0.443 0.22,-0.467 0.244,-0.488C0.268,-0.508 0.296,-0.518 0.327,-0.518C0.346,-0.518 0.363,-0.515 0.376,-0.508C0.389,-0.501 0.4,-0.491 0.409,-0.48C0.417,-0.469 0.423,-0.456 0.427,-0.441C0.43,-0.426 0.432,-0.411 0.432,-0.396Z" style="fill:rgb(1,1,1);fill-rule:nonzero;"/>
            </g>
            <g transform="matrix(8.8108,0,0,8.8108,97.6212,127.358)">
                <path d="M0.304,-0.429C0.301,-0.43 0.299,-0.43 0.296,-0.431C0.293,-0.431 0.29,-0.431 0.287,-0.431C0.271,-0.431 0.256,-0.426 0.242,-0.416C0.228,-0.405 0.215,-0.392 0.204,-0.376C0.193,-0.359 0.183,-0.34 0.175,-0.319C0.167,-0.298 0.161,-0.276 0.157,-0.254L0.113,-0L0.031,-0L0.096,-0.374C0.097,-0.379 0.098,-0.388 0.1,-0.4C0.102,-0.412 0.104,-0.425 0.106,-0.438C0.108,-0.451 0.11,-0.464 0.112,-0.476C0.113,-0.488 0.114,-0.496 0.115,-0.501L0.194,-0.501C0.193,-0.496 0.192,-0.489 0.191,-0.48C0.19,-0.47 0.188,-0.46 0.187,-0.449C0.185,-0.438 0.183,-0.428 0.181,-0.418C0.179,-0.408 0.178,-0.4 0.177,-0.395L0.18,-0.395C0.195,-0.436 0.215,-0.466 0.238,-0.485C0.261,-0.504 0.286,-0.514 0.311,-0.514C0.316,-0.514 0.32,-0.514 0.322,-0.513L0.304,-0.429Z" style="fill:rgb(1,1,1);fill-rule:nonzero;"/>
            </g>
            <g transform="matrix(8.8108,0,0,8.8108,100,127.358)">
                <path d="M0.37,-0.385C0.37,-0.373 0.369,-0.361 0.368,-0.349C0.367,-0.337 0.365,-0.324 0.362,-0.309L0.327,-0.105C0.326,-0.099 0.324,-0.091 0.323,-0.081C0.322,-0.071 0.32,-0.061 0.319,-0.051C0.318,-0.04 0.316,-0.03 0.315,-0.021C0.314,-0.012 0.313,-0.005 0.313,-0L0.244,-0C0.244,-0.005 0.245,-0.011 0.246,-0.018C0.247,-0.025 0.248,-0.033 0.249,-0.041C0.25,-0.049 0.252,-0.057 0.253,-0.065C0.254,-0.073 0.255,-0.08 0.256,-0.085L0.254,-0.085C0.241,-0.054 0.224,-0.029 0.203,-0.013C0.182,0.005 0.155,0.013 0.123,0.013C0.094,0.013 0.07,0.003 0.051,-0.016C0.031,-0.035 0.021,-0.065 0.021,-0.105C0.021,-0.145 0.028,-0.178 0.043,-0.205C0.058,-0.231 0.076,-0.252 0.099,-0.268C0.122,-0.283 0.147,-0.294 0.174,-0.301C0.201,-0.307 0.228,-0.31 0.254,-0.31L0.288,-0.31C0.291,-0.329 0.294,-0.342 0.295,-0.35C0.296,-0.358 0.296,-0.365 0.296,-0.37C0.296,-0.397 0.29,-0.417 0.278,-0.43C0.266,-0.442 0.249,-0.448 0.228,-0.448C0.209,-0.448 0.191,-0.443 0.174,-0.434C0.156,-0.425 0.14,-0.412 0.126,-0.397L0.09,-0.447C0.109,-0.468 0.133,-0.486 0.161,-0.499C0.189,-0.511 0.216,-0.518 0.242,-0.518C0.286,-0.518 0.318,-0.506 0.339,-0.483C0.36,-0.46 0.37,-0.427 0.37,-0.385ZM0.242,-0.248C0.225,-0.248 0.207,-0.246 0.19,-0.242C0.173,-0.237 0.157,-0.23 0.144,-0.22C0.13,-0.21 0.119,-0.197 0.11,-0.18C0.101,-0.163 0.097,-0.142 0.097,-0.117C0.097,-0.095 0.102,-0.079 0.113,-0.069C0.123,-0.058 0.136,-0.053 0.151,-0.053C0.169,-0.053 0.185,-0.058 0.199,-0.069C0.212,-0.08 0.224,-0.093 0.235,-0.109C0.245,-0.125 0.253,-0.143 0.26,-0.162C0.266,-0.181 0.271,-0.2 0.274,-0.218L0.28,-0.248L0.242,-0.248Z" style="fill:rgb(1,1,1);fill-rule:nonzero;"/>
            </g>
            <g transform="matrix(8.8108,0,0,8.8108,103.551,127.358)">
                <path d="M0.273,-0.435L0.189,-0.435L0.139,-0.141C0.138,-0.134 0.137,-0.128 0.136,-0.121C0.135,-0.114 0.135,-0.108 0.135,-0.103C0.135,-0.086 0.138,-0.075 0.145,-0.069C0.152,-0.063 0.162,-0.06 0.175,-0.06C0.181,-0.06 0.188,-0.061 0.195,-0.063C0.202,-0.064 0.208,-0.066 0.213,-0.068L0.205,-0.003C0.196,0 0.187,0.003 0.177,0.005C0.167,0.007 0.157,0.008 0.148,0.008C0.115,0.008 0.091,-0 0.076,-0.017C0.061,-0.034 0.053,-0.056 0.053,-0.084C0.053,-0.096 0.054,-0.11 0.057,-0.125L0.111,-0.435L0.042,-0.435L0.053,-0.501L0.12,-0.501L0.143,-0.635L0.222,-0.635L0.2,-0.501L0.285,-0.501L0.273,-0.435Z" style="fill:rgb(1,1,1);fill-rule:nonzero;"/>
            </g>
            <g transform="matrix(8.8108,0,0,8.8108,105.824,127.358)">
                <path d="M0.401,-0.355C0.401,-0.348 0.401,-0.341 0.401,-0.334C0.4,-0.327 0.4,-0.318 0.399,-0.309C0.398,-0.299 0.397,-0.288 0.395,-0.275C0.393,-0.262 0.391,-0.247 0.388,-0.229L0.127,-0.229C0.126,-0.219 0.125,-0.209 0.124,-0.2C0.123,-0.19 0.122,-0.18 0.122,-0.171C0.122,-0.138 0.128,-0.111 0.14,-0.09C0.152,-0.069 0.171,-0.059 0.198,-0.059C0.221,-0.059 0.24,-0.066 0.256,-0.08C0.271,-0.094 0.285,-0.111 0.296,-0.13L0.354,-0.093C0.335,-0.061 0.313,-0.035 0.287,-0.014C0.26,0.007 0.228,0.017 0.189,0.017C0.142,0.017 0.106,0.001 0.079,-0.031C0.052,-0.062 0.039,-0.107 0.039,-0.166C0.039,-0.209 0.044,-0.251 0.055,-0.294C0.066,-0.336 0.081,-0.374 0.101,-0.407C0.12,-0.44 0.144,-0.466 0.172,-0.487C0.2,-0.508 0.231,-0.518 0.265,-0.518C0.289,-0.518 0.31,-0.514 0.327,-0.506C0.344,-0.498 0.359,-0.487 0.37,-0.473C0.381,-0.458 0.389,-0.441 0.394,-0.421C0.399,-0.401 0.401,-0.379 0.401,-0.355ZM0.324,-0.353C0.324,-0.381 0.319,-0.403 0.309,-0.42C0.298,-0.437 0.282,-0.445 0.259,-0.445C0.242,-0.445 0.226,-0.44 0.213,-0.43C0.2,-0.419 0.188,-0.407 0.178,-0.392C0.168,-0.377 0.16,-0.36 0.154,-0.343C0.147,-0.326 0.143,-0.31 0.14,-0.296L0.318,-0.296C0.322,-0.318 0.324,-0.337 0.324,-0.353Z" style="fill:rgb(1,1,1);fill-rule:nonzero;"/>
            </g>
            <g transform="matrix(8.8108,0,0,8.8108,111.281,127.358)">
                <path d="M0.445,-0.339C0.445,-0.298 0.44,-0.257 0.431,-0.215C0.422,-0.172 0.408,-0.134 0.39,-0.1C0.372,-0.065 0.35,-0.037 0.324,-0.016C0.298,0.006 0.269,0.017 0.236,0.017C0.206,0.017 0.182,0.008 0.164,-0.009C0.145,-0.026 0.134,-0.048 0.131,-0.075L0.129,-0.075L0.075,0.24L-0.006,0.24L0.123,-0.501L0.202,-0.501L0.188,-0.421L0.189,-0.421C0.202,-0.449 0.219,-0.472 0.238,-0.491C0.257,-0.509 0.284,-0.518 0.319,-0.518C0.36,-0.518 0.391,-0.502 0.413,-0.469C0.434,-0.436 0.445,-0.393 0.445,-0.339ZM0.361,-0.334C0.361,-0.368 0.356,-0.395 0.345,-0.416C0.334,-0.437 0.316,-0.447 0.291,-0.447C0.269,-0.447 0.249,-0.438 0.232,-0.42C0.215,-0.402 0.2,-0.379 0.188,-0.352C0.176,-0.325 0.167,-0.295 0.161,-0.264C0.154,-0.232 0.151,-0.202 0.151,-0.175C0.151,-0.139 0.157,-0.11 0.168,-0.088C0.179,-0.066 0.197,-0.055 0.222,-0.055C0.245,-0.055 0.265,-0.064 0.282,-0.083C0.299,-0.102 0.314,-0.125 0.326,-0.153C0.337,-0.181 0.346,-0.211 0.352,-0.244C0.358,-0.277 0.361,-0.307 0.361,-0.334Z" style="fill:rgb(1,1,1);fill-rule:nonzero;"/>
            </g>
            <g transform="matrix(8.8108,0,0,8.8108,115.493,127.358)">
                <path d="M0.401,-0.355C0.401,-0.348 0.401,-0.341 0.401,-0.334C0.4,-0.327 0.4,-0.318 0.399,-0.309C0.398,-0.299 0.397,-0.288 0.395,-0.275C0.393,-0.262 0.391,-0.247 0.388,-0.229L0.127,-0.229C0.126,-0.219 0.125,-0.209 0.124,-0.2C0.123,-0.19 0.122,-0.18 0.122,-0.171C0.122,-0.138 0.128,-0.111 0.14,-0.09C0.152,-0.069 0.171,-0.059 0.198,-0.059C0.221,-0.059 0.24,-0.066 0.256,-0.08C0.271,-0.094 0.285,-0.111 0.296,-0.13L0.354,-0.093C0.335,-0.061 0.313,-0.035 0.287,-0.014C0.26,0.007 0.228,0.017 0.189,0.017C0.142,0.017 0.106,0.001 0.079,-0.031C0.052,-0.062 0.039,-0.107 0.039,-0.166C0.039,-0.209 0.044,-0.251 0.055,-0.294C0.066,-0.336 0.081,-0.374 0.101,-0.407C0.12,-0.44 0.144,-0.466 0.172,-0.487C0.2,-0.508 0.231,-0.518 0.265,-0.518C0.289,-0.518 0.31,-0.514 0.327,-0.506C0.344,-0.498 0.359,-0.487 0.37,-0.473C0.381,-0.458 0.389,-0.441 0.394,-0.421C0.399,-0.401 0.401,-0.379 0.401,-0.355ZM0.324,-0.353C0.324,-0.381 0.319,-0.403 0.309,-0.42C0.298,-0.437 0.282,-0.445 0.259,-0.445C0.242,-0.445 0.226,-0.44 0.213,-0.43C0.2,-0.419 0.188,-0.407 0.178,-0.392C0.168,-0.377 0.16,-0.36 0.154,-0.343C0.147,-0.326 0.143,-0.31 0.14,-0.296L0.318,-0.296C0.322,-0.318 0.324,-0.337 0.324,-0.353Z" style="fill:rgb(1,1,1);fill-rule:nonzero;"/>
            </g>
            <g transform="matrix(8.8108,0,0,8.8108,119.29,127.358)">
                <path d="M0.304,-0.429C0.301,-0.43 0.299,-0.43 0.296,-0.431C0.293,-0.431 0.29,-0.431 0.287,-0.431C0.271,-0.431 0.256,-0.426 0.242,-0.416C0.228,-0.405 0.215,-0.392 0.204,-0.376C0.193,-0.359 0.183,-0.34 0.175,-0.319C0.167,-0.298 0.161,-0.276 0.157,-0.254L0.113,-0L0.031,-0L0.096,-0.374C0.097,-0.379 0.098,-0.388 0.1,-0.4C0.102,-0.412 0.104,-0.425 0.106,-0.438C0.108,-0.451 0.11,-0.464 0.112,-0.476C0.113,-0.488 0.114,-0.496 0.115,-0.501L0.194,-0.501C0.193,-0.496 0.192,-0.489 0.191,-0.48C0.19,-0.47 0.188,-0.46 0.187,-0.449C0.185,-0.438 0.183,-0.428 0.181,-0.418C0.179,-0.408 0.178,-0.4 0.177,-0.395L0.18,-0.395C0.195,-0.436 0.215,-0.466 0.238,-0.485C0.261,-0.504 0.286,-0.514 0.311,-0.514C0.316,-0.514 0.32,-0.514 0.322,-0.513L0.304,-0.429Z" style="fill:rgb(1,1,1);fill-rule:nonzero;"/>
            </g>
            <g transform="matrix(8.8108,0,0,8.8108,123.382,127.358)">
                <path d="M0.284,-0L0.199,-0L0.305,-0.61L0.161,-0.513L0.133,-0.579L0.327,-0.708L0.407,-0.708L0.284,-0Z" style="fill:rgb(1,1,1);fill-rule:nonzero;"/>
            </g>
            <g transform="matrix(8.8108,0,0,8.8108,127.576,127.358)">
                <path d="M0.035,0.129L-0.031,0.129L0.072,-0.126L0.152,-0.126L0.035,0.129Z" style="fill:rgb(1,1,1);fill-rule:nonzero;"/>
            </g>
            <g transform="matrix(8.8108,0,0,8.8108,129.532,127.358)">
                <path d="M0.475,-0.492C0.475,-0.464 0.473,-0.432 0.47,-0.397C0.466,-0.361 0.46,-0.324 0.451,-0.287C0.442,-0.25 0.431,-0.213 0.418,-0.177C0.404,-0.141 0.387,-0.109 0.367,-0.081C0.347,-0.053 0.324,-0.031 0.297,-0.014C0.27,0.004 0.24,0.012 0.206,0.012C0.176,0.012 0.151,0.006 0.131,-0.006C0.111,-0.018 0.095,-0.034 0.083,-0.055C0.07,-0.075 0.062,-0.098 0.057,-0.125C0.051,-0.151 0.049,-0.179 0.049,-0.208C0.049,-0.238 0.051,-0.272 0.055,-0.309C0.058,-0.345 0.064,-0.383 0.073,-0.421C0.081,-0.459 0.092,-0.496 0.106,-0.532C0.119,-0.568 0.136,-0.6 0.156,-0.628C0.176,-0.655 0.199,-0.678 0.226,-0.695C0.253,-0.712 0.283,-0.72 0.318,-0.72C0.348,-0.72 0.373,-0.714 0.394,-0.701C0.414,-0.688 0.43,-0.672 0.442,-0.651C0.454,-0.63 0.463,-0.605 0.468,-0.578C0.472,-0.55 0.475,-0.521 0.475,-0.492ZM0.387,-0.501C0.387,-0.52 0.386,-0.538 0.383,-0.556C0.38,-0.573 0.376,-0.588 0.37,-0.602C0.364,-0.615 0.356,-0.625 0.346,-0.633C0.336,-0.641 0.324,-0.645 0.309,-0.645C0.286,-0.645 0.266,-0.637 0.249,-0.62C0.232,-0.603 0.217,-0.582 0.204,-0.555C0.191,-0.528 0.18,-0.498 0.172,-0.465C0.163,-0.432 0.156,-0.399 0.151,-0.366C0.146,-0.333 0.142,-0.303 0.14,-0.274C0.137,-0.245 0.136,-0.222 0.136,-0.205C0.136,-0.186 0.137,-0.168 0.14,-0.151C0.142,-0.134 0.146,-0.118 0.152,-0.106C0.158,-0.093 0.166,-0.082 0.176,-0.075C0.186,-0.067 0.198,-0.063 0.213,-0.063C0.236,-0.063 0.256,-0.071 0.274,-0.088C0.291,-0.105 0.306,-0.126 0.319,-0.153C0.332,-0.18 0.342,-0.209 0.351,-0.242C0.36,-0.275 0.367,-0.307 0.372,-0.34C0.377,-0.373 0.381,-0.403 0.384,-0.432C0.386,-0.46 0.387,-0.483 0.387,-0.501Z" style="fill:rgb(1,1,1);fill-rule:nonzero;"/>
            </g>
            <g transform="matrix(8.8108,0,0,8.8108,133.726,127.358)">
                <path d="M0.475,-0.492C0.475,-0.464 0.473,-0.432 0.47,-0.397C0.466,-0.361 0.46,-0.324 0.451,-0.287C0.442,-0.25 0.431,-0.213 0.418,-0.177C0.404,-0.141 0.387,-0.109 0.367,-0.081C0.347,-0.053 0.324,-0.031 0.297,-0.014C0.27,0.004 0.24,0.012 0.206,0.012C0.176,0.012 0.151,0.006 0.131,-0.006C0.111,-0.018 0.095,-0.034 0.083,-0.055C0.07,-0.075 0.062,-0.098 0.057,-0.125C0.051,-0.151 0.049,-0.179 0.049,-0.208C0.049,-0.238 0.051,-0.272 0.055,-0.309C0.058,-0.345 0.064,-0.383 0.073,-0.421C0.081,-0.459 0.092,-0.496 0.106,-0.532C0.119,-0.568 0.136,-0.6 0.156,-0.628C0.176,-0.655 0.199,-0.678 0.226,-0.695C0.253,-0.712 0.283,-0.72 0.318,-0.72C0.348,-0.72 0.373,-0.714 0.394,-0.701C0.414,-0.688 0.43,-0.672 0.442,-0.651C0.454,-0.63 0.463,-0.605 0.468,-0.578C0.472,-0.55 0.475,-0.521 0.475,-0.492ZM0.387,-0.501C0.387,-0.52 0.386,-0.538 0.383,-0.556C0.38,-0.573 0.376,-0.588 0.37,-0.602C0.364,-0.615 0.356,-0.625 0.346,-0.633C0.336,-0.641 0.324,-0.645 0.309,-0.645C0.286,-0.645 0.266,-0.637 0.249,-0.62C0.232,-0.603 0.217,-0.582 0.204,-0.555C0.191,-0.528 0.18,-0.498 0.172,-0.465C0.163,-0.432 0.156,-0.399 0.151,-0.366C0.146,-0.333 0.142,-0.303 0.14,-0.274C0.137,-0.245 0.136,-0.222 0.136,-0.205C0.136,-0.186 0.137,-0.168 0.14,-0.151C0.142,-0.134 0.146,-0.118 0.152,-0.106C0.158,-0.093 0.166,-0.082 0.176,-0.075C0.186,-0.067 0.198,-0.063 0.213,-0.063C0.236,-0.063 0.256,-0.071 0.274,-0.088C0.291,-0.105 0.306,-0.126 0.319,-0.153C0.332,-0.18 0.342,-0.209 0.351,-0.242C0.36,-0.275 0.367,-0.307 0.372,-0.34C0.377,-0.373 0.381,-0.403 0.384,-0.432C0.386,-0.46 0.387,-0.483 0.387,-0.501Z" style="fill:rgb(1,1,1);fill-rule:nonzero;"/>
            </g>
            <g transform="matrix(8.8108,0,0,8.8108,137.92,127.358)">
                <path d="M0.475,-0.492C0.475,-0.464 0.473,-0.432 0.47,-0.397C0.466,-0.361 0.46,-0.324 0.451,-0.287C0.442,-0.25 0.431,-0.213 0.418,-0.177C0.404,-0.141 0.387,-0.109 0.367,-0.081C0.347,-0.053 0.324,-0.031 0.297,-0.014C0.27,0.004 0.24,0.012 0.206,0.012C0.176,0.012 0.151,0.006 0.131,-0.006C0.111,-0.018 0.095,-0.034 0.083,-0.055C0.07,-0.075 0.062,-0.098 0.057,-0.125C0.051,-0.151 0.049,-0.179 0.049,-0.208C0.049,-0.238 0.051,-0.272 0.055,-0.309C0.058,-0.345 0.064,-0.383 0.073,-0.421C0.081,-0.459 0.092,-0.496 0.106,-0.532C0.119,-0.568 0.136,-0.6 0.156,-0.628C0.176,-0.655 0.199,-0.678 0.226,-0.695C0.253,-0.712 0.283,-0.72 0.318,-0.72C0.348,-0.72 0.373,-0.714 0.394,-0.701C0.414,-0.688 0.43,-0.672 0.442,-0.651C0.454,-0.63 0.463,-0.605 0.468,-0.578C0.472,-0.55 0.475,-0.521 0.475,-0.492ZM0.387,-0.501C0.387,-0.52 0.386,-0.538 0.383,-0.556C0.38,-0.573 0.376,-0.588 0.37,-0.602C0.364,-0.615 0.356,-0.625 0.346,-0.633C0.336,-0.641 0.324,-0.645 0.309,-0.645C0.286,-0.645 0.266,-0.637 0.249,-0.62C0.232,-0.603 0.217,-0.582 0.204,-0.555C0.191,-0.528 0.18,-0.498 0.172,-0.465C0.163,-0.432 0.156,-0.399 0.151,-0.366C0.146,-0.333 0.142,-0.303 0.14,-0.274C0.137,-0.245 0.136,-0.222 0.136,-0.205C0.136,-0.186 0.137,-0.168 0.14,-0.151C0.142,-0.134 0.146,-0.118 0.152,-0.106C0.158,-0.093 0.166,-0.082 0.176,-0.075C0.186,-0.067 0.198,-0.063 0.213,-0.063C0.236,-0.063 0.256,-0.071 0.274,-0.088C0.291,-0.105 0.306,-0.126 0.319,-0.153C0.332,-0.18 0.342,-0.209 0.351,-0.242C0.36,-0.275 0.367,-0.307 0.372,-0.34C0.377,-0.373 0.381,-0.403 0.384,-0.432C0.386,-0.46 0.387,-0.483 0.387,-0.501Z" style="fill:rgb(1,1,1);fill-rule:nonzero;"/>
            </g>
            <g transform="matrix(8.8108,0,0,8.8108,143.773,127.358)">
                <path d="M0.303,-0.418C0.286,-0.441 0.259,-0.453 0.223,-0.453C0.202,-0.453 0.183,-0.446 0.166,-0.431C0.149,-0.416 0.141,-0.395 0.141,-0.369C0.141,-0.347 0.146,-0.331 0.157,-0.32C0.168,-0.309 0.184,-0.298 0.205,-0.287C0.232,-0.272 0.255,-0.254 0.273,-0.234C0.291,-0.213 0.3,-0.186 0.3,-0.152C0.3,-0.123 0.295,-0.098 0.286,-0.077C0.276,-0.056 0.263,-0.038 0.247,-0.024C0.231,-0.01 0.213,0 0.192,0.007C0.171,0.014 0.148,0.017 0.125,0.017C0.096,0.017 0.069,0.011 0.045,-0.001C0.02,-0.013 0.001,-0.028 -0.012,-0.046L0.042,-0.099C0.051,-0.087 0.063,-0.076 0.078,-0.066C0.092,-0.056 0.11,-0.051 0.133,-0.051C0.157,-0.051 0.178,-0.059 0.195,-0.074C0.212,-0.089 0.22,-0.111 0.22,-0.139C0.22,-0.162 0.213,-0.181 0.198,-0.196C0.183,-0.211 0.166,-0.223 0.146,-0.233C0.123,-0.245 0.103,-0.261 0.087,-0.281C0.071,-0.301 0.063,-0.327 0.063,-0.359C0.063,-0.384 0.068,-0.406 0.077,-0.426C0.086,-0.445 0.098,-0.462 0.113,-0.476C0.128,-0.489 0.146,-0.5 0.167,-0.507C0.188,-0.514 0.21,-0.518 0.233,-0.518C0.261,-0.518 0.285,-0.514 0.304,-0.506C0.323,-0.497 0.338,-0.487 0.349,-0.474L0.303,-0.418Z" style="fill:rgb(1,1,1);fill-rule:nonzero;"/>
            </g>
            <g transform="matrix(8.8108,0,0,8.8108,146.831,127.358)">
                <path d="M0.273,-0.435L0.189,-0.435L0.139,-0.141C0.138,-0.134 0.137,-0.128 0.136,-0.121C0.135,-0.114 0.135,-0.108 0.135,-0.103C0.135,-0.086 0.138,-0.075 0.145,-0.069C0.152,-0.063 0.162,-0.06 0.175,-0.06C0.181,-0.06 0.188,-0.061 0.195,-0.063C0.202,-0.064 0.208,-0.066 0.213,-0.068L0.205,-0.003C0.196,0 0.187,0.003 0.177,0.005C0.167,0.007 0.157,0.008 0.148,0.008C0.115,0.008 0.091,-0 0.076,-0.017C0.061,-0.034 0.053,-0.056 0.053,-0.084C0.053,-0.096 0.054,-0.11 0.057,-0.125L0.111,-0.435L0.042,-0.435L0.053,-0.501L0.12,-0.501L0.143,-0.635L0.222,-0.635L0.2,-0.501L0.285,-0.501L0.273,-0.435Z" style="fill:rgb(1,1,1);fill-rule:nonzero;"/>
            </g>
            <g transform="matrix(8.8108,0,0,8.8108,149.104,127.358)">
                <path d="M0.367,-0.501L0.448,-0.501L0.383,-0.127C0.382,-0.122 0.381,-0.113 0.379,-0.101C0.377,-0.089 0.375,-0.076 0.373,-0.063C0.371,-0.05 0.369,-0.037 0.368,-0.025C0.366,-0.013 0.365,-0.005 0.364,-0L0.284,-0C0.285,-0.009 0.287,-0.023 0.29,-0.04C0.292,-0.057 0.294,-0.073 0.297,-0.089L0.295,-0.089C0.282,-0.059 0.263,-0.034 0.239,-0.014C0.215,0.007 0.187,0.017 0.156,0.017C0.137,0.017 0.12,0.014 0.107,0.007C0.094,-0 0.083,-0.01 0.075,-0.021C0.066,-0.032 0.06,-0.045 0.057,-0.06C0.053,-0.075 0.051,-0.09 0.051,-0.105C0.051,-0.114 0.052,-0.126 0.053,-0.14C0.054,-0.154 0.056,-0.168 0.059,-0.181L0.114,-0.501L0.196,-0.501L0.141,-0.181C0.14,-0.172 0.138,-0.162 0.137,-0.153C0.136,-0.144 0.135,-0.134 0.135,-0.125C0.135,-0.106 0.139,-0.089 0.147,-0.076C0.154,-0.063 0.169,-0.056 0.191,-0.056C0.206,-0.056 0.22,-0.06 0.234,-0.068C0.247,-0.076 0.26,-0.087 0.271,-0.101C0.282,-0.115 0.291,-0.131 0.299,-0.151C0.307,-0.169 0.313,-0.19 0.317,-0.213L0.367,-0.501Z" style="fill:rgb(1,1,1);fill-rule:nonzero;"/>
            </g>
            <g transform="matrix(8.8108,0,0,8.8108,153.307,127.358)">
                <path d="M0.361,-0L0.282,-0L0.296,-0.081L0.295,-0.081C0.282,-0.053 0.265,-0.03 0.244,-0.011C0.223,0.008 0.195,0.017 0.16,0.017C0.119,0.017 0.089,0.001 0.069,-0.032C0.049,-0.065 0.039,-0.108 0.039,-0.161C0.039,-0.202 0.044,-0.243 0.054,-0.286C0.064,-0.328 0.078,-0.366 0.097,-0.401C0.115,-0.435 0.137,-0.463 0.164,-0.485C0.19,-0.507 0.22,-0.518 0.253,-0.518C0.283,-0.518 0.306,-0.509 0.323,-0.493C0.34,-0.476 0.35,-0.453 0.353,-0.426L0.355,-0.426L0.412,-0.756L0.493,-0.756L0.361,-0ZM0.333,-0.327C0.333,-0.363 0.327,-0.392 0.316,-0.414C0.305,-0.436 0.287,-0.447 0.262,-0.447C0.239,-0.447 0.219,-0.438 0.202,-0.419C0.185,-0.4 0.17,-0.377 0.159,-0.349C0.147,-0.321 0.138,-0.291 0.132,-0.258C0.126,-0.225 0.123,-0.195 0.123,-0.168C0.123,-0.134 0.129,-0.107 0.14,-0.086C0.151,-0.065 0.168,-0.055 0.193,-0.055C0.215,-0.055 0.235,-0.064 0.252,-0.082C0.269,-0.1 0.284,-0.123 0.296,-0.15C0.308,-0.177 0.317,-0.207 0.324,-0.239C0.33,-0.27 0.333,-0.3 0.333,-0.327Z" style="fill:rgb(1,1,1);fill-rule:nonzero;"/>
            </g>
            <g transform="matrix(8.8108,0,0,8.8108,157.465,127.358)">
                <path d="M0.401,-0.355C0.401,-0.348 0.401,-0.341 0.401,-0.334C0.4,-0.327 0.4,-0.318 0.399,-0.309C0.398,-0.299 0.397,-0.288 0.395,-0.275C0.393,-0.262 0.391,-0.247 0.388,-0.229L0.127,-0.229C0.126,-0.219 0.125,-0.209 0.124,-0.2C0.123,-0.19 0.122,-0.18 0.122,-0.171C0.122,-0.138 0.128,-0.111 0.14,-0.09C0.152,-0.069 0.171,-0.059 0.198,-0.059C0.221,-0.059 0.24,-0.066 0.256,-0.08C0.271,-0.094 0.285,-0.111 0.296,-0.13L0.354,-0.093C0.335,-0.061 0.313,-0.035 0.287,-0.014C0.26,0.007 0.228,0.017 0.189,0.017C0.142,0.017 0.106,0.001 0.079,-0.031C0.052,-0.062 0.039,-0.107 0.039,-0.166C0.039,-0.209 0.044,-0.251 0.055,-0.294C0.066,-0.336 0.081,-0.374 0.101,-0.407C0.12,-0.44 0.144,-0.466 0.172,-0.487C0.2,-0.508 0.231,-0.518 0.265,-0.518C0.289,-0.518 0.31,-0.514 0.327,-0.506C0.344,-0.498 0.359,-0.487 0.37,-0.473C0.381,-0.458 0.389,-0.441 0.394,-0.421C0.399,-0.401 0.401,-0.379 0.401,-0.355ZM0.324,-0.353C0.324,-0.381 0.319,-0.403 0.309,-0.42C0.298,-0.437 0.282,-0.445 0.259,-0.445C0.242,-0.445 0.226,-0.44 0.213,-0.43C0.2,-0.419 0.188,-0.407 0.178,-0.392C0.168,-0.377 0.16,-0.36 0.154,-0.343C0.147,-0.326 0.143,-0.31 0.14,-0.296L0.318,-0.296C0.322,-0.318 0.324,-0.337 0.324,-0.353Z" style="fill:rgb(1,1,1);fill-rule:nonzero;"/>
            </g>
            <g transform="matrix(8.8108,0,0,8.8108,161.263,127.358)">
                <path d="M0.112,-0L0.031,-0L0.096,-0.374C0.097,-0.379 0.098,-0.388 0.1,-0.4C0.101,-0.412 0.103,-0.425 0.105,-0.438L0.115,-0.501L0.195,-0.501C0.194,-0.492 0.192,-0.478 0.19,-0.462C0.187,-0.444 0.185,-0.428 0.182,-0.412L0.184,-0.412C0.197,-0.442 0.216,-0.467 0.24,-0.488C0.264,-0.508 0.292,-0.518 0.323,-0.518C0.342,-0.518 0.359,-0.515 0.372,-0.508C0.385,-0.501 0.396,-0.491 0.405,-0.48C0.413,-0.469 0.419,-0.456 0.423,-0.441C0.426,-0.426 0.428,-0.411 0.428,-0.396C0.428,-0.387 0.427,-0.375 0.426,-0.361C0.425,-0.347 0.423,-0.333 0.42,-0.32L0.365,-0L0.283,-0L0.338,-0.32C0.339,-0.329 0.341,-0.339 0.342,-0.348C0.343,-0.357 0.344,-0.367 0.344,-0.376C0.344,-0.395 0.34,-0.412 0.333,-0.425C0.325,-0.438 0.31,-0.445 0.288,-0.445C0.273,-0.445 0.259,-0.441 0.246,-0.433C0.232,-0.425 0.22,-0.414 0.209,-0.4C0.198,-0.386 0.188,-0.37 0.18,-0.351C0.172,-0.332 0.166,-0.311 0.162,-0.288L0.112,-0Z" style="fill:rgb(1,1,1);fill-rule:nonzero;"/>
            </g>
            <g transform="matrix(8.8108,0,0,8.8108,165.466,127.358)">
                <path d="M0.273,-0.435L0.189,-0.435L0.139,-0.141C0.138,-0.134 0.137,-0.128 0.136,-0.121C0.135,-0.114 0.135,-0.108 0.135,-0.103C0.135,-0.086 0.138,-0.075 0.145,-0.069C0.152,-0.063 0.162,-0.06 0.175,-0.06C0.181,-0.06 0.188,-0.061 0.195,-0.063C0.202,-0.064 0.208,-0.066 0.213,-0.068L0.205,-0.003C0.196,0 0.187,0.003 0.177,0.005C0.167,0.007 0.157,0.008 0.148,0.008C0.115,0.008 0.091,-0 0.076,-0.017C0.061,-0.034 0.053,-0.056 0.053,-0.084C0.053,-0.096 0.054,-0.11 0.057,-0.125L0.111,-0.435L0.042,-0.435L0.053,-0.501L0.12,-0.501L0.143,-0.635L0.222,-0.635L0.2,-0.501L0.285,-0.501L0.273,-0.435Z" style="fill:rgb(1,1,1);fill-rule:nonzero;"/>
            </g>
            <g transform="matrix(8.8108,0,0,8.8108,167.739,127.358)">
                <path d="M0.303,-0.418C0.286,-0.441 0.259,-0.453 0.223,-0.453C0.202,-0.453 0.183,-0.446 0.166,-0.431C0.149,-0.416 0.141,-0.395 0.141,-0.369C0.141,-0.347 0.146,-0.331 0.157,-0.32C0.168,-0.309 0.184,-0.298 0.205,-0.287C0.232,-0.272 0.255,-0.254 0.273,-0.234C0.291,-0.213 0.3,-0.186 0.3,-0.152C0.3,-0.123 0.295,-0.098 0.286,-0.077C0.276,-0.056 0.263,-0.038 0.247,-0.024C0.231,-0.01 0.213,0 0.192,0.007C0.171,0.014 0.148,0.017 0.125,0.017C0.096,0.017 0.069,0.011 0.045,-0.001C0.02,-0.013 0.001,-0.028 -0.012,-0.046L0.042,-0.099C0.051,-0.087 0.063,-0.076 0.078,-0.066C0.092,-0.056 0.11,-0.051 0.133,-0.051C0.157,-0.051 0.178,-0.059 0.195,-0.074C0.212,-0.089 0.22,-0.111 0.22,-0.139C0.22,-0.162 0.213,-0.181 0.198,-0.196C0.183,-0.211 0.166,-0.223 0.146,-0.233C0.123,-0.245 0.103,-0.261 0.087,-0.281C0.071,-0.301 0.063,-0.327 0.063,-0.359C0.063,-0.384 0.068,-0.406 0.077,-0.426C0.086,-0.445 0.098,-0.462 0.113,-0.476C0.128,-0.489 0.146,-0.5 0.167,-0.507C0.188,-0.514 0.21,-0.518 0.233,-0.518C0.261,-0.518 0.285,-0.514 0.304,-0.506C0.323,-0.497 0.338,-0.487 0.349,-0.474L0.303,-0.418Z" style="fill:rgb(1,1,1);fill-rule:nonzero;"/>
            </g>
        </g>
        <g transform="matrix(0,-4.16667,-4.16667,0,432.092,-39.6844)">
            <path d="M-70.729,70.729L70.729,70.729" style="fill:none;fill-rule:nonzero;stroke:rgb(147,149,152);stroke-width:0.49px;"/>
        </g>
        <g transform="matrix(0,-4.16667,-4.16667,0,461.45,-39.6844)">
            <path d="M-70.729,70.729L70.729,70.729" style="fill:none;fill-rule:nonzero;stroke:rgb(147,149,152);stroke-width:0.49px;"/>
        </g>
        <g transform="matrix(0,-4.16667,-4.16667,0,490.808,-39.6844)">
            <path d="M-70.729,70.729L70.729,70.729" style="fill:none;fill-rule:nonzero;stroke:rgb(147,149,152);stroke-width:0.49px;"/>
        </g>
        <g transform="matrix(0,-4.16667,-4.16667,0,520.165,-39.6844)">
            <path d="M-70.729,70.729L70.729,70.729" style="fill:none;fill-rule:nonzero;stroke:rgb(147,149,152);stroke-width:0.49px;"/>
        </g>
        <g transform="matrix(0,-4.16667,-4.16667,0,549.523,-39.6844)">
            <path d="M-70.729,70.729L70.729,70.729" style="fill:none;fill-rule:nonzero;stroke:rgb(147,149,152);stroke-width:0.49px;"/>
        </g>
        <g transform="matrix(0,-4.16667,-4.16667,0,578.881,-39.6844)">
            <path d="M-70.729,70.729L70.729,70.729" style="fill:none;fill-rule:nonzero;stroke:rgb(147,149,152);stroke-width:0.49px;"/>
        </g>
        <g transform="matrix(0,-4.16667,-4.16667,0,608.257,-39.6844)">
            <path d="M-70.729,70.729L70.729,70.729" style="fill:none;fill-rule:nonzero;stroke:rgb(147,149,152);stroke-width:0.49px;"/>
        </g>
        <g transform="matrix(0,-4.16667,-4.16667,0,637.615,-39.6844)">
            <path d="M-70.729,70.729L70.729,70.729" style="fill:none;fill-rule:nonzero;stroke:rgb(147,149,152);stroke-width:0.49px;"/>
        </g>
        <g transform="matrix(0,-4.16667,-4.16667,0,666.973,-39.6844)">
            <path d="M-70.729,70.729L70.729,70.729" style="fill:none;fill-rule:nonzero;stroke:rgb(147,149,152);stroke-width:0.49px;"/>
        </g>
        <g transform="matrix(0,-4.16667,-4.16667,0,696.33,-39.6844)">
            <path d="M-70.729,70.729L70.729,70.729" style="fill:none;fill-rule:nonzero;stroke:rgb(147,149,152);stroke-width:0.49px;"/>
        </g>
        <g transform="matrix(0,-4.16667,-4.16667,0,725.689,-39.6844)">
            <path d="M-70.729,70.729L70.729,70.729" style="fill:none;fill-rule:nonzero;stroke:rgb(147,149,152);stroke-width:0.49px;"/>
        </g>
        <g transform="matrix(0,-4.16667,-4.16667,0,755.046,-39.6844)">
            <path d="M-70.729,70.729L70.729,70.729" style="fill:none;fill-rule:nonzero;stroke:rgb(147,149,152);stroke-width:0.49px;"/>
        </g>
        <g transform="matrix(0,-4.16667,-4.16667,0,784.423,-39.6844)">
            <path d="M-70.729,70.729L70.729,70.729" style="fill:none;fill-rule:nonzero;stroke:rgb(147,149,152);stroke-width:0.49px;"/>
        </g>
        <g transform="matrix(0,-4.16667,-4.16667,0,813.781,-39.6844)">
            <path d="M-70.729,70.729L70.729,70.729" style="fill:none;fill-rule:nonzero;stroke:rgb(147,149,152);stroke-width:0.49px;"/>
        </g>
        <g transform="matrix(0,-4.16667,-4.16667,0,843.139,-39.6844)">
            <path d="M-70.729,70.729L70.729,70.729" style="fill:none;fill-rule:nonzero;stroke:rgb(147,149,152);stroke-width:0.49px;"/>
        </g>
        <g transform="matrix(0,-4.16667,-4.16667,0,872.496,-39.6844)">
            <path d="M-70.729,70.729L70.729,70.729" style="fill:none;fill-rule:nonzero;stroke:rgb(147,149,152);stroke-width:0.49px;"/>
        </g>
        <g transform="matrix(0,-4.16667,-4.16667,0,901.854,-39.6844)">
            <path d="M-70.729,70.729L70.729,70.729" style="fill:none;fill-rule:nonzero;stroke:rgb(147,149,152);stroke-width:0.49px;"/>
        </g>
        <g transform="matrix(0,-4.16667,-4.16667,0,931.212,-39.6844)">
            <path d="M-70.729,70.729L70.729,70.729" style="fill:none;fill-rule:nonzero;stroke:rgb(147,149,152);stroke-width:0.49px;"/>
        </g>
        <g transform="matrix(0,-4.16667,-4.16667,0,960.588,-39.6844)">
            <path d="M-70.729,70.729L70.729,70.729" style="fill:none;fill-rule:nonzero;stroke:rgb(147,149,152);stroke-width:0.49px;"/>
        </g>
        <g transform="matrix(0,-4.16667,-4.16667,0,989.946,-39.6844)">
            <path d="M-70.729,70.729L70.729,70.729" style="fill:none;fill-rule:nonzero;stroke:rgb(147,149,152);stroke-width:0.49px;"/>
        </g>
        <g transform="matrix(0,-4.16667,-4.16667,0,1019.3,-39.6844)">
            <path d="M-70.729,70.729L70.729,70.729" style="fill:none;fill-rule:nonzero;stroke:rgb(147,149,152);stroke-width:0.49px;"/>
        </g>
        <g transform="matrix(0,-4.16667,-4.16667,0,1048.66,-39.6844)">
            <path d="M-70.729,70.729L70.729,70.729" style="fill:none;fill-rule:nonzero;stroke:rgb(147,149,152);stroke-width:0.49px;"/>
        </g>
        <g transform="matrix(0,-4.16667,-4.16667,0,1078.02,-39.6844)">
            <path d="M-70.729,70.729L70.729,70.729" style="fill:none;fill-rule:nonzero;stroke:rgb(147,149,152);stroke-width:0.49px;"/>
        </g>
        <g transform="matrix(0,-4.16667,-4.16667,0,1107.38,-39.6844)">
            <path d="M-70.729,70.729L70.729,70.729" style="fill:none;fill-rule:nonzero;stroke:rgb(147,149,152);stroke-width:0.49px;"/>
        </g>
        <g transform="matrix(0,-4.16667,-4.16667,0,1136.75,-39.6844)">
            <path d="M-70.729,70.729L70.729,70.729" style="fill:none;fill-rule:nonzero;stroke:rgb(147,149,152);stroke-width:0.49px;"/>
        </g>
        <g transform="matrix(0,-4.16667,-4.16667,0,1166.11,-39.6844)">
            <path d="M-70.729,70.729L70.729,70.729" style="fill:none;fill-rule:nonzero;stroke:rgb(147,149,152);stroke-width:0.49px;"/>
        </g>
        <g transform="matrix(0,-4.16667,-4.16667,0,1195.47,-39.6844)">
            <path d="M-70.729,70.729L70.729,70.729" style="fill:none;fill-rule:nonzero;stroke:rgb(147,149,152);stroke-width:0.49px;"/>
        </g>
        <g transform="matrix(0,-4.16667,-4.16667,0,1224.83,-39.6844)">
            <path d="M-70.729,70.729L70.729,70.729" style="fill:none;fill-rule:nonzero;stroke:rgb(147,149,152);stroke-width:0.49px;"/>
        </g>
        <g transform="matrix(0,-4.16667,-4.16667,0,1254.19,-39.6844)">
            <path d="M-70.729,70.729L70.729,70.729" style="fill:none;fill-rule:nonzero;stroke:rgb(147,149,152);stroke-width:0.49px;"/>
        </g>
        <g transform="matrix(0,-4.16667,-4.16667,0,1283.54,-39.6844)">
            <path d="M-70.729,70.729L70.729,70.729" style="fill:none;fill-rule:nonzero;stroke:rgb(147,149,152);stroke-width:0.49px;"/>
        </g>
        <g transform="matrix(0,-4.16667,-4.16667,0,1312.92,-39.6844)">
            <path d="M-70.729,70.729L70.729,70.729" style="fill:none;fill-rule:nonzero;stroke:rgb(147,149,152);stroke-width:0.49px;"/>
        </g>
        <g transform="matrix(0,-4.16667,-4.16667,0,1342.28,-39.6844)">
            <path d="M-70.729,70.729L70.729,70.729" style="fill:none;fill-rule:nonzero;stroke:rgb(147,149,152);stroke-width:0.49px;"/>
        </g>
        <g transform="matrix(0,-4.16667,-4.16667,0,1371.63,-39.6844)">
            <path d="M-70.729,70.729L70.729,70.729" style="fill:none;fill-rule:nonzero;stroke:rgb(147,149,152);stroke-width:0.49px;"/>
        </g>
        <g transform="matrix(0,-4.16667,-4.16667,0,1400.99,-39.6844)">
            <path d="M-70.729,70.729L70.729,70.729" style="fill:none;fill-rule:nonzero;stroke:rgb(147,149,152);stroke-width:0.49px;"/>
        </g>
        <g transform="matrix(0,-4.16667,-4.16667,0,1430.35,-39.6844)">
            <path d="M-70.729,70.729L70.729,70.729" style="fill:none;fill-rule:nonzero;stroke:rgb(147,149,152);stroke-width:0.49px;"/>
        </g>
        <g transform="matrix(0,-4.16667,-4.16667,0,1459.71,-39.6844)">
            <path d="M-70.729,70.729L70.729,70.729" style="fill:none;fill-rule:nonzero;stroke:rgb(147,149,152);stroke-width:0.49px;"/>
        </g>
        <g transform="matrix(0,-4.16667,-4.16667,0,1489.09,-39.6844)">
            <path d="M-70.729,70.729L70.729,70.729" style="fill:none;fill-rule:nonzero;stroke:rgb(147,149,152);stroke-width:0.49px;"/>
        </g>
        <g transform="matrix(0,-4.16667,-4.16667,0,1518.44,-39.6844)">
            <path d="M-70.729,70.729L70.729,70.729" style="fill:none;fill-rule:nonzero;stroke:rgb(147,149,152);stroke-width:0.49px;"/>
        </g>
        <g transform="matrix(0,-4.16667,-4.16667,0,1547.8,-39.6844)">
            <path d="M-70.729,70.729L70.729,70.729" style="fill:none;fill-rule:nonzero;stroke:rgb(147,149,152);stroke-width:0.49px;"/>
        </g>
        <g transform="matrix(0,-4.16667,-4.16667,0,1577.16,-39.6844)">
            <path d="M-70.729,70.729L70.729,70.729" style="fill:none;fill-rule:nonzero;stroke:rgb(147,149,152);stroke-width:0.49px;"/>
        </g>
        <g transform="matrix(0,-4.16667,-4.16667,0,1606.52,-39.6844)">
            <path d="M-70.729,70.729L70.729,70.729" style="fill:none;fill-rule:nonzero;stroke:rgb(147,149,152);stroke-width:0.49px;"/>
        </g>
        <g transform="matrix(0,-4.16667,-4.16667,0,1635.87,-39.6844)">
            <path d="M-70.729,70.729L70.729,70.729" style="fill:none;fill-rule:nonzero;stroke:rgb(147,149,152);stroke-width:0.49px;"/>
        </g>
        <g transform="matrix(0,-4.16667,-4.16667,0,1665.25,-39.6844)">
            <path d="M-70.729,70.729L70.729,70.729" style="fill:none;fill-rule:nonzero;stroke:rgb(147,149,152);stroke-width:0.49px;"/>
        </g>
        <g transform="matrix(0,-4.16667,-4.16667,0,1694.61,-39.6844)">
            <path d="M-70.729,70.729L70.729,70.729" style="fill:none;fill-rule:nonzero;stroke:rgb(147,149,152);stroke-width:0.49px;"/>
        </g>
        <g transform="matrix(0,-4.16667,-4.16667,0,1723.97,-39.6844)">
            <path d="M-70.729,70.729L70.729,70.729" style="fill:none;fill-rule:nonzero;stroke:rgb(147,149,152);stroke-width:0.49px;"/>
        </g>
        <g transform="matrix(0,-4.16667,-4.16667,0,1753.32,-39.6844)">
            <path d="M-70.729,70.729L70.729,70.729" style="fill:none;fill-rule:nonzero;stroke:rgb(147,149,152);stroke-width:0.49px;"/>
        </g>
        <g transform="matrix(0,-4.16667,-4.16667,0,1782.68,-39.6844)">
            <path d="M-70.729,70.729L70.729,70.729" style="fill:none;fill-rule:nonzero;stroke:rgb(147,149,152);stroke-width:0.49px;"/>
        </g>
        <g transform="matrix(0,-4.16667,-4.16667,0,1812.04,-39.6844)">
            <path d="M-70.729,70.729L70.729,70.729" style="fill:none;fill-rule:nonzero;stroke:rgb(147,149,152);stroke-width:0.49px;"/>
        </g>
        <g transform="matrix(4.16667,0,0,4.16667,108.032,107.667)">
            <path d="M0,0L341.761,0" style="fill:none;fill-rule:nonzero;stroke:rgb(147,149,152);stroke-width:0.49px;"/>
        </g>
        <g transform="matrix(4.16667,0,0,4.16667,108.032,-39.6831)">
            <path d="M0,0L341.761,0" style="fill:none;fill-rule:nonzero;stroke:rgb(147,149,152);stroke-width:0.49px;"/>
        </g>
        <g transform="matrix(4.16667,0,0,4.16667,108.032,-187.034)">
            <path d="M0,0L341.761,0" style="fill:none;fill-rule:nonzero;stroke:rgb(147,149,152);stroke-width:0.49px;"/>
        </g>
        <g transform="matrix(0,-4.16667,-4.16667,0,116.22,263.202)">
            <path d="M-1.965,1.965L1.965,1.965" style="fill:none;fill-rule:nonzero;stroke:rgb(147,149,152);stroke-width:0.49px;"/>
        </g>
        <g transform="matrix(0,-4.16667,-4.16667,0,145.578,263.202)">
            <path d="M-1.965,1.965L1.965,1.965" style="fill:none;fill-rule:nonzero;stroke:rgb(147,149,152);stroke-width:0.49px;"/>
        </g>
        <g transform="matrix(0,-4.16667,-4.16667,0,174.935,263.202)">
            <path d="M-1.965,1.965L1.965,1.965" style="fill:none;fill-rule:nonzero;stroke:rgb(147,149,152);stroke-width:0.49px;"/>
        </g>
        <g transform="matrix(0,-4.16667,-4.16667,0,204.293,263.202)">
            <path d="M-1.965,1.965L1.965,1.965" style="fill:none;fill-rule:nonzero;stroke:rgb(147,149,152);stroke-width:0.49px;"/>
        </g>
        <g transform="matrix(0,-4.16667,-4.16667,0,233.65,263.202)">
            <path d="M-1.965,1.965L1.965,1.965" style="fill:none;fill-rule:nonzero;stroke:rgb(147,149,152);stroke-width:0.49px;"/>
        </g>
        <g transform="matrix(0,-4.16667,-4.16667,0,263.008,263.202)">
            <path d="M-1.965,1.965L1.965,1.965" style="fill:none;fill-rule:nonzero;stroke:rgb(147,149,152);stroke-width:0.49px;"/>
        </g>
        <g transform="matrix(0,-4.16667,-4.16667,0,292.366,263.202)">
            <path d="M-1.965,1.965L1.965,1.965" style="fill:none;fill-rule:nonzero;stroke:rgb(147,149,152);stroke-width:0.49px;"/>
        </g>
        <g transform="matrix(0,-4.16667,-4.16667,0,321.743,263.202)">
            <path d="M-1.965,1.965L1.965,1.965" style="fill:none;fill-rule:nonzero;stroke:rgb(147,149,152);stroke-width:0.49px;"/>
        </g>
        <g transform="matrix(0,-4.16667,-4.16667,0,351.101,263.202)">
            <path d="M-1.965,1.965L1.965,1.965" style="fill:none;fill-rule:nonzero;stroke:rgb(147,149,152);stroke-width:0.49px;"/>
        </g>
        <g transform="matrix(0,-4.16667,-4.16667,0,380.458,263.202)">
            <path d="M-1.965,1.965L1.965,1.965" style="fill:none;fill-rule:nonzero;stroke:rgb(147,149,152);stroke-width:0.49px;"/>
        </g>
        <g transform="matrix(0,-4.16667,-4.16667,0,409.816,263.202)">
            <path d="M-1.965,1.965L1.965,1.965" style="fill:none;fill-rule:nonzero;stroke:rgb(147,149,152);stroke-width:0.49px;"/>
        </g>
        <g transform="matrix(0,-4.16667,-4.16667,0,439.174,263.202)">
            <path d="M-1.965,1.965L1.965,1.965" style="fill:none;fill-rule:nonzero;stroke:rgb(147,149,152);stroke-width:0.49px;"/>
        </g>
        <g transform="matrix(0,-4.16667,-4.16667,0,468.531,263.202)">
            <path d="M-1.965,1.965L1.965,1.965" style="fill:none;fill-rule:nonzero;stroke:rgb(147,149,152);stroke-width:0.49px;"/>
        </g>
        <g transform="matrix(0,-4.16667,-4.16667,0,497.909,263.202)">
            <path d="M-1.965,1.965L1.965,1.965" style="fill:none;fill-rule:nonzero;stroke:rgb(147,149,152);stroke-width:0.49px;"/>
        </g>
        <g transform="matrix(0,-4.16667,-4.16667,0,527.266,263.202)">
            <path d="M-1.965,1.965L1.965,1.965" style="fill:none;fill-rule:nonzero;stroke:rgb(147,149,152);stroke-width:0.49px;"/>
        </g>
        <g transform="matrix(0,-4.16667,-4.16667,0,556.624,263.202)">
            <path d="M-1.965,1.965L1.965,1.965" style="fill:none;fill-rule:nonzero;stroke:rgb(147,149,152);stroke-width:0.49px;"/>
        </g>
        <g transform="matrix(0,-4.16667,-4.16667,0,585.982,263.202)">
            <path d="M-1.965,1.965L1.965,1.965" style="fill:none;fill-rule:nonzero;stroke:rgb(147,149,152);stroke-width:0.49px;"/>
        </g>
        <g transform="matrix(0,-4.16667,-4.16667,0,615.339,263.202)">
            <path d="M-1.965,1.965L1.965,1.965" style="fill:none;fill-rule:nonzero;stroke:rgb(147,149,152);stroke-width:0.49px;"/>
        </g>
        <g transform="matrix(0,-4.16667,-4.16667,0,644.697,263.202)">
            <path d="M-1.965,1.965L1.965,1.965" style="fill:none;fill-rule:nonzero;stroke:rgb(147,149,152);stroke-width:0.49px;"/>
        </g>
        <g transform="matrix(0,-4.16667,-4.16667,0,674.074,263.202)">
            <path d="M-1.965,1.965L1.965,1.965" style="fill:none;fill-rule:nonzero;stroke:rgb(147,149,152);stroke-width:0.49px;"/>
        </g>
        <g transform="matrix(0,-4.16667,-4.16667,0,703.432,263.202)">
            <path d="M-1.965,1.965L1.965,1.965" style="fill:none;fill-rule:nonzero;stroke:rgb(147,149,152);stroke-width:0.49px;"/>
        </g>
        <g transform="matrix(0,-4.16667,-4.16667,0,732.789,263.202)">
            <path d="M-1.965,1.965L1.965,1.965" style="fill:none;fill-rule:nonzero;stroke:rgb(147,149,152);stroke-width:0.49px;"/>
        </g>
        <g transform="matrix(0,-4.16667,-4.16667,0,762.147,263.202)">
            <path d="M-1.965,1.965L1.965,1.965" style="fill:none;fill-rule:nonzero;stroke:rgb(147,149,152);stroke-width:0.49px;"/>
        </g>
        <g transform="matrix(0,-4.16667,-4.16667,0,791.505,263.202)">
            <path d="M-1.965,1.965L1.965,1.965" style="fill:none;fill-rule:nonzero;stroke:rgb(147,149,152);stroke-width:0.49px;"/>
        </g>
        <g transform="matrix(0,-4.16667,-4.16667,0,820.862,263.202)">
            <path d="M-1.965,1.965L1.965,1.965" style="fill:none;fill-rule:nonzero;stroke:rgb(147,149,152);stroke-width:0.49px;"/>
        </g>
        <g transform="matrix(0,-4.16667,-4.16667,0,850.24,263.202)">
            <path d="M-1.965,1.965L1.965,1.965" style="fill:none;fill-rule:nonzero;stroke:rgb(147,149,152);stroke-width:0.49px;"/>
        </g>
        <g transform="matrix(0,-4.16667,-4.16667,0,879.597,263.202)">
            <path d="M-1.965,1.965L1.965,1.965" style="fill:none;fill-rule:nonzero;stroke:rgb(147,149,152);stroke-width:0.49px;"/>
        </g>
        <g transform="matrix(0,-4.16667,-4.16667,0,908.955,263.202)">
            <path d="M-1.965,1.965L1.965,1.965" style="fill:none;fill-rule:nonzero;stroke:rgb(147,149,152);stroke-width:0.49px;"/>
        </g>
        <g transform="matrix(0,-4.16667,-4.16667,0,938.312,263.202)">
            <path d="M-1.965,1.965L1.965,1.965" style="fill:none;fill-rule:nonzero;stroke:rgb(147,149,152);stroke-width:0.49px;"/>
        </g>
        <g transform="matrix(0,-4.16667,-4.16667,0,967.67,263.202)">
            <path d="M-1.965,1.965L1.965,1.965" style="fill:none;fill-rule:nonzero;stroke:rgb(147,149,152);stroke-width:0.49px;"/>
        </g>
        <g transform="matrix(0,-4.16667,-4.16667,0,997.028,263.202)">
            <path d="M-1.965,1.965L1.965,1.965" style="fill:none;fill-rule:nonzero;stroke:rgb(147,149,152);stroke-width:0.49px;"/>
        </g>
        <g transform="matrix(0,-4.16667,-4.16667,0,1026.4,263.202)">
            <path d="M-1.965,1.965L1.965,1.965" style="fill:none;fill-rule:nonzero;stroke:rgb(147,149,152);stroke-width:0.49px;"/>
        </g>
        <g transform="matrix(0,-4.16667,-4.16667,0,1055.76,263.202)">
            <path d="M-1.965,1.965L1.965,1.965" style="fill:none;fill-rule:nonzero;stroke:rgb(147,149,152);stroke-width:0.49px;"/>
        </g>
        <g transform="matrix(0,-4.16667,-4.16667,0,1085.12,263.202)">
            <path d="M-1.965,1.965L1.965,1.965" style="fill:none;fill-rule:nonzero;stroke:rgb(147,149,152);stroke-width:0.49px;"/>
        </g>
        <g transform="matrix(0,-4.16667,-4.16667,0,1114.48,263.202)">
            <path d="M-1.965,1.965L1.965,1.965" style="fill:none;fill-rule:nonzero;stroke:rgb(147,149,152);stroke-width:0.49px;"/>
        </g>
        <g transform="matrix(0,-4.16667,-4.16667,0,1143.84,263.202)">
            <path d="M-1.965,1.965L1.965,1.965" style="fill:none;fill-rule:nonzero;stroke:rgb(147,149,152);stroke-width:0.49px;"/>
        </g>
        <g transform="matrix(0,-4.16667,-4.16667,0,1173.19,263.202)">
            <path d="M-1.965,1.965L1.965,1.965" style="fill:none;fill-rule:nonzero;stroke:rgb(147,149,152);stroke-width:0.49px;"/>
        </g>
        <g transform="matrix(0,-4.16667,-4.16667,0,1202.57,263.202)">
            <path d="M-1.965,1.965L1.965,1.965" style="fill:none;fill-rule:nonzero;stroke:rgb(147,149,152);stroke-width:0.49px;"/>
        </g>
        <g transform="matrix(0,-4.16667,-4.16667,0,1231.93,263.202)">
            <path d="M-1.965,1.965L1.965,1.965" style="fill:none;fill-rule:nonzero;stroke:rgb(147,149,152);stroke-width:0.49px;"/>
        </g>
        <g transform="matrix(0,-4.16667,-4.16667,0,1261.29,263.202)">
            <path d="M-1.965,1.965L1.965,1.965" style="fill:none;fill-rule:nonzero;stroke:rgb(147,149,152);stroke-width:0.49px;"/>
        </g>
        <g transform="matrix(0,-4.16667,-4.16667,0,1290.64,263.202)">
            <path d="M-1.965,1.965L1.965,1.965" style="fill:none;fill-rule:nonzero;stroke:rgb(147,149,152);stroke-width:0.49px;"/>
        </g>
        <g transform="matrix(0,-4.16667,-4.16667,0,1320,264)">
            <path d="M-1.965,1.965L1.965,1.965" style="fill:none;fill-rule:nonzero;stroke:rgb(147,149,152);stroke-width:0.49px;"/>
        </g>
        <g transform="matrix(0,-4.16667,-4.16667,0,1349.36,263.202)">
            <path d="M-1.965,1.965L1.965,1.965" style="fill:none;fill-rule:nonzero;stroke:rgb(147,149,152);stroke-width:0.49px;"/>
        </g>
        <g transform="matrix(0,-4.16667,-4.16667,0,1378.74,263.202)">
            <path d="M-1.965,1.965L1.965,1.965" style="fill:none;fill-rule:nonzero;stroke:rgb(147,149,152);stroke-width:0.49px;"/>
        </g>
        <g transform="matrix(0,-4.16667,-4.16667,0,1408.09,263.202)">
            <path d="M-1.965,1.965L1.965,1.965" style="fill:none;fill-rule:nonzero;stroke:rgb(147,149,152);stroke-width:0.49px;"/>
        </g>
        <g transform="matrix(0,-4.16667,-4.16667,0,1437.45,263.202)">
            <path d="M-1.965,1.965L1.965,1.965" style="fill:none;fill-rule:nonzero;stroke:rgb(147,149,152);stroke-width:0.49px;"/>
        </g>
        <g transform="matrix(0,-4.16667,-4.16667,0,1466.81,263.202)">
            <path d="M-1.965,1.965L1.965,1.965" style="fill:none;fill-rule:nonzero;stroke:rgb(147,149,152);stroke-width:0.49px;"/>
        </g>
        <g transform="matrix(0,-4.16667,-4.16667,0,1496.17,263.202)">
            <path d="M-1.965,1.965L1.965,1.965" style="fill:none;fill-rule:nonzero;stroke:rgb(147,149,152);stroke-width:0.49px;"/>
        </g>
        <g transform="matrix(0,-4.16667,-4.16667,0,1525.52,263.202)">
            <path d="M-1.965,1.965L1.965,1.965" style="fill:none;fill-rule:nonzero;stroke:rgb(147,149,152);stroke-width:0.49px;"/>
        </g>
        <g transform="matrix(4.16667,0,0,4.16667,78.3654,255.018)">
            <path d="M0,0L7.12,0" style="fill:none;fill-rule:nonzero;stroke:rgb(147,149,152);stroke-width:0.49px;"/>
        </g>
        <g transform="matrix(4.16667,0,0,4.16667,78.3654,107.667)">
            <path d="M0,0L7.12,0" style="fill:none;fill-rule:nonzero;stroke:rgb(147,149,152);stroke-width:0.49px;"/>
        </g>
        <g transform="matrix(4.16667,0,0,4.16667,78.3654,-39.6831)">
            <path d="M0,0L7.12,0" style="fill:none;fill-rule:nonzero;stroke:rgb(147,149,152);stroke-width:0.49px;"/>
        </g>
        <g transform="matrix(4.16667,0,0,4.16667,78.3654,-187.034)">
            <path d="M0,0L7.12,0" style="fill:none;fill-rule:nonzero;stroke:rgb(147,149,152);stroke-width:0.49px;"/>
        </g>
        <g transform="matrix(4.16667,0,0,4.16667,78.3654,-334.384)">
            <path d="M0,0L7.12,0" style="fill:none;fill-rule:nonzero;stroke:rgb(147,149,152);stroke-width:0.49px;"/>
        </g>
        <g transform="matrix(4.16667,0,0,4.16667,1524.68,-223.282)">
            <path d="M0,114.792L-21.138,114.792L-24.66,114.083L-28.184,114.155L-31.706,114.792L-38.753,114.792L-42.28,114.155L-45.803,113.377L-49.326,113.377L-52.849,114.792L-56.371,112.528L-59.895,111.042L-63.417,108.496L-66.94,101.139L-70.464,109.346L-73.986,108.425L-77.509,98.594L-81.031,104.393L-84.56,102.766L-88.082,101.92L-91.605,104.606L-95.129,105.526L-98.651,99.443L-102.174,95.199L-105.697,98.878L-109.22,109.911L-112.742,106.585L-116.266,107.294L-119.789,107.931L-123.311,94.915L-126.84,107.01L-130.362,108.778L-133.885,106.444L-137.408,109.486L-140.931,103.615L-144.454,96.049L-147.977,107.294L-151.5,105.526L-155.022,111.963L-158.546,108.85L-162.069,107.294L-165.591,108.709L-169.115,101.211L-172.642,108.566L-176.165,111.75L-179.687,111.607L-183.211,95.695L-186.733,74.759L-190.256,69.525L-193.78,74.263L-197.302,61.39L-200.825,73.557L-204.348,50.004L-207.871,65.775L-211.394,78.719L-214.922,75.818L-218.445,52.62L-221.967,0L-225.491,88.41L-229.013,59.551L-232.536,84.659L-236.06,33.028L-239.582,99.09L-243.105,57.571L-246.628,81.265L-250.151,97.038L-253.673,104.536L-257.201,12.517L-260.724,106.304L-264.247,110.123L-267.77,71.433L-271.293,114.792L-274.816,58.845L-278.338,65.706L-281.862,81.833L-285.385,98.453L-288.907,114.792L-338.233,114.792" style="fill:none;fill-rule:nonzero;stroke:black;stroke-width:0.98px;"/>
        </g>
        <g transform="matrix(0,-4.16667,-4.16667,0,402.734,-39.6844)">
            <path d="M-70.729,70.729L70.729,70.729" style="fill:none;fill-rule:nonzero;stroke:rgb(1,1,1);stroke-width:0.98px;stroke-linecap:butt;stroke-linejoin:miter;stroke-miterlimit:10;"/>
        </g>
        <g transform="matrix(4.16667,0,0,4.16667,-222.324,-889.975)">
            <g transform="matrix(1,0,0,1,79.2854,133.342)">
                <path d="M0,0L341.761,0" style="fill:none;fill-rule:nonzero;stroke:rgb(1,1,1);stroke-width:0.23px;"/>
            </g>
            <g transform="matrix(0,-1,-1,0,491.775,204.07)">
                <path d="M-70.729,70.729L70.729,70.729" style="fill:none;fill-rule:nonzero;stroke:rgb(1,1,1);stroke-width:0.23px;"/>
            </g>
            <g transform="matrix(1,0,0,1,79.2854,274.798)">
                <path d="M0,0L341.761,0" style="fill:none;fill-rule:nonzero;stroke:rgb(1,1,1);stroke-width:0.23px;stroke-linecap:butt;stroke-linejoin:miter;stroke-miterlimit:10;"/>
            </g>
        </g>
    </g>
</svg>
