<?xml version="1.0" encoding="utf-8"?>
<svg xmlns="http://www.w3.org/2000/svg" xmlns:serif="http://www.serif.com/" xmlns:xlink="http://www.w3.org/1999/xlink" height="100%" style="fill-rule:evenodd;clip-rule:evenodd;stroke-linecap:round;stroke-linejoin:round;stroke-miterlimit:1.5;" version="1.1" width="100%" xml:space="preserve" viewBox="0 0 1749 750">
	<g transform="matrix(4.16667,0,0,4.16667,-140.564,-461.154)">
		<g xmlns="" id="Layer2">
			<g>
				<clipPath id="_clip1">
					<rect clip-rule="nonzero" height="230.385" width="361.714" x="63.836" y="71.12"/>
				</clipPath>
				<g clip-path="url(#_clip1)">
					<g transform="matrix(8.8207,0,0,8.8207,66.8879,271.905)">
						<path d="M0.425,-0.354C0.425,-0.313 0.423,-0.27 0.418,-0.227C0.413,-0.184 0.403,-0.144 0.389,-0.109C0.375,-0.074 0.356,-0.045 0.331,-0.022C0.306,0.001 0.274,0.012 0.235,0.012C0.196,0.012 0.164,0.001 0.139,-0.022C0.114,-0.045 0.095,-0.074 0.081,-0.109C0.067,-0.144 0.057,-0.184 0.052,-0.227C0.047,-0.27 0.044,-0.313 0.044,-0.354C0.044,-0.395 0.047,-0.438 0.052,-0.481C0.057,-0.524 0.067,-0.564 0.081,-0.599C0.095,-0.634 0.114,-0.663 0.139,-0.686C0.164,-0.709 0.196,-0.72 0.235,-0.72C0.274,-0.72 0.306,-0.709 0.331,-0.686C0.356,-0.663 0.375,-0.634 0.389,-0.599C0.403,-0.564 0.413,-0.524 0.418,-0.481C0.423,-0.438 0.425,-0.395 0.425,-0.354ZM0.354,-0.354C0.354,-0.371 0.354,-0.39 0.353,-0.412C0.352,-0.433 0.35,-0.455 0.347,-0.478C0.344,-0.501 0.34,-0.523 0.335,-0.545C0.33,-0.566 0.323,-0.586 0.314,-0.603C0.305,-0.62 0.295,-0.633 0.282,-0.644C0.269,-0.654 0.253,-0.659 0.235,-0.659C0.217,-0.659 0.202,-0.654 0.189,-0.644C0.175,-0.633 0.165,-0.62 0.156,-0.603C0.147,-0.586 0.14,-0.566 0.135,-0.545C0.129,-0.523 0.125,-0.501 0.122,-0.478C0.119,-0.455 0.118,-0.433 0.117,-0.412C0.116,-0.39 0.115,-0.371 0.115,-0.354C0.115,-0.337 0.116,-0.317 0.117,-0.296C0.118,-0.274 0.119,-0.252 0.122,-0.23C0.125,-0.207 0.129,-0.185 0.135,-0.164C0.14,-0.142 0.147,-0.123 0.156,-0.106C0.165,-0.089 0.175,-0.075 0.189,-0.065C0.202,-0.054 0.217,-0.049 0.235,-0.049C0.253,-0.049 0.269,-0.054 0.282,-0.065C0.295,-0.075 0.305,-0.089 0.314,-0.106C0.323,-0.123 0.33,-0.142 0.335,-0.164C0.34,-0.185 0.344,-0.207 0.347,-0.23C0.35,-0.252 0.352,-0.274 0.353,-0.296C0.354,-0.317 0.354,-0.337 0.354,-0.354Z" style="fill:rgb(1,1,1);fill-rule:nonzero;"/>
					</g>
					<g transform="matrix(8.8207,0,0,8.8207,66.8879,248.362)">
						<path d="M0.406,-0.222C0.406,-0.185 0.402,-0.152 0.393,-0.123C0.384,-0.093 0.371,-0.069 0.355,-0.049C0.338,-0.029 0.319,-0.014 0.296,-0.004C0.273,0.007 0.249,0.012 0.222,0.012C0.178,0.012 0.141,0.001 0.113,-0.021C0.084,-0.043 0.062,-0.074 0.049,-0.114L0.109,-0.136C0.12,-0.109 0.134,-0.087 0.153,-0.072C0.172,-0.057 0.194,-0.049 0.221,-0.049C0.256,-0.049 0.284,-0.064 0.306,-0.095C0.328,-0.125 0.339,-0.167 0.339,-0.22C0.339,-0.271 0.328,-0.312 0.306,-0.343C0.284,-0.374 0.252,-0.39 0.21,-0.39C0.191,-0.39 0.17,-0.387 0.149,-0.381C0.127,-0.374 0.108,-0.366 0.093,-0.356L0.101,-0.708L0.382,-0.708L0.382,-0.647L0.161,-0.647L0.154,-0.426C0.165,-0.431 0.178,-0.436 0.193,-0.44C0.207,-0.443 0.22,-0.445 0.231,-0.445C0.261,-0.445 0.287,-0.44 0.309,-0.429C0.33,-0.418 0.348,-0.402 0.363,-0.383C0.378,-0.363 0.389,-0.339 0.396,-0.312C0.403,-0.285 0.406,-0.255 0.406,-0.222Z" style="fill:rgb(1,1,1);fill-rule:nonzero;"/>
					</g>
					<g>
						<clipPath id="_clip2">
							<rect clip-rule="nonzero" height="230.385" width="361.714" x="63.836" y="71.12"/>
						</clipPath>
						<g clip-path="url(#_clip2)">
							<g transform="matrix(1,0,0,1,0.48,0)">
								<g transform="matrix(8.8207,0,0,8.8207,62.9186,224.82)">
									<path d="M0.239,-0L0.239,-0.628L0.109,-0.527L0.076,-0.581L0.243,-0.708L0.306,-0.708L0.306,-0L0.239,-0Z" style="fill:rgb(1,1,1);fill-rule:nonzero;"/>
								</g>
								<g transform="matrix(8.8207,0,0,8.8207,67.0643,224.82)">
									<path d="M0.425,-0.354C0.425,-0.313 0.423,-0.27 0.418,-0.227C0.413,-0.184 0.403,-0.144 0.389,-0.109C0.375,-0.074 0.356,-0.045 0.331,-0.022C0.306,0.001 0.274,0.012 0.235,0.012C0.196,0.012 0.164,0.001 0.139,-0.022C0.114,-0.045 0.095,-0.074 0.081,-0.109C0.067,-0.144 0.057,-0.184 0.052,-0.227C0.047,-0.27 0.044,-0.313 0.044,-0.354C0.044,-0.395 0.047,-0.438 0.052,-0.481C0.057,-0.524 0.067,-0.564 0.081,-0.599C0.095,-0.634 0.114,-0.663 0.139,-0.686C0.164,-0.709 0.196,-0.72 0.235,-0.72C0.274,-0.72 0.306,-0.709 0.331,-0.686C0.356,-0.663 0.375,-0.634 0.389,-0.599C0.403,-0.564 0.413,-0.524 0.418,-0.481C0.423,-0.438 0.425,-0.395 0.425,-0.354ZM0.354,-0.354C0.354,-0.371 0.354,-0.39 0.353,-0.412C0.352,-0.433 0.35,-0.455 0.347,-0.478C0.344,-0.501 0.34,-0.523 0.335,-0.545C0.33,-0.566 0.323,-0.586 0.314,-0.603C0.305,-0.62 0.295,-0.633 0.282,-0.644C0.269,-0.654 0.253,-0.659 0.235,-0.659C0.217,-0.659 0.202,-0.654 0.189,-0.644C0.175,-0.633 0.165,-0.62 0.156,-0.603C0.147,-0.586 0.14,-0.566 0.135,-0.545C0.129,-0.523 0.125,-0.501 0.122,-0.478C0.119,-0.455 0.118,-0.433 0.117,-0.412C0.116,-0.39 0.115,-0.371 0.115,-0.354C0.115,-0.337 0.116,-0.317 0.117,-0.296C0.118,-0.274 0.119,-0.252 0.122,-0.23C0.125,-0.207 0.129,-0.185 0.135,-0.164C0.14,-0.142 0.147,-0.123 0.156,-0.106C0.165,-0.089 0.175,-0.075 0.189,-0.065C0.202,-0.054 0.217,-0.049 0.235,-0.049C0.253,-0.049 0.269,-0.054 0.282,-0.065C0.295,-0.075 0.305,-0.089 0.314,-0.106C0.323,-0.123 0.33,-0.142 0.335,-0.164C0.34,-0.185 0.344,-0.207 0.347,-0.23C0.35,-0.252 0.352,-0.274 0.353,-0.296C0.354,-0.317 0.354,-0.337 0.354,-0.354Z" style="fill:rgb(1,1,1);fill-rule:nonzero;"/>
								</g>
							</g>
							<g transform="matrix(1,0,0,1,0.48,0)">
								<g transform="matrix(8.8207,0,0,8.8207,62.9186,201.278)">
									<path d="M0.239,-0L0.239,-0.628L0.109,-0.527L0.076,-0.581L0.243,-0.708L0.306,-0.708L0.306,-0L0.239,-0Z" style="fill:rgb(1,1,1);fill-rule:nonzero;"/>
								</g>
								<g transform="matrix(8.8207,0,0,8.8207,67.0643,201.278)">
									<path d="M0.406,-0.222C0.406,-0.185 0.402,-0.152 0.393,-0.123C0.384,-0.093 0.371,-0.069 0.355,-0.049C0.338,-0.029 0.319,-0.014 0.296,-0.004C0.273,0.007 0.249,0.012 0.222,0.012C0.178,0.012 0.141,0.001 0.113,-0.021C0.084,-0.043 0.062,-0.074 0.049,-0.114L0.109,-0.136C0.12,-0.109 0.134,-0.087 0.153,-0.072C0.172,-0.057 0.194,-0.049 0.221,-0.049C0.256,-0.049 0.284,-0.064 0.306,-0.095C0.328,-0.125 0.339,-0.167 0.339,-0.22C0.339,-0.271 0.328,-0.312 0.306,-0.343C0.284,-0.374 0.252,-0.39 0.21,-0.39C0.191,-0.39 0.17,-0.387 0.149,-0.381C0.127,-0.374 0.108,-0.366 0.093,-0.356L0.101,-0.708L0.382,-0.708L0.382,-0.647L0.161,-0.647L0.154,-0.426C0.165,-0.431 0.178,-0.436 0.193,-0.44C0.207,-0.443 0.22,-0.445 0.231,-0.445C0.261,-0.445 0.287,-0.44 0.309,-0.429C0.33,-0.418 0.348,-0.402 0.363,-0.383C0.378,-0.363 0.389,-0.339 0.396,-0.312C0.403,-0.285 0.406,-0.255 0.406,-0.222Z" style="fill:rgb(1,1,1);fill-rule:nonzero;"/>
								</g>
							</g>
							<g transform="matrix(1,0,0,1,0.48,0)">
								<g transform="matrix(8.8207,0,0,8.8207,62.9186,177.735)">
									<path d="M0.393,-0.535C0.393,-0.513 0.391,-0.492 0.386,-0.473C0.381,-0.453 0.373,-0.434 0.364,-0.415C0.355,-0.396 0.343,-0.376 0.331,-0.357C0.318,-0.337 0.303,-0.316 0.288,-0.293L0.127,-0.062L0.386,-0.062L0.386,-0L0.051,-0L0.051,-0.066L0.244,-0.341C0.268,-0.376 0.287,-0.408 0.301,-0.439C0.315,-0.469 0.322,-0.499 0.322,-0.53C0.322,-0.547 0.32,-0.564 0.316,-0.58C0.312,-0.595 0.306,-0.609 0.298,-0.621C0.289,-0.633 0.279,-0.643 0.267,-0.65C0.254,-0.657 0.24,-0.66 0.223,-0.66C0.194,-0.66 0.171,-0.651 0.153,-0.632C0.134,-0.612 0.122,-0.585 0.115,-0.549L0.049,-0.557C0.058,-0.61 0.078,-0.651 0.109,-0.679C0.14,-0.706 0.179,-0.72 0.227,-0.72C0.255,-0.72 0.279,-0.715 0.3,-0.706C0.321,-0.696 0.338,-0.683 0.352,-0.666C0.365,-0.649 0.376,-0.629 0.383,-0.607C0.39,-0.584 0.393,-0.56 0.393,-0.535Z" style="fill:rgb(1,1,1);fill-rule:nonzero;"/>
								</g>
								<g transform="matrix(8.8207,0,0,8.8207,67.0643,177.735)">
									<path d="M0.425,-0.354C0.425,-0.313 0.423,-0.27 0.418,-0.227C0.413,-0.184 0.403,-0.144 0.389,-0.109C0.375,-0.074 0.356,-0.045 0.331,-0.022C0.306,0.001 0.274,0.012 0.235,0.012C0.196,0.012 0.164,0.001 0.139,-0.022C0.114,-0.045 0.095,-0.074 0.081,-0.109C0.067,-0.144 0.057,-0.184 0.052,-0.227C0.047,-0.27 0.044,-0.313 0.044,-0.354C0.044,-0.395 0.047,-0.438 0.052,-0.481C0.057,-0.524 0.067,-0.564 0.081,-0.599C0.095,-0.634 0.114,-0.663 0.139,-0.686C0.164,-0.709 0.196,-0.72 0.235,-0.72C0.274,-0.72 0.306,-0.709 0.331,-0.686C0.356,-0.663 0.375,-0.634 0.389,-0.599C0.403,-0.564 0.413,-0.524 0.418,-0.481C0.423,-0.438 0.425,-0.395 0.425,-0.354ZM0.354,-0.354C0.354,-0.371 0.354,-0.39 0.353,-0.412C0.352,-0.433 0.35,-0.455 0.347,-0.478C0.344,-0.501 0.34,-0.523 0.335,-0.545C0.33,-0.566 0.323,-0.586 0.314,-0.603C0.305,-0.62 0.295,-0.633 0.282,-0.644C0.269,-0.654 0.253,-0.659 0.235,-0.659C0.217,-0.659 0.202,-0.654 0.189,-0.644C0.175,-0.633 0.165,-0.62 0.156,-0.603C0.147,-0.586 0.14,-0.566 0.135,-0.545C0.129,-0.523 0.125,-0.501 0.122,-0.478C0.119,-0.455 0.118,-0.433 0.117,-0.412C0.116,-0.39 0.115,-0.371 0.115,-0.354C0.115,-0.337 0.116,-0.317 0.117,-0.296C0.118,-0.274 0.119,-0.252 0.122,-0.23C0.125,-0.207 0.129,-0.185 0.135,-0.164C0.14,-0.142 0.147,-0.123 0.156,-0.106C0.165,-0.089 0.175,-0.075 0.189,-0.065C0.202,-0.054 0.217,-0.049 0.235,-0.049C0.253,-0.049 0.269,-0.054 0.282,-0.065C0.295,-0.075 0.305,-0.089 0.314,-0.106C0.323,-0.123 0.33,-0.142 0.335,-0.164C0.34,-0.185 0.344,-0.207 0.347,-0.23C0.35,-0.252 0.352,-0.274 0.353,-0.296C0.354,-0.317 0.354,-0.337 0.354,-0.354Z" style="fill:rgb(1,1,1);fill-rule:nonzero;"/>
								</g>
							</g>
							<g transform="matrix(1,0,0,1,0.48,0)">
								<g transform="matrix(8.8207,0,0,8.8207,62.9186,154.193)">
									<path d="M0.393,-0.535C0.393,-0.513 0.391,-0.492 0.386,-0.473C0.381,-0.453 0.373,-0.434 0.364,-0.415C0.355,-0.396 0.343,-0.376 0.331,-0.357C0.318,-0.337 0.303,-0.316 0.288,-0.293L0.127,-0.062L0.386,-0.062L0.386,-0L0.051,-0L0.051,-0.066L0.244,-0.341C0.268,-0.376 0.287,-0.408 0.301,-0.439C0.315,-0.469 0.322,-0.499 0.322,-0.53C0.322,-0.547 0.32,-0.564 0.316,-0.58C0.312,-0.595 0.306,-0.609 0.298,-0.621C0.289,-0.633 0.279,-0.643 0.267,-0.65C0.254,-0.657 0.24,-0.66 0.223,-0.66C0.194,-0.66 0.171,-0.651 0.153,-0.632C0.134,-0.612 0.122,-0.585 0.115,-0.549L0.049,-0.557C0.058,-0.61 0.078,-0.651 0.109,-0.679C0.14,-0.706 0.179,-0.72 0.227,-0.72C0.255,-0.72 0.279,-0.715 0.3,-0.706C0.321,-0.696 0.338,-0.683 0.352,-0.666C0.365,-0.649 0.376,-0.629 0.383,-0.607C0.39,-0.584 0.393,-0.56 0.393,-0.535Z" style="fill:rgb(1,1,1);fill-rule:nonzero;"/>
								</g>
								<g transform="matrix(8.8207,0,0,8.8207,67.0643,154.193)">
									<path d="M0.406,-0.222C0.406,-0.185 0.402,-0.152 0.393,-0.123C0.384,-0.093 0.371,-0.069 0.355,-0.049C0.338,-0.029 0.319,-0.014 0.296,-0.004C0.273,0.007 0.249,0.012 0.222,0.012C0.178,0.012 0.141,0.001 0.113,-0.021C0.084,-0.043 0.062,-0.074 0.049,-0.114L0.109,-0.136C0.12,-0.109 0.134,-0.087 0.153,-0.072C0.172,-0.057 0.194,-0.049 0.221,-0.049C0.256,-0.049 0.284,-0.064 0.306,-0.095C0.328,-0.125 0.339,-0.167 0.339,-0.22C0.339,-0.271 0.328,-0.312 0.306,-0.343C0.284,-0.374 0.252,-0.39 0.21,-0.39C0.191,-0.39 0.17,-0.387 0.149,-0.381C0.127,-0.374 0.108,-0.366 0.093,-0.356L0.101,-0.708L0.382,-0.708L0.382,-0.647L0.161,-0.647L0.154,-0.426C0.165,-0.431 0.178,-0.436 0.193,-0.44C0.207,-0.443 0.22,-0.445 0.231,-0.445C0.261,-0.445 0.287,-0.44 0.309,-0.429C0.33,-0.418 0.348,-0.402 0.363,-0.383C0.378,-0.363 0.389,-0.339 0.396,-0.312C0.403,-0.285 0.406,-0.255 0.406,-0.222Z" style="fill:rgb(1,1,1);fill-rule:nonzero;"/>
								</g>
							</g>
							<g transform="matrix(1,0,0,1,0.48,0)">
								<g transform="matrix(8.8207,0,0,8.8207,62.9186,130.65)">
									<path d="M0.408,-0.193C0.408,-0.166 0.404,-0.141 0.396,-0.116C0.388,-0.091 0.376,-0.07 0.36,-0.051C0.344,-0.032 0.324,-0.016 0.301,-0.005C0.278,0.006 0.251,0.012 0.221,0.012C0.174,0.012 0.135,0 0.104,-0.023C0.072,-0.046 0.049,-0.08 0.036,-0.124L0.098,-0.142C0.107,-0.114 0.122,-0.091 0.143,-0.074C0.163,-0.057 0.188,-0.048 0.218,-0.048C0.239,-0.048 0.257,-0.053 0.272,-0.062C0.287,-0.07 0.3,-0.082 0.31,-0.097C0.32,-0.111 0.328,-0.127 0.333,-0.144C0.338,-0.161 0.34,-0.178 0.34,-0.195C0.34,-0.243 0.327,-0.28 0.302,-0.305C0.276,-0.33 0.243,-0.342 0.202,-0.342L0.181,-0.342L0.181,-0.398L0.203,-0.398C0.239,-0.398 0.268,-0.41 0.29,-0.435C0.312,-0.46 0.323,-0.493 0.323,-0.535C0.323,-0.55 0.321,-0.564 0.317,-0.579C0.313,-0.594 0.307,-0.607 0.298,-0.619C0.289,-0.631 0.279,-0.641 0.266,-0.649C0.253,-0.656 0.237,-0.66 0.218,-0.66C0.197,-0.66 0.178,-0.654 0.161,-0.642C0.143,-0.629 0.13,-0.612 0.121,-0.591L0.061,-0.611C0.076,-0.648 0.098,-0.675 0.128,-0.693C0.158,-0.711 0.189,-0.72 0.222,-0.72C0.248,-0.72 0.271,-0.716 0.292,-0.707C0.313,-0.698 0.33,-0.685 0.345,-0.669C0.359,-0.653 0.37,-0.634 0.378,-0.613C0.386,-0.591 0.39,-0.567 0.39,-0.542C0.39,-0.523 0.388,-0.504 0.383,-0.486C0.378,-0.467 0.372,-0.45 0.363,-0.435C0.354,-0.42 0.342,-0.407 0.329,-0.396C0.315,-0.385 0.299,-0.377 0.28,-0.373L0.28,-0.371C0.319,-0.364 0.35,-0.344 0.373,-0.312C0.396,-0.28 0.408,-0.24 0.408,-0.193Z" style="fill:rgb(1,1,1);fill-rule:nonzero;"/>
								</g>
								<g transform="matrix(8.8207,0,0,8.8207,67.0643,130.65)">
									<path d="M0.425,-0.354C0.425,-0.313 0.423,-0.27 0.418,-0.227C0.413,-0.184 0.403,-0.144 0.389,-0.109C0.375,-0.074 0.356,-0.045 0.331,-0.022C0.306,0.001 0.274,0.012 0.235,0.012C0.196,0.012 0.164,0.001 0.139,-0.022C0.114,-0.045 0.095,-0.074 0.081,-0.109C0.067,-0.144 0.057,-0.184 0.052,-0.227C0.047,-0.27 0.044,-0.313 0.044,-0.354C0.044,-0.395 0.047,-0.438 0.052,-0.481C0.057,-0.524 0.067,-0.564 0.081,-0.599C0.095,-0.634 0.114,-0.663 0.139,-0.686C0.164,-0.709 0.196,-0.72 0.235,-0.72C0.274,-0.72 0.306,-0.709 0.331,-0.686C0.356,-0.663 0.375,-0.634 0.389,-0.599C0.403,-0.564 0.413,-0.524 0.418,-0.481C0.423,-0.438 0.425,-0.395 0.425,-0.354ZM0.354,-0.354C0.354,-0.371 0.354,-0.39 0.353,-0.412C0.352,-0.433 0.35,-0.455 0.347,-0.478C0.344,-0.501 0.34,-0.523 0.335,-0.545C0.33,-0.566 0.323,-0.586 0.314,-0.603C0.305,-0.62 0.295,-0.633 0.282,-0.644C0.269,-0.654 0.253,-0.659 0.235,-0.659C0.217,-0.659 0.202,-0.654 0.189,-0.644C0.175,-0.633 0.165,-0.62 0.156,-0.603C0.147,-0.586 0.14,-0.566 0.135,-0.545C0.129,-0.523 0.125,-0.501 0.122,-0.478C0.119,-0.455 0.118,-0.433 0.117,-0.412C0.116,-0.39 0.115,-0.371 0.115,-0.354C0.115,-0.337 0.116,-0.317 0.117,-0.296C0.118,-0.274 0.119,-0.252 0.122,-0.23C0.125,-0.207 0.129,-0.185 0.135,-0.164C0.14,-0.142 0.147,-0.123 0.156,-0.106C0.165,-0.089 0.175,-0.075 0.189,-0.065C0.202,-0.054 0.217,-0.049 0.235,-0.049C0.253,-0.049 0.269,-0.054 0.282,-0.065C0.295,-0.075 0.305,-0.089 0.314,-0.106C0.323,-0.123 0.33,-0.142 0.335,-0.164C0.34,-0.185 0.344,-0.207 0.347,-0.23C0.35,-0.252 0.352,-0.274 0.353,-0.296C0.354,-0.317 0.354,-0.337 0.354,-0.354Z" style="fill:rgb(1,1,1);fill-rule:nonzero;"/>
								</g>
							</g>
						</g>
					</g>
					<g transform="matrix(8.8207,0,0,8.8207,72.9301,283.539)">
						<path d="M0.239,-0L0.239,-0.628L0.109,-0.527L0.076,-0.581L0.243,-0.708L0.306,-0.708L0.306,-0L0.239,-0Z" style="fill:rgb(1,1,1);fill-rule:nonzero;"/>
					</g>
					<g transform="matrix(8.8207,0,0,8.8207,77.0758,283.539)">
						<path d="M0.424,-0.193C0.424,-0.162 0.42,-0.134 0.411,-0.11C0.402,-0.085 0.39,-0.063 0.374,-0.045C0.357,-0.027 0.337,-0.013 0.314,-0.003C0.291,0.007 0.265,0.012 0.236,0.012C0.207,0.012 0.182,0.007 0.159,-0.003C0.135,-0.013 0.116,-0.027 0.1,-0.045C0.084,-0.063 0.072,-0.085 0.063,-0.11C0.054,-0.134 0.05,-0.162 0.05,-0.193C0.05,-0.241 0.06,-0.281 0.08,-0.312C0.1,-0.343 0.128,-0.365 0.164,-0.377L0.164,-0.379C0.132,-0.392 0.108,-0.413 0.092,-0.441C0.075,-0.469 0.067,-0.502 0.067,-0.54C0.067,-0.565 0.071,-0.588 0.078,-0.61C0.085,-0.632 0.095,-0.651 0.11,-0.668C0.124,-0.684 0.141,-0.697 0.163,-0.706C0.184,-0.715 0.208,-0.72 0.236,-0.72C0.264,-0.72 0.289,-0.715 0.31,-0.706C0.331,-0.697 0.348,-0.684 0.363,-0.668C0.377,-0.651 0.388,-0.632 0.395,-0.61C0.402,-0.588 0.406,-0.565 0.406,-0.54C0.406,-0.502 0.398,-0.469 0.382,-0.441C0.366,-0.413 0.342,-0.392 0.31,-0.379L0.31,-0.377C0.346,-0.364 0.374,-0.342 0.394,-0.311C0.414,-0.28 0.424,-0.241 0.424,-0.193ZM0.337,-0.536C0.337,-0.574 0.328,-0.605 0.311,-0.63C0.293,-0.655 0.268,-0.667 0.236,-0.667C0.203,-0.667 0.179,-0.655 0.162,-0.63C0.145,-0.605 0.136,-0.574 0.136,-0.536C0.136,-0.518 0.138,-0.501 0.143,-0.485C0.148,-0.469 0.154,-0.455 0.163,-0.443C0.172,-0.431 0.182,-0.421 0.195,-0.414C0.207,-0.407 0.221,-0.403 0.236,-0.403C0.251,-0.403 0.265,-0.407 0.278,-0.414C0.291,-0.421 0.301,-0.431 0.31,-0.443C0.319,-0.455 0.325,-0.469 0.33,-0.485C0.335,-0.501 0.337,-0.518 0.337,-0.536ZM0.352,-0.196C0.352,-0.241 0.341,-0.278 0.32,-0.307C0.299,-0.335 0.271,-0.349 0.236,-0.349C0.201,-0.349 0.173,-0.335 0.152,-0.307C0.131,-0.278 0.12,-0.241 0.12,-0.196C0.12,-0.175 0.123,-0.155 0.128,-0.136C0.133,-0.117 0.141,-0.101 0.151,-0.088C0.161,-0.074 0.173,-0.063 0.188,-0.056C0.202,-0.048 0.218,-0.044 0.236,-0.044C0.255,-0.044 0.271,-0.048 0.286,-0.056C0.3,-0.063 0.312,-0.074 0.322,-0.088C0.332,-0.101 0.339,-0.117 0.345,-0.136C0.349,-0.155 0.352,-0.175 0.352,-0.196Z" style="fill:rgb(1,1,1);fill-rule:nonzero;"/>
					</g>
					<g transform="matrix(8.8207,0,0,8.8207,81.2216,283.539)">
						<path d="M0.427,-0.219C0.427,-0.184 0.423,-0.152 0.414,-0.124C0.405,-0.095 0.392,-0.071 0.375,-0.051C0.358,-0.031 0.338,-0.016 0.315,-0.005C0.291,0.007 0.265,0.012 0.236,0.012C0.206,0.012 0.179,0.007 0.156,-0.005C0.132,-0.016 0.112,-0.031 0.096,-0.051C0.079,-0.071 0.067,-0.095 0.058,-0.124C0.049,-0.152 0.045,-0.183 0.045,-0.217C0.045,-0.25 0.049,-0.283 0.059,-0.315C0.068,-0.347 0.08,-0.379 0.096,-0.411L0.242,-0.708L0.318,-0.708L0.164,-0.406L0.166,-0.405C0.177,-0.416 0.19,-0.426 0.206,-0.433C0.221,-0.44 0.238,-0.443 0.256,-0.443C0.277,-0.443 0.297,-0.439 0.318,-0.431C0.338,-0.422 0.356,-0.409 0.373,-0.391C0.389,-0.373 0.402,-0.35 0.412,-0.322C0.422,-0.293 0.427,-0.259 0.427,-0.219ZM0.357,-0.219C0.357,-0.244 0.355,-0.267 0.35,-0.288C0.345,-0.309 0.337,-0.327 0.328,-0.342C0.318,-0.357 0.306,-0.368 0.291,-0.377C0.276,-0.385 0.259,-0.389 0.239,-0.389C0.22,-0.389 0.203,-0.385 0.188,-0.376C0.173,-0.367 0.16,-0.355 0.149,-0.34C0.137,-0.324 0.129,-0.306 0.123,-0.285C0.117,-0.264 0.114,-0.241 0.114,-0.217C0.114,-0.165 0.125,-0.124 0.147,-0.093C0.169,-0.062 0.199,-0.047 0.237,-0.047C0.275,-0.047 0.305,-0.063 0.326,-0.095C0.346,-0.127 0.357,-0.168 0.357,-0.219Z" style="fill:rgb(1,1,1);fill-rule:nonzero;"/>
					</g>
					<g transform="matrix(8.8207,0,0,8.8207,85.3673,283.539)">
						<path d="M0.423,-0.495C0.423,-0.463 0.419,-0.431 0.41,-0.399C0.401,-0.366 0.389,-0.333 0.373,-0.299L0.23,-0L0.155,-0L0.31,-0.313L0.308,-0.314C0.286,-0.291 0.255,-0.279 0.216,-0.279C0.196,-0.279 0.176,-0.283 0.156,-0.291C0.136,-0.299 0.118,-0.312 0.102,-0.329C0.086,-0.346 0.073,-0.369 0.063,-0.396C0.053,-0.423 0.048,-0.456 0.048,-0.495C0.048,-0.529 0.053,-0.56 0.062,-0.588C0.07,-0.615 0.083,-0.639 0.1,-0.659C0.116,-0.678 0.135,-0.693 0.159,-0.704C0.182,-0.715 0.207,-0.72 0.236,-0.72C0.295,-0.72 0.341,-0.7 0.374,-0.66C0.407,-0.619 0.423,-0.564 0.423,-0.495ZM0.353,-0.497C0.353,-0.546 0.343,-0.585 0.322,-0.616C0.301,-0.647 0.272,-0.662 0.235,-0.662C0.198,-0.662 0.169,-0.647 0.149,-0.616C0.128,-0.585 0.118,-0.545 0.118,-0.497C0.118,-0.474 0.121,-0.452 0.126,-0.432C0.131,-0.412 0.138,-0.395 0.148,-0.381C0.157,-0.366 0.169,-0.355 0.184,-0.347C0.198,-0.339 0.215,-0.335 0.234,-0.335C0.252,-0.335 0.268,-0.339 0.283,-0.348C0.298,-0.356 0.31,-0.367 0.321,-0.382C0.331,-0.396 0.339,-0.413 0.345,-0.433C0.35,-0.452 0.353,-0.474 0.353,-0.497Z" style="fill:rgb(1,1,1);fill-rule:nonzero;"/>
					</g>
					<g transform="matrix(8.8207,0,0,8.8207,127,283.539)">
						<path d="M0.239,-0L0.239,-0.628L0.109,-0.527L0.076,-0.581L0.243,-0.708L0.306,-0.708L0.306,-0L0.239,-0Z" style="fill:rgb(1,1,1);fill-rule:nonzero;"/>
					</g>
					<g transform="matrix(8.8207,0,0,8.8207,131.146,283.539)">
						<path d="M0.424,-0.193C0.424,-0.162 0.42,-0.134 0.411,-0.11C0.402,-0.085 0.39,-0.063 0.374,-0.045C0.357,-0.027 0.337,-0.013 0.314,-0.003C0.291,0.007 0.265,0.012 0.236,0.012C0.207,0.012 0.182,0.007 0.159,-0.003C0.135,-0.013 0.116,-0.027 0.1,-0.045C0.084,-0.063 0.072,-0.085 0.063,-0.11C0.054,-0.134 0.05,-0.162 0.05,-0.193C0.05,-0.241 0.06,-0.281 0.08,-0.312C0.1,-0.343 0.128,-0.365 0.164,-0.377L0.164,-0.379C0.132,-0.392 0.108,-0.413 0.092,-0.441C0.075,-0.469 0.067,-0.502 0.067,-0.54C0.067,-0.565 0.071,-0.588 0.078,-0.61C0.085,-0.632 0.095,-0.651 0.11,-0.668C0.124,-0.684 0.141,-0.697 0.163,-0.706C0.184,-0.715 0.208,-0.72 0.236,-0.72C0.264,-0.72 0.289,-0.715 0.31,-0.706C0.331,-0.697 0.348,-0.684 0.363,-0.668C0.377,-0.651 0.388,-0.632 0.395,-0.61C0.402,-0.588 0.406,-0.565 0.406,-0.54C0.406,-0.502 0.398,-0.469 0.382,-0.441C0.366,-0.413 0.342,-0.392 0.31,-0.379L0.31,-0.377C0.346,-0.364 0.374,-0.342 0.394,-0.311C0.414,-0.28 0.424,-0.241 0.424,-0.193ZM0.337,-0.536C0.337,-0.574 0.328,-0.605 0.311,-0.63C0.293,-0.655 0.268,-0.667 0.236,-0.667C0.203,-0.667 0.179,-0.655 0.162,-0.63C0.145,-0.605 0.136,-0.574 0.136,-0.536C0.136,-0.518 0.138,-0.501 0.143,-0.485C0.148,-0.469 0.154,-0.455 0.163,-0.443C0.172,-0.431 0.182,-0.421 0.195,-0.414C0.207,-0.407 0.221,-0.403 0.236,-0.403C0.251,-0.403 0.265,-0.407 0.278,-0.414C0.291,-0.421 0.301,-0.431 0.31,-0.443C0.319,-0.455 0.325,-0.469 0.33,-0.485C0.335,-0.501 0.337,-0.518 0.337,-0.536ZM0.352,-0.196C0.352,-0.241 0.341,-0.278 0.32,-0.307C0.299,-0.335 0.271,-0.349 0.236,-0.349C0.201,-0.349 0.173,-0.335 0.152,-0.307C0.131,-0.278 0.12,-0.241 0.12,-0.196C0.12,-0.175 0.123,-0.155 0.128,-0.136C0.133,-0.117 0.141,-0.101 0.151,-0.088C0.161,-0.074 0.173,-0.063 0.188,-0.056C0.202,-0.048 0.218,-0.044 0.236,-0.044C0.255,-0.044 0.271,-0.048 0.286,-0.056C0.3,-0.063 0.312,-0.074 0.322,-0.088C0.332,-0.101 0.339,-0.117 0.345,-0.136C0.349,-0.155 0.352,-0.175 0.352,-0.196Z" style="fill:rgb(1,1,1);fill-rule:nonzero;"/>
					</g>
					<g transform="matrix(8.8207,0,0,8.8207,135.292,283.539)">
						<path d="M0.424,-0.193C0.424,-0.162 0.42,-0.134 0.411,-0.11C0.402,-0.085 0.39,-0.063 0.374,-0.045C0.357,-0.027 0.337,-0.013 0.314,-0.003C0.291,0.007 0.265,0.012 0.236,0.012C0.207,0.012 0.182,0.007 0.159,-0.003C0.135,-0.013 0.116,-0.027 0.1,-0.045C0.084,-0.063 0.072,-0.085 0.063,-0.11C0.054,-0.134 0.05,-0.162 0.05,-0.193C0.05,-0.241 0.06,-0.281 0.08,-0.312C0.1,-0.343 0.128,-0.365 0.164,-0.377L0.164,-0.379C0.132,-0.392 0.108,-0.413 0.092,-0.441C0.075,-0.469 0.067,-0.502 0.067,-0.54C0.067,-0.565 0.071,-0.588 0.078,-0.61C0.085,-0.632 0.095,-0.651 0.11,-0.668C0.124,-0.684 0.141,-0.697 0.163,-0.706C0.184,-0.715 0.208,-0.72 0.236,-0.72C0.264,-0.72 0.289,-0.715 0.31,-0.706C0.331,-0.697 0.348,-0.684 0.363,-0.668C0.377,-0.651 0.388,-0.632 0.395,-0.61C0.402,-0.588 0.406,-0.565 0.406,-0.54C0.406,-0.502 0.398,-0.469 0.382,-0.441C0.366,-0.413 0.342,-0.392 0.31,-0.379L0.31,-0.377C0.346,-0.364 0.374,-0.342 0.394,-0.311C0.414,-0.28 0.424,-0.241 0.424,-0.193ZM0.337,-0.536C0.337,-0.574 0.328,-0.605 0.311,-0.63C0.293,-0.655 0.268,-0.667 0.236,-0.667C0.203,-0.667 0.179,-0.655 0.162,-0.63C0.145,-0.605 0.136,-0.574 0.136,-0.536C0.136,-0.518 0.138,-0.501 0.143,-0.485C0.148,-0.469 0.154,-0.455 0.163,-0.443C0.172,-0.431 0.182,-0.421 0.195,-0.414C0.207,-0.407 0.221,-0.403 0.236,-0.403C0.251,-0.403 0.265,-0.407 0.278,-0.414C0.291,-0.421 0.301,-0.431 0.31,-0.443C0.319,-0.455 0.325,-0.469 0.33,-0.485C0.335,-0.501 0.337,-0.518 0.337,-0.536ZM0.352,-0.196C0.352,-0.241 0.341,-0.278 0.32,-0.307C0.299,-0.335 0.271,-0.349 0.236,-0.349C0.201,-0.349 0.173,-0.335 0.152,-0.307C0.131,-0.278 0.12,-0.241 0.12,-0.196C0.12,-0.175 0.123,-0.155 0.128,-0.136C0.133,-0.117 0.141,-0.101 0.151,-0.088C0.161,-0.074 0.173,-0.063 0.188,-0.056C0.202,-0.048 0.218,-0.044 0.236,-0.044C0.255,-0.044 0.271,-0.048 0.286,-0.056C0.3,-0.063 0.312,-0.074 0.322,-0.088C0.332,-0.101 0.339,-0.117 0.345,-0.136C0.349,-0.155 0.352,-0.175 0.352,-0.196Z" style="fill:rgb(1,1,1);fill-rule:nonzero;"/>
					</g>
					<g transform="matrix(8.8207,0,0,8.8207,139.437,283.539)">
						<path d="M0.348,-0.169L0.348,-0L0.285,-0L0.285,-0.169L0.031,-0.169L0.031,-0.234L0.256,-0.708L0.348,-0.708L0.348,-0.229L0.436,-0.229L0.436,-0.169L0.348,-0.169ZM0.286,-0.641L0.284,-0.641L0.094,-0.229L0.286,-0.229L0.286,-0.641Z" style="fill:rgb(1,1,1);fill-rule:nonzero;"/>
					</g>
					<g transform="matrix(8.8207,0,0,8.8207,181.073,283.539)">
						<path d="M0.239,-0L0.239,-0.628L0.109,-0.527L0.076,-0.581L0.243,-0.708L0.306,-0.708L0.306,-0L0.239,-0Z" style="fill:rgb(1,1,1);fill-rule:nonzero;"/>
					</g>
					<g transform="matrix(8.8207,0,0,8.8207,185.218,283.539)">
						<path d="M0.424,-0.193C0.424,-0.162 0.42,-0.134 0.411,-0.11C0.402,-0.085 0.39,-0.063 0.374,-0.045C0.357,-0.027 0.337,-0.013 0.314,-0.003C0.291,0.007 0.265,0.012 0.236,0.012C0.207,0.012 0.182,0.007 0.159,-0.003C0.135,-0.013 0.116,-0.027 0.1,-0.045C0.084,-0.063 0.072,-0.085 0.063,-0.11C0.054,-0.134 0.05,-0.162 0.05,-0.193C0.05,-0.241 0.06,-0.281 0.08,-0.312C0.1,-0.343 0.128,-0.365 0.164,-0.377L0.164,-0.379C0.132,-0.392 0.108,-0.413 0.092,-0.441C0.075,-0.469 0.067,-0.502 0.067,-0.54C0.067,-0.565 0.071,-0.588 0.078,-0.61C0.085,-0.632 0.095,-0.651 0.11,-0.668C0.124,-0.684 0.141,-0.697 0.163,-0.706C0.184,-0.715 0.208,-0.72 0.236,-0.72C0.264,-0.72 0.289,-0.715 0.31,-0.706C0.331,-0.697 0.348,-0.684 0.363,-0.668C0.377,-0.651 0.388,-0.632 0.395,-0.61C0.402,-0.588 0.406,-0.565 0.406,-0.54C0.406,-0.502 0.398,-0.469 0.382,-0.441C0.366,-0.413 0.342,-0.392 0.31,-0.379L0.31,-0.377C0.346,-0.364 0.374,-0.342 0.394,-0.311C0.414,-0.28 0.424,-0.241 0.424,-0.193ZM0.337,-0.536C0.337,-0.574 0.328,-0.605 0.311,-0.63C0.293,-0.655 0.268,-0.667 0.236,-0.667C0.203,-0.667 0.179,-0.655 0.162,-0.63C0.145,-0.605 0.136,-0.574 0.136,-0.536C0.136,-0.518 0.138,-0.501 0.143,-0.485C0.148,-0.469 0.154,-0.455 0.163,-0.443C0.172,-0.431 0.182,-0.421 0.195,-0.414C0.207,-0.407 0.221,-0.403 0.236,-0.403C0.251,-0.403 0.265,-0.407 0.278,-0.414C0.291,-0.421 0.301,-0.431 0.31,-0.443C0.319,-0.455 0.325,-0.469 0.33,-0.485C0.335,-0.501 0.337,-0.518 0.337,-0.536ZM0.352,-0.196C0.352,-0.241 0.341,-0.278 0.32,-0.307C0.299,-0.335 0.271,-0.349 0.236,-0.349C0.201,-0.349 0.173,-0.335 0.152,-0.307C0.131,-0.278 0.12,-0.241 0.12,-0.196C0.12,-0.175 0.123,-0.155 0.128,-0.136C0.133,-0.117 0.141,-0.101 0.151,-0.088C0.161,-0.074 0.173,-0.063 0.188,-0.056C0.202,-0.048 0.218,-0.044 0.236,-0.044C0.255,-0.044 0.271,-0.048 0.286,-0.056C0.3,-0.063 0.312,-0.074 0.322,-0.088C0.332,-0.101 0.339,-0.117 0.345,-0.136C0.349,-0.155 0.352,-0.175 0.352,-0.196Z" style="fill:rgb(1,1,1);fill-rule:nonzero;"/>
					</g>
					<g transform="matrix(8.8207,0,0,8.8207,189.364,283.539)">
						<path d="M0.423,-0.495C0.423,-0.463 0.419,-0.431 0.41,-0.399C0.401,-0.366 0.389,-0.333 0.373,-0.299L0.23,-0L0.155,-0L0.31,-0.313L0.308,-0.314C0.286,-0.291 0.255,-0.279 0.216,-0.279C0.196,-0.279 0.176,-0.283 0.156,-0.291C0.136,-0.299 0.118,-0.312 0.102,-0.329C0.086,-0.346 0.073,-0.369 0.063,-0.396C0.053,-0.423 0.048,-0.456 0.048,-0.495C0.048,-0.529 0.053,-0.56 0.062,-0.588C0.07,-0.615 0.083,-0.639 0.1,-0.659C0.116,-0.678 0.135,-0.693 0.159,-0.704C0.182,-0.715 0.207,-0.72 0.236,-0.72C0.295,-0.72 0.341,-0.7 0.374,-0.66C0.407,-0.619 0.423,-0.564 0.423,-0.495ZM0.353,-0.497C0.353,-0.546 0.343,-0.585 0.322,-0.616C0.301,-0.647 0.272,-0.662 0.235,-0.662C0.198,-0.662 0.169,-0.647 0.149,-0.616C0.128,-0.585 0.118,-0.545 0.118,-0.497C0.118,-0.474 0.121,-0.452 0.126,-0.432C0.131,-0.412 0.138,-0.395 0.148,-0.381C0.157,-0.366 0.169,-0.355 0.184,-0.347C0.198,-0.339 0.215,-0.335 0.234,-0.335C0.252,-0.335 0.268,-0.339 0.283,-0.348C0.298,-0.356 0.31,-0.367 0.321,-0.382C0.331,-0.396 0.339,-0.413 0.345,-0.433C0.35,-0.452 0.353,-0.474 0.353,-0.497Z" style="fill:rgb(1,1,1);fill-rule:nonzero;"/>
					</g>
					<g transform="matrix(8.8207,0,0,8.8207,193.51,283.539)">
						<path d="M0.423,-0.495C0.423,-0.463 0.419,-0.431 0.41,-0.399C0.401,-0.366 0.389,-0.333 0.373,-0.299L0.23,-0L0.155,-0L0.31,-0.313L0.308,-0.314C0.286,-0.291 0.255,-0.279 0.216,-0.279C0.196,-0.279 0.176,-0.283 0.156,-0.291C0.136,-0.299 0.118,-0.312 0.102,-0.329C0.086,-0.346 0.073,-0.369 0.063,-0.396C0.053,-0.423 0.048,-0.456 0.048,-0.495C0.048,-0.529 0.053,-0.56 0.062,-0.588C0.07,-0.615 0.083,-0.639 0.1,-0.659C0.116,-0.678 0.135,-0.693 0.159,-0.704C0.182,-0.715 0.207,-0.72 0.236,-0.72C0.295,-0.72 0.341,-0.7 0.374,-0.66C0.407,-0.619 0.423,-0.564 0.423,-0.495ZM0.353,-0.497C0.353,-0.546 0.343,-0.585 0.322,-0.616C0.301,-0.647 0.272,-0.662 0.235,-0.662C0.198,-0.662 0.169,-0.647 0.149,-0.616C0.128,-0.585 0.118,-0.545 0.118,-0.497C0.118,-0.474 0.121,-0.452 0.126,-0.432C0.131,-0.412 0.138,-0.395 0.148,-0.381C0.157,-0.366 0.169,-0.355 0.184,-0.347C0.198,-0.339 0.215,-0.335 0.234,-0.335C0.252,-0.335 0.268,-0.339 0.283,-0.348C0.298,-0.356 0.31,-0.367 0.321,-0.382C0.331,-0.396 0.339,-0.413 0.345,-0.433C0.35,-0.452 0.353,-0.474 0.353,-0.497Z" style="fill:rgb(1,1,1);fill-rule:nonzero;"/>
					</g>
					<g transform="matrix(8.8207,0,0,8.8207,235.143,283.539)">
						<path d="M0.239,-0L0.239,-0.628L0.109,-0.527L0.076,-0.581L0.243,-0.708L0.306,-0.708L0.306,-0L0.239,-0Z" style="fill:rgb(1,1,1);fill-rule:nonzero;"/>
					</g>
					<g transform="matrix(8.8207,0,0,8.8207,239.288,283.539)">
						<path d="M0.423,-0.495C0.423,-0.463 0.419,-0.431 0.41,-0.399C0.401,-0.366 0.389,-0.333 0.373,-0.299L0.23,-0L0.155,-0L0.31,-0.313L0.308,-0.314C0.286,-0.291 0.255,-0.279 0.216,-0.279C0.196,-0.279 0.176,-0.283 0.156,-0.291C0.136,-0.299 0.118,-0.312 0.102,-0.329C0.086,-0.346 0.073,-0.369 0.063,-0.396C0.053,-0.423 0.048,-0.456 0.048,-0.495C0.048,-0.529 0.053,-0.56 0.062,-0.588C0.07,-0.615 0.083,-0.639 0.1,-0.659C0.116,-0.678 0.135,-0.693 0.159,-0.704C0.182,-0.715 0.207,-0.72 0.236,-0.72C0.295,-0.72 0.341,-0.7 0.374,-0.66C0.407,-0.619 0.423,-0.564 0.423,-0.495ZM0.353,-0.497C0.353,-0.546 0.343,-0.585 0.322,-0.616C0.301,-0.647 0.272,-0.662 0.235,-0.662C0.198,-0.662 0.169,-0.647 0.149,-0.616C0.128,-0.585 0.118,-0.545 0.118,-0.497C0.118,-0.474 0.121,-0.452 0.126,-0.432C0.131,-0.412 0.138,-0.395 0.148,-0.381C0.157,-0.366 0.169,-0.355 0.184,-0.347C0.198,-0.339 0.215,-0.335 0.234,-0.335C0.252,-0.335 0.268,-0.339 0.283,-0.348C0.298,-0.356 0.31,-0.367 0.321,-0.382C0.331,-0.396 0.339,-0.413 0.345,-0.433C0.35,-0.452 0.353,-0.474 0.353,-0.497Z" style="fill:rgb(1,1,1);fill-rule:nonzero;"/>
					</g>
					<g transform="matrix(8.8207,0,0,8.8207,243.434,283.539)">
						<path d="M0.239,-0L0.239,-0.628L0.109,-0.527L0.076,-0.581L0.243,-0.708L0.306,-0.708L0.306,-0L0.239,-0Z" style="fill:rgb(1,1,1);fill-rule:nonzero;"/>
					</g>
					<g transform="matrix(8.8207,0,0,8.8207,247.58,283.539)">
						<path d="M0.348,-0.169L0.348,-0L0.285,-0L0.285,-0.169L0.031,-0.169L0.031,-0.234L0.256,-0.708L0.348,-0.708L0.348,-0.229L0.436,-0.229L0.436,-0.169L0.348,-0.169ZM0.286,-0.641L0.284,-0.641L0.094,-0.229L0.286,-0.229L0.286,-0.641Z" style="fill:rgb(1,1,1);fill-rule:nonzero;"/>
					</g>
					<g transform="matrix(8.8207,0,0,8.8207,289.213,283.539)">
						<path d="M0.239,-0L0.239,-0.628L0.109,-0.527L0.076,-0.581L0.243,-0.708L0.306,-0.708L0.306,-0L0.239,-0Z" style="fill:rgb(1,1,1);fill-rule:nonzero;"/>
					</g>
					<g transform="matrix(8.8207,0,0,8.8207,293.358,283.539)">
						<path d="M0.423,-0.495C0.423,-0.463 0.419,-0.431 0.41,-0.399C0.401,-0.366 0.389,-0.333 0.373,-0.299L0.23,-0L0.155,-0L0.31,-0.313L0.308,-0.314C0.286,-0.291 0.255,-0.279 0.216,-0.279C0.196,-0.279 0.176,-0.283 0.156,-0.291C0.136,-0.299 0.118,-0.312 0.102,-0.329C0.086,-0.346 0.073,-0.369 0.063,-0.396C0.053,-0.423 0.048,-0.456 0.048,-0.495C0.048,-0.529 0.053,-0.56 0.062,-0.588C0.07,-0.615 0.083,-0.639 0.1,-0.659C0.116,-0.678 0.135,-0.693 0.159,-0.704C0.182,-0.715 0.207,-0.72 0.236,-0.72C0.295,-0.72 0.341,-0.7 0.374,-0.66C0.407,-0.619 0.423,-0.564 0.423,-0.495ZM0.353,-0.497C0.353,-0.546 0.343,-0.585 0.322,-0.616C0.301,-0.647 0.272,-0.662 0.235,-0.662C0.198,-0.662 0.169,-0.647 0.149,-0.616C0.128,-0.585 0.118,-0.545 0.118,-0.497C0.118,-0.474 0.121,-0.452 0.126,-0.432C0.131,-0.412 0.138,-0.395 0.148,-0.381C0.157,-0.366 0.169,-0.355 0.184,-0.347C0.198,-0.339 0.215,-0.335 0.234,-0.335C0.252,-0.335 0.268,-0.339 0.283,-0.348C0.298,-0.356 0.31,-0.367 0.321,-0.382C0.331,-0.396 0.339,-0.413 0.345,-0.433C0.35,-0.452 0.353,-0.474 0.353,-0.497Z" style="fill:rgb(1,1,1);fill-rule:nonzero;"/>
					</g>
					<g transform="matrix(8.8207,0,0,8.8207,297.504,283.539)">
						<path d="M0.393,-0.535C0.393,-0.513 0.391,-0.492 0.386,-0.473C0.381,-0.453 0.373,-0.434 0.364,-0.415C0.355,-0.396 0.343,-0.376 0.331,-0.357C0.318,-0.337 0.303,-0.316 0.288,-0.293L0.127,-0.062L0.386,-0.062L0.386,-0L0.051,-0L0.051,-0.066L0.244,-0.341C0.268,-0.376 0.287,-0.408 0.301,-0.439C0.315,-0.469 0.322,-0.499 0.322,-0.53C0.322,-0.547 0.32,-0.564 0.316,-0.58C0.312,-0.595 0.306,-0.609 0.298,-0.621C0.289,-0.633 0.279,-0.643 0.267,-0.65C0.254,-0.657 0.24,-0.66 0.223,-0.66C0.194,-0.66 0.171,-0.651 0.153,-0.632C0.134,-0.612 0.122,-0.585 0.115,-0.549L0.049,-0.557C0.058,-0.61 0.078,-0.651 0.109,-0.679C0.14,-0.706 0.179,-0.72 0.227,-0.72C0.255,-0.72 0.279,-0.715 0.3,-0.706C0.321,-0.696 0.338,-0.683 0.352,-0.666C0.365,-0.649 0.376,-0.629 0.383,-0.607C0.39,-0.584 0.393,-0.56 0.393,-0.535Z" style="fill:rgb(1,1,1);fill-rule:nonzero;"/>
					</g>
					<g transform="matrix(8.8207,0,0,8.8207,301.65,283.539)">
						<path d="M0.423,-0.495C0.423,-0.463 0.419,-0.431 0.41,-0.399C0.401,-0.366 0.389,-0.333 0.373,-0.299L0.23,-0L0.155,-0L0.31,-0.313L0.308,-0.314C0.286,-0.291 0.255,-0.279 0.216,-0.279C0.196,-0.279 0.176,-0.283 0.156,-0.291C0.136,-0.299 0.118,-0.312 0.102,-0.329C0.086,-0.346 0.073,-0.369 0.063,-0.396C0.053,-0.423 0.048,-0.456 0.048,-0.495C0.048,-0.529 0.053,-0.56 0.062,-0.588C0.07,-0.615 0.083,-0.639 0.1,-0.659C0.116,-0.678 0.135,-0.693 0.159,-0.704C0.182,-0.715 0.207,-0.72 0.236,-0.72C0.295,-0.72 0.341,-0.7 0.374,-0.66C0.407,-0.619 0.423,-0.564 0.423,-0.495ZM0.353,-0.497C0.353,-0.546 0.343,-0.585 0.322,-0.616C0.301,-0.647 0.272,-0.662 0.235,-0.662C0.198,-0.662 0.169,-0.647 0.149,-0.616C0.128,-0.585 0.118,-0.545 0.118,-0.497C0.118,-0.474 0.121,-0.452 0.126,-0.432C0.131,-0.412 0.138,-0.395 0.148,-0.381C0.157,-0.366 0.169,-0.355 0.184,-0.347C0.198,-0.339 0.215,-0.335 0.234,-0.335C0.252,-0.335 0.268,-0.339 0.283,-0.348C0.298,-0.356 0.31,-0.367 0.321,-0.382C0.331,-0.396 0.339,-0.413 0.345,-0.433C0.35,-0.452 0.353,-0.474 0.353,-0.497Z" style="fill:rgb(1,1,1);fill-rule:nonzero;"/>
					</g>
					<g transform="matrix(8.8207,0,0,8.8207,343.285,283.539)">
						<path d="M0.239,-0L0.239,-0.628L0.109,-0.527L0.076,-0.581L0.243,-0.708L0.306,-0.708L0.306,-0L0.239,-0Z" style="fill:rgb(1,1,1);fill-rule:nonzero;"/>
					</g>
					<g transform="matrix(8.8207,0,0,8.8207,347.431,283.539)">
						<path d="M0.423,-0.495C0.423,-0.463 0.419,-0.431 0.41,-0.399C0.401,-0.366 0.389,-0.333 0.373,-0.299L0.23,-0L0.155,-0L0.31,-0.313L0.308,-0.314C0.286,-0.291 0.255,-0.279 0.216,-0.279C0.196,-0.279 0.176,-0.283 0.156,-0.291C0.136,-0.299 0.118,-0.312 0.102,-0.329C0.086,-0.346 0.073,-0.369 0.063,-0.396C0.053,-0.423 0.048,-0.456 0.048,-0.495C0.048,-0.529 0.053,-0.56 0.062,-0.588C0.07,-0.615 0.083,-0.639 0.1,-0.659C0.116,-0.678 0.135,-0.693 0.159,-0.704C0.182,-0.715 0.207,-0.72 0.236,-0.72C0.295,-0.72 0.341,-0.7 0.374,-0.66C0.407,-0.619 0.423,-0.564 0.423,-0.495ZM0.353,-0.497C0.353,-0.546 0.343,-0.585 0.322,-0.616C0.301,-0.647 0.272,-0.662 0.235,-0.662C0.198,-0.662 0.169,-0.647 0.149,-0.616C0.128,-0.585 0.118,-0.545 0.118,-0.497C0.118,-0.474 0.121,-0.452 0.126,-0.432C0.131,-0.412 0.138,-0.395 0.148,-0.381C0.157,-0.366 0.169,-0.355 0.184,-0.347C0.198,-0.339 0.215,-0.335 0.234,-0.335C0.252,-0.335 0.268,-0.339 0.283,-0.348C0.298,-0.356 0.31,-0.367 0.321,-0.382C0.331,-0.396 0.339,-0.413 0.345,-0.433C0.35,-0.452 0.353,-0.474 0.353,-0.497Z" style="fill:rgb(1,1,1);fill-rule:nonzero;"/>
					</g>
					<g transform="matrix(8.8207,0,0,8.8207,351.577,283.539)">
						<path d="M0.348,-0.169L0.348,-0L0.285,-0L0.285,-0.169L0.031,-0.169L0.031,-0.234L0.256,-0.708L0.348,-0.708L0.348,-0.229L0.436,-0.229L0.436,-0.169L0.348,-0.169ZM0.286,-0.641L0.284,-0.641L0.094,-0.229L0.286,-0.229L0.286,-0.641Z" style="fill:rgb(1,1,1);fill-rule:nonzero;"/>
					</g>
					<g transform="matrix(8.8207,0,0,8.8207,355.722,283.539)">
						<path d="M0.348,-0.169L0.348,-0L0.285,-0L0.285,-0.169L0.031,-0.169L0.031,-0.234L0.256,-0.708L0.348,-0.708L0.348,-0.229L0.436,-0.229L0.436,-0.169L0.348,-0.169ZM0.286,-0.641L0.284,-0.641L0.094,-0.229L0.286,-0.229L0.286,-0.641Z" style="fill:rgb(1,1,1);fill-rule:nonzero;"/>
					</g>
					<g transform="matrix(8.8207,0,0,8.8207,397.355,283.539)">
						<path d="M0.239,-0L0.239,-0.628L0.109,-0.527L0.076,-0.581L0.243,-0.708L0.306,-0.708L0.306,-0L0.239,-0Z" style="fill:rgb(1,1,1);fill-rule:nonzero;"/>
					</g>
					<g transform="matrix(8.8207,0,0,8.8207,401.501,283.539)">
						<path d="M0.423,-0.495C0.423,-0.463 0.419,-0.431 0.41,-0.399C0.401,-0.366 0.389,-0.333 0.373,-0.299L0.23,-0L0.155,-0L0.31,-0.313L0.308,-0.314C0.286,-0.291 0.255,-0.279 0.216,-0.279C0.196,-0.279 0.176,-0.283 0.156,-0.291C0.136,-0.299 0.118,-0.312 0.102,-0.329C0.086,-0.346 0.073,-0.369 0.063,-0.396C0.053,-0.423 0.048,-0.456 0.048,-0.495C0.048,-0.529 0.053,-0.56 0.062,-0.588C0.07,-0.615 0.083,-0.639 0.1,-0.659C0.116,-0.678 0.135,-0.693 0.159,-0.704C0.182,-0.715 0.207,-0.72 0.236,-0.72C0.295,-0.72 0.341,-0.7 0.374,-0.66C0.407,-0.619 0.423,-0.564 0.423,-0.495ZM0.353,-0.497C0.353,-0.546 0.343,-0.585 0.322,-0.616C0.301,-0.647 0.272,-0.662 0.235,-0.662C0.198,-0.662 0.169,-0.647 0.149,-0.616C0.128,-0.585 0.118,-0.545 0.118,-0.497C0.118,-0.474 0.121,-0.452 0.126,-0.432C0.131,-0.412 0.138,-0.395 0.148,-0.381C0.157,-0.366 0.169,-0.355 0.184,-0.347C0.198,-0.339 0.215,-0.335 0.234,-0.335C0.252,-0.335 0.268,-0.339 0.283,-0.348C0.298,-0.356 0.31,-0.367 0.321,-0.382C0.331,-0.396 0.339,-0.413 0.345,-0.433C0.35,-0.452 0.353,-0.474 0.353,-0.497Z" style="fill:rgb(1,1,1);fill-rule:nonzero;"/>
					</g>
					<g transform="matrix(8.8207,0,0,8.8207,405.647,283.539)">
						<path d="M0.406,-0.222C0.406,-0.185 0.402,-0.152 0.393,-0.123C0.384,-0.093 0.371,-0.069 0.355,-0.049C0.338,-0.029 0.319,-0.014 0.296,-0.004C0.273,0.007 0.249,0.012 0.222,0.012C0.178,0.012 0.141,0.001 0.113,-0.021C0.084,-0.043 0.062,-0.074 0.049,-0.114L0.109,-0.136C0.12,-0.109 0.134,-0.087 0.153,-0.072C0.172,-0.057 0.194,-0.049 0.221,-0.049C0.256,-0.049 0.284,-0.064 0.306,-0.095C0.328,-0.125 0.339,-0.167 0.339,-0.22C0.339,-0.271 0.328,-0.312 0.306,-0.343C0.284,-0.374 0.252,-0.39 0.21,-0.39C0.191,-0.39 0.17,-0.387 0.149,-0.381C0.127,-0.374 0.108,-0.366 0.093,-0.356L0.101,-0.708L0.382,-0.708L0.382,-0.647L0.161,-0.647L0.154,-0.426C0.165,-0.431 0.178,-0.436 0.193,-0.44C0.207,-0.443 0.22,-0.445 0.231,-0.445C0.261,-0.445 0.287,-0.44 0.309,-0.429C0.33,-0.418 0.348,-0.402 0.363,-0.383C0.378,-0.363 0.389,-0.339 0.396,-0.312C0.403,-0.285 0.406,-0.255 0.406,-0.222Z" style="fill:rgb(1,1,1);fill-rule:nonzero;"/>
					</g>
					<g transform="matrix(8.8207,0,0,8.8207,409.792,283.539)">
						<path d="M0.423,-0.495C0.423,-0.463 0.419,-0.431 0.41,-0.399C0.401,-0.366 0.389,-0.333 0.373,-0.299L0.23,-0L0.155,-0L0.31,-0.313L0.308,-0.314C0.286,-0.291 0.255,-0.279 0.216,-0.279C0.196,-0.279 0.176,-0.283 0.156,-0.291C0.136,-0.299 0.118,-0.312 0.102,-0.329C0.086,-0.346 0.073,-0.369 0.063,-0.396C0.053,-0.423 0.048,-0.456 0.048,-0.495C0.048,-0.529 0.053,-0.56 0.062,-0.588C0.07,-0.615 0.083,-0.639 0.1,-0.659C0.116,-0.678 0.135,-0.693 0.159,-0.704C0.182,-0.715 0.207,-0.72 0.236,-0.72C0.295,-0.72 0.341,-0.7 0.374,-0.66C0.407,-0.619 0.423,-0.564 0.423,-0.495ZM0.353,-0.497C0.353,-0.546 0.343,-0.585 0.322,-0.616C0.301,-0.647 0.272,-0.662 0.235,-0.662C0.198,-0.662 0.169,-0.647 0.149,-0.616C0.128,-0.585 0.118,-0.545 0.118,-0.497C0.118,-0.474 0.121,-0.452 0.126,-0.432C0.131,-0.412 0.138,-0.395 0.148,-0.381C0.157,-0.366 0.169,-0.355 0.184,-0.347C0.198,-0.339 0.215,-0.335 0.234,-0.335C0.252,-0.335 0.268,-0.339 0.283,-0.348C0.298,-0.356 0.31,-0.367 0.321,-0.382C0.331,-0.396 0.339,-0.413 0.345,-0.433C0.35,-0.452 0.353,-0.474 0.353,-0.497Z" style="fill:rgb(1,1,1);fill-rule:nonzero;"/>
					</g>
					<g transform="matrix(0,-1,-1,0,427.764,199.27)">
						<path d="M-70.801,70.801L70.801,70.801" style="fill:none;fill-rule:nonzero;stroke:rgb(147,149,152);stroke-width:0.5px;"/>
					</g>
					<g transform="matrix(0,-1,-1,0,438.36,199.27)">
						<path d="M-70.801,70.801L70.801,70.801" style="fill:none;fill-rule:nonzero;stroke:rgb(147,149,152);stroke-width:0.5px;"/>
					</g>
					<g transform="matrix(0,-1,-1,0,448.956,199.27)">
						<path d="M-70.801,70.801L70.801,70.801" style="fill:none;fill-rule:nonzero;stroke:rgb(147,149,152);stroke-width:0.5px;"/>
					</g>
					<g transform="matrix(0,-1,-1,0,459.556,199.27)">
						<path d="M-70.801,70.801L70.801,70.801" style="fill:none;fill-rule:nonzero;stroke:rgb(147,149,152);stroke-width:0.5px;"/>
					</g>
					<g transform="matrix(0,-1,-1,0,470.152,199.27)">
						<path d="M-70.801,70.801L70.801,70.801" style="fill:none;fill-rule:nonzero;stroke:rgb(147,149,152);stroke-width:0.5px;"/>
					</g>
					<g transform="matrix(0,-1,-1,0,480.748,199.27)">
						<path d="M-70.801,70.801L70.801,70.801" style="fill:none;fill-rule:nonzero;stroke:rgb(147,149,152);stroke-width:0.5px;"/>
					</g>
					<g transform="matrix(0,-1,-1,0,491.344,199.27)">
						<path d="M-70.801,70.801L70.801,70.801" style="fill:none;fill-rule:nonzero;stroke:rgb(147,149,152);stroke-width:0.5px;"/>
					</g>
					<g transform="matrix(1,0,0,1,81.4459,222.87)">
						<path d="M0,0L342.634,0" style="fill:none;fill-rule:nonzero;stroke:rgb(147,149,152);stroke-width:0.5px;"/>
					</g>
					<g transform="matrix(1,0,0,1,81.4459,199.27)">
						<path d="M0,0L342.634,0" style="fill:none;fill-rule:nonzero;stroke:rgb(147,149,152);stroke-width:0.5px;"/>
					</g>
					<g transform="matrix(1,0,0,1,81.4459,175.67)">
						<path d="M0,0L342.634,0" style="fill:none;fill-rule:nonzero;stroke:rgb(147,149,152);stroke-width:0.5px;"/>
					</g>
					<g transform="matrix(1,0,0,1,81.4459,152.07)">
						<path d="M0,0L342.634,0" style="fill:none;fill-rule:nonzero;stroke:rgb(147,149,152);stroke-width:0.5px;"/>
					</g>
					<g transform="matrix(0,-1,-1,0,162.842,199.27)">
						<path d="M-70.801,70.801L70.801,70.801" style="fill:none;fill-rule:nonzero;stroke:rgb(147,149,152);stroke-width:0.5px;"/>
					</g>
					<g transform="matrix(0,-1,-1,0,173.438,199.27)">
						<path d="M-70.801,70.801L70.801,70.801" style="fill:none;fill-rule:nonzero;stroke:rgb(147,149,152);stroke-width:0.5px;"/>
					</g>
					<g transform="matrix(0,-1,-1,0,184.034,199.27)">
						<path d="M-70.801,70.801L70.801,70.801" style="fill:none;fill-rule:nonzero;stroke:rgb(147,149,152);stroke-width:0.5px;"/>
					</g>
					<g transform="matrix(0,-1,-1,0,194.629,199.27)">
						<path d="M-70.801,70.801L70.801,70.801" style="fill:none;fill-rule:nonzero;stroke:rgb(147,149,152);stroke-width:0.5px;"/>
					</g>
					<g transform="matrix(0,-1,-1,0,205.23,199.27)">
						<path d="M-70.801,70.801L70.801,70.801" style="fill:none;fill-rule:nonzero;stroke:rgb(147,149,152);stroke-width:0.5px;"/>
					</g>
					<g transform="matrix(0,-1,-1,0,215.826,199.27)">
						<path d="M-70.801,70.801L70.801,70.801" style="fill:none;fill-rule:nonzero;stroke:rgb(147,149,152);stroke-width:0.5px;"/>
					</g>
					<g transform="matrix(0,-1,-1,0,226.421,199.27)">
						<path d="M-70.801,70.801L70.801,70.801" style="fill:none;fill-rule:nonzero;stroke:rgb(147,149,152);stroke-width:0.5px;"/>
					</g>
					<g transform="matrix(0,-1,-1,0,237.017,199.27)">
						<path d="M-70.801,70.801L70.801,70.801" style="fill:none;fill-rule:nonzero;stroke:rgb(147,149,152);stroke-width:0.5px;"/>
					</g>
					<g transform="matrix(0,-1,-1,0,247.618,199.27)">
						<path d="M-70.801,70.801L70.801,70.801" style="fill:none;fill-rule:nonzero;stroke:rgb(147,149,152);stroke-width:0.5px;"/>
					</g>
					<g transform="matrix(0,-1,-1,0,258.213,199.27)">
						<path d="M-70.801,70.801L70.801,70.801" style="fill:none;fill-rule:nonzero;stroke:rgb(147,149,152);stroke-width:0.5px;"/>
					</g>
					<g transform="matrix(0,-1,-1,0,268.809,199.27)">
						<path d="M-70.801,70.801L70.801,70.801" style="fill:none;fill-rule:nonzero;stroke:rgb(147,149,152);stroke-width:0.5px;"/>
					</g>
					<g transform="matrix(0,-1,-1,0,279.405,199.27)">
						<path d="M-70.801,70.801L70.801,70.801" style="fill:none;fill-rule:nonzero;stroke:rgb(147,149,152);stroke-width:0.5px;"/>
					</g>
					<g transform="matrix(0,-1,-1,0,290.005,199.27)">
						<path d="M-70.801,70.801L70.801,70.801" style="fill:none;fill-rule:nonzero;stroke:rgb(147,149,152);stroke-width:0.5px;"/>
					</g>
					<g transform="matrix(0,-1,-1,0,300.601,199.27)">
						<path d="M-70.801,70.801L70.801,70.801" style="fill:none;fill-rule:nonzero;stroke:rgb(147,149,152);stroke-width:0.5px;"/>
					</g>
					<g transform="matrix(0,-1,-1,0,311.197,199.27)">
						<path d="M-70.801,70.801L70.801,70.801" style="fill:none;fill-rule:nonzero;stroke:rgb(147,149,152);stroke-width:0.5px;"/>
					</g>
					<g transform="matrix(0,-1,-1,0,321.793,199.27)">
						<path d="M-70.801,70.801L70.801,70.801" style="fill:none;fill-rule:nonzero;stroke:rgb(147,149,152);stroke-width:0.5px;"/>
					</g>
					<g transform="matrix(0,-1,-1,0,332.393,199.27)">
						<path d="M-70.801,70.801L70.801,70.801" style="fill:none;fill-rule:nonzero;stroke:rgb(147,149,152);stroke-width:0.5px;"/>
					</g>
					<g transform="matrix(0,-1,-1,0,342.989,199.27)">
						<path d="M-70.801,70.801L70.801,70.801" style="fill:none;fill-rule:nonzero;stroke:rgb(147,149,152);stroke-width:0.5px;"/>
					</g>
					<g transform="matrix(0,-1,-1,0,353.584,199.27)">
						<path d="M-70.801,70.801L70.801,70.801" style="fill:none;fill-rule:nonzero;stroke:rgb(147,149,152);stroke-width:0.5px;"/>
					</g>
					<g transform="matrix(0,-1,-1,0,364.18,199.27)">
						<path d="M-70.801,70.801L70.801,70.801" style="fill:none;fill-rule:nonzero;stroke:rgb(147,149,152);stroke-width:0.5px;"/>
					</g>
					<g transform="matrix(0,-1,-1,0,374.781,199.27)">
						<path d="M-70.801,70.801L70.801,70.801" style="fill:none;fill-rule:nonzero;stroke:rgb(147,149,152);stroke-width:0.5px;"/>
					</g>
					<g transform="matrix(0,-1,-1,0,385.376,199.27)">
						<path d="M-70.801,70.801L70.801,70.801" style="fill:none;fill-rule:nonzero;stroke:rgb(147,149,152);stroke-width:0.5px;"/>
					</g>
					<g transform="matrix(0,-1,-1,0,395.972,199.27)">
						<path d="M-70.801,70.801L70.801,70.801" style="fill:none;fill-rule:nonzero;stroke:rgb(147,149,152);stroke-width:0.5px;"/>
					</g>
					<g transform="matrix(0,-1,-1,0,406.568,199.27)">
						<path d="M-70.801,70.801L70.801,70.801" style="fill:none;fill-rule:nonzero;stroke:rgb(147,149,152);stroke-width:0.5px;"/>
					</g>
					<g transform="matrix(0,-1,-1,0,417.168,199.27)">
						<path d="M-70.801,70.801L70.801,70.801" style="fill:none;fill-rule:nonzero;stroke:rgb(147,149,152);stroke-width:0.5px;"/>
					</g>
					<g transform="matrix(1,0,0,1,77.8767,128.47)">
						<path d="M0,0L3.569,0" style="fill:none;fill-rule:nonzero;stroke:rgb(147,149,152);stroke-width:0.5px;"/>
					</g>
					<g transform="matrix(1,0,0,1,74.3077,128.47)">
						<path d="M0,0L7.138,0" style="fill:none;fill-rule:nonzero;stroke:rgb(147,149,152);stroke-width:0.5px;"/>
					</g>
					<g transform="matrix(0,-1,-1,0,94.0081,272.037)">
						<path d="M-1.966,1.966L1.966,1.966" style="fill:none;fill-rule:nonzero;stroke:rgb(147,149,152);stroke-width:0.5px;"/>
					</g>
					<g transform="matrix(0,-1,-1,0,104.604,272.037)">
						<path d="M-1.966,1.966L1.966,1.966" style="fill:none;fill-rule:nonzero;stroke:rgb(147,149,152);stroke-width:0.5px;"/>
					</g>
					<g transform="matrix(0,-1,-1,0,115.2,272.037)">
						<path d="M-1.966,1.966L1.966,1.966" style="fill:none;fill-rule:nonzero;stroke:rgb(147,149,152);stroke-width:0.5px;"/>
					</g>
					<g transform="matrix(0,-1,-1,0,125.795,272.037)">
						<path d="M-1.966,1.966L1.966,1.966" style="fill:none;fill-rule:nonzero;stroke:rgb(147,149,152);stroke-width:0.5px;"/>
					</g>
					<g transform="matrix(0,-1,-1,0,136.396,272.037)">
						<path d="M-1.966,1.966L1.966,1.966" style="fill:none;fill-rule:nonzero;stroke:rgb(147,149,152);stroke-width:0.5px;"/>
					</g>
					<g transform="matrix(0,-1,-1,0,146.992,272.037)">
						<path d="M-1.966,1.966L1.966,1.966" style="fill:none;fill-rule:nonzero;stroke:rgb(147,149,152);stroke-width:0.5px;"/>
					</g>
					<g transform="matrix(0,-1,-1,0,157.587,272.037)">
						<path d="M-1.966,1.966L1.966,1.966" style="fill:none;fill-rule:nonzero;stroke:rgb(147,149,152);stroke-width:0.5px;"/>
					</g>
					<g transform="matrix(0,-1,-1,0,168.183,272.037)">
						<path d="M-1.966,1.966L1.966,1.966" style="fill:none;fill-rule:nonzero;stroke:rgb(147,149,152);stroke-width:0.5px;"/>
					</g>
					<g transform="matrix(0,-1,-1,0,178.784,272.037)">
						<path d="M-1.966,1.966L1.966,1.966" style="fill:none;fill-rule:nonzero;stroke:rgb(147,149,152);stroke-width:0.5px;"/>
					</g>
					<g transform="matrix(0,-1,-1,0,189.379,272.037)">
						<path d="M-1.966,1.966L1.966,1.966" style="fill:none;fill-rule:nonzero;stroke:rgb(147,149,152);stroke-width:0.5px;"/>
					</g>
					<g transform="matrix(0,-1,-1,0,199.975,272.037)">
						<path d="M-1.966,1.966L1.966,1.966" style="fill:none;fill-rule:nonzero;stroke:rgb(147,149,152);stroke-width:0.5px;"/>
					</g>
					<g transform="matrix(0,-1,-1,0,210.571,272.037)">
						<path d="M-1.966,1.966L1.966,1.966" style="fill:none;fill-rule:nonzero;stroke:rgb(147,149,152);stroke-width:0.5px;"/>
					</g>
					<g transform="matrix(0,-1,-1,0,221.171,272.037)">
						<path d="M-1.966,1.966L1.966,1.966" style="fill:none;fill-rule:nonzero;stroke:rgb(147,149,152);stroke-width:0.5px;"/>
					</g>
					<g transform="matrix(0,-1,-1,0,231.767,272.037)">
						<path d="M-1.966,1.966L1.966,1.966" style="fill:none;fill-rule:nonzero;stroke:rgb(147,149,152);stroke-width:0.5px;"/>
					</g>
					<g transform="matrix(0,-1,-1,0,242.363,272.037)">
						<path d="M-1.966,1.966L1.966,1.966" style="fill:none;fill-rule:nonzero;stroke:rgb(147,149,152);stroke-width:0.5px;"/>
					</g>
					<g transform="matrix(0,-1,-1,0,252.959,272.037)">
						<path d="M-1.966,1.966L1.966,1.966" style="fill:none;fill-rule:nonzero;stroke:rgb(147,149,152);stroke-width:0.5px;"/>
					</g>
					<g transform="matrix(0,-1,-1,0,263.559,272.037)">
						<path d="M-1.966,1.966L1.966,1.966" style="fill:none;fill-rule:nonzero;stroke:rgb(147,149,152);stroke-width:0.5px;"/>
					</g>
					<g transform="matrix(0,-1,-1,0,274.155,272.037)">
						<path d="M-1.966,1.966L1.966,1.966" style="fill:none;fill-rule:nonzero;stroke:rgb(147,149,152);stroke-width:0.5px;"/>
					</g>
					<g transform="matrix(0,-1,-1,0,284.75,272.037)">
						<path d="M-1.966,1.966L1.966,1.966" style="fill:none;fill-rule:nonzero;stroke:rgb(147,149,152);stroke-width:0.5px;"/>
					</g>
					<g transform="matrix(0,-1,-1,0,295.346,272.037)">
						<path d="M-1.966,1.966L1.966,1.966" style="fill:none;fill-rule:nonzero;stroke:rgb(147,149,152);stroke-width:0.5px;"/>
					</g>
					<g transform="matrix(0,-1,-1,0,305.947,272.037)">
						<path d="M-1.966,1.966L1.966,1.966" style="fill:none;fill-rule:nonzero;stroke:rgb(147,149,152);stroke-width:0.5px;"/>
					</g>
					<g transform="matrix(0,-1,-1,0,316.542,272.037)">
						<path d="M-1.966,1.966L1.966,1.966" style="fill:none;fill-rule:nonzero;stroke:rgb(147,149,152);stroke-width:0.5px;"/>
					</g>
					<g transform="matrix(0,-1,-1,0,327.138,272.037)">
						<path d="M-1.966,1.966L1.966,1.966" style="fill:none;fill-rule:nonzero;stroke:rgb(147,149,152);stroke-width:0.5px;"/>
					</g>
					<g transform="matrix(0,-1,-1,0,337.734,272.037)">
						<path d="M-1.966,1.966L1.966,1.966" style="fill:none;fill-rule:nonzero;stroke:rgb(147,149,152);stroke-width:0.5px;"/>
					</g>
					<g transform="matrix(0,-1,-1,0,348.334,272.037)">
						<path d="M-1.966,1.966L1.966,1.966" style="fill:none;fill-rule:nonzero;stroke:rgb(147,149,152);stroke-width:0.5px;"/>
					</g>
					<g transform="matrix(0,-1,-1,0,358.93,272.037)">
						<path d="M-1.966,1.966L1.966,1.966" style="fill:none;fill-rule:nonzero;stroke:rgb(147,149,152);stroke-width:0.5px;"/>
					</g>
					<g transform="matrix(0,-1,-1,0,369.526,272.037)">
						<path d="M-1.966,1.966L1.966,1.966" style="fill:none;fill-rule:nonzero;stroke:rgb(147,149,152);stroke-width:0.5px;"/>
					</g>
					<g transform="matrix(0,-1,-1,0,380.122,272.037)">
						<path d="M-1.966,1.966L1.966,1.966" style="fill:none;fill-rule:nonzero;stroke:rgb(147,149,152);stroke-width:0.5px;"/>
					</g>
					<g transform="matrix(0,-1,-1,0,390.722,272.037)">
						<path d="M-1.966,1.966L1.966,1.966" style="fill:none;fill-rule:nonzero;stroke:rgb(147,149,152);stroke-width:0.5px;"/>
					</g>
					<g transform="matrix(0,-1,-1,0,401.318,272.037)">
						<path d="M-1.966,1.966L1.966,1.966" style="fill:none;fill-rule:nonzero;stroke:rgb(147,149,152);stroke-width:0.5px;"/>
					</g>
					<g transform="matrix(0,-1,-1,0,411.914,272.037)">
						<path d="M-1.966,1.966L1.966,1.966" style="fill:none;fill-rule:nonzero;stroke:rgb(147,149,152);stroke-width:0.5px;"/>
					</g>
					<g transform="matrix(0,-1,-1,0,422.51,272.037)">
						<path d="M-1.966,1.966L1.966,1.966" style="fill:none;fill-rule:nonzero;stroke:rgb(147,149,152);stroke-width:0.5px;"/>
					</g>
					<g transform="matrix(0,-1,-1,0,83.4124,272.037)">
						<path d="M-1.966,1.966L1.966,1.966" style="fill:none;fill-rule:nonzero;stroke:rgb(147,149,152);stroke-width:0.5px;"/>
					</g>
					<g transform="matrix(1,0,0,1,81.4459,246.47)">
						<path d="M0,0L342.634,0" style="fill:none;fill-rule:nonzero;stroke:rgb(147,149,152);stroke-width:0.5px;"/>
					</g>
					<g transform="matrix(1,0,0,1,77.8767,270.071)">
						<path d="M0,0L3.569,0" style="fill:none;fill-rule:nonzero;stroke:rgb(147,149,152);stroke-width:0.5px;"/>
					</g>
					<g transform="matrix(1,0,0,1,77.8767,246.47)">
						<path d="M0,0L3.569,0" style="fill:none;fill-rule:nonzero;stroke:rgb(147,149,152);stroke-width:0.5px;"/>
					</g>
					<g transform="matrix(1,0,0,1,77.8767,222.87)">
						<path d="M0,0L3.569,0" style="fill:none;fill-rule:nonzero;stroke:rgb(147,149,152);stroke-width:0.5px;"/>
					</g>
					<g transform="matrix(1,0,0,1,77.8767,199.27)">
						<path d="M0,0L3.569,0" style="fill:none;fill-rule:nonzero;stroke:rgb(147,149,152);stroke-width:0.5px;"/>
					</g>
					<g transform="matrix(1,0,0,1,77.8767,175.67)">
						<path d="M0,0L3.569,0" style="fill:none;fill-rule:nonzero;stroke:rgb(147,149,152);stroke-width:0.5px;"/>
					</g>
					<g transform="matrix(1,0,0,1,77.8767,152.07)">
						<path d="M0,0L3.569,0" style="fill:none;fill-rule:nonzero;stroke:rgb(147,149,152);stroke-width:0.5px;"/>
					</g>
					<g transform="matrix(1,0,0,1,74.3077,270.071)">
						<path d="M0,0L7.138,0" style="fill:none;fill-rule:nonzero;stroke:rgb(147,149,152);stroke-width:0.5px;"/>
					</g>
					<g transform="matrix(1,0,0,1,74.3077,246.47)">
						<path d="M0,0L7.138,0" style="fill:none;fill-rule:nonzero;stroke:rgb(147,149,152);stroke-width:0.5px;"/>
					</g>
					<g transform="matrix(1,0,0,1,74.3077,222.87)">
						<path d="M0,0L7.138,0" style="fill:none;fill-rule:nonzero;stroke:rgb(147,149,152);stroke-width:0.5px;"/>
					</g>
					<g transform="matrix(1,0,0,1,74.3077,199.27)">
						<path d="M0,0L7.138,0" style="fill:none;fill-rule:nonzero;stroke:rgb(147,149,152);stroke-width:0.5px;"/>
					</g>
					<g transform="matrix(1,0,0,1,74.3077,175.67)">
						<path d="M0,0L7.138,0" style="fill:none;fill-rule:nonzero;stroke:rgb(147,149,152);stroke-width:0.5px;"/>
					</g>
					<g transform="matrix(1,0,0,1,74.3077,152.07)">
						<path d="M0,0L7.138,0" style="fill:none;fill-rule:nonzero;stroke:rgb(147,149,152);stroke-width:0.5px;"/>
					</g>
					<g transform="matrix(1,0,0,1,83.2118,270.071)">
						<path d="M0,0L3.532,0" style="fill:none;fill-rule:nonzero;stroke:rgb(147,149,152);stroke-width:0.5px;"/>
					</g>
					<g transform="matrix(1,0,0,1,81.4459,270.071)">
						<path d="M0,0L342.634,0" style="fill:none;fill-rule:nonzero;stroke:black;stroke-width:1px;"/>
					</g>
					<g transform="matrix(1,0,0,1,81.4459,128.47)">
						<path d="M0,0L342.634,0" style="fill:none;fill-rule:nonzero;stroke:black;stroke-width:1px;"/>
					</g>
					<g transform="matrix(0,-1,-1,0,152.246,199.27)">
						<path d="M-70.801,70.801L70.801,70.801" style="fill:none;fill-rule:nonzero;stroke:black;stroke-width:1px;"/>
					</g>
					<g transform="matrix(0,-1,-1,0,494.88,199.27)">
						<path d="M-70.801,70.801L70.801,70.801" style="fill:none;fill-rule:nonzero;stroke:black;stroke-width:1px;"/>
					</g>
					<g transform="matrix(1,0,0,1,422.309,145.463)">
						<path d="M0,117.053L-3.532,122.718L-7.063,118.943L-10.596,118.943L-14.128,119.414L-17.66,121.775L-21.191,120.83L-24.723,120.83L-28.256,121.302L-31.788,123.191L-35.319,122.718L-38.851,123.191L-42.387,120.83L-45.92,117.998L-49.452,118.943L-52.984,118.943L-56.515,112.807L-60.047,105.253L-63.58,100.534L-67.111,99.118L-70.643,101.95L-74.175,99.118L-77.707,86.846L-81.239,103.365L-84.776,92.981L-88.308,92.511L-91.839,101.479L-95.371,108.085L-98.904,71.269L-102.435,90.15L-105.967,98.175L-109.499,102.42L-113.031,101.95L-116.563,106.198L-120.095,106.669L-123.627,60.885L-127.163,97.23L-130.695,95.342L-134.227,84.485L-137.759,93.927L-141.291,103.837L-144.823,97.23L-148.354,102.895L-151.886,104.311L-155.419,106.669L-158.951,83.069L-162.482,93.453L-166.014,67.494L-169.546,104.311L-173.083,102.895L-176.615,113.279L-180.147,119.414L-183.678,80.711L-187.21,57.582L-190.743,61.83L-194.275,70.327L-197.806,67.966L-201.338,63.717L-204.87,7.078L-208.402,55.221L-211.934,9.437L-215.471,54.278L-219.002,2.83L-222.534,-4.722L-226.067,10.853L-229.599,34.453L-233.13,39.646L-236.662,27.845L-240.194,90.15L-243.726,30.207L-247.258,58.527L-250.79,51.446L-254.322,97.23L-257.858,0.942L-261.391,25.484L-264.922,115.165L-268.454,48.613L-271.986,115.165L-275.518,68.436L-279.049,80.711L-282.582,-7.554L-286.114,102.895L-289.646,124.607L-293.177,124.607L-296.71,93.453L-300.246,114.221L-303.778,114.695L-307.31,124.607L-314.373,124.607L-317.906,108.559L-321.438,124.607L-324.97,56.166L-328.501,124.607L-335.566,124.607" style="fill:none;fill-rule:nonzero;stroke:black;stroke-width:1px;"/>
					</g>
				</g>
			</g>
		</g>
	</g>
	<g transform="matrix(1,0,0,1,0,7)">
		<g xmlns="" id="Layer3">
			<g transform="matrix(25,0,0,25,198.36,43.4892)">
				<path d="M0.533,-0.438C0.533,-0.378 0.526,-0.321 0.511,-0.268C0.496,-0.215 0.475,-0.168 0.446,-0.129C0.417,-0.089 0.382,-0.058 0.341,-0.035C0.3,-0.012 0.252,-0 0.198,-0L0.038,-0L0.161,-0.708L0.321,-0.708C0.358,-0.708 0.389,-0.701 0.416,-0.688C0.443,-0.675 0.465,-0.656 0.482,-0.632C0.499,-0.608 0.512,-0.58 0.521,-0.547C0.529,-0.514 0.533,-0.477 0.533,-0.438ZM0.446,-0.433C0.446,-0.496 0.434,-0.545 0.411,-0.58C0.388,-0.615 0.353,-0.633 0.307,-0.633L0.232,-0.633L0.136,-0.075L0.211,-0.075C0.246,-0.075 0.278,-0.085 0.307,-0.104C0.335,-0.123 0.36,-0.148 0.381,-0.181C0.402,-0.214 0.418,-0.252 0.429,-0.295C0.44,-0.338 0.446,-0.384 0.446,-0.433Z" style="fill:rgb(35,31,32);fill-rule:nonzero;"/>
			</g>
			<g transform="matrix(25,0,0,25,211.985,43.4892)">
				<path d="M0.401,-0.355C0.401,-0.348 0.401,-0.341 0.401,-0.334C0.4,-0.327 0.4,-0.318 0.399,-0.309C0.398,-0.299 0.397,-0.288 0.395,-0.275C0.393,-0.262 0.391,-0.247 0.388,-0.229L0.127,-0.229C0.126,-0.219 0.125,-0.209 0.124,-0.2C0.123,-0.19 0.122,-0.18 0.122,-0.171C0.122,-0.138 0.128,-0.111 0.14,-0.09C0.152,-0.069 0.171,-0.059 0.198,-0.059C0.221,-0.059 0.24,-0.066 0.256,-0.08C0.271,-0.094 0.285,-0.111 0.296,-0.13L0.354,-0.093C0.335,-0.061 0.313,-0.035 0.287,-0.014C0.26,0.007 0.228,0.017 0.189,0.017C0.142,0.017 0.106,0.001 0.079,-0.031C0.052,-0.062 0.039,-0.107 0.039,-0.166C0.039,-0.209 0.044,-0.251 0.055,-0.294C0.066,-0.336 0.081,-0.374 0.101,-0.407C0.12,-0.44 0.144,-0.466 0.172,-0.487C0.2,-0.508 0.231,-0.518 0.265,-0.518C0.289,-0.518 0.31,-0.514 0.327,-0.506C0.344,-0.498 0.359,-0.487 0.37,-0.473C0.381,-0.458 0.389,-0.441 0.394,-0.421C0.399,-0.401 0.401,-0.379 0.401,-0.355ZM0.324,-0.353C0.324,-0.381 0.319,-0.403 0.309,-0.42C0.298,-0.437 0.282,-0.445 0.259,-0.445C0.242,-0.445 0.226,-0.44 0.213,-0.43C0.2,-0.419 0.188,-0.407 0.178,-0.392C0.168,-0.377 0.16,-0.36 0.154,-0.343C0.147,-0.326 0.143,-0.31 0.14,-0.296L0.318,-0.296C0.322,-0.318 0.324,-0.337 0.324,-0.353Z" style="fill:rgb(35,31,32);fill-rule:nonzero;"/>
			</g>
			<g transform="matrix(25,0,0,25,222.61,43.4892)">
				<path d="M0.37,-0.385C0.37,-0.373 0.369,-0.361 0.368,-0.349C0.367,-0.337 0.365,-0.324 0.362,-0.309L0.327,-0.105C0.326,-0.099 0.324,-0.091 0.323,-0.081C0.322,-0.071 0.32,-0.061 0.319,-0.051C0.318,-0.04 0.316,-0.03 0.315,-0.021C0.314,-0.012 0.313,-0.005 0.313,-0L0.244,-0C0.244,-0.005 0.245,-0.011 0.246,-0.018C0.247,-0.025 0.248,-0.033 0.249,-0.041C0.25,-0.049 0.252,-0.057 0.253,-0.065C0.254,-0.073 0.255,-0.08 0.256,-0.085L0.254,-0.085C0.241,-0.054 0.224,-0.029 0.203,-0.013C0.182,0.005 0.155,0.013 0.123,0.013C0.094,0.013 0.07,0.003 0.051,-0.016C0.031,-0.035 0.021,-0.065 0.021,-0.105C0.021,-0.145 0.028,-0.178 0.043,-0.205C0.058,-0.231 0.076,-0.252 0.099,-0.268C0.122,-0.283 0.147,-0.294 0.174,-0.301C0.201,-0.307 0.228,-0.31 0.254,-0.31L0.288,-0.31C0.291,-0.329 0.294,-0.342 0.295,-0.35C0.296,-0.358 0.296,-0.365 0.296,-0.37C0.296,-0.397 0.29,-0.417 0.278,-0.43C0.266,-0.442 0.249,-0.448 0.228,-0.448C0.209,-0.448 0.191,-0.443 0.174,-0.434C0.156,-0.425 0.14,-0.412 0.126,-0.397L0.09,-0.447C0.109,-0.468 0.133,-0.486 0.161,-0.499C0.189,-0.511 0.216,-0.518 0.242,-0.518C0.286,-0.518 0.318,-0.506 0.339,-0.483C0.36,-0.46 0.37,-0.427 0.37,-0.385ZM0.242,-0.248C0.225,-0.248 0.207,-0.246 0.19,-0.242C0.173,-0.237 0.157,-0.23 0.144,-0.22C0.13,-0.21 0.119,-0.197 0.11,-0.18C0.101,-0.163 0.097,-0.142 0.097,-0.117C0.097,-0.095 0.102,-0.079 0.113,-0.069C0.123,-0.058 0.136,-0.053 0.151,-0.053C0.169,-0.053 0.185,-0.058 0.199,-0.069C0.212,-0.08 0.224,-0.093 0.235,-0.109C0.245,-0.125 0.253,-0.143 0.26,-0.162C0.266,-0.181 0.271,-0.2 0.274,-0.218L0.28,-0.248L0.242,-0.248Z" style="fill:rgb(35,31,32);fill-rule:nonzero;"/>
			</g>
			<g transform="matrix(25,0,0,25,232.685,43.4892)">
				<path d="M0.273,-0.435L0.189,-0.435L0.139,-0.141C0.138,-0.134 0.137,-0.128 0.136,-0.121C0.135,-0.114 0.135,-0.108 0.135,-0.103C0.135,-0.086 0.138,-0.075 0.145,-0.069C0.152,-0.063 0.162,-0.06 0.175,-0.06C0.181,-0.06 0.188,-0.061 0.195,-0.063C0.202,-0.064 0.208,-0.066 0.213,-0.068L0.205,-0.003C0.196,0 0.187,0.003 0.177,0.005C0.167,0.007 0.157,0.008 0.148,0.008C0.115,0.008 0.091,-0 0.076,-0.017C0.061,-0.034 0.053,-0.056 0.053,-0.084C0.053,-0.096 0.054,-0.11 0.057,-0.125L0.111,-0.435L0.042,-0.435L0.053,-0.501L0.12,-0.501L0.143,-0.635L0.222,-0.635L0.2,-0.501L0.285,-0.501L0.273,-0.435Z" style="fill:rgb(35,31,32);fill-rule:nonzero;"/>
			</g>
			<g transform="matrix(25,0,0,25,239.135,43.4892)">
				<path d="M0.432,-0.396C0.432,-0.387 0.431,-0.375 0.43,-0.361C0.429,-0.347 0.427,-0.333 0.424,-0.32L0.369,-0L0.287,-0L0.342,-0.32C0.343,-0.329 0.345,-0.339 0.346,-0.348C0.347,-0.357 0.348,-0.367 0.348,-0.376C0.348,-0.395 0.344,-0.412 0.337,-0.425C0.329,-0.438 0.314,-0.445 0.292,-0.445C0.277,-0.445 0.263,-0.441 0.25,-0.433C0.236,-0.425 0.224,-0.414 0.213,-0.4C0.202,-0.386 0.192,-0.37 0.184,-0.351C0.176,-0.332 0.17,-0.311 0.166,-0.288L0.116,-0L0.034,-0L0.165,-0.756L0.247,-0.756L0.187,-0.414L0.189,-0.414C0.202,-0.443 0.22,-0.467 0.244,-0.488C0.268,-0.508 0.296,-0.518 0.327,-0.518C0.346,-0.518 0.363,-0.515 0.376,-0.508C0.389,-0.501 0.4,-0.491 0.409,-0.48C0.417,-0.469 0.423,-0.456 0.427,-0.441C0.43,-0.426 0.432,-0.411 0.432,-0.396Z" style="fill:rgb(35,31,32);fill-rule:nonzero;"/>
			</g>
			<g transform="matrix(25,0,0,25,255.835,43.4892)">
				<path d="M0.304,-0.429C0.301,-0.43 0.299,-0.43 0.296,-0.431C0.293,-0.431 0.29,-0.431 0.287,-0.431C0.271,-0.431 0.256,-0.426 0.242,-0.416C0.228,-0.405 0.215,-0.392 0.204,-0.376C0.193,-0.359 0.183,-0.34 0.175,-0.319C0.167,-0.298 0.161,-0.276 0.157,-0.254L0.113,-0L0.031,-0L0.096,-0.374C0.097,-0.379 0.098,-0.388 0.1,-0.4C0.102,-0.412 0.104,-0.425 0.106,-0.438C0.108,-0.451 0.11,-0.464 0.112,-0.476C0.113,-0.488 0.114,-0.496 0.115,-0.501L0.194,-0.501C0.193,-0.496 0.192,-0.489 0.191,-0.48C0.19,-0.47 0.188,-0.46 0.187,-0.449C0.185,-0.438 0.183,-0.428 0.181,-0.418C0.179,-0.408 0.178,-0.4 0.177,-0.395L0.18,-0.395C0.195,-0.436 0.215,-0.466 0.238,-0.485C0.261,-0.504 0.286,-0.514 0.311,-0.514C0.316,-0.514 0.32,-0.514 0.322,-0.513L0.304,-0.429Z" style="fill:rgb(35,31,32);fill-rule:nonzero;"/>
			</g>
			<g transform="matrix(25,0,0,25,262.585,43.4892)">
				<path d="M0.37,-0.385C0.37,-0.373 0.369,-0.361 0.368,-0.349C0.367,-0.337 0.365,-0.324 0.362,-0.309L0.327,-0.105C0.326,-0.099 0.324,-0.091 0.323,-0.081C0.322,-0.071 0.32,-0.061 0.319,-0.051C0.318,-0.04 0.316,-0.03 0.315,-0.021C0.314,-0.012 0.313,-0.005 0.313,-0L0.244,-0C0.244,-0.005 0.245,-0.011 0.246,-0.018C0.247,-0.025 0.248,-0.033 0.249,-0.041C0.25,-0.049 0.252,-0.057 0.253,-0.065C0.254,-0.073 0.255,-0.08 0.256,-0.085L0.254,-0.085C0.241,-0.054 0.224,-0.029 0.203,-0.013C0.182,0.005 0.155,0.013 0.123,0.013C0.094,0.013 0.07,0.003 0.051,-0.016C0.031,-0.035 0.021,-0.065 0.021,-0.105C0.021,-0.145 0.028,-0.178 0.043,-0.205C0.058,-0.231 0.076,-0.252 0.099,-0.268C0.122,-0.283 0.147,-0.294 0.174,-0.301C0.201,-0.307 0.228,-0.31 0.254,-0.31L0.288,-0.31C0.291,-0.329 0.294,-0.342 0.295,-0.35C0.296,-0.358 0.296,-0.365 0.296,-0.37C0.296,-0.397 0.29,-0.417 0.278,-0.43C0.266,-0.442 0.249,-0.448 0.228,-0.448C0.209,-0.448 0.191,-0.443 0.174,-0.434C0.156,-0.425 0.14,-0.412 0.126,-0.397L0.09,-0.447C0.109,-0.468 0.133,-0.486 0.161,-0.499C0.189,-0.511 0.216,-0.518 0.242,-0.518C0.286,-0.518 0.318,-0.506 0.339,-0.483C0.36,-0.46 0.37,-0.427 0.37,-0.385ZM0.242,-0.248C0.225,-0.248 0.207,-0.246 0.19,-0.242C0.173,-0.237 0.157,-0.23 0.144,-0.22C0.13,-0.21 0.119,-0.197 0.11,-0.18C0.101,-0.163 0.097,-0.142 0.097,-0.117C0.097,-0.095 0.102,-0.079 0.113,-0.069C0.123,-0.058 0.136,-0.053 0.151,-0.053C0.169,-0.053 0.185,-0.058 0.199,-0.069C0.212,-0.08 0.224,-0.093 0.235,-0.109C0.245,-0.125 0.253,-0.143 0.26,-0.162C0.266,-0.181 0.271,-0.2 0.274,-0.218L0.28,-0.248L0.242,-0.248Z" style="fill:rgb(35,31,32);fill-rule:nonzero;"/>
			</g>
			<g transform="matrix(25,0,0,25,272.66,43.4892)">
				<path d="M0.273,-0.435L0.189,-0.435L0.139,-0.141C0.138,-0.134 0.137,-0.128 0.136,-0.121C0.135,-0.114 0.135,-0.108 0.135,-0.103C0.135,-0.086 0.138,-0.075 0.145,-0.069C0.152,-0.063 0.162,-0.06 0.175,-0.06C0.181,-0.06 0.188,-0.061 0.195,-0.063C0.202,-0.064 0.208,-0.066 0.213,-0.068L0.205,-0.003C0.196,0 0.187,0.003 0.177,0.005C0.167,0.007 0.157,0.008 0.148,0.008C0.115,0.008 0.091,-0 0.076,-0.017C0.061,-0.034 0.053,-0.056 0.053,-0.084C0.053,-0.096 0.054,-0.11 0.057,-0.125L0.111,-0.435L0.042,-0.435L0.053,-0.501L0.12,-0.501L0.143,-0.635L0.222,-0.635L0.2,-0.501L0.285,-0.501L0.273,-0.435Z" style="fill:rgb(35,31,32);fill-rule:nonzero;"/>
			</g>
			<g transform="matrix(25,0,0,25,279.11,43.4892)">
				<path d="M0.401,-0.355C0.401,-0.348 0.401,-0.341 0.401,-0.334C0.4,-0.327 0.4,-0.318 0.399,-0.309C0.398,-0.299 0.397,-0.288 0.395,-0.275C0.393,-0.262 0.391,-0.247 0.388,-0.229L0.127,-0.229C0.126,-0.219 0.125,-0.209 0.124,-0.2C0.123,-0.19 0.122,-0.18 0.122,-0.171C0.122,-0.138 0.128,-0.111 0.14,-0.09C0.152,-0.069 0.171,-0.059 0.198,-0.059C0.221,-0.059 0.24,-0.066 0.256,-0.08C0.271,-0.094 0.285,-0.111 0.296,-0.13L0.354,-0.093C0.335,-0.061 0.313,-0.035 0.287,-0.014C0.26,0.007 0.228,0.017 0.189,0.017C0.142,0.017 0.106,0.001 0.079,-0.031C0.052,-0.062 0.039,-0.107 0.039,-0.166C0.039,-0.209 0.044,-0.251 0.055,-0.294C0.066,-0.336 0.081,-0.374 0.101,-0.407C0.12,-0.44 0.144,-0.466 0.172,-0.487C0.2,-0.508 0.231,-0.518 0.265,-0.518C0.289,-0.518 0.31,-0.514 0.327,-0.506C0.344,-0.498 0.359,-0.487 0.37,-0.473C0.381,-0.458 0.389,-0.441 0.394,-0.421C0.399,-0.401 0.401,-0.379 0.401,-0.355ZM0.324,-0.353C0.324,-0.381 0.319,-0.403 0.309,-0.42C0.298,-0.437 0.282,-0.445 0.259,-0.445C0.242,-0.445 0.226,-0.44 0.213,-0.43C0.2,-0.419 0.188,-0.407 0.178,-0.392C0.168,-0.377 0.16,-0.36 0.154,-0.343C0.147,-0.326 0.143,-0.31 0.14,-0.296L0.318,-0.296C0.322,-0.318 0.324,-0.337 0.324,-0.353Z" style="fill:rgb(35,31,32);fill-rule:nonzero;"/>
			</g>
			<g transform="matrix(25,0,0,25,294.56,43.4892)">
				<path d="M0.445,-0.339C0.445,-0.298 0.44,-0.257 0.431,-0.215C0.422,-0.172 0.408,-0.134 0.39,-0.1C0.372,-0.065 0.35,-0.037 0.324,-0.016C0.298,0.006 0.269,0.017 0.236,0.017C0.206,0.017 0.182,0.008 0.164,-0.009C0.145,-0.026 0.134,-0.048 0.131,-0.075L0.129,-0.075L0.075,0.24L-0.006,0.24L0.123,-0.501L0.202,-0.501L0.188,-0.421L0.189,-0.421C0.202,-0.449 0.219,-0.472 0.238,-0.491C0.257,-0.509 0.284,-0.518 0.319,-0.518C0.36,-0.518 0.391,-0.502 0.413,-0.469C0.434,-0.436 0.445,-0.393 0.445,-0.339ZM0.361,-0.334C0.361,-0.368 0.356,-0.395 0.345,-0.416C0.334,-0.437 0.316,-0.447 0.291,-0.447C0.269,-0.447 0.249,-0.438 0.232,-0.42C0.215,-0.402 0.2,-0.379 0.188,-0.352C0.176,-0.325 0.167,-0.295 0.161,-0.264C0.154,-0.232 0.151,-0.202 0.151,-0.175C0.151,-0.139 0.157,-0.11 0.168,-0.088C0.179,-0.066 0.197,-0.055 0.222,-0.055C0.245,-0.055 0.265,-0.064 0.282,-0.083C0.299,-0.102 0.314,-0.125 0.326,-0.153C0.337,-0.181 0.346,-0.211 0.352,-0.244C0.358,-0.277 0.361,-0.307 0.361,-0.334Z" style="fill:rgb(35,31,32);fill-rule:nonzero;"/>
			</g>
			<g transform="matrix(25,0,0,25,306.51,43.4892)">
				<path d="M0.401,-0.355C0.401,-0.348 0.401,-0.341 0.401,-0.334C0.4,-0.327 0.4,-0.318 0.399,-0.309C0.398,-0.299 0.397,-0.288 0.395,-0.275C0.393,-0.262 0.391,-0.247 0.388,-0.229L0.127,-0.229C0.126,-0.219 0.125,-0.209 0.124,-0.2C0.123,-0.19 0.122,-0.18 0.122,-0.171C0.122,-0.138 0.128,-0.111 0.14,-0.09C0.152,-0.069 0.171,-0.059 0.198,-0.059C0.221,-0.059 0.24,-0.066 0.256,-0.08C0.271,-0.094 0.285,-0.111 0.296,-0.13L0.354,-0.093C0.335,-0.061 0.313,-0.035 0.287,-0.014C0.26,0.007 0.228,0.017 0.189,0.017C0.142,0.017 0.106,0.001 0.079,-0.031C0.052,-0.062 0.039,-0.107 0.039,-0.166C0.039,-0.209 0.044,-0.251 0.055,-0.294C0.066,-0.336 0.081,-0.374 0.101,-0.407C0.12,-0.44 0.144,-0.466 0.172,-0.487C0.2,-0.508 0.231,-0.518 0.265,-0.518C0.289,-0.518 0.31,-0.514 0.327,-0.506C0.344,-0.498 0.359,-0.487 0.37,-0.473C0.381,-0.458 0.389,-0.441 0.394,-0.421C0.399,-0.401 0.401,-0.379 0.401,-0.355ZM0.324,-0.353C0.324,-0.381 0.319,-0.403 0.309,-0.42C0.298,-0.437 0.282,-0.445 0.259,-0.445C0.242,-0.445 0.226,-0.44 0.213,-0.43C0.2,-0.419 0.188,-0.407 0.178,-0.392C0.168,-0.377 0.16,-0.36 0.154,-0.343C0.147,-0.326 0.143,-0.31 0.14,-0.296L0.318,-0.296C0.322,-0.318 0.324,-0.337 0.324,-0.353Z" style="fill:rgb(35,31,32);fill-rule:nonzero;"/>
			</g>
			<g transform="matrix(25,0,0,25,317.285,43.4892)">
				<path d="M0.304,-0.429C0.301,-0.43 0.299,-0.43 0.296,-0.431C0.293,-0.431 0.29,-0.431 0.287,-0.431C0.271,-0.431 0.256,-0.426 0.242,-0.416C0.228,-0.405 0.215,-0.392 0.204,-0.376C0.193,-0.359 0.183,-0.34 0.175,-0.319C0.167,-0.298 0.161,-0.276 0.157,-0.254L0.113,-0L0.031,-0L0.096,-0.374C0.097,-0.379 0.098,-0.388 0.1,-0.4C0.102,-0.412 0.104,-0.425 0.106,-0.438C0.108,-0.451 0.11,-0.464 0.112,-0.476C0.113,-0.488 0.114,-0.496 0.115,-0.501L0.194,-0.501C0.193,-0.496 0.192,-0.489 0.191,-0.48C0.19,-0.47 0.188,-0.46 0.187,-0.449C0.185,-0.438 0.183,-0.428 0.181,-0.418C0.179,-0.408 0.178,-0.4 0.177,-0.395L0.18,-0.395C0.195,-0.436 0.215,-0.466 0.238,-0.485C0.261,-0.504 0.286,-0.514 0.311,-0.514C0.316,-0.514 0.32,-0.514 0.322,-0.513L0.304,-0.429Z" style="fill:rgb(35,31,32);fill-rule:nonzero;"/>
			</g>
			<g transform="matrix(25,0,0,25,328.86,43.4892)">
				<path d="M0.284,-0L0.199,-0L0.305,-0.61L0.161,-0.513L0.133,-0.579L0.327,-0.708L0.407,-0.708L0.284,-0Z" style="fill:rgb(35,31,32);fill-rule:nonzero;"/>
			</g>
			<g transform="matrix(25,0,0,25,340.76,43.4892)">
				<path d="M0.035,0.129L-0.031,0.129L0.072,-0.126L0.152,-0.126L0.035,0.129Z" style="fill:rgb(35,31,32);fill-rule:nonzero;"/>
			</g>
			<g transform="matrix(25,0,0,25,346.31,43.4892)">
				<path d="M0.475,-0.492C0.475,-0.464 0.473,-0.432 0.47,-0.397C0.466,-0.361 0.46,-0.324 0.451,-0.287C0.442,-0.25 0.431,-0.213 0.418,-0.177C0.404,-0.141 0.387,-0.109 0.367,-0.081C0.347,-0.053 0.324,-0.031 0.297,-0.014C0.27,0.004 0.24,0.012 0.206,0.012C0.176,0.012 0.151,0.006 0.131,-0.006C0.111,-0.018 0.095,-0.034 0.083,-0.055C0.07,-0.075 0.062,-0.098 0.057,-0.125C0.051,-0.151 0.049,-0.179 0.049,-0.208C0.049,-0.238 0.051,-0.272 0.055,-0.309C0.058,-0.345 0.064,-0.383 0.073,-0.421C0.081,-0.459 0.092,-0.496 0.106,-0.532C0.119,-0.568 0.136,-0.6 0.156,-0.628C0.176,-0.655 0.199,-0.678 0.226,-0.695C0.253,-0.712 0.283,-0.72 0.318,-0.72C0.348,-0.72 0.373,-0.714 0.394,-0.701C0.414,-0.688 0.43,-0.672 0.442,-0.651C0.454,-0.63 0.463,-0.605 0.468,-0.578C0.472,-0.55 0.475,-0.521 0.475,-0.492ZM0.387,-0.501C0.387,-0.52 0.386,-0.538 0.383,-0.556C0.38,-0.573 0.376,-0.588 0.37,-0.602C0.364,-0.615 0.356,-0.625 0.346,-0.633C0.336,-0.641 0.324,-0.645 0.309,-0.645C0.286,-0.645 0.266,-0.637 0.249,-0.62C0.232,-0.603 0.217,-0.582 0.204,-0.555C0.191,-0.528 0.18,-0.498 0.172,-0.465C0.163,-0.432 0.156,-0.399 0.151,-0.366C0.146,-0.333 0.142,-0.303 0.14,-0.274C0.137,-0.245 0.136,-0.222 0.136,-0.205C0.136,-0.186 0.137,-0.168 0.14,-0.151C0.142,-0.134 0.146,-0.118 0.152,-0.106C0.158,-0.093 0.166,-0.082 0.176,-0.075C0.186,-0.067 0.198,-0.063 0.213,-0.063C0.236,-0.063 0.256,-0.071 0.274,-0.088C0.291,-0.105 0.306,-0.126 0.319,-0.153C0.332,-0.18 0.342,-0.209 0.351,-0.242C0.36,-0.275 0.367,-0.307 0.372,-0.34C0.377,-0.373 0.381,-0.403 0.384,-0.432C0.386,-0.46 0.387,-0.483 0.387,-0.501Z" style="fill:rgb(35,31,32);fill-rule:nonzero;"/>
			</g>
			<g transform="matrix(25,0,0,25,358.21,43.4892)">
				<path d="M0.475,-0.492C0.475,-0.464 0.473,-0.432 0.47,-0.397C0.466,-0.361 0.46,-0.324 0.451,-0.287C0.442,-0.25 0.431,-0.213 0.418,-0.177C0.404,-0.141 0.387,-0.109 0.367,-0.081C0.347,-0.053 0.324,-0.031 0.297,-0.014C0.27,0.004 0.24,0.012 0.206,0.012C0.176,0.012 0.151,0.006 0.131,-0.006C0.111,-0.018 0.095,-0.034 0.083,-0.055C0.07,-0.075 0.062,-0.098 0.057,-0.125C0.051,-0.151 0.049,-0.179 0.049,-0.208C0.049,-0.238 0.051,-0.272 0.055,-0.309C0.058,-0.345 0.064,-0.383 0.073,-0.421C0.081,-0.459 0.092,-0.496 0.106,-0.532C0.119,-0.568 0.136,-0.6 0.156,-0.628C0.176,-0.655 0.199,-0.678 0.226,-0.695C0.253,-0.712 0.283,-0.72 0.318,-0.72C0.348,-0.72 0.373,-0.714 0.394,-0.701C0.414,-0.688 0.43,-0.672 0.442,-0.651C0.454,-0.63 0.463,-0.605 0.468,-0.578C0.472,-0.55 0.475,-0.521 0.475,-0.492ZM0.387,-0.501C0.387,-0.52 0.386,-0.538 0.383,-0.556C0.38,-0.573 0.376,-0.588 0.37,-0.602C0.364,-0.615 0.356,-0.625 0.346,-0.633C0.336,-0.641 0.324,-0.645 0.309,-0.645C0.286,-0.645 0.266,-0.637 0.249,-0.62C0.232,-0.603 0.217,-0.582 0.204,-0.555C0.191,-0.528 0.18,-0.498 0.172,-0.465C0.163,-0.432 0.156,-0.399 0.151,-0.366C0.146,-0.333 0.142,-0.303 0.14,-0.274C0.137,-0.245 0.136,-0.222 0.136,-0.205C0.136,-0.186 0.137,-0.168 0.14,-0.151C0.142,-0.134 0.146,-0.118 0.152,-0.106C0.158,-0.093 0.166,-0.082 0.176,-0.075C0.186,-0.067 0.198,-0.063 0.213,-0.063C0.236,-0.063 0.256,-0.071 0.274,-0.088C0.291,-0.105 0.306,-0.126 0.319,-0.153C0.332,-0.18 0.342,-0.209 0.351,-0.242C0.36,-0.275 0.367,-0.307 0.372,-0.34C0.377,-0.373 0.381,-0.403 0.384,-0.432C0.386,-0.46 0.387,-0.483 0.387,-0.501Z" style="fill:rgb(35,31,32);fill-rule:nonzero;"/>
			</g>
			<g transform="matrix(25,0,0,25,370.11,43.4892)">
				<path d="M0.475,-0.492C0.475,-0.464 0.473,-0.432 0.47,-0.397C0.466,-0.361 0.46,-0.324 0.451,-0.287C0.442,-0.25 0.431,-0.213 0.418,-0.177C0.404,-0.141 0.387,-0.109 0.367,-0.081C0.347,-0.053 0.324,-0.031 0.297,-0.014C0.27,0.004 0.24,0.012 0.206,0.012C0.176,0.012 0.151,0.006 0.131,-0.006C0.111,-0.018 0.095,-0.034 0.083,-0.055C0.07,-0.075 0.062,-0.098 0.057,-0.125C0.051,-0.151 0.049,-0.179 0.049,-0.208C0.049,-0.238 0.051,-0.272 0.055,-0.309C0.058,-0.345 0.064,-0.383 0.073,-0.421C0.081,-0.459 0.092,-0.496 0.106,-0.532C0.119,-0.568 0.136,-0.6 0.156,-0.628C0.176,-0.655 0.199,-0.678 0.226,-0.695C0.253,-0.712 0.283,-0.72 0.318,-0.72C0.348,-0.72 0.373,-0.714 0.394,-0.701C0.414,-0.688 0.43,-0.672 0.442,-0.651C0.454,-0.63 0.463,-0.605 0.468,-0.578C0.472,-0.55 0.475,-0.521 0.475,-0.492ZM0.387,-0.501C0.387,-0.52 0.386,-0.538 0.383,-0.556C0.38,-0.573 0.376,-0.588 0.37,-0.602C0.364,-0.615 0.356,-0.625 0.346,-0.633C0.336,-0.641 0.324,-0.645 0.309,-0.645C0.286,-0.645 0.266,-0.637 0.249,-0.62C0.232,-0.603 0.217,-0.582 0.204,-0.555C0.191,-0.528 0.18,-0.498 0.172,-0.465C0.163,-0.432 0.156,-0.399 0.151,-0.366C0.146,-0.333 0.142,-0.303 0.14,-0.274C0.137,-0.245 0.136,-0.222 0.136,-0.205C0.136,-0.186 0.137,-0.168 0.14,-0.151C0.142,-0.134 0.146,-0.118 0.152,-0.106C0.158,-0.093 0.166,-0.082 0.176,-0.075C0.186,-0.067 0.198,-0.063 0.213,-0.063C0.236,-0.063 0.256,-0.071 0.274,-0.088C0.291,-0.105 0.306,-0.126 0.319,-0.153C0.332,-0.18 0.342,-0.209 0.351,-0.242C0.36,-0.275 0.367,-0.307 0.372,-0.34C0.377,-0.373 0.381,-0.403 0.384,-0.432C0.386,-0.46 0.387,-0.483 0.387,-0.501Z" style="fill:rgb(35,31,32);fill-rule:nonzero;"/>
			</g>
			<g transform="matrix(25,0,0,25,386.685,43.4892)">
				<path d="M0.303,-0.418C0.286,-0.441 0.259,-0.453 0.223,-0.453C0.202,-0.453 0.183,-0.446 0.166,-0.431C0.149,-0.416 0.141,-0.395 0.141,-0.369C0.141,-0.347 0.146,-0.331 0.157,-0.32C0.168,-0.309 0.184,-0.298 0.205,-0.287C0.232,-0.272 0.255,-0.254 0.273,-0.234C0.291,-0.213 0.3,-0.186 0.3,-0.152C0.3,-0.123 0.295,-0.098 0.286,-0.077C0.276,-0.056 0.263,-0.038 0.247,-0.024C0.231,-0.01 0.213,0 0.192,0.007C0.171,0.014 0.148,0.017 0.125,0.017C0.096,0.017 0.069,0.011 0.045,-0.001C0.02,-0.013 0.001,-0.028 -0.012,-0.046L0.042,-0.099C0.051,-0.087 0.063,-0.076 0.078,-0.066C0.092,-0.056 0.11,-0.051 0.133,-0.051C0.157,-0.051 0.178,-0.059 0.195,-0.074C0.212,-0.089 0.22,-0.111 0.22,-0.139C0.22,-0.162 0.213,-0.181 0.198,-0.196C0.183,-0.211 0.166,-0.223 0.146,-0.233C0.123,-0.245 0.103,-0.261 0.087,-0.281C0.071,-0.301 0.063,-0.327 0.063,-0.359C0.063,-0.384 0.068,-0.406 0.077,-0.426C0.086,-0.445 0.098,-0.462 0.113,-0.476C0.128,-0.489 0.146,-0.5 0.167,-0.507C0.188,-0.514 0.21,-0.518 0.233,-0.518C0.261,-0.518 0.285,-0.514 0.304,-0.506C0.323,-0.497 0.338,-0.487 0.349,-0.474L0.303,-0.418Z" style="fill:rgb(35,31,32);fill-rule:nonzero;"/>
			</g>
			<g transform="matrix(25,0,0,25,395.36,43.4892)">
				<path d="M0.273,-0.435L0.189,-0.435L0.139,-0.141C0.138,-0.134 0.137,-0.128 0.136,-0.121C0.135,-0.114 0.135,-0.108 0.135,-0.103C0.135,-0.086 0.138,-0.075 0.145,-0.069C0.152,-0.063 0.162,-0.06 0.175,-0.06C0.181,-0.06 0.188,-0.061 0.195,-0.063C0.202,-0.064 0.208,-0.066 0.213,-0.068L0.205,-0.003C0.196,0 0.187,0.003 0.177,0.005C0.167,0.007 0.157,0.008 0.148,0.008C0.115,0.008 0.091,-0 0.076,-0.017C0.061,-0.034 0.053,-0.056 0.053,-0.084C0.053,-0.096 0.054,-0.11 0.057,-0.125L0.111,-0.435L0.042,-0.435L0.053,-0.501L0.12,-0.501L0.143,-0.635L0.222,-0.635L0.2,-0.501L0.285,-0.501L0.273,-0.435Z" style="fill:rgb(35,31,32);fill-rule:nonzero;"/>
			</g>
			<g transform="matrix(25,0,0,25,401.81,43.4892)">
				<path d="M0.367,-0.501L0.448,-0.501L0.383,-0.127C0.382,-0.122 0.381,-0.113 0.379,-0.101C0.377,-0.089 0.375,-0.076 0.373,-0.063C0.371,-0.05 0.369,-0.037 0.368,-0.025C0.366,-0.013 0.365,-0.005 0.364,-0L0.284,-0C0.285,-0.009 0.287,-0.023 0.29,-0.04C0.292,-0.057 0.294,-0.073 0.297,-0.089L0.295,-0.089C0.282,-0.059 0.263,-0.034 0.239,-0.014C0.215,0.007 0.187,0.017 0.156,0.017C0.137,0.017 0.12,0.014 0.107,0.007C0.094,-0 0.083,-0.01 0.075,-0.021C0.066,-0.032 0.06,-0.045 0.057,-0.06C0.053,-0.075 0.051,-0.09 0.051,-0.105C0.051,-0.114 0.052,-0.126 0.053,-0.14C0.054,-0.154 0.056,-0.168 0.059,-0.181L0.114,-0.501L0.196,-0.501L0.141,-0.181C0.14,-0.172 0.138,-0.162 0.137,-0.153C0.136,-0.144 0.135,-0.134 0.135,-0.125C0.135,-0.106 0.139,-0.089 0.147,-0.076C0.154,-0.063 0.169,-0.056 0.191,-0.056C0.206,-0.056 0.22,-0.06 0.234,-0.068C0.247,-0.076 0.26,-0.087 0.271,-0.101C0.282,-0.115 0.291,-0.131 0.299,-0.151C0.307,-0.169 0.313,-0.19 0.317,-0.213L0.367,-0.501Z" style="fill:rgb(35,31,32);fill-rule:nonzero;"/>
			</g>
			<g transform="matrix(25,0,0,25,413.735,43.4892)">
				<path d="M0.361,-0L0.282,-0L0.296,-0.081L0.295,-0.081C0.282,-0.053 0.265,-0.03 0.244,-0.011C0.223,0.008 0.195,0.017 0.16,0.017C0.119,0.017 0.089,0.001 0.069,-0.032C0.049,-0.065 0.039,-0.108 0.039,-0.161C0.039,-0.202 0.044,-0.243 0.054,-0.286C0.064,-0.328 0.078,-0.366 0.097,-0.401C0.115,-0.435 0.137,-0.463 0.164,-0.485C0.19,-0.507 0.22,-0.518 0.253,-0.518C0.283,-0.518 0.306,-0.509 0.323,-0.493C0.34,-0.476 0.35,-0.453 0.353,-0.426L0.355,-0.426L0.412,-0.756L0.493,-0.756L0.361,-0ZM0.333,-0.327C0.333,-0.363 0.327,-0.392 0.316,-0.414C0.305,-0.436 0.287,-0.447 0.262,-0.447C0.239,-0.447 0.219,-0.438 0.202,-0.419C0.185,-0.4 0.17,-0.377 0.159,-0.349C0.147,-0.321 0.138,-0.291 0.132,-0.258C0.126,-0.225 0.123,-0.195 0.123,-0.168C0.123,-0.134 0.129,-0.107 0.14,-0.086C0.151,-0.065 0.168,-0.055 0.193,-0.055C0.215,-0.055 0.235,-0.064 0.252,-0.082C0.269,-0.1 0.284,-0.123 0.296,-0.15C0.308,-0.177 0.317,-0.207 0.324,-0.239C0.33,-0.27 0.333,-0.3 0.333,-0.327Z" style="fill:rgb(35,31,32);fill-rule:nonzero;"/>
			</g>
			<g transform="matrix(25,0,0,25,425.535,43.4892)">
				<path d="M0.401,-0.355C0.401,-0.348 0.401,-0.341 0.401,-0.334C0.4,-0.327 0.4,-0.318 0.399,-0.309C0.398,-0.299 0.397,-0.288 0.395,-0.275C0.393,-0.262 0.391,-0.247 0.388,-0.229L0.127,-0.229C0.126,-0.219 0.125,-0.209 0.124,-0.2C0.123,-0.19 0.122,-0.18 0.122,-0.171C0.122,-0.138 0.128,-0.111 0.14,-0.09C0.152,-0.069 0.171,-0.059 0.198,-0.059C0.221,-0.059 0.24,-0.066 0.256,-0.08C0.271,-0.094 0.285,-0.111 0.296,-0.13L0.354,-0.093C0.335,-0.061 0.313,-0.035 0.287,-0.014C0.26,0.007 0.228,0.017 0.189,0.017C0.142,0.017 0.106,0.001 0.079,-0.031C0.052,-0.062 0.039,-0.107 0.039,-0.166C0.039,-0.209 0.044,-0.251 0.055,-0.294C0.066,-0.336 0.081,-0.374 0.101,-0.407C0.12,-0.44 0.144,-0.466 0.172,-0.487C0.2,-0.508 0.231,-0.518 0.265,-0.518C0.289,-0.518 0.31,-0.514 0.327,-0.506C0.344,-0.498 0.359,-0.487 0.37,-0.473C0.381,-0.458 0.389,-0.441 0.394,-0.421C0.399,-0.401 0.401,-0.379 0.401,-0.355ZM0.324,-0.353C0.324,-0.381 0.319,-0.403 0.309,-0.42C0.298,-0.437 0.282,-0.445 0.259,-0.445C0.242,-0.445 0.226,-0.44 0.213,-0.43C0.2,-0.419 0.188,-0.407 0.178,-0.392C0.168,-0.377 0.16,-0.36 0.154,-0.343C0.147,-0.326 0.143,-0.31 0.14,-0.296L0.318,-0.296C0.322,-0.318 0.324,-0.337 0.324,-0.353Z" style="fill:rgb(35,31,32);fill-rule:nonzero;"/>
			</g>
			<g transform="matrix(25,0,0,25,436.31,43.4892)">
				<path d="M0.112,-0L0.031,-0L0.096,-0.374C0.097,-0.379 0.098,-0.388 0.1,-0.4C0.101,-0.412 0.103,-0.425 0.105,-0.438L0.115,-0.501L0.195,-0.501C0.194,-0.492 0.192,-0.478 0.19,-0.462C0.187,-0.444 0.185,-0.428 0.182,-0.412L0.184,-0.412C0.197,-0.442 0.216,-0.467 0.24,-0.488C0.264,-0.508 0.292,-0.518 0.323,-0.518C0.342,-0.518 0.359,-0.515 0.372,-0.508C0.385,-0.501 0.396,-0.491 0.405,-0.48C0.413,-0.469 0.419,-0.456 0.423,-0.441C0.426,-0.426 0.428,-0.411 0.428,-0.396C0.428,-0.387 0.427,-0.375 0.426,-0.361C0.425,-0.347 0.423,-0.333 0.42,-0.32L0.365,-0L0.283,-0L0.338,-0.32C0.339,-0.329 0.341,-0.339 0.342,-0.348C0.343,-0.357 0.344,-0.367 0.344,-0.376C0.344,-0.395 0.34,-0.412 0.333,-0.425C0.325,-0.438 0.31,-0.445 0.288,-0.445C0.273,-0.445 0.259,-0.441 0.246,-0.433C0.232,-0.425 0.22,-0.414 0.209,-0.4C0.198,-0.386 0.188,-0.37 0.18,-0.351C0.172,-0.332 0.166,-0.311 0.162,-0.288L0.112,-0Z" style="fill:rgb(35,31,32);fill-rule:nonzero;"/>
			</g>
			<g transform="matrix(25,0,0,25,448.235,43.4892)">
				<path d="M0.273,-0.435L0.189,-0.435L0.139,-0.141C0.138,-0.134 0.137,-0.128 0.136,-0.121C0.135,-0.114 0.135,-0.108 0.135,-0.103C0.135,-0.086 0.138,-0.075 0.145,-0.069C0.152,-0.063 0.162,-0.06 0.175,-0.06C0.181,-0.06 0.188,-0.061 0.195,-0.063C0.202,-0.064 0.208,-0.066 0.213,-0.068L0.205,-0.003C0.196,0 0.187,0.003 0.177,0.005C0.167,0.007 0.157,0.008 0.148,0.008C0.115,0.008 0.091,-0 0.076,-0.017C0.061,-0.034 0.053,-0.056 0.053,-0.084C0.053,-0.096 0.054,-0.11 0.057,-0.125L0.111,-0.435L0.042,-0.435L0.053,-0.501L0.12,-0.501L0.143,-0.635L0.222,-0.635L0.2,-0.501L0.285,-0.501L0.273,-0.435Z" style="fill:rgb(35,31,32);fill-rule:nonzero;"/>
			</g>
			<g transform="matrix(25,0,0,25,454.685,43.4892)">
				<path d="M0.303,-0.418C0.286,-0.441 0.259,-0.453 0.223,-0.453C0.202,-0.453 0.183,-0.446 0.166,-0.431C0.149,-0.416 0.141,-0.395 0.141,-0.369C0.141,-0.347 0.146,-0.331 0.157,-0.32C0.168,-0.309 0.184,-0.298 0.205,-0.287C0.232,-0.272 0.255,-0.254 0.273,-0.234C0.291,-0.213 0.3,-0.186 0.3,-0.152C0.3,-0.123 0.295,-0.098 0.286,-0.077C0.276,-0.056 0.263,-0.038 0.247,-0.024C0.231,-0.01 0.213,0 0.192,0.007C0.171,0.014 0.148,0.017 0.125,0.017C0.096,0.017 0.069,0.011 0.045,-0.001C0.02,-0.013 0.001,-0.028 -0.012,-0.046L0.042,-0.099C0.051,-0.087 0.063,-0.076 0.078,-0.066C0.092,-0.056 0.11,-0.051 0.133,-0.051C0.157,-0.051 0.178,-0.059 0.195,-0.074C0.212,-0.089 0.22,-0.111 0.22,-0.139C0.22,-0.162 0.213,-0.181 0.198,-0.196C0.183,-0.211 0.166,-0.223 0.146,-0.233C0.123,-0.245 0.103,-0.261 0.087,-0.281C0.071,-0.301 0.063,-0.327 0.063,-0.359C0.063,-0.384 0.068,-0.406 0.077,-0.426C0.086,-0.445 0.098,-0.462 0.113,-0.476C0.128,-0.489 0.146,-0.5 0.167,-0.507C0.188,-0.514 0.21,-0.518 0.233,-0.518C0.261,-0.518 0.285,-0.514 0.304,-0.506C0.323,-0.497 0.338,-0.487 0.349,-0.474L0.303,-0.418Z" style="fill:rgb(35,31,32);fill-rule:nonzero;"/>
			</g>
		</g>
	</g>
</svg>
