<?xml version="1.0" encoding="UTF-8"?>
<svg version="1.1" viewBox="0 0 1400 2100" xmlns="http://www.w3.org/2000/svg" xmlns:cc="http://creativecommons.org/ns#" xmlns:dc="http://purl.org/dc/elements/1.1/" xmlns:rdf="http://www.w3.org/1999/02/22-rdf-syntax-ns#" xmlns:xlink="http://www.w3.org/1999/xlink">
 <title>The cover for the Standard Ebooks edition of Honouring the Truth, Reconciling for the Future, by Truth and Reconciliation Commission of Canada</title>
 <style type="text/css">.title-box{
			fill-opacity: .75;
		}

		text{
			fill: #fff;
			font-family: "League Spartan";
			letter-spacing: 5px;
			text-anchor: middle;
		}

		.title-xsmall{
			font-size: 58.47953033px;
		}

		.author{
			font-size: 46.7840004px;
		}</style>
 <image width="1400" height="2100" xlink:href="file:///Users/brendan/Documents/epubs/TRC/truth-and-reconciliation-commission-of-canada_honouring-the-truth-reconciling-for-the-future/images/cover.jpg"/>
 <g transform="matrix(9.5799 0 0 9.5799 700 377.96)">
  <g transform="translate(-59 -22)">
   <clipPath id="_clip1">
    <rect width="118" height="44"/>
   </clipPath>
   <g clip-path="url(#_clip1)">
    <g transform="translate(50.848 -375.06)">
     <g transform="translate(-260.98 318.65)">
      <path d="m250.94 72.891s-6.008-0.309-6.129-6.774c-0.094-4.98-2.297-6.168-2.297-6.168s3.89 1.516 5.972 5.883c0.7 1.473 1.446 2.457 1.223 1.527-0.223-0.937-0.77-2.234-1.543-2.996 0 0 4.871 3.442 2.773 8.528" fill="#e36e1c"/>
     </g>
     <g transform="translate(-260.98 318.65)">
      <path d="m243.68 62.898s-0.203-1.16-0.86-1.98c-0.539-0.676-1.195-0.805-1.55-2.414 0 0 0.046 3.289 2.41 4.394" fill="#e36e1c"/>
     </g>
     <g transform="translate(-260.98 318.65)">
      <path d="m239.64 59.805s-3.965 4.523-9.114 0.613c-3.968-3.016-6.265-2.016-6.265-2.016s3.601-2.117 8.32-1.043c1.582 0.364 2.824 0.383 1.953-0.019s-2.226-0.774-3.304-0.645c0 0 5.718-1.683 8.41 3.11" fill="#e36e1c"/>
     </g>
     <g transform="translate(-260.98 318.65)">
      <path d="m227.29 59.309s-1.031-0.555-2.082-0.551c-0.863 4e-3 -1.371 0.437-2.856-0.281 0 0 2.61 2.007 4.938 0.832" fill="#e36e1c"/>
     </g>
     <g transform="translate(-260.98 318.65)">
      <path d="m222.37 60.566s1.09 5.914-5.168 7.532c-4.828 1.246-5.469 3.668-5.469 3.668s0.571-4.137 4.34-7.172c1.266-1.024 2.051-1.981 1.2-1.551-0.86 0.434-1.993 1.27-2.555 2.199 0 0 2.215-5.535 7.652-4.676" fill="#e36e1c"/>
     </g>
     <g transform="translate(-260.98 318.65)">
      <path d="m214.32 69.945s-1.074 0.465-1.722 1.293c-0.532 0.684-0.504 1.348-1.989 2.071 0 0 3.192-0.809 3.711-3.364" fill="#e36e1c"/>
     </g>
     <g transform="translate(-260.98 318.65)">
      <path d="m212.26 74.59s5.32 2.808 2.711 8.726c-2.012 4.559-0.512 6.563-0.512 6.563s-2.891-3.012-2.937-7.852c-0.02-1.625-0.282-2.836-0.477-1.898-0.191 0.941-0.234 2.348 0.141 3.367 0 0-2.965-5.172 1.074-8.906" fill="#e36e1c"/>
     </g>
     <g transform="translate(-260.98 318.65)">
      <path d="m214.64 86.715s-0.305 1.133-0.055 2.152c0.203 0.844 0.746 1.235 0.391 2.844 0 0 1.343-3.004-0.336-4.996" fill="#e36e1c"/>
     </g>
     <g transform="translate(-260.98 318.65)">
      <path d="m217 91.219s5.5-2.434 8.527 3.281c2.332 4.402 4.832 4.461 4.832 4.461s-4.156 0.406-7.984-2.555c-1.285-0.992-2.399-1.535-1.781-0.801 0.621 0.731 1.695 1.637 2.726 1.973 0 0-5.894-0.879-6.32-6.359" fill="#e36e1c"/>
     </g>
     <g transform="translate(-260.98 318.65)">
      <path d="m227.99 96.859s0.703 0.942 1.656 1.379c0.79 0.36 1.434 0.18 2.477 1.453 0 0-1.527-2.91-4.133-2.832" fill="#e36e1c"/>
     </g>
     <g transform="translate(-260.98 318.65)">
      <path d="m232.99 97.797s1.5-5.828 7.86-4.66c4.898 0.902 6.5-1.028 6.5-1.028s-2.258 3.512-6.954 4.684c-1.578 0.391-2.695 0.93-1.738 0.898 0.957-0.035 2.34-0.312 3.242-0.918 0 0-4.343 4.086-8.91 1.024" fill="#e36e1c"/>
     </g>
     <g transform="translate(-260.98 318.65)">
      <path d="m244.23 92.668s1.176 0.031 2.11-0.445c0.769-0.395 1.027-1.012 2.672-1.043 0 0-3.235-0.606-4.782 1.488" fill="#e36e1c"/>
     </g>
     <g transform="translate(-260.98 318.65)">
      <path d="m248.06 89.32s-3.645-4.785 1.214-9.05c3.743-3.293 3.219-5.739 3.219-5.739s1.359 3.949-0.633 8.356c-0.668 1.484-0.937 2.695-0.367 1.922 0.567-0.77 1.203-2.028 1.285-3.11 0 0 0.516 5.938-4.718 7.621" fill="#e36e1c"/>
     </g>
     <g transform="translate(-260.98 318.65)">
      <path d="m251 77.324s0.75-0.902 0.957-1.933c0.168-0.848-0.16-1.43 0.84-2.743 0 0-2.485 2.165-1.797 4.676" fill="#e36e1c"/>
     </g>
     <g transform="translate(-260.98 318.65)">
      <path d="m262.45 68.449c0-0.449-0.015-0.734-0.027-0.945h-0.356c-1.23 0-1.574 0.082-1.871 0.082-0.105 0-0.152-0.035-0.152-0.207v-0.309c0-0.172 0.059-0.207 0.23-0.207h5.61c0.172 0 0.23 0.035 0.23 0.207v0.309c0 0.172-0.047 0.207-0.148 0.207-0.301 0-0.645-0.082-1.875-0.082h-0.379v7.027c0 0.207-0.059 0.262-0.262 0.262h-0.738c-0.219 0-0.262-0.043-0.262-0.262v-6.082z" fill="#706e73"/>
     </g>
     <g transform="translate(-260.98 318.65)">
      <path d="m265.82 71.504c0-1.332-0.054-1.906-0.054-2.055 0-0.195 0.054-0.23 0.308-0.23 0.575 0 0.711 0.609 1.071 0.609 0.254 0 0.722-0.726 1.457-0.726 0.222 0 0.23 0.152 0.23 0.324v0.769c0 0.125-8e-3 0.196-0.113 0.196-0.149 0-0.473-0.243-0.988-0.243-0.207 0-0.485 0.082-0.61 0.313-0.14 0.254-0.148 0.656-0.148 0.984v3.118c0 0.207-0.012 0.23-0.231 0.23h-0.687c-0.223 0-0.235-0.012-0.235-0.23v-3.059z" fill="#706e73"/>
     </g>
     <g transform="translate(-260.98 318.65)">
      <path d="m269.78 71.504c0-1.457-0.035-1.895-0.035-2.09 0-0.148 0.059-0.195 0.32-0.195h0.598c0.219 0 0.277 0.058 0.277 0.265v3.368c0 0.425 0.102 1.289 0.871 1.289 0.453 0 1.149-0.325 1.36-0.786 0.082-0.191 0.101-0.527 0.101-0.894v-3.012c0-0.207 0.028-0.23 0.231-0.23h0.691c0.219 0 0.227 0.011 0.227 0.23v3.059c0 1.332 0.058 1.894 0.058 2.055 0 0.187-0.043 0.23-0.261 0.23-0.508 0-0.657-0.574-1.012-0.574-0.246 0-1.176 0.687-1.91 0.687-1.102 0-1.516-0.906-1.516-2.011v-1.391z" fill="#706e73"/>
     </g>
     <g transform="translate(-260.98 318.65)">
      <path d="m276.3 69.793h-0.664c-0.184 0-0.231-0.023-0.231-0.207v-0.047c0-0.16 0.055-0.184 0.207-0.215 0.61-0.129 0.84-0.601 1.184-1.289 0.058-0.105 0.078-0.289 0.297-0.289h0.152c0.137 0 0.207 0.059 0.207 0.184v1.289h1.172c0.172 0 0.23 0.035 0.23 0.207v0.16c0 0.184-0.046 0.207-0.23 0.207h-1.172v3.141c0 0.929 0.274 1.183 0.805 1.183 0.203 0 0.355-0.058 0.492-0.058 0.141 0 0.184 0.07 0.184 0.148 0 0.141-0.137 0.219-0.25 0.277-0.372 0.196-0.84 0.426-1.243 0.426-0.609 0-1.14-0.367-1.14-1.762v-3.355z" fill="#706e73"/>
     </g>
     <g transform="translate(-260.98 318.65)">
      <path d="m279.78 68.461c0-1.461-0.035-1.898-0.035-2.094 0-0.148 0.059-0.195 0.324-0.195h0.598c0.203 0 0.262 0.058 0.262 0.266v2.16c0 0.285-0.012 0.734-0.012 0.882 0 0.266 0.152 0.278 0.23 0.278 0.289 0 1.059-0.656 1.805-0.656 0.793 0 1.266 0.484 1.449 1.211 0.055 0.238 0.106 0.527 0.106 1.058v3.192c0 0.207-0.035 0.23-0.231 0.23h-0.703c-0.219 0-0.23-0.012-0.23-0.23v-2.965c0-0.528-0.024-0.817-0.09-1.047-0.106-0.356-0.348-0.664-0.817-0.664-0.312 0-0.98 0.16-1.3 0.609-0.184 0.254-0.207 0.668-0.207 1.043v3.024c0 0.207-0.024 0.23-0.231 0.23h-0.687c-0.219 0-0.231-0.012-0.231-0.23v-6.102z" fill="#706e73"/>
     </g>
     <g transform="translate(-260.98 318.65)">
      <path d="m292.21 72.508v-0.555c-1.457 0.195-2.059 0.324-2.059 1.219 0 0.461 0.301 0.969 0.84 0.969 0.426 0 0.91-0.301 1.113-0.75 0.094-0.196 0.106-0.532 0.106-0.883m-2.77-2.828c0-0.196 0.114-0.254 0.243-0.301 0.332-0.137 0.964-0.277 1.609-0.277 0.977 0 2.066 0.289 2.066 1.992v1.414c0 1.332 0.059 1.894 0.059 2.043 0 0.199-0.043 0.242-0.297 0.242-0.437 0-0.59-0.574-0.976-0.574-0.243 0-0.961 0.687-1.622 0.687-1.015 0-1.507-0.859-1.507-1.558 0-1.418 1.16-1.68 3.195-1.946 0.023-0.183 0.023-0.39 0.023-0.597 0-0.504-0.172-1.16-0.976-1.16-0.875 0-1.371 0.687-1.485 0.804l-0.195 0.137c-0.101 0-0.137-0.059-0.137-0.195v-0.711z" fill="#706e73"/>
     </g>
     <g transform="translate(-260.98 318.65)">
      <path d="m294.52 71.504c0-1.332-0.058-1.895-0.058-2.055 0-0.183 0.058-0.23 0.308-0.23 0.575 0 0.817 0.527 1.172 0.527 0.254 0 1-0.644 1.75-0.644 0.805 0 1.289 0.519 1.457 1.269 0.051 0.227 0.098 0.469 0.098 1.067v3.125c0 0.207-0.039 0.23-0.23 0.23h-0.707c-0.215 0-0.227-0.012-0.227-0.23v-3.012c0-0.446-0.023-0.781-0.094-1-0.101-0.356-0.355-0.664-0.836-0.664-0.449 0-1.175 0.308-1.367 0.769-0.094 0.196-0.117 0.598-0.117 0.953v2.954c0 0.207-0.012 0.23-0.231 0.23h-0.687c-0.219 0-0.23-0.012-0.23-0.23l-1e-3 -3.059z" fill="#706e73"/>
     </g>
     <g transform="translate(-260.98 318.65)">
      <path d="m304.27 70.449c0-0.265-0.665-0.804-1.325-0.804-0.8 0-1.422 0.574-1.422 2.093 0 1.18 0.356 2.403 1.332 2.403 0.379 0 1.094-0.313 1.301-0.786 0.09-0.203 0.114-0.55 0.114-0.906v-2zm0-1.988c0-1.461-0.032-1.898-0.032-2.094 0-0.148 0.055-0.195 0.321-0.195h0.597c0.207 0 0.266 0.058 0.266 0.266v6.07c0 1.332 0.055 1.894 0.055 2.043 0 0.195-0.047 0.242-0.309 0.242-0.461 0-0.644-0.574-0.988-0.574-0.266 0-1.153 0.687-1.934 0.687-1.125 0-2-1.297-2-2.812 0-1.957 1.184-2.992 2.871-2.992 0.442 0 0.797 0.058 1.153 0.14v-0.781z" fill="#706e73"/>
     </g>
     <g transform="translate(-260.98 318.65)">
      <path d="m263.12 80.664c1.426 0 1.586-0.809 1.586-1.406 0-1.149-0.473-1.77-1.93-1.77h-0.32c-0.14 0-0.187 0.047-0.187 0.172 0 0.344 0.035 0.508 0.035 1.567v1.437h0.816zm0.852 0.457c0.426 0.184 0.929 0.774 1.32 1.426l1.152 1.906 0.102 0.231c0 0.074-0.059 0.093-0.184 0.093h-1.023c-0.219 0-0.242-0.093-0.484-0.504l-1.196-2.14c-0.367-0.656-0.746-0.848-1.355-0.863v3.242c0 0.207-0.059 0.265-0.266 0.265h-0.734c-0.223 0-0.266-0.047-0.266-0.265v-6.035c0-1-0.047-1.219-0.047-1.414 0-0.172 0.035-0.219 0.301-0.219h1.586c2.437 0 3.184 1.058 3.184 2.254 0 0.738-0.461 1.781-2.09 2v0.023z" fill="#706e73"/>
     </g>
     <g transform="translate(-260.98 318.65)">
      <path d="m268.06 81.41 2.347-0.16c0-0.816-0.402-1.625-1.211-1.625-0.8 0-1.136 0.703-1.136 1.785m0 0.504c0.07 1.231 0.781 2.125 1.804 2.125 0.367 0 0.84-0.125 1.242-0.273l0.29-0.067c0.113 0 0.16 0.055 0.16 0.149 0 0.113-0.082 0.207-0.285 0.332-0.497 0.285-1.485 0.711-2.004 0.711-1.344 0-2.379-1.356-2.379-2.977 0-1.531 0.816-2.824 2.449-2.824 0.852 0 2.277 0.504 2.277 2.32 0 0.195-0.058 0.262-0.39 0.285l-3.164 0.219z" fill="#706e73"/>
     </g>
     <g transform="translate(-260.98 318.65)">
      <path d="m276.82 80.383c0 0.152-0.019 0.199-0.097 0.199-0.117 0-0.211-0.129-0.313-0.242-0.484-0.551-0.988-0.703-1.441-0.703-1.125 0-1.43 0.84-1.43 1.957 0 1.562 0.766 2.449 1.777 2.449 0.278 0 0.774-0.117 1.036-0.207 0.242-0.082 0.355-0.141 0.484-0.141 0.125 0 0.148 0.094 0.148 0.153 0 0.101-0.082 0.218-0.289 0.332-0.492 0.277-1.449 0.715-1.976 0.715-1.344 0-2.367-1.36-2.367-2.981 0-1.402 0.699-2.824 2.746-2.824 0.449 0 1.082 0.055 1.461 0.191 0.164 0.059 0.261 0.094 0.261 0.254v0.848z" fill="#706e73"/>
     </g>
     <g transform="translate(-260.98 318.65)">
      <path d="m281.9 82.352c0-0.883-0.23-2.715-1.699-2.715-1.148 0-1.402 1.164-1.402 2.07 0 0.887 0.207 2.609 1.68 2.609 1.148 0 1.421-1.171 1.421-1.964m-4.39-0.368c0-1.675 1.082-2.898 2.863-2.898 1.668 0 2.816 1.176 2.816 2.898 0 1.711-1.058 2.911-2.886 2.911-1.817 0-2.793-1.348-2.793-2.911" fill="#706e73"/>
     </g>
     <g transform="translate(-260.98 318.65)">
      <path d="m284.29 81.488c0-1.332-0.059-1.894-0.059-2.054 0-0.188 0.059-0.231 0.309-0.231 0.574 0 0.816 0.527 1.172 0.527 0.254 0 1.004-0.64 1.75-0.64 0.805 0 1.289 0.512 1.461 1.262 0.047 0.23 0.09 0.472 0.09 1.07v3.125c0 0.211-0.036 0.23-0.227 0.23h-0.703c-0.219 0-0.231-0.011-0.231-0.23v-3.012c0-0.449-0.023-0.781-0.093-1-0.102-0.355-0.356-0.668-0.84-0.668-0.445 0-1.168 0.313-1.367 0.77-0.09 0.195-0.114 0.601-0.114 0.957v2.953c0 0.211-0.011 0.23-0.23 0.23h-0.688c-0.222 0-0.23-0.011-0.23-0.23v-3.059z" fill="#706e73"/>
     </g>
     <g transform="translate(-260.98 318.65)">
      <path d="m294.36 80.383c0 0.152-0.019 0.199-0.101 0.199-0.113 0-0.207-0.129-0.313-0.242-0.48-0.551-0.984-0.703-1.433-0.703-1.129 0-1.438 0.84-1.438 1.957 0 1.562 0.77 2.449 1.781 2.449 0.274 0 0.774-0.117 1.036-0.207 0.242-0.082 0.355-0.141 0.484-0.141 0.125 0 0.148 0.094 0.148 0.153 0 0.101-0.082 0.218-0.289 0.332-0.492 0.277-1.449 0.715-1.976 0.715-1.348 0-2.371-1.36-2.371-2.981 0-1.402 0.703-2.824 2.75-2.824 0.449 0 1.082 0.055 1.461 0.191 0.16 0.059 0.261 0.094 0.261 0.254v0.848z" fill="#706e73"/>
     </g>
     <g transform="translate(-260.98 318.65)">
      <path d="m295.86 81.488c0-1.457-0.035-1.894-0.035-2.09 0-0.152 0.059-0.195 0.324-0.195h0.598c0.203 0 0.262 0.055 0.262 0.266v5.043c0 0.207-0.059 0.265-0.262 0.265h-0.621c-0.219 0-0.266-0.047-0.266-0.265v-3.024zm0.575-4.734c0.207 0 0.715 0.492 0.715 0.687 0 0.219-0.52 0.704-0.727 0.704s-0.711-0.485-0.711-0.692 0.504-0.699 0.723-0.699" fill="#706e73"/>
     </g>
     <g transform="translate(-260.98 318.65)">
      <path d="m298.68 78.441c0-1.457-0.032-1.894-0.032-2.089 0-0.149 0.059-0.196 0.325-0.196h0.593c0.211 0 0.27 0.055 0.27 0.266v8.09c0 0.207-0.059 0.265-0.27 0.265h-0.617c-0.218 0-0.269-0.047-0.269-0.265v-6.071z" fill="#706e73"/>
     </g>
     <g transform="translate(-260.98 318.65)">
      <path d="m301.62 81.488c0-1.457-0.035-1.894-0.035-2.09 0-0.152 0.058-0.195 0.324-0.195h0.598c0.207 0 0.265 0.055 0.265 0.266v5.043c0 0.207-0.058 0.265-0.265 0.265h-0.618c-0.222 0-0.269-0.047-0.269-0.265v-3.024zm0.578-4.734c0.203 0 0.711 0.492 0.711 0.687 0 0.219-0.516 0.704-0.726 0.704-0.204 0-0.711-0.485-0.711-0.692s0.507-0.699 0.726-0.699" fill="#706e73"/>
     </g>
     <g transform="translate(-260.98 318.65)">
      <path d="m307.24 82.488v-0.55c-1.461 0.195-2.058 0.324-2.058 1.218 0 0.461 0.297 0.965 0.836 0.965 0.425 0 0.91-0.297 1.117-0.746 0.094-0.195 0.105-0.527 0.105-0.887m-2.773-2.828c0-0.191 0.113-0.254 0.242-0.297 0.336-0.136 0.965-0.273 1.609-0.273 0.977 0 2.067 0.285 2.067 1.984v1.414c0 1.336 0.062 1.899 0.062 2.047 0 0.195-0.05 0.242-0.3 0.242-0.438 0-0.586-0.574-0.977-0.574-0.242 0-0.957 0.692-1.621 0.692-1.012 0-1.508-0.864-1.508-1.567 0-1.414 1.164-1.68 3.199-1.941 0.02-0.188 0.02-0.391 0.02-0.598 0-0.504-0.172-1.16-0.977-1.16-0.871 0-1.367 0.687-1.484 0.805l-0.192 0.136c-0.105 0-0.14-0.058-0.14-0.195v-0.715z" fill="#706e73"/>
     </g>
     <g transform="translate(-260.98 318.65)">
      <path d="m309.97 79.777h-0.668c-0.184 0-0.231-0.023-0.231-0.207v-0.047c0-0.16 0.059-0.183 0.207-0.214 0.61-0.129 0.84-0.602 1.188-1.293 0.054-0.102 0.078-0.286 0.297-0.286h0.152c0.133 0 0.203 0.059 0.203 0.184v1.289h1.172c0.176 0 0.23 0.035 0.23 0.207v0.16c0 0.184-0.046 0.207-0.23 0.207h-1.172v3.137c0 0.93 0.277 1.184 0.805 1.184 0.203 0 0.359-0.059 0.496-0.059s0.18 0.07 0.18 0.152c0 0.137-0.133 0.219-0.25 0.274-0.372 0.199-0.84 0.43-1.243 0.43-0.609 0-1.136-0.372-1.136-1.762v-3.356z" fill="#706e73"/>
     </g>
     <g transform="translate(-260.98 318.65)">
      <path d="m313.57 81.488c0-1.457-0.035-1.894-0.035-2.09 0-0.152 0.059-0.195 0.324-0.195h0.598c0.203 0 0.262 0.055 0.262 0.266v5.043c0 0.207-0.059 0.265-0.262 0.265h-0.625c-0.219 0-0.262-0.047-0.262-0.265v-3.024zm0.575-4.734c0.207 0 0.71 0.492 0.71 0.687 0 0.219-0.515 0.704-0.722 0.704s-0.711-0.485-0.711-0.692 0.504-0.699 0.723-0.699" fill="#706e73"/>
     </g>
     <g transform="translate(-260.98 318.65)">
      <path d="m320.22 82.352c0-0.883-0.231-2.715-1.703-2.715-1.149 0-1.403 1.164-1.403 2.07 0 0.887 0.211 2.609 1.68 2.609 1.148 0 1.426-1.171 1.426-1.964m-4.391-0.368c0-1.675 1.082-2.898 2.86-2.898 1.668 0 2.816 1.176 2.816 2.898 0 1.711-1.055 2.911-2.883 2.911-1.816 0-2.793-1.348-2.793-2.911" fill="#706e73"/>
     </g>
     <g transform="translate(-260.98 318.65)">
      <path d="m322.6 81.488c0-1.332-0.058-1.894-0.058-2.054 0-0.188 0.058-0.231 0.312-0.231 0.571 0 0.813 0.527 1.172 0.527 0.254 0 1-0.64 1.746-0.64 0.805 0 1.289 0.512 1.457 1.262 0.047 0.23 0.098 0.472 0.098 1.07v3.125c0 0.211-0.035 0.23-0.23 0.23h-0.704c-0.218 0-0.23-0.011-0.23-0.23v-3.012c0-0.449-0.023-0.781-0.094-1-0.101-0.355-0.355-0.668-0.836-0.668-0.449 0-1.175 0.313-1.371 0.77-0.09 0.195-0.113 0.601-0.113 0.957v2.953c0 0.211-0.012 0.23-0.23 0.23h-0.688c-0.219 0-0.23-0.011-0.23-0.23l-1e-3 -3.059z" fill="#706e73"/>
     </g>
     <g transform="translate(-260.98 318.65)">
      <path d="m264.02 91.336c-0.277 0.144-0.562 0.219-0.898 0.219-1.145 0-2.059-0.836-2.059-2.059 0-1.168 0.914-2.058 2.071-2.058 0.16 0 0.328 0.019 0.488 0.054 0.23 0.055 0.34 0.106 0.598 0.254l-0.227 0.406-0.144-0.078c-0.247-0.121-0.45-0.164-0.711-0.164-0.399 0-0.797 0.164-1.094 0.449-0.293 0.278-0.43 0.641-0.43 1.137 0 0.434 0.102 0.742 0.34 1.027 0.289 0.352 0.738 0.563 1.195 0.563 0.141 0 0.254-0.016 0.383-0.055 0.153-0.039 0.278-0.101 0.477-0.222l0.222 0.41c-0.089 0.054-0.16 0.093-0.211 0.117" fill="#e36e1c"/>
     </g>
     <g transform="translate(-260.98 318.65)">
      <path d="m265.96 89.102c-0.57 0-0.957 0.414-0.957 1.023s0.394 1.043 0.957 1.043c0.578 0 0.953-0.414 0.953-1.031 0-0.629-0.371-1.035-0.953-1.035m8e-3 2.468c-0.82 0-1.43-0.601-1.43-1.449 0-0.82 0.606-1.43 1.41-1.43 0.829 0 1.454 0.618 1.454 1.434 0 0.824-0.637 1.445-1.434 1.445" fill="#e36e1c"/>
     </g>
     <g transform="translate(-260.98 318.65)">
      <path d="m271.28 91.492v-1.668c0-0.465-0.199-0.711-0.601-0.711-0.227 0-0.422 0.094-0.551 0.258-0.09 0.121-0.113 0.223-0.113 0.465v1.656h-0.465v-1.648c0-0.469-0.211-0.723-0.598-0.723-0.219 0-0.437 0.102-0.551 0.274-0.09 0.125-0.121 0.253-0.121 0.507v1.59h-0.461v-2.715h0.434v0.442c0.207-0.305 0.5-0.516 0.879-0.516 0.32 0 0.566 0.145 0.742 0.449 0.269-0.308 0.523-0.449 0.937-0.449 0.301 0 0.528 0.102 0.692 0.293 0.16 0.188 0.238 0.453 0.238 0.828v1.668h-0.461z" fill="#e36e1c"/>
     </g>
     <g transform="translate(-260.98 318.65)">
      <path d="m275.9 91.492v-1.668c0-0.465-0.199-0.711-0.601-0.711-0.231 0-0.422 0.094-0.551 0.258-0.09 0.121-0.113 0.223-0.113 0.465v1.656h-0.465v-1.648c0-0.469-0.215-0.723-0.598-0.723-0.219 0-0.437 0.102-0.551 0.274-0.093 0.125-0.121 0.253-0.121 0.507v1.59h-0.461v-2.715h0.434v0.442c0.207-0.305 0.5-0.516 0.879-0.516 0.32 0 0.57 0.145 0.742 0.449 0.266-0.308 0.524-0.449 0.942-0.449 0.296 0 0.523 0.102 0.687 0.293 0.156 0.188 0.238 0.453 0.238 0.828v1.668h-0.461z" fill="#e36e1c"/>
     </g>
     <g transform="translate(-260.98 318.65)">
      <path d="m277 88.777h0.457v2.715h-0.457v-2.715zm0.238-0.625c-0.183 0-0.328-0.136-0.328-0.312s0.145-0.324 0.328-0.324c0.172 0 0.313 0.148 0.313 0.328 0 0.172-0.145 0.308-0.313 0.308" fill="#e36e1c"/>
     </g>
     <g transform="translate(-260.98 318.65)">
      <path d="m278.86 91.555c-0.343 0-0.617-0.168-0.847-0.414l0.304-0.289c0.18 0.207 0.356 0.304 0.582 0.304 0.27 0 0.465-0.164 0.465-0.39 0-0.219-0.199-0.348-0.402-0.446l-0.199-0.093c-0.336-0.149-0.61-0.325-0.61-0.75 0-0.454 0.371-0.793 0.871-0.793 0.317 0 0.575 0.16 0.782 0.39l-0.285 0.289c-0.18-0.195-0.321-0.269-0.508-0.269-0.235 0-0.41 0.16-0.41 0.363 0 0.168 0.125 0.293 0.398 0.414l0.293 0.133c0.324 0.148 0.527 0.422 0.527 0.738 0 0.465-0.41 0.813-0.961 0.813" fill="#e36e1c"/>
     </g>
     <g transform="translate(-260.98 318.65)">
      <path d="m281.01 91.555c-0.344 0-0.614-0.168-0.844-0.414l0.301-0.289c0.183 0.207 0.359 0.304 0.582 0.304 0.269 0 0.465-0.164 0.465-0.39 0-0.219-0.2-0.348-0.399-0.446l-0.199-0.093c-0.336-0.149-0.609-0.325-0.609-0.75 0-0.454 0.363-0.793 0.867-0.793 0.316 0 0.574 0.16 0.781 0.39l-0.285 0.289c-0.18-0.195-0.317-0.269-0.508-0.269-0.234 0-0.41 0.16-0.41 0.363 0 0.168 0.125 0.293 0.398 0.414l0.297 0.133c0.321 0.148 0.528 0.422 0.528 0.738 0 0.465-0.411 0.813-0.965 0.813" fill="#e36e1c"/>
     </g>
     <g transform="translate(-260.98 318.65)">
      <path d="m282.58 88.777h0.457v2.715h-0.457v-2.715zm0.234-0.625c-0.179 0-0.328-0.136-0.328-0.312s0.149-0.324 0.328-0.324c0.176 0 0.317 0.148 0.317 0.328 0 0.172-0.145 0.308-0.317 0.308" fill="#e36e1c"/>
     </g>
     <g transform="translate(-260.98 318.65)">
      <path d="m284.98 89.102c-0.571 0-0.957 0.414-0.957 1.023s0.394 1.043 0.957 1.043c0.574 0 0.957-0.414 0.957-1.031 0-0.629-0.375-1.035-0.957-1.035m8e-3 2.468c-0.821 0-1.43-0.601-1.43-1.449 0-0.82 0.605-1.43 1.41-1.43 0.828 0 1.453 0.618 1.453 1.434 0 0.824-0.637 1.445-1.433 1.445" fill="#e36e1c"/>
     </g>
     <g transform="translate(-260.98 318.65)">
      <path d="m288.68 91.492v-1.488c0-0.32-0.031-0.484-0.11-0.629-0.093-0.168-0.281-0.266-0.519-0.266-0.215 0-0.492 0.098-0.633 0.27-0.113 0.148-0.144 0.285-0.144 0.609v1.504l-0.438 0.02-0.023-2.735h0.441v0.446c0.258-0.36 0.547-0.532 0.941-0.532 0.282 0 0.52 0.102 0.692 0.305 0.195 0.215 0.258 0.426 0.258 0.984v1.512h-0.465z" fill="#e36e1c"/>
     </g>
     <g transform="translate(-260.98 318.65)">
      <path d="m292.65 89.102c-0.57 0-0.957 0.414-0.957 1.023s0.395 1.043 0.957 1.043c0.575 0 0.957-0.414 0.957-1.031 0-0.629-0.375-1.035-0.957-1.035m8e-3 2.468c-0.816 0-1.429-0.601-1.429-1.449 0-0.82 0.605-1.43 1.41-1.43 0.828 0 1.453 0.618 1.453 1.434 0 0.824-0.637 1.445-1.434 1.445" fill="#e36e1c"/>
     </g>
     <g transform="translate(-260.98 318.65)">
      <path d="m295.59 87.684c-0.305 0-0.422 0.136-0.422 0.5v0.621h0.633v0.371h-0.633v2.316h-0.465v-2.316h-0.398v-0.371h0.398v-0.492c0-0.407 0.059-0.614 0.207-0.782 0.141-0.172 0.391-0.285 0.672-0.285 0.078 0 0.125 0.012 0.242 0.031v0.434c-0.109-0.024-0.168-0.027-0.234-0.027" fill="#e36e1c"/>
     </g>
     <g transform="translate(-260.98 318.65)">
      <path d="m300.75 91.336c-0.281 0.144-0.566 0.219-0.902 0.219-1.145 0-2.059-0.836-2.059-2.059 0-1.168 0.914-2.058 2.07-2.058 0.161 0 0.333 0.019 0.489 0.054 0.23 0.055 0.336 0.106 0.601 0.254l-0.23 0.406-0.145-0.078c-0.246-0.121-0.449-0.164-0.707-0.164-0.402 0-0.8 0.164-1.097 0.449-0.293 0.278-0.43 0.641-0.43 1.137 0 0.434 0.102 0.742 0.34 1.027 0.289 0.352 0.738 0.563 1.195 0.563 0.141 0 0.254-0.016 0.383-0.055 0.152-0.039 0.277-0.101 0.476-0.222l0.227 0.41c-0.094 0.054-0.164 0.093-0.211 0.117" fill="#e36e1c"/>
     </g>
     <g transform="translate(-260.98 318.65)">
      <path d="m303.25 89.344c-0.149-0.153-0.375-0.242-0.617-0.242-0.543 0-0.914 0.425-0.914 1.043 0 0.585 0.386 1.007 0.925 1.007 0.266 0 0.485-0.093 0.645-0.277 0.16-0.187 0.223-0.398 0.223-0.73 0-0.305-0.035-0.579-0.262-0.801m0.246 2.148v-0.488c-0.168 0.34-0.535 0.543-0.977 0.543-0.738 0-1.265-0.598-1.265-1.434 0-0.824 0.543-1.402 1.312-1.402 0.262 0 0.493 0.066 0.664 0.203 0.106 0.082 0.172 0.164 0.258 0.328v-0.465h0.434v2.715h-0.426z" fill="#e36e1c"/>
     </g>
     <g transform="translate(-260.98 318.65)">
      <path d="m306.52 91.492v-1.488c0-0.32-0.032-0.484-0.106-0.629-0.094-0.168-0.281-0.266-0.515-0.266-0.219 0-0.497 0.098-0.637 0.27-0.113 0.148-0.145 0.285-0.145 0.609v1.504h-0.461v-2.715h0.442v0.446c0.254-0.36 0.547-0.532 0.937-0.532 0.285 0 0.524 0.102 0.696 0.305 0.195 0.215 0.253 0.426 0.253 0.984v1.512h-0.464z" fill="#e36e1c"/>
     </g>
     <g transform="translate(-260.98 318.65)">
      <path d="m309.49 89.344c-0.152-0.153-0.375-0.242-0.617-0.242-0.543 0-0.914 0.425-0.914 1.043 0 0.585 0.387 1.007 0.926 1.007 0.265 0 0.484-0.093 0.644-0.277 0.16-0.187 0.223-0.398 0.223-0.73 0-0.305-0.035-0.579-0.262-0.801m0.242 2.148v-0.488c-0.164 0.34-0.531 0.543-0.972 0.543-0.739 0-1.266-0.598-1.266-1.434 0-0.824 0.543-1.402 1.313-1.402 0.261 0 0.488 0.066 0.664 0.203 0.105 0.082 0.172 0.164 0.254 0.328v-0.465h0.437v2.715h-0.43z" fill="#e36e1c"/>
     </g>
     <g transform="translate(-260.98 318.65)">
      <path d="m312.75 89.43c-0.149-0.2-0.414-0.321-0.703-0.321-0.606 0-0.899 0.446-0.899 1.004 0 0.621 0.375 1.039 0.914 1.039 0.239 0 0.465-0.093 0.614-0.254 0.168-0.171 0.254-0.402 0.254-0.753 0-0.317-0.067-0.551-0.18-0.715m0.168 2.062v-0.496c-0.09 0.145-0.168 0.242-0.274 0.328-0.187 0.149-0.418 0.223-0.703 0.223-0.742 0-1.269-0.606-1.269-1.43 0-0.808 0.558-1.406 1.308-1.406 0.231 0 0.442 0.055 0.618 0.16 0.14 0.094 0.199 0.164 0.285 0.317v-1.954h0.468v4.258h-0.433z" fill="#e36e1c"/>
     </g>
     <g transform="translate(-260.98 318.65)">
      <path d="m315.86 89.344c-0.152-0.153-0.375-0.242-0.617-0.242-0.547 0-0.914 0.425-0.914 1.043 0 0.585 0.387 1.007 0.926 1.007 0.265 0 0.484-0.093 0.64-0.277 0.164-0.187 0.223-0.398 0.223-0.73 0-0.305-0.035-0.579-0.258-0.801m0.242 2.148v-0.488c-0.164 0.34-0.531 0.543-0.972 0.543-0.742 0-1.266-0.598-1.266-1.434 0-0.824 0.547-1.402 1.313-1.402 0.261 0 0.492 0.066 0.664 0.203 0.105 0.082 0.168 0.164 0.254 0.328v-0.465h0.437v2.715h-0.43z" fill="#e36e1c"/>
     </g>
    </g>
   </g>
  </g>
 </g>
 <path class="title-box" d="m50 1620h1300v430h-1300z"/>
 <text class="title-xsmall" x="700" y="1775">HONOURING THE TRUTH,</text>
 <text class="title-xsmall" x="700" y="1845">RECONCILING FOR THE FUTURE</text>
 <text class="author" x="700" y="1945">TRUTH AND RECONCILIATION</text>
 <text class="author" x="700" y="2005">COMMISSION OF CANADA</text>
 <metadata>
  <rdf:RDF>
   <cc:Work rdf:about="">
    <dc:title>The cover for the Standard Ebooks edition of Honouring the Truth, Reconciling for the Future, by Truth and Reconciliation Commission of Canada</dc:title>
   </cc:Work>
  </rdf:RDF>
 </metadata>
</svg>
